<svg width="226" height="212" viewBox="0 0 226 212" fill="none" xmlns="http://www.w3.org/2000/svg">
<g filter="url(#filter0_d_113_1245)">
<path d="M46.0486 110.205C45.6786 115.127 52.4471 134.883 56.6806 135.99C56.6806 135.99 114.107 142.751 118.015 141.789C121.923 140.83 152.576 92.0859 154.001 88.7149C155.425 85.3439 158.841 77.8301 158.841 77.8301L154.001 70.4207C154.001 70.4207 88.584 65.6365 83.6473 69.0821C78.7106 72.5276 46.1522 108.855 46.0486 110.205Z" fill="url(#paint0_linear_113_1245)"/>
<path d="M57.0655 116.216H51.9401C51.9401 116.216 56.688 129.625 59.1563 130.926C61.6247 132.224 113.463 136.893 115.743 135.994C118.023 135.095 155.81 75.783 155.618 73.8663C155.429 71.9533 152.243 72.6544 152.243 72.6544C152.243 72.6544 90.8673 66.6806 83.651 72.6656C76.4347 78.6505 57.0655 116.216 57.0655 116.216Z" fill="url(#paint1_linear_113_1245)"/>
<path d="M152.239 72.6542C152.239 72.6542 149.915 56.2768 149.156 52.0593C148.398 47.8419 99.216 42.4834 91.6223 48.4162C84.0285 54.3489 54.797 105.924 55.3558 110.205C55.9146 114.485 58.7752 126.675 62.0022 128.394C65.2292 130.117 112.894 134.648 114.03 134.103C115.166 133.559 152.239 72.6505 152.239 72.6505V72.6542Z" fill="#E6B4BE"/>
<g style="mix-blend-mode:multiply" opacity="0.5">
<path d="M147.647 70.54C134.276 86.1083 113.027 125.202 113.027 125.202C113.027 125.202 157.457 59.1183 147.647 70.54Z" fill="#BE5286"/>
</g>
<path d="M113.016 131.713C112.279 128.831 109.633 118.535 103.794 118.49C97.9541 118.446 56.9323 112.71 56.936 115.213C56.9397 117.715 59.767 128.137 63.2235 128.778C66.6799 129.42 113.9 135.177 113.016 131.713Z" fill="#C45E83"/>
<g style="mix-blend-mode:multiply" opacity="0.7">
<path d="M57.6243 118.043C59.2008 122.38 79.0992 128.014 86.7522 127.503C94.4051 126.992 112.76 122.402 106.558 121.571C100.356 120.743 56.4105 114.706 57.6206 118.043H57.6243Z" fill="#BE5286"/>
</g>
<path d="M147.746 44.5345C148.882 46.8389 150.3 48.4312 149.16 52.0595C148.02 55.6877 139.857 74.4107 116.309 110.205C116.309 110.205 111.761 120.318 107.383 120.847C103.005 121.377 55.3558 116.216 55.3558 116.216L54.66 111.816C54.66 111.816 89.1169 46.4959 93.3023 46.8874C97.4877 47.279 146.762 42.5395 147.746 44.5345Z" fill="url(#paint2_linear_113_1245)"/>
<path d="M147.746 44.5344C147.228 46.4287 145.681 49.9003 143.48 54.3303C142.954 55.3856 142.392 56.4968 141.796 57.6528C141.522 58.1897 141.237 58.7379 140.948 59.2935C129.991 80.321 109.841 114.321 108.209 115.768C107.291 116.585 99.3418 116.167 89.9791 115.414C88.5988 115.302 87.1851 115.183 85.7604 115.063C81.9561 114.735 78.0593 114.374 74.4141 114.034C73.9442 113.99 73.4779 113.945 73.0116 113.904C71.1317 113.728 69.3331 113.564 67.6678 113.412C66.3134 113.288 65.0441 113.177 63.8895 113.083C61.3397 112.871 59.3488 112.733 58.2016 112.71C58.2016 112.71 56.4363 112.084 54.9783 111.208C54.4639 110.902 53.9902 110.563 53.6423 110.212C52.3138 108.859 85.1572 46.7344 91.241 44.5418C92.8545 43.9601 97.6432 43.5052 103.79 43.1994C103.79 43.1994 103.945 44.8662 105.918 43.397L106.044 43.2143C106.033 43.2367 106.003 43.2889 105.959 43.3672C106.07 43.2814 106.184 43.192 106.303 43.0875C109.711 42.9496 113.426 42.8489 117.19 42.8004C117.22 42.8862 117.978 45.0937 120.125 44.9744C120.998 44.9259 121.653 44.553 122.123 44.1205C122.63 43.397 122.959 42.9309 123.081 42.7557H123.104C136.145 42.7407 148.079 43.2926 147.739 44.5456L147.746 44.5344Z" fill="url(#paint3_linear_113_1245)"/>
<g style="mix-blend-mode:multiply" opacity="0.6">
<path d="M106.047 43.2069C106.036 43.2293 106.007 43.2815 105.962 43.3598C105.748 43.7438 105.167 44.7842 104.293 46.3429C101.895 50.6312 97.3175 58.8386 92.1847 68.0789C89.2352 73.3889 86.1082 79.0382 83.1032 84.4825C74.8841 99.3907 67.6234 112.766 67.6641 113.404C67.6752 113.542 67.69 113.691 67.7159 113.848C67.9231 115.119 68.6115 116.865 68.8113 117.349C68.8483 117.435 68.8668 117.48 68.8668 117.48H67.3828C67.368 117.457 67.2792 117.342 67.1386 117.159C66.5095 116.339 64.8331 114.157 64.0856 113.3C64.0041 113.206 63.9375 113.132 63.882 113.072C63.7895 112.975 64.0337 112.375 64.5518 111.357C64.5518 111.357 64.5518 111.357 64.5518 111.353C64.5777 111.301 64.6074 111.245 64.6407 111.185C65.5029 109.522 67.0387 106.849 69.0148 103.496C69.0592 103.425 69.1036 103.347 69.1444 103.276C76.1756 91.3847 88.632 71.2112 96.5958 57.2277C96.5958 57.2202 96.5958 57.2202 96.5958 57.2202C99.0531 52.9021 101.081 49.1769 102.391 46.466C103.053 45.0937 103.527 43.9825 103.783 43.1882C103.783 43.1882 103.938 44.8551 105.91 43.3859L106.036 43.2031L106.047 43.2069Z" fill="#B10053"/>
</g>
<g style="mix-blend-mode:multiply" opacity="0.6">
<path d="M117.405 42.7893C117.334 42.7893 117.268 42.7893 117.197 42.793L117.405 42.7893Z" fill="#B10053"/>
</g>
<g style="mix-blend-mode:multiply" opacity="0.6">
<path d="M122.13 44.1093C121.923 44.4076 121.679 44.7469 121.412 45.1273C119.888 47.2938 117.449 50.7654 114.463 55.0276L114.455 55.0351L114.437 55.0649C106.318 66.6544 94.1757 84.0611 85.394 96.9819C79.151 106.162 74.6066 113.076 74.4104 114.031C74.403 114.064 74.3993 114.09 74.403 114.109C74.4104 114.146 74.4178 114.18 74.4252 114.217C74.7287 115.653 75.269 117.457 75.4614 118.084C75.5058 118.233 75.5317 118.315 75.5317 118.315L73.0079 118.062C73.0079 118.062 72.9931 117.972 72.9709 117.815C72.8821 117.223 72.6896 115.686 72.8414 114.586C72.8747 114.329 72.9302 114.098 73.0079 113.904C73.2743 113.247 84.1987 98.0148 95.2007 81.298C95.2229 81.2644 95.2451 81.2308 95.2636 81.1973C96.2517 79.6945 97.2435 78.1843 98.2205 76.6666C98.2353 76.648 98.2464 76.6293 98.2575 76.6107C102.935 69.3877 107.446 62.1163 110.966 55.8256C110.966 55.8256 110.966 55.8256 110.969 55.8181C110.98 55.7995 110.991 55.7808 111.003 55.7622C113.167 51.8878 114.951 48.3864 116.165 45.5002C116.576 44.5232 116.92 43.6208 117.19 42.793C117.22 42.8787 117.978 45.0863 120.125 44.9669C120.998 44.9185 121.653 44.5456 122.123 44.113L122.13 44.1093Z" fill="#B10053"/>
</g>
<g style="mix-blend-mode:multiply" opacity="0.6">
<path d="M90.7452 119.773L89.9754 115.414C89.9754 115.414 129.247 64.4283 140.945 59.2935L141.977 67.486L144.897 61.7621L143.48 54.3303C143.48 54.3303 129.447 64.0442 114.966 80.3396C100.485 96.6351 85.7604 115.06 85.7604 115.06L86.7559 119.404L90.7452 119.773Z" fill="#B10053"/>
</g>
<g style="mix-blend-mode:multiply" opacity="0.5">
<path d="M55.9257 113.042C56.1181 114.873 57.3504 115.802 59.4376 116.216C61.5248 116.63 86.2155 119.255 91.4816 119.773C96.7476 120.291 106.373 120.679 107.383 120.105C108.397 119.531 108.586 117.17 107.383 117.044C106.181 116.917 90.6341 116.216 90.116 116.216C89.5979 116.216 87.2739 116.014 86.2415 115.515C86.2415 115.515 76.2423 113.986 74.1514 114.239C74.1514 114.239 73.1596 115.313 72.8414 114.582C72.8414 114.582 70.3027 113.274 67.7197 113.852C67.7197 113.852 66.9129 113.49 65.4845 113.475C65.2291 113.475 55.8294 112.133 55.9257 113.042Z" fill="#B10053"/>
</g>
<g style="mix-blend-mode:multiply" opacity="0.5">
<path d="M64.5593 111.364C68.26 104.268 96.607 57.2278 96.607 57.2278C96.607 57.2278 93.6983 66.9789 84.9611 81.5181C79.943 89.8709 64.5593 111.364 64.5593 111.364Z" fill="#B10053"/>
</g>
<g style="mix-blend-mode:multiply" opacity="0.5">
<path d="M86.7521 113.818C92.3808 112.319 119.092 79.5417 121.623 76.2229C124.155 72.9079 125.117 69.7905 125.117 69.7905C125.117 69.7905 115.721 78.96 104.33 92.5892C92.9396 106.222 86.7521 113.818 86.7521 113.818Z" fill="#B10053"/>
</g>
<g style="mix-blend-mode:multiply" opacity="0.5">
<path d="M114.463 55.0276C114.463 55.0276 105.644 65.4276 98.2649 76.6069C90.8858 87.7863 85.2904 97.131 85.2904 97.131L114.463 55.0276Z" fill="#B10053"/>
</g>
<g style="mix-blend-mode:multiply" opacity="0.8">
<path d="M117.405 42.7893C117.334 42.7893 117.268 42.7893 117.197 42.793L117.405 42.7893Z" fill="#BE0E55"/>
</g>
<g style="mix-blend-mode:multiply" opacity="0.8">
<path d="M120.132 44.9669L119.906 45.2354L110.973 55.8255C110.973 55.8255 110.973 55.8255 110.977 55.8181C110.984 55.8069 110.995 55.7882 111.01 55.7621C111.395 55.0909 114.659 49.3558 116.298 45.4927C116.768 44.3814 117.105 43.4268 117.197 42.7966C117.227 42.8824 117.986 45.0899 120.132 44.9706V44.9669Z" fill="#BE0E55"/>
</g>
<g style="mix-blend-mode:multiply" opacity="0.8">
<path d="M105.918 43.3896L103.879 46.369L97.9651 55.0201C98.0724 54.8374 100.722 50.3254 102.495 46.4622C103.046 45.2578 103.512 44.113 103.79 43.1882C103.79 43.1882 103.945 44.8551 105.918 43.3859V43.3896Z" fill="#BE0E55"/>
</g>
<g style="mix-blend-mode:multiply" opacity="0.8">
<path d="M144.893 61.762L143.524 64.555C143.524 64.555 142.973 58.0853 141.792 57.6527C140.612 57.2201 132.563 63 132.563 63C132.563 63 142.921 54.2445 143.476 54.3302C144.031 54.4123 144.893 61.762 144.893 61.762Z" fill="#BE0E55"/>
</g>
<g style="mix-blend-mode:multiply" opacity="0.6">
<path d="M130.816 42.7593C129.195 47.5585 121.057 59.8975 122.885 62.959C124.713 66.0204 146.91 47.3758 146.91 47.3758L147.746 44.5343C147.746 44.5343 129.154 63.302 125.776 59.7335C122.397 56.1649 133.754 42.8004 133.754 42.8004L130.816 42.7556V42.7593Z" fill="#B10053"/>
</g>
<g style="mix-blend-mode:multiply" opacity="0.8">
<path d="M128.499 48.819C133.181 42.5917 120.661 58.5366 126.297 62.2096C126.297 62.2096 124.432 63.9137 122.885 62.9554C121.353 62.0045 125.391 52.9506 128.499 48.8153V48.819Z" fill="#BE0E55"/>
</g>
<path d="M86.1157 42.4873C84.9907 46.6338 86.1157 50.3329 69.4072 75.9731C52.695 101.61 44.9125 105.245 44.5314 107.923C44.1502 110.6 47.4401 125.176 55.3558 135.99C55.3558 135.99 60.533 137.653 62.2723 137.37C62.5721 137.322 63.3307 136.762 63.3307 136.762C63.3307 136.762 56.8731 135.8 55.5445 134.107C54.216 132.418 46.0487 119.024 47.1885 111.942L58.2016 112.707C58.2016 112.707 71.1132 93.391 80.0392 78.7474C88.9652 64.1076 99.4084 43.55 99.4084 43.55V41.1448C99.4084 41.1448 87.0149 39.1722 86.1157 42.4835V42.4873Z" fill="url(#paint4_linear_113_1245)"/>
<path d="M128.929 42.3566L127.881 46.451L128.274 47.3907C128.274 47.3907 133.654 48.032 135.553 51.8579C137.451 55.6838 136.374 58.3015 136.374 58.3015L137.577 60.7887H140.519L141.677 67.8327L140.749 69.7904L142.551 68.9514C142.551 68.9514 150.955 53.2227 151.436 51.6678C152.221 49.1246 150.796 40.921 149.726 40.5593C146.485 39.4667 138.728 39.9291 128.925 42.3529L128.929 42.3566Z" fill="url(#paint5_linear_113_1245)"/>
<path d="M151.436 67.7433C151.436 67.7433 158.464 67.169 158.841 67.7433C159.222 68.3175 160.928 76.551 161.498 78.7474C161.498 78.7474 152.239 95.6767 151.591 96.1242C151.14 96.4374 149.378 96.5903 149.378 96.5903L150.973 93.9763C150.973 93.9763 149.575 85.4408 149.212 85.1872C148.735 84.8516 144.89 84.695 144.89 84.695V83.278C144.89 83.278 151.521 73.9296 152.235 72.6543L151.432 67.7433H151.436Z" fill="url(#paint6_linear_113_1245)"/>
<path d="M96.3073 131.075C95.1675 131.799 92.9508 134.976 93.332 135.99C93.7131 137.005 95.4043 141.408 95.4043 141.408C95.4043 141.408 116.306 144.28 118.585 143.896C120.865 143.511 129.029 130.926 129.029 130.926C129.029 130.926 127.511 122.849 126.56 122.659C125.609 122.469 121.624 122.574 120.672 122.574C119.721 122.574 115.103 131.389 113.012 131.717C110.925 132.041 96.3036 131.079 96.3036 131.079L96.3073 131.075Z" fill="url(#paint7_linear_113_1245)"/>
<path d="M83.6473 113.863C83.6473 116.477 85.864 120.884 86.8114 120.884C87.7588 120.884 109.282 122.081 110.229 121.317C111.18 120.552 120.672 106.968 120.672 106.01C120.672 105.051 119.488 99.9837 117.967 99.3945C116.45 98.8053 112.69 99.3609 111.584 99.9501C110.155 100.711 107.317 104.697 100.674 107.378C94.0277 110.056 89.1502 109.809 88.2028 110.205C87.2555 110.6 83.6473 113.863 83.6473 113.863Z" fill="url(#paint8_linear_113_1245)"/>
<g style="mix-blend-mode:multiply" opacity="0.7">
<path d="M151.436 83.4869C149.689 82.2079 145.186 82.9313 144.893 83.2781C144.601 83.6249 144.716 84.9859 144.716 84.9859L143.528 86.9287C143.528 86.9287 147.51 87.7528 147.732 88.0809C147.954 88.4091 148.735 97.6382 148.735 97.6382L149.378 96.5941C149.378 96.5941 151.244 96.5941 151.591 96.128C151.943 95.6619 152.28 90.6278 152.235 88.0847C152.191 85.5415 152.254 84.0947 151.432 83.4906L151.436 83.4869Z" fill="#BE5286"/>
</g>
<path d="M141.866 78.0203C141.866 78.0203 143.313 78.2329 144.253 80.5523C146.677 86.5372 145.837 89.938 144.505 92.8093L143.08 91.8062C143.08 91.8062 143.461 86.7237 142.984 84.2961C142.506 81.8686 141.466 79.4783 141.466 79.4783L141.866 78.0166V78.0203Z" fill="url(#paint9_linear_113_1245)"/>
<g style="mix-blend-mode:multiply" opacity="0.7">
<path d="M144.412 90.7993C145.012 87.0517 144.797 85.6944 144.486 83.9455C144.138 81.9953 142.862 79.0979 141.911 78.9674C141.315 78.8891 142.876 82.2451 143.35 84.9822C143.72 87.1039 142.958 89.2667 143.398 89.6396C143.839 90.0125 144.408 90.7956 144.408 90.7956L144.412 90.7993Z" fill="#BE5286"/>
</g>
<path d="M119.348 84.6429L120.106 88.1853C120.106 88.1853 124.284 87.6484 124.917 88.1853C125.55 88.7223 126.035 94.8601 126.035 94.8601L123.714 98.8314C123.714 98.8314 124.41 102.37 124.917 102.628C125.424 102.881 129.602 102.754 130.361 102.628C131.119 102.501 142.007 83.0469 142.514 81.8685C143.021 80.6902 138.591 66.4009 137.451 65.5097C136.311 64.6185 131.415 65.3829 130.953 66.2741C130.49 67.1653 118.989 82.9611 119.351 84.6429H119.348Z" fill="url(#paint10_linear_113_1245)"/>
<path d="M130.945 125.169C130.945 125.169 135.549 125.337 136.311 124.062C137.07 122.786 147.325 108.501 147.706 106.457C148.087 104.417 144.73 88.7895 143.972 88.5359C143.213 88.2824 142.207 87.6969 140.941 88.4614C139.675 89.2258 126.275 109.824 125.809 110.891C125.554 111.476 126.408 114.903 126.408 114.903L131.375 113.986C131.375 113.986 132.825 121.723 132.7 122.574L130.949 125.169H130.945Z" fill="url(#paint11_linear_113_1245)"/>
<path d="M131.371 113.982C131.371 113.982 130.642 110.839 130.12 110.842C128.677 110.842 127.178 110.745 127.178 111.271C127.178 111.797 128.1 114.582 128.1 114.582L131.375 113.982H131.371Z" fill="#5E0F28"/>
<path d="M126.035 94.8638C126.035 94.8638 127.371 99.5175 127.393 100.084C127.415 100.651 125.098 100.424 124.947 99.7897C124.795 99.1558 124.425 97.5896 124.425 97.5896L126.031 94.8638H126.035Z" fill="#5E0F28"/>
<path d="M118.8 61.5569C118.833 62.12 116.128 67.9595 115.721 68.3025C115.096 68.8283 111.695 69.1714 111.695 69.1714L110.699 70.9724C110.699 70.9724 115.41 74.2353 115.617 76.2899C115.939 79.467 114.651 83.3227 112.364 86.9174C112.361 86.9211 112.357 86.9248 112.357 86.9286C110.884 89.2405 108.997 91.4406 106.854 93.2789C97.436 101.367 84.9574 103.638 83.9804 102.948C83.0034 102.258 81.2345 97.1794 81.7156 91.3101C82.008 87.7862 82.4928 83.0728 86.001 76.6143C88.8061 71.4572 94.9788 70.0663 98.0355 68.8992C98.8016 68.6046 99.3752 68.3286 99.649 68.0042C101.007 66.4045 103.99 55.2214 108.338 54.5614C112.683 53.8977 118.611 56.5116 119.04 57.1493C119.803 58.2829 118.774 60.9938 118.807 61.5606L118.8 61.5569Z" fill="#5E0F28"/>
<g style="mix-blend-mode:multiply" opacity="0.5">
<path d="M118.8 61.557C118.833 62.12 116.128 67.9595 115.721 68.3026C115.095 68.8284 111.695 69.1714 111.695 69.1714L110.699 70.9725C110.699 70.9725 115.41 74.2353 115.617 76.29C115.939 79.467 114.651 83.3228 112.364 86.9174C112.361 86.9212 112.357 86.9249 112.357 86.9286C112.683 86.3991 103.116 100.513 96.248 97.0639C92.8582 95.3598 101.037 70.6332 98.0355 68.8955C98.8015 68.6009 99.3751 68.325 99.649 68.0006C101.007 66.4008 103.99 55.2178 108.338 54.5577C112.683 53.894 118.611 56.508 119.04 57.1456C119.803 58.2792 118.774 60.9902 118.807 61.557H118.8Z" fill="#391D77"/>
</g>
<path d="M118.981 58.1301C118.966 58.3837 116.846 61.5197 116.739 61.3855C110.973 54.3266 102.776 57.7087 102.772 57.1941C102.765 55.6131 103.301 53.7822 103.301 53.7822C104.038 53.3086 104.745 52.917 105.426 52.5964C105.922 53.5361 108.168 53.9052 108.568 53.234C108.967 52.5628 109.052 51.474 109.052 51.474C116.08 50.5305 118.996 57.9287 118.985 58.1338L118.981 58.1301Z" fill="url(#paint12_linear_113_1245)"/>
<path d="M105.126 56.0419C104.73 56.6571 108.294 57.9958 108.016 56.0419C107.739 54.0879 105.725 55.1096 105.126 56.0419Z" fill="url(#paint13_linear_113_1245)"/>
<path d="M100.737 66.8669L100.389 67.4822C100.389 67.4822 92.2513 64.9391 85.8566 69.6413C78.1111 75.3354 77.915 91.0379 84.2283 100.532C84.9314 101.591 93.3023 101.997 103.468 94.6624C114.759 86.5184 113.889 76.2489 112.712 74.6567C111.535 73.0644 108.845 71.2223 108.845 71.2223C108.845 71.2223 109.293 70.0216 109.885 69.3019C110.207 68.9104 112.753 68.9104 113.723 68.325C114.692 67.7395 117.138 63.0783 117.164 62.5675C117.19 62.0566 115.247 56.6198 107.613 56.2134C103.176 55.9785 101.462 57.47 101.181 57.9883C100.9 58.5067 98.8829 63.7645 98.82 64.2716C98.7608 64.7787 99.623 65.8489 99.623 65.8489L100.741 66.8707L100.737 66.8669Z" fill="url(#paint14_linear_113_1245)"/>
<path opacity="0.5" d="M103.161 64.447L100.741 68.478C100.741 68.478 95.3598 66.718 88.7135 69.7906C82.0671 72.8632 80.7681 85.0569 81.2418 88.92C81.7155 92.7832 84.4318 98.798 85.3533 99.6668C86.2747 100.536 100.285 97.6196 106.81 90.0387C113.334 82.4541 112.224 77.998 112.068 75.8688C111.913 73.7395 107.442 71.5469 107.442 71.5469L110.429 67.1281C110.429 67.1281 107.99 63.3731 103.161 64.447Z" fill="url(#paint15_radial_113_1245)"/>
<path d="M108.434 74.2391C106.214 73.0458 98.4573 74.4181 93.6798 76.8568C87.2258 80.1532 81.4306 85.9852 81.3122 87.9541C81.1309 90.9149 83.6325 98.6674 85.3533 99.6667C86.4228 100.286 93.5503 99.3833 100.474 95.0801C109.052 89.7515 112.505 81.119 112.227 78.7548C111.898 75.9619 110.61 75.4025 108.438 74.2354L108.434 74.2391Z" fill="url(#paint16_linear_113_1245)"/>
<path d="M81.9265 89.9788C86.1749 94.1702 103.871 92.5928 111.373 80.3395C113.116 77.4869 109.955 74.4478 106.31 73.7132C103.527 73.1539 98.6128 73.9668 92.6399 77.2855C86.6633 80.608 79.473 87.555 81.9302 89.9788H81.9265Z" fill="url(#paint17_linear_113_1245)"/>
<path opacity="0.45" d="M102.102 58.5702C100.837 60.0953 103.15 65.0772 107.653 66.2108C112.157 67.3444 116.346 62.4595 116.346 62.4595C116.346 62.4595 114.418 58.1413 109.748 57.7647C105.078 57.3881 102.78 57.7535 102.106 58.5702H102.102Z" fill="url(#paint18_linear_113_1245)"/>
<g style="mix-blend-mode:multiply" opacity="0.3">
<path d="M101.873 57.6155C100.515 58.0928 100.411 62.9852 101.37 63.8167C102.328 64.6446 109.026 65.3008 112.383 66.3822C115.739 67.4636 115.706 61.0871 114.788 60.2481C113.871 59.4054 108.138 55.4192 101.873 57.6155Z" fill="#9A376D"/>
</g>
<path d="M100.471 61.2178C99.797 62.3588 99.2863 64.4694 99.538 64.3426C99.7859 64.2158 101.307 63.9026 101.151 63.526C100.996 63.1494 101.151 60.0655 100.474 61.2178H100.471Z" fill="white"/>
<path d="M111.935 58.0816C113.19 59.6776 115.084 61.24 115.802 62.6533C116.52 64.0666 116.761 61.3258 115.321 59.7596C113.882 58.1935 110.984 56.8772 111.935 58.0853V58.0816Z" fill="white"/>
<path d="M114.788 65.2935C114.54 63.9436 111.276 65.7484 112.25 67.1281C113.223 68.5078 115.203 67.5532 114.788 65.2935Z" fill="white"/>
<g style="mix-blend-mode:soft-light">
<path d="M112.446 60.9604C108.001 61.7658 106.207 62.9218 107.635 63.5669C109.167 64.2567 110.662 66.3487 111.931 65.752C113.205 65.1554 114.437 60.5986 112.442 60.9604H112.446Z" fill="white"/>
</g>
<g style="mix-blend-mode:multiply" opacity="0.6">
<path d="M99.7119 64.8162C100.119 65.2823 103.838 65.2972 105.799 65.8715C107.761 66.4457 111.054 67.9746 112.509 68.478C113.737 68.9031 109.211 64.5514 106.495 63.567C102.595 62.1537 98.7275 63.6826 99.7119 64.8162Z" fill="#9A376D"/>
</g>
<g style="mix-blend-mode:multiply" opacity="0.3">
<path d="M101.758 65.7521C100.567 68.1535 100.337 68.4854 101.873 69.1081C103.409 69.7309 107.85 72.2181 108.027 71.8601C108.205 71.5021 110.248 68.7278 109.582 68.1535C108.915 67.5793 102.18 64.9056 101.758 65.7558V65.7521Z" fill="#9A376D"/>
</g>
<g style="mix-blend-mode:soft-light">
<path d="M92.9175 94.1254C88.288 95.8221 84.0803 99.8382 87.2111 99.8158C90.3455 99.7934 101.636 95.4492 101.755 93.1522C101.873 90.8552 96.0483 92.9769 92.9175 94.1254Z" fill="white"/>
</g>
<g style="mix-blend-mode:multiply" opacity="0.4">
<path d="M81.9265 87.8683C81.9265 93.8309 83.8805 98.2609 87.8883 98.9321C95.445 100.196 109.589 86.3693 104.408 88.2897C75.4504 99.029 103.927 76.4951 100.034 75.4062C96.1407 74.3174 81.9265 82.6553 81.9265 87.8646V87.8683Z" fill="#9A7AFF"/>
</g>
<g style="mix-blend-mode:soft-light">
<path d="M83.6473 90.9373C92.3809 95.2741 104.393 88.1257 105.255 86.8206C105.255 86.8206 97.3213 91.4855 91.1153 91.5936C84.913 91.7017 83.6473 90.9373 83.6473 90.9373Z" fill="white"/>
</g>
<path d="M92.0145 92.205C94.7826 93.0701 96.7699 90.7097 96.7699 90.7097C96.7699 90.7097 90.3048 91.6718 92.0145 92.205Z" fill="white"/>
<g style="mix-blend-mode:multiply" opacity="0.4">
<path d="M110.877 76.2527C112.15 77.7145 105.255 70.7488 95.5634 80.8281C82.0338 94.8974 80.2464 88.5433 86.4635 82.3533C92.6806 76.1632 105.829 70.4692 110.877 76.2565V76.2527Z" fill="#9A7AFF"/>
</g>
<g style="mix-blend-mode:multiply" opacity="0.61">
<path d="M84.3246 96.5567C84.4023 98.0035 86.1157 98.4025 86.2341 97.4367C86.3525 96.4709 84.2728 95.6506 84.3246 96.5567Z" fill="#3B46FF"/>
</g>
<g style="mix-blend-mode:multiply" opacity="0.61">
<path d="M89.794 93.3684C89.6571 94.2447 90.7784 94.1701 90.8635 93.2267C90.945 92.2833 89.9125 92.6189 89.794 93.3684Z" fill="#3B46FF"/>
</g>
<g style="mix-blend-mode:multiply" opacity="0.61">
<path d="M86.2414 94.4499C86.1822 95.0316 86.7114 94.7482 86.6707 94.3716C86.63 93.9987 86.2859 94.021 86.2414 94.4499Z" fill="#3B46FF"/>
</g>
<g style="mix-blend-mode:multiply" opacity="0.61">
<path d="M92.3143 95.1994C92.7066 95.7103 92.973 95.054 92.8287 94.4462C92.6843 93.8384 91.9812 94.7632 92.3143 95.1994Z" fill="#3B46FF"/>
</g>
<g style="mix-blend-mode:multiply" opacity="0.61">
<path d="M86.4561 91.0379C85.9639 91.8844 87.3405 92.4214 87.4034 91.5563C87.4663 90.6911 86.8076 90.4376 86.4561 91.0379Z" fill="#3B46FF"/>
</g>
<g style="mix-blend-mode:soft-light">
<path d="M84.343 74.0713C82.0486 76.5286 96.2555 88.4165 102.221 88.3941C108.186 88.3717 110.966 77.3117 107.15 73.5529C103.335 69.7942 92.8842 64.9242 84.343 74.0713Z" fill="white"/>
</g>
<path d="M93.9462 71.3566C93.9795 75.4696 96.5589 76.5883 99.0901 76.2042C101.621 75.8202 101.433 71.6102 99.7562 70.3013C98.0798 68.9962 93.9351 69.6861 93.9462 71.3566Z" fill="white"/>
<g style="mix-blend-mode:multiply" opacity="0.3">
<path d="M81.1531 78.244C79.4471 83.7218 79.7469 96.0273 85.0388 100.67C86.1675 101.662 98.9422 97.7911 99.4751 96.3778C100.008 94.9645 95.112 87.1636 91.7296 84.1544C85.4311 78.5535 82.1597 75.0073 81.1531 78.244Z" fill="#9A376D"/>
</g>
<path d="M91.6259 99.1335C88.1658 101.028 93.5244 100.226 94.3718 99.4579C95.2193 98.6935 94.0203 97.8209 91.6259 99.1335Z" fill="white"/>
<path d="M95.0453 98.3056C94.7085 98.5592 96.2036 99.2975 96.7698 98.3392C97.3323 97.3771 96.0075 97.5822 95.0453 98.3056Z" fill="white"/>
<path d="M80.2279 83.733C80.2279 86.1158 81.2604 85.6497 81.6305 83.733C82.0005 81.8164 80.2279 81.6933 80.2279 83.733Z" fill="white"/>
<path d="M110.488 53.6441C109.833 55.6279 112.964 57.2687 113.482 55.4564C114 53.6441 110.914 52.3539 110.488 53.6441Z" fill="url(#paint19_linear_113_1245)"/>
<path d="M115.317 53.2302C113.686 53.2228 116.502 56.8212 117.16 56.3476C117.819 55.8741 117.16 54.8225 117.16 54.8225C117.16 54.8225 116.069 53.234 115.317 53.2302Z" fill="url(#paint20_linear_113_1245)"/>
<path d="M105.426 52.5926C105.426 52.3689 107.361 53.2303 108.238 52.697C108.956 52.2607 109.049 51.4702 109.049 51.4702C109.049 51.4702 109.504 53.3906 108.205 53.6293C106.906 53.8679 105.422 53.6442 105.422 52.5926H105.426Z" fill="url(#paint21_linear_113_1245)"/>
<path d="M72.7859 100.89C74.0627 101.576 67.6975 113.016 67.4126 113.818C67.1276 114.62 66.4541 114.9 66.0914 114.817C65.2366 114.627 63.9932 113.46 64.3262 112.722C64.6593 111.987 72.0754 100.506 72.7859 100.886V100.89Z" fill="#75091F"/>
<g style="mix-blend-mode:soft-light">
<path d="M97.4582 42.67C96.5405 45.7837 58.0795 109.459 56.4956 109.306C54.9118 109.153 46.0339 107.859 46.5557 106.457C47.0775 105.055 62.6091 87.9467 71.6202 74.3138C83.8398 55.8257 85.5569 45.3287 86.7522 42.7931C87.9475 40.2574 97.8875 41.2045 97.4582 42.67Z" fill="#FFC283"/>
</g>
<g style="mix-blend-mode:multiply" opacity="0.7">
<path d="M99.4084 41.1448C99.4084 41.1448 81.8747 72.1173 75.2912 82.4614C68.7078 92.8054 58.7641 106.371 58.0906 107.837C57.6058 108.888 57.2949 112.349 58.1979 112.703C59.7744 113.322 76.2164 87.5178 82.1486 77.2371C88.0807 66.9565 99.401 43.5462 99.401 43.5462V41.1448H99.4084Z" fill="#BE5286"/>
</g>
<g style="mix-blend-mode:soft-light">
<path d="M120.676 84.2959C122.223 85.1685 126.479 85.2543 127.186 84.2959C127.892 83.3376 138.051 66.4977 137.292 66.2106C136.533 65.9235 133.743 64.9279 131.674 66.5947C129.606 68.2615 119.159 83.4383 120.676 84.2959Z" fill="#FFC283"/>
</g>
<g style="mix-blend-mode:soft-light">
<path d="M129.857 42.7931C129.698 43.0616 127.878 45.6457 128.929 46.4102C129.98 47.1746 134.539 47.0441 135.582 49.3113C136.626 51.5785 136.804 55.5722 137.333 56.6349C137.862 57.6977 141.985 57.6305 142.554 56.6349C143.124 55.6393 150.592 40.8541 148.779 40.5632C146.966 40.2723 130.583 41.5737 129.857 42.7931Z" fill="#FFC283"/>
</g>
<g style="mix-blend-mode:soft-light">
<path d="M84.9574 114.236C86.8965 114.739 106.118 116.533 107.953 115.384C109.789 114.236 118.071 101.43 117.538 100.882C117.005 100.334 112.949 100.554 111.499 100.882C110.048 101.21 107.605 105.816 101.262 107.859C94.9159 109.903 89.7904 110.663 88.1437 111.368C86.4969 112.073 84.2247 114.049 84.9611 114.239L84.9574 114.236Z" fill="#FFC283"/>
</g>
<g style="mix-blend-mode:soft-light">
<path d="M143.842 89.9677C142.913 89.0057 141.563 88.8863 140.9 89.5538C140.238 90.2213 127.885 109.015 128.359 109.306C128.832 109.597 130.975 110.212 132.566 109.306C134.158 108.4 144.982 91.1461 143.842 89.9677Z" fill="#FFC283"/>
</g>
<g style="mix-blend-mode:soft-light">
<path d="M146.255 82.4652C146.203 84.1917 150.751 83.5167 151.662 82.0401C152.576 80.5634 159.981 69.7197 158.175 68.6047C156.369 67.4898 152.187 67.4562 152.239 68.6047C152.291 69.7532 153.723 70.9204 153.198 72.535C152.672 74.1534 146.296 81.1116 146.255 82.4614V82.4652Z" fill="#FFC283"/>
</g>
<g style="mix-blend-mode:soft-light">
<path d="M94.8529 134.804C95.7855 135.606 113.904 139.137 116.183 137.4C118.463 135.666 126.627 123.357 125.742 123.099C124.858 122.846 121.331 122.443 120.424 123.099C119.518 123.756 115.362 131.646 113.464 132.284C111.565 132.921 97.4804 131.135 96.6107 131.646C95.7411 132.157 94.3348 134.357 94.8529 134.804Z" fill="#FFC283"/>
</g>
<g style="mix-blend-mode:multiply" opacity="0.3">
<path d="M108.216 116.559C105.167 115.914 84.8094 113.288 84.8168 115.764C84.8242 118.24 85.2127 119.836 86.7559 120.392C88.2991 120.948 110.037 121.984 109.848 120.888C109.663 119.788 109.345 116.801 108.216 116.562V116.559Z" fill="#BD3EA9"/>
</g>
<g style="mix-blend-mode:multiply" opacity="0.3">
<path d="M94.283 136.911C94.8677 138.533 95.6115 140.834 96.6107 141.024C97.6062 141.214 117.109 144.66 117.564 143.224C118.019 141.789 117.397 139.264 115.329 138.634C113.26 138.004 93.7427 135.409 94.283 136.911Z" fill="#BD3EA9"/>
</g>
<g style="mix-blend-mode:soft-light">
<path d="M48.2024 106.647C51.8105 108.501 55.885 108.586 57.1876 107.057C58.4902 105.532 64.6962 96.0459 63.871 94.6662C63.0457 93.2864 58.5679 93.8644 57.1876 94.6662C55.8072 95.4679 45.945 105.488 48.2024 106.647Z" fill="#FFC283"/>
</g>
<g style="mix-blend-mode:multiply" opacity="0.3">
<path d="M86.7522 42.793C86.3119 44.0757 81.5158 56.6236 82.1523 57.8318C82.7925 59.0399 87.818 58.104 89.6091 55.8256C91.4003 53.5509 97.1252 44.0944 96.6034 43.1957C96.0816 42.297 87.7699 39.8173 86.7485 42.793H86.7522Z" fill="#BD3EA9"/>
</g>
<g style="mix-blend-mode:multiply" opacity="0.3">
<path d="M136.944 58.3575C137.096 58.9243 137.496 60.5576 137.829 60.5576C138.162 60.5576 140.689 60.1138 140.734 60.5762C140.811 61.4115 142.199 67.6164 141.818 68.1273C141.437 68.6382 142.025 68.929 142.554 68.448C143.084 67.9632 143.313 58.5775 142.554 58.1151C141.796 57.6527 136.73 57.5632 136.944 58.3612V58.3575Z" fill="#BD3EA9"/>
</g>
<g style="mix-blend-mode:color-dodge" opacity="0.5">
<path d="M137.333 57.7611C138.528 57.9214 141.392 58.6224 142.554 58.1116C143.716 57.6007 149.982 41.3687 149.982 41.3687C149.982 41.3687 143.727 56.8512 142.014 57.2278C140.301 57.6044 137.333 57.7611 137.333 57.7611Z" fill="#FFEF9B"/>
</g>
<g style="mix-blend-mode:color-dodge" opacity="0.5">
<path d="M138.095 66.5947C138.095 66.5947 128.699 81.6634 126.545 85.4147C126.545 85.4147 128.658 80.0599 133.236 73.5529C137.814 67.0459 138.095 66.5985 138.095 66.5985V66.5947Z" fill="#FFEF9B"/>
</g>
<g style="mix-blend-mode:color-dodge" opacity="0.5">
<path d="M89.3685 57.0039C80.6091 68.6009 64.8776 97.131 64.8776 97.131C64.8776 97.131 69.5441 88.5209 77.3969 76.9313C85.2497 65.3418 89.3685 57.0039 89.3685 57.0039Z" fill="#FFEF9B"/>
</g>
<g style="mix-blend-mode:multiply" opacity="0.7">
<path d="M44.5314 107.923C44.5314 107.923 44.8866 115.436 49.0277 124.692C53.1724 133.943 54.8562 135.837 55.3558 135.99C55.8554 136.143 61.2139 137.978 62.2723 137.37L63.3307 136.762L94.9343 140.185L95.4043 141.408C95.4043 141.408 117.408 144.63 118.585 143.896C119.762 143.161 116.147 138.086 115.325 137.404C114.503 136.721 101.403 131.393 103.298 131.486C105.193 131.579 113.016 131.713 113.016 131.713C113.016 131.713 112.05 125.698 110.144 123.7L114.463 115.668C114.463 115.668 110.792 120.933 109.848 120.884C108.904 120.84 109.519 115.888 108.205 115.768C106.895 115.649 83.4586 113.102 83.6473 113.863C83.8361 114.62 83.6473 114.877 83.6473 114.877C83.6473 114.877 59.2452 113.475 58.2016 112.707C57.158 111.942 58.9343 110.451 55.3447 109.787C49.1017 108.639 44.4389 106.86 44.5314 107.923Z" fill="#BE5286"/>
</g>
<g style="mix-blend-mode:multiply" opacity="0.7">
<path d="M89.2945 50.0309C89.5906 48.9383 88.2879 48.7705 87.5108 51.0265C86.7336 53.2825 88.0622 53.5585 89.0095 52.0109C89.9606 50.4597 89.2945 50.0309 89.2945 50.0309Z" fill="#BE5286"/>
</g>
<g style="mix-blend-mode:multiply" opacity="0.7">
<path d="M100.611 51.1197C98.9273 50.18 97.3656 54.0842 98.2686 54.4012C99.1715 54.7181 101.625 51.6828 100.611 51.1197Z" fill="#BE5286"/>
</g>
<path d="M87.618 52.4732C87.618 52.4732 87.6995 50.344 89.139 49.2291C90.5786 48.1141 98.1131 47.9985 100.611 51.1681C100.611 51.1681 100.437 53.6926 98.5461 53.6292C98.5461 53.6292 94.7344 52.5926 92.1365 52.3614C89.535 52.1302 88.4581 52.7119 87.618 52.4695V52.4732Z" fill="url(#paint22_linear_113_1245)"/>
<g style="mix-blend-mode:multiply" opacity="0.7">
<path d="M87.6181 52.4732C87.8698 50.3291 94.1239 50.8922 96.8291 51.5298C99.5342 52.1675 99.6305 53.3719 99.2974 53.6329C98.9643 53.8902 95.2119 54.2445 94.1128 54.3526C93.0137 54.4645 92.1107 54.3526 92.1107 54.3526C92.1107 54.3526 87.5589 52.9766 87.6181 52.4732Z" fill="#BE5286"/>
</g>
<g style="mix-blend-mode:screen" opacity="0.3">
<path d="M89.7238 49.2961C90.0235 50.206 98.8422 51.1047 99.1679 50.6311C99.4935 50.1538 98.4795 49.3558 96.0926 48.8934C93.2727 48.349 89.4721 48.5317 89.7238 49.2961Z" fill="#FFB64A"/>
</g>
<g style="mix-blend-mode:multiply" opacity="0.7">
<path d="M86.2822 55.2665C86.5782 54.1739 85.2756 54.0061 84.4985 56.2621C83.7213 58.5181 85.0499 58.794 85.9972 57.2465C86.9483 55.6953 86.2822 55.2665 86.2822 55.2665Z" fill="#BE5286"/>
</g>
<g style="mix-blend-mode:multiply" opacity="0.7">
<path d="M97.5951 56.3553C95.9113 55.4156 94.3496 59.3198 95.2526 59.6368C96.1556 59.9537 98.6091 56.9184 97.5951 56.3553Z" fill="#BE5286"/>
</g>
<path d="M84.6021 57.7088C84.6021 57.7088 84.6835 55.5796 86.123 54.4647C87.5626 53.3497 95.0971 53.2341 97.5951 56.4037C97.5951 56.4037 97.4211 58.9282 95.5301 58.8648C95.5301 58.8648 91.7184 57.8282 89.1206 57.597C86.519 57.3658 85.4421 57.9475 84.6021 57.7051V57.7088Z" fill="url(#paint23_linear_113_1245)"/>
<g style="mix-blend-mode:multiply" opacity="0.7">
<path d="M84.602 57.7088C84.8537 55.5647 91.1078 56.1278 93.813 56.7654C96.5181 57.4031 96.6143 58.6075 96.2813 58.8685C95.9482 59.1258 92.1958 59.4801 91.0967 59.5882C89.9976 59.7001 89.0946 59.5882 89.0946 59.5882C89.0946 59.5882 84.5428 58.2122 84.602 57.7088Z" fill="#BE5286"/>
</g>
<g style="mix-blend-mode:screen" opacity="0.3">
<path d="M86.7078 54.5317C87.0076 55.4416 95.8262 56.3403 96.1519 55.8667C96.4775 55.3894 95.4636 54.5914 93.0766 54.129C90.2567 53.5846 86.4562 53.7673 86.7078 54.5317Z" fill="#FFB64A"/>
</g>
<g style="mix-blend-mode:multiply" opacity="0.7">
<path d="M62.3167 96.5829C62.7793 95.3896 61.336 95.0428 60.1888 97.4853C59.0416 99.9277 60.5034 100.401 61.7579 98.7755C63.0124 97.1497 62.3167 96.5829 62.3167 96.5829Z" fill="#BE5286"/>
</g>
<g style="mix-blend-mode:multiply" opacity="0.7">
<path d="M74.9137 99.1856C73.13 97.9253 70.9096 102.124 71.8866 102.59C72.8636 103.056 75.9869 99.9426 74.9137 99.1856Z" fill="#BE5286"/>
</g>
<path d="M60.137 99.1259C60.137 99.1259 60.4849 96.7431 62.2353 95.6654C63.9894 94.5878 72.475 95.3746 74.9063 99.2415C74.9063 99.2415 74.4067 102.057 72.2863 101.759C72.2863 101.759 68.123 100.129 65.2254 99.5547C62.3278 98.9805 61.0437 99.5025 60.1333 99.1259H60.137Z" fill="url(#paint24_linear_113_1245)"/>
<g style="mix-blend-mode:multiply" opacity="0.7">
<path d="M60.137 99.1258C60.6736 96.7468 67.6457 98.1377 70.6099 99.1855C73.5778 100.233 73.5408 101.598 73.1337 101.848C72.7267 102.098 68.4672 102.038 67.2164 102.027C65.9656 102.019 64.9627 101.785 64.9627 101.785C64.9627 101.785 60.0075 99.6814 60.1333 99.1258H60.137Z" fill="#BE5286"/>
</g>
<g style="mix-blend-mode:screen" opacity="0.3">
<path d="M62.8866 95.8108C63.1161 96.8698 72.9265 98.9543 73.3521 98.4583C73.7776 97.9624 72.7304 96.9407 70.0992 96.1315C66.9943 95.1769 62.6942 94.9196 62.8866 95.8108Z" fill="#FFB64A"/>
</g>
<g style="mix-blend-mode:multiply" opacity="0.7">
<path d="M58.3015 102.106C58.7641 100.912 57.3209 100.566 56.1737 103.008C55.0265 105.45 56.4882 105.924 57.7427 104.298C58.9973 102.672 58.3015 102.106 58.3015 102.106Z" fill="#BE5286"/>
</g>
<g style="mix-blend-mode:multiply" opacity="0.7">
<path d="M70.8948 104.708C69.1111 103.448 66.8907 107.647 67.8677 108.113C68.8447 108.579 71.968 105.465 70.8948 104.708Z" fill="#BE5286"/>
</g>
<path d="M56.1182 104.649C56.1182 104.649 56.466 102.266 58.2164 101.188C59.9705 100.11 68.4562 100.897 70.8875 104.764C70.8875 104.764 70.3879 107.58 68.2674 107.281C68.2674 107.281 64.1042 105.652 61.2103 105.077C58.3127 104.503 57.0285 105.025 56.1182 104.649Z" fill="url(#paint25_linear_113_1245)"/>
<g style="mix-blend-mode:multiply" opacity="0.7">
<path d="M56.1181 104.649C56.6547 102.269 63.6268 103.66 66.591 104.708C69.5589 105.756 69.5219 107.121 69.1148 107.371C68.7078 107.62 64.4483 107.561 63.1975 107.55C61.9467 107.542 60.9438 107.307 60.9438 107.307C60.9438 107.307 55.9886 105.204 56.1144 104.649H56.1181Z" fill="#BE5286"/>
</g>
<g style="mix-blend-mode:screen" opacity="0.3">
<path d="M58.8677 101.334C59.0971 102.393 68.9076 104.477 69.3331 103.981C69.755 103.485 68.7114 102.463 66.0803 101.654C62.9754 100.7 58.6753 100.442 58.8677 101.334Z" fill="#FFB64A"/>
</g>
<g style="mix-blend-mode:multiply" opacity="0.7">
<path d="M127.881 46.451C127.881 46.451 132.703 45.4143 135.582 49.3073C138.461 53.2004 136.726 57.5595 136.944 58.3575C137.163 59.1555 141.822 57.4066 142.865 59.066C143.909 60.7253 143.228 68.3175 142.554 68.9551C141.881 69.5928 140.752 69.7941 140.752 69.7941L141.259 68.8432C141.259 68.8432 139.868 63.5854 139.42 63.399C138.972 63.2125 136.622 62.6607 136.215 62.4891C135.808 62.3176 136.308 61.6762 136.215 59.066C136.123 56.4557 133.595 50.5864 130.968 49.4863C128.34 48.3863 126.553 47.9053 126.553 47.9053L128.351 43.1919H128.721L127.885 46.451H127.881Z" fill="#BE5286"/>
</g>
<g style="mix-blend-mode:multiply" opacity="0.7">
<path d="M134.868 46.1862C134.098 45.3584 135.172 44.5977 136.907 46.2235C138.643 47.8494 137.599 48.7219 136.038 47.8009C134.48 46.8798 134.864 46.1862 134.864 46.1862H134.868Z" fill="#BE5286"/>
</g>
<g style="mix-blend-mode:multiply" opacity="0.7">
<path d="M125.376 52.4881C126.431 50.8623 129.621 53.5769 128.969 54.2817C128.318 54.9865 124.743 53.4651 125.376 52.4881Z" fill="#BE5286"/>
</g>
<path d="M137.488 47.551C137.488 47.551 136.426 45.7089 134.639 45.4032C132.848 45.0974 126.138 48.5504 125.402 52.5292C125.402 52.5292 126.73 54.677 128.373 53.7299C128.373 53.7299 131.256 51.0152 133.451 49.587C135.642 48.1588 136.866 48.1626 137.492 47.551H137.488Z" fill="url(#paint26_linear_113_1245)"/>
<g style="mix-blend-mode:multiply" opacity="0.7">
<path d="M137.488 47.5509C136.271 45.776 131.005 49.2252 128.91 51.0636C126.816 52.9057 127.293 54.0132 127.707 54.084C128.122 54.1549 131.6 52.6969 132.622 52.2755C133.643 51.8541 134.391 51.3321 134.391 51.3321C134.391 51.3321 137.773 47.9686 137.488 47.5509Z" fill="#BE5286"/>
</g>
<g style="mix-blend-mode:screen" opacity="0.3">
<path d="M134.15 45.7389C134.306 46.686 126.934 51.6418 126.423 51.3733C125.916 51.1048 126.438 49.9227 128.336 48.3864C130.575 46.5741 134.017 44.9409 134.15 45.7351V45.7389Z" fill="#FFB64A"/>
</g>
<g style="mix-blend-mode:multiply" opacity="0.7">
<path d="M131.8 69.7159C132.2 68.4257 133.943 68.1982 133.295 71.0098C132.637 73.8625 130.827 73.9408 130.794 72.0278C130.76 70.1857 131.804 69.7159 131.804 69.7159H131.8Z" fill="#BE5286"/>
</g>
<g style="mix-blend-mode:multiply" opacity="0.7">
<path d="M121.894 70.3796C123.33 69.6338 122.578 73.1204 121.883 73.2844C121.22 73.4411 121.094 70.7935 121.894 70.3796Z" fill="#BE5286"/>
</g>
<path d="M132.111 72.7475C132.111 72.7475 133.551 70.1596 132.541 68.7724C131.608 67.4971 124.891 67.6761 121.872 70.4206C121.872 70.4206 120.935 72.4827 122.049 72.6095C122.049 72.6095 125.132 72.0502 127.419 72.08C130.131 72.1135 130.949 72.9115 132.111 72.7475Z" fill="url(#paint27_linear_113_1245)"/>
<g style="mix-blend-mode:multiply" opacity="0.7">
<path d="M132.111 72.7474C133.343 70.1334 126.505 70.4503 124.118 70.9127C122.082 71.3043 121.516 72.2962 121.601 72.5386C121.686 72.7847 123.955 73.5267 124.71 73.7803C125.513 74.0525 126.323 74.0861 126.323 74.0861C126.323 74.0861 131.83 73.3477 132.111 72.7474Z" fill="#BE5286"/>
</g>
<g style="mix-blend-mode:screen" opacity="0.3">
<path d="M131.8 68.8507C130.853 69.8985 122.971 70.4392 122.974 70.0178C122.978 69.6002 123.999 68.9104 125.961 68.4703C128.677 67.8625 132.626 67.9408 131.797 68.8544L131.8 68.8507Z" fill="#FFB64A"/>
</g>
<g style="mix-blend-mode:multiply" opacity="0.7">
<path d="M126.875 77.0284C127.26 75.7867 128.936 75.5667 128.311 78.2739C127.678 81.0184 125.935 81.0967 125.901 79.2546C125.868 77.4833 126.871 77.0284 126.871 77.0284H126.875Z" fill="#BE5286"/>
</g>
<g style="mix-blend-mode:multiply" opacity="0.7">
<path d="M117.342 77.6662C118.726 76.9465 118.004 80.3026 117.331 80.4629C116.694 80.6158 116.572 78.0652 117.342 77.6662Z" fill="#BE5286"/>
</g>
<path d="M127.178 79.9445C127.178 79.9445 128.566 77.4536 127.589 76.1186C126.693 74.8881 120.228 75.0633 117.323 77.7071C117.323 77.7071 116.42 79.6909 117.494 79.814C117.494 79.814 120.458 79.277 122.663 79.3031C125.272 79.3329 126.061 80.1011 127.178 79.9445Z" fill="url(#paint28_linear_113_1245)"/>
<g style="mix-blend-mode:multiply" opacity="0.7">
<path d="M127.178 79.9446C128.366 77.4275 121.783 77.7333 119.484 78.1771C117.527 78.5537 116.983 79.5083 117.064 79.7432C117.146 79.9781 119.329 80.6941 120.054 80.9365C120.828 81.1975 121.609 81.2311 121.609 81.2311C121.609 81.2311 126.908 80.5226 127.182 79.9408L127.178 79.9446Z" fill="#BE5286"/>
</g>
<g style="mix-blend-mode:screen" opacity="0.3">
<path d="M126.875 76.1931C125.964 77.1999 118.378 77.7219 118.382 77.3155C118.385 76.9128 119.37 76.249 121.257 75.8239C123.873 75.2385 127.67 75.3131 126.875 76.1931Z" fill="#FFB64A"/>
</g>
<g style="mix-blend-mode:multiply" opacity="0.7">
<path d="M138.232 52.6559C137.695 51.6602 138.924 51.1979 140.197 53.2115C141.47 55.2251 140.242 55.8031 138.961 54.5166C137.684 53.2301 138.232 52.6559 138.232 52.6559Z" fill="#BE5286"/>
</g>
<g style="mix-blend-mode:multiply" opacity="0.7">
<path d="M127.471 56.3439C128.895 55.0388 131.304 58.4731 130.501 58.9915C129.695 59.5098 126.616 57.127 127.471 56.3439Z" fill="#BE5286"/>
</g>
<path d="M140.423 54.6434C140.423 54.6434 139.857 52.5925 138.202 51.843C136.548 51.0935 129.188 52.7305 127.482 56.3923C127.482 56.3923 128.229 58.8049 130.054 58.309C130.054 58.309 133.525 56.4147 136.001 55.5869C138.48 54.759 139.661 55.076 140.419 54.6434H140.423Z" fill="url(#paint29_linear_113_1245)"/>
<g style="mix-blend-mode:multiply" opacity="0.7">
<path d="M140.423 54.6435C139.69 52.6149 133.728 54.6136 131.242 55.8628C128.755 57.112 128.936 58.3053 129.321 58.4805C129.702 58.6558 133.436 58.1263 134.531 57.9771C135.627 57.8317 136.482 57.511 136.482 57.511C136.482 57.511 140.597 55.1133 140.427 54.6397L140.423 54.6435Z" fill="#BE5286"/>
</g>
<g style="mix-blend-mode:screen" opacity="0.3">
<path d="M137.647 52.0405C137.562 52.9951 129.188 55.9186 128.762 55.5308C128.336 55.143 129.14 54.1287 131.36 53.1257C133.98 51.9398 137.721 51.2351 137.647 52.0405Z" fill="#FFB64A"/>
</g>
<g style="mix-blend-mode:multiply" opacity="0.7">
<path d="M109.604 105.942C111.306 104.995 112.801 105.831 109.348 107.706C106.717 109.138 105.585 108.433 106.887 107.207C108.416 105.767 109.604 105.942 109.604 105.942Z" fill="#BE5286"/>
</g>
<g style="mix-blend-mode:multiply" opacity="0.7">
<path d="M101.137 100.368C102.946 100.416 100.326 103.847 99.7045 103.612C99.1124 103.388 100.171 100.345 101.137 100.368Z" fill="#BE5286"/>
</g>
<path d="M107.187 108.281C107.187 108.281 110.325 107.229 111.139 105.529C112.05 103.631 106.121 98.7234 101.092 100.405C101.092 100.405 99.2493 102.247 100.126 103.049C100.126 103.049 102.865 104.287 104.545 105.555C106.392 106.949 106.347 107.867 107.187 108.281Z" fill="url(#paint30_linear_113_1245)"/>
<g style="mix-blend-mode:multiply" opacity="0.7">
<path d="M107.187 108.281C110.218 107.102 105.033 103.534 102.765 102.527C100.796 101.654 99.8266 102.404 99.7896 102.71C99.7526 103.012 101.192 104.94 101.621 105.525C102.058 106.122 102.598 106.532 102.598 106.532C102.598 106.532 106.584 108.516 107.187 108.281Z" fill="#BE5286"/>
</g>
<g style="mix-blend-mode:screen" opacity="0.3">
<path d="M110.529 105.163C108.764 105.57 102.077 101.207 102.354 100.666C102.646 100.103 104.127 99.9017 106.303 100.789C109.282 102.001 112.213 104.775 110.525 105.163H110.529Z" fill="#FFB64A"/>
</g>
<g style="mix-blend-mode:multiply" opacity="0.7">
<path d="M91.3373 111.916C89.3945 111.905 88.4767 113.36 92.3994 113.341C95.3895 113.326 96.052 112.166 94.3201 111.715C92.2921 111.189 91.3373 111.916 91.3373 111.916Z" fill="#BE5286"/>
</g>
<g style="mix-blend-mode:multiply" opacity="0.7">
<path d="M96.1223 102.937C94.5569 103.851 98.487 105.6 98.92 105.092C99.3344 104.611 96.9586 102.449 96.1223 102.937Z" fill="#BE5286"/>
</g>
<path d="M94.568 112.804C94.568 112.804 91.3114 113.393 89.7904 112.293C88.0881 111.062 90.9635 103.895 96.1778 102.948C96.1778 102.948 98.6683 103.675 98.2834 104.805C98.2834 104.805 96.4664 107.21 95.5968 109.135C94.6383 111.249 95.112 112.032 94.5717 112.804H94.568Z" fill="url(#paint31_linear_113_1245)"/>
<g style="mix-blend-mode:multiply" opacity="0.7">
<path d="M94.568 112.804C91.3484 113.233 94.2054 107.595 95.7189 105.618C97.0327 103.899 98.2391 104.093 98.4167 104.343C98.5906 104.589 98.2428 106.976 98.1466 107.699C98.0466 108.434 97.7691 109.053 97.7691 109.053C97.7691 109.053 95.2119 112.718 94.5717 112.804H94.568Z" fill="#BE5286"/>
</g>
<g style="mix-blend-mode:screen" opacity="0.3">
<path d="M90.1531 111.678C91.8961 111.182 95.693 104.127 95.1934 103.787C94.6679 103.433 93.2765 103.97 91.7851 105.801C89.746 108.303 88.4915 112.151 90.1531 111.678Z" fill="#FFB64A"/>
</g>
<g style="mix-blend-mode:multiply" opacity="0.7">
<path d="M119.314 83.9456C119.314 83.9456 125.52 83.8896 126.545 85.4148C127.574 86.9399 129.647 102.661 130.357 102.631C131.068 102.601 138.98 88.3718 140.419 85.7467C140.419 85.7467 140.216 88.025 140.304 89.1363C140.304 89.1363 141.433 89.9044 141.463 91.3587C141.496 92.813 134.765 103.12 132.559 105.558C130.353 107.993 127.789 107.964 127.789 107.964C127.789 107.964 125.831 110.235 125.798 110.895C125.765 111.558 132.1 109.593 132.726 111.085C133.351 112.576 136.848 123.29 136.004 124.378C135.161 125.467 130.938 125.173 130.938 125.173L131.93 123.703C131.93 123.703 128.344 118.889 127.737 118.99C127.126 119.091 124.044 118.572 124.044 118.572L121.02 102.952L123.033 99.7935C123.033 99.7935 124.899 96.7806 125.01 96.5941C125.121 96.4077 123.973 91.1685 123.492 90.7136C123.011 90.2587 118.426 89.9715 118.123 89.5725C117.819 89.1735 117.101 87.0891 117.557 86.8243C118.012 86.5596 119.614 85.9182 119.614 85.9182C119.614 85.9182 118.937 84.408 119.311 83.9456H119.314Z" fill="#BE5286"/>
</g>
<path d="M127.226 99.1447L126.56 97.1311C126.56 97.1311 125.476 97.1535 125.117 98.1379C124.758 99.1224 123.759 102.079 125.117 106.629C126.475 111.178 127.2 112.599 127.689 113.322C128.177 114.046 130.749 113.132 131.034 112.707L130.424 111.059C130.424 111.059 128.777 111.491 127.093 104.57C126.194 100.882 127.23 99.141 127.23 99.141L127.226 99.1447Z" fill="url(#paint32_linear_113_1245)"/>
<g style="mix-blend-mode:multiply" opacity="0.7">
<path d="M126.775 97.7762C125.602 100.696 126.227 103.948 127.038 106.871C128.066 110.585 129.498 112.028 129.276 112.711C129.054 113.393 128.026 113.516 127.859 113.259C126.612 111.346 124.969 106.591 124.543 102.777C124.306 100.651 125.043 98.1081 125.224 97.903C126.371 96.609 126.771 97.7725 126.771 97.7725L126.775 97.7762Z" fill="#BE5286"/>
</g>
</g>
<defs>
<filter id="filter0_d_113_1245" x="0.501831" y="0" width="224.996" height="212.005" filterUnits="userSpaceOnUse" color-interpolation-filters="sRGB">
<feFlood flood-opacity="0" result="BackgroundImageFix"/>
<feColorMatrix in="SourceAlpha" type="matrix" values="0 0 0 0 0 0 0 0 0 0 0 0 0 0 0 0 0 0 127 0" result="hardAlpha"/>
<feOffset dx="10" dy="14"/>
<feGaussianBlur stdDeviation="27"/>
<feComposite in2="hardAlpha" operator="out"/>
<feColorMatrix type="matrix" values="0 0 0 0 0 0 0 0 0 0 0 0 0 0 0 0 0 0 0.45 0"/>
<feBlend mode="normal" in2="BackgroundImageFix" result="effect1_dropShadow_113_1245"/>
<feBlend mode="normal" in="SourceGraphic" in2="effect1_dropShadow_113_1245" result="shape"/>
</filter>
<linearGradient id="paint0_linear_113_1245" x1="46.0338" y1="104.857" x2="158.845" y2="104.857" gradientUnits="userSpaceOnUse">
<stop offset="0.01" stop-color="#63131F"/>
<stop offset="1" stop-color="#690F12"/>
</linearGradient>
<linearGradient id="paint1_linear_113_1245" x1="104.652" y1="136.315" x2="103.221" y2="69.9849" gradientUnits="userSpaceOnUse">
<stop offset="0.01" stop-color="#8B2C27"/>
<stop offset="1" stop-color="#AF3827"/>
</linearGradient>
<linearGradient id="paint2_linear_113_1245" x1="54.66" y1="82.4652" x2="149.578" y2="82.4652" gradientUnits="userSpaceOnUse">
<stop offset="0.01" stop-color="#63131F"/>
<stop offset="1" stop-color="#690F12"/>
</linearGradient>
<linearGradient id="paint3_linear_113_1245" x1="81.6008" y1="117.774" x2="119.414" y2="38.653" gradientUnits="userSpaceOnUse">
<stop offset="0.01" stop-color="#8B2C27"/>
<stop offset="1" stop-color="#AF3827"/>
</linearGradient>
<linearGradient id="paint4_linear_113_1245" x1="44.5018" y1="88.9833" x2="99.4084" y2="88.9833" gradientUnits="userSpaceOnUse">
<stop stop-color="#CF5915"/>
<stop offset="1" stop-color="#CE5411"/>
</linearGradient>
<linearGradient id="paint5_linear_113_1245" x1="127.881" y1="54.897" x2="151.665" y2="54.897" gradientUnits="userSpaceOnUse">
<stop stop-color="#CF5915"/>
<stop offset="1" stop-color="#CE5411"/>
</linearGradient>
<linearGradient id="paint6_linear_113_1245" x1="144.893" y1="82.04" x2="161.502" y2="82.04" gradientUnits="userSpaceOnUse">
<stop stop-color="#CF5915"/>
<stop offset="1" stop-color="#CE5411"/>
</linearGradient>
<linearGradient id="paint7_linear_113_1245" x1="93.2876" y1="133.235" x2="129.032" y2="133.235" gradientUnits="userSpaceOnUse">
<stop stop-color="#CF5915"/>
<stop offset="1" stop-color="#CE5411"/>
</linearGradient>
<linearGradient id="paint8_linear_113_1245" x1="83.6473" y1="110.358" x2="120.676" y2="110.358" gradientUnits="userSpaceOnUse">
<stop stop-color="#CF5915"/>
<stop offset="1" stop-color="#CE5411"/>
</linearGradient>
<linearGradient id="paint9_linear_113_1245" x1="141.47" y1="85.4148" x2="145.796" y2="85.4148" gradientUnits="userSpaceOnUse">
<stop stop-color="#420C57"/>
<stop offset="1" stop-color="#66319A"/>
</linearGradient>
<linearGradient id="paint10_linear_113_1245" x1="119.336" y1="83.9455" x2="142.554" y2="83.9455" gradientUnits="userSpaceOnUse">
<stop stop-color="#CF5915"/>
<stop offset="1" stop-color="#CE5411"/>
</linearGradient>
<linearGradient id="paint11_linear_113_1245" x1="125.757" y1="106.629" x2="147.732" y2="106.629" gradientUnits="userSpaceOnUse">
<stop stop-color="#CF5915"/>
<stop offset="1" stop-color="#CE5411"/>
</linearGradient>
<linearGradient id="paint12_linear_113_1245" x1="116.89" y1="58.1972" x2="106.677" y2="54.1083" gradientUnits="userSpaceOnUse">
<stop stop-color="#CC3300"/>
<stop offset="1" stop-color="#E78000"/>
</linearGradient>
<linearGradient id="paint13_linear_113_1245" x1="105.093" y1="55.9971" x2="108.027" y2="55.9971" gradientUnits="userSpaceOnUse">
<stop stop-color="#B00300"/>
<stop offset="1" stop-color="#DB5B11"/>
</linearGradient>
<linearGradient id="paint14_linear_113_1245" x1="80.0783" y1="77.7608" x2="116.258" y2="79.6677" gradientUnits="userSpaceOnUse">
<stop stop-color="#E8E5ED"/>
<stop offset="0.05" stop-color="#E5DDE9"/>
<stop offset="0.28" stop-color="#DABBDC"/>
<stop offset="0.46" stop-color="#D3A6D4"/>
<stop offset="0.59" stop-color="#D19FD1"/>
<stop offset="0.64" stop-color="#BE91C3"/>
<stop offset="0.72" stop-color="#A47FB0"/>
<stop offset="0.81" stop-color="#9272A2"/>
<stop offset="0.9" stop-color="#876A9A"/>
<stop offset="1" stop-color="#846898"/>
</linearGradient>
<radialGradient id="paint15_radial_113_1245" cx="0" cy="0" r="1" gradientUnits="userSpaceOnUse" gradientTransform="translate(96.7809 86.1681) scale(17.4893 17.6229)">
<stop stop-color="#E8E5ED"/>
<stop offset="0.14" stop-color="#E2DCE3"/>
<stop offset="0.42" stop-color="#DAD1D4"/>
<stop offset="0.66" stop-color="#D8CDD0"/>
<stop offset="0.68" stop-color="#D4C5CE"/>
<stop offset="0.75" stop-color="#C7ABC8"/>
<stop offset="0.83" stop-color="#BE99C5"/>
<stop offset="0.91" stop-color="#B88EC2"/>
<stop offset="1" stop-color="#B78BC2"/>
</radialGradient>
<linearGradient id="paint16_linear_113_1245" x1="81.3011" y1="86.8205" x2="112.239" y2="86.8205" gradientUnits="userSpaceOnUse">
<stop stop-color="#3DFFFF"/>
<stop offset="0.32" stop-color="#4A9EFF"/>
<stop offset="1" stop-color="#6540FF"/>
</linearGradient>
<linearGradient id="paint17_linear_113_1245" x1="81.4306" y1="82.8118" x2="111.865" y2="82.8118" gradientUnits="userSpaceOnUse">
<stop stop-color="#3D9DFF"/>
<stop offset="1" stop-color="#65B8FF"/>
</linearGradient>
<linearGradient id="paint18_linear_113_1245" x1="101.623" y1="61.5424" x2="116.334" y2="62.5532" gradientUnits="userSpaceOnUse">
<stop stop-color="#A71100"/>
<stop offset="0.39" stop-color="#D83303"/>
<stop offset="1" stop-color="#EC5C11"/>
</linearGradient>
<linearGradient id="paint19_linear_113_1245" x1="110.399" y1="54.6808" x2="113.541" y2="54.6808" gradientUnits="userSpaceOnUse">
<stop stop-color="#B00300"/>
<stop offset="1" stop-color="#DB5B11"/>
</linearGradient>
<linearGradient id="paint20_linear_113_1245" x1="114.818" y1="54.8113" x2="117.453" y2="54.8113" gradientUnits="userSpaceOnUse">
<stop stop-color="#B00300"/>
<stop offset="1" stop-color="#DB5B11"/>
</linearGradient>
<linearGradient id="paint21_linear_113_1245" x1="105.426" y1="52.5964" x2="109.126" y2="52.5964" gradientUnits="userSpaceOnUse">
<stop stop-color="#B00300"/>
<stop offset="1" stop-color="#DB5B11"/>
</linearGradient>
<linearGradient id="paint22_linear_113_1245" x1="94.1127" y1="53.6329" x2="94.1127" y2="48.5168" gradientUnits="userSpaceOnUse">
<stop stop-color="#420C57"/>
<stop offset="1" stop-color="#66319A"/>
</linearGradient>
<linearGradient id="paint23_linear_113_1245" x1="91.1004" y1="58.8685" x2="91.1004" y2="53.7524" gradientUnits="userSpaceOnUse">
<stop stop-color="#420C57"/>
<stop offset="1" stop-color="#66319A"/>
</linearGradient>
<linearGradient id="paint24_linear_113_1245" x1="67.306" y1="101.217" x2="67.9282" y2="95.4673" gradientUnits="userSpaceOnUse">
<stop stop-color="#420C57"/>
<stop offset="1" stop-color="#66319A"/>
</linearGradient>
<linearGradient id="paint25_linear_113_1245" x1="63.286" y1="106.738" x2="63.9082" y2="100.988" gradientUnits="userSpaceOnUse">
<stop stop-color="#420C57"/>
<stop offset="1" stop-color="#66319A"/>
</linearGradient>
<linearGradient id="paint26_linear_113_1245" x1="132.25" y1="51.6194" x2="129.845" y2="47.1176" gradientUnits="userSpaceOnUse">
<stop stop-color="#420C57"/>
<stop offset="1" stop-color="#66319A"/>
</linearGradient>
<linearGradient id="paint27_linear_113_1245" x1="127.833" y1="73.5099" x2="126.769" y2="68.1761" gradientUnits="userSpaceOnUse">
<stop stop-color="#420C57"/>
<stop offset="1" stop-color="#66319A"/>
</linearGradient>
<linearGradient id="paint28_linear_113_1245" x1="123.061" y1="80.6735" x2="122.037" y2="75.5371" gradientUnits="userSpaceOnUse">
<stop stop-color="#420C57"/>
<stop offset="1" stop-color="#66319A"/>
</linearGradient>
<linearGradient id="paint29_linear_113_1245" x1="134.369" y1="57.2658" x2="133.182" y2="52.2914" gradientUnits="userSpaceOnUse">
<stop stop-color="#420C57"/>
<stop offset="1" stop-color="#66319A"/>
</linearGradient>
<linearGradient id="paint30_linear_113_1245" x1="105.172" y1="108.195" x2="105.824" y2="100.324" gradientUnits="userSpaceOnUse">
<stop stop-color="#420C57"/>
<stop offset="1" stop-color="#66319A"/>
</linearGradient>
<linearGradient id="paint31_linear_113_1245" x1="96.2621" y1="111.666" x2="91.915" y2="105.099" gradientUnits="userSpaceOnUse">
<stop stop-color="#420C57"/>
<stop offset="1" stop-color="#66319A"/>
</linearGradient>
<linearGradient id="paint32_linear_113_1245" x1="124.425" y1="105.361" x2="131.034" y2="105.361" gradientUnits="userSpaceOnUse">
<stop stop-color="#420C57"/>
<stop offset="1" stop-color="#66319A"/>
</linearGradient>
</defs>
</svg>
