<svg width="226" height="212" viewBox="0 0 220 245" fill="none" xmlns="http://www.w3.org/2000/svg">
<g filter="url(#filter0_d_114_2107)">
<path d="M59.9016 100.158C59.7751 99.8702 56.8083 92.9804 58.9947 89.0505C59.7751 87.6444 61.1179 86.7938 62.9809 86.5266L63.0793 87.2226C61.4483 87.4546 60.2813 88.1858 59.6064 89.388C57.5887 93.0086 60.5133 99.8069 60.5484 99.8702L59.9016 100.151V100.158Z" fill="url(#paint0_radial_114_2107)"/>
<path d="M65.1955 78.9691C65.1533 78.8918 60.6961 70.8913 65.9266 62.2229L66.5312 62.5885C61.5187 70.8913 65.7649 78.5473 65.8071 78.6247L65.1955 78.9762V78.9691Z" fill="url(#paint1_radial_114_2107)"/>
<path d="M132.102 90.52L131.427 90.3231C133.536 83.0889 133.41 77.7951 131.04 74.5893C128.938 71.742 125.754 71.6576 125.726 71.6576L125.74 70.9546C125.887 70.9546 129.304 71.046 131.61 74.1745C134.113 77.5631 134.281 83.0678 132.109 90.527L132.102 90.52Z" fill="url(#paint2_radial_114_2107)"/>
<path d="M132.749 93.3673L132.06 93.2197C132.102 93.0228 133.135 88.3758 136.426 86.8291C138.106 86.0417 140.053 86.2104 142.218 87.3353L141.895 87.961C139.934 86.9416 138.197 86.7729 136.728 87.4618C133.754 88.8609 132.756 93.3251 132.749 93.3673Z" fill="url(#paint3_radial_114_2107)"/>
<path d="M83.952 138.235C83.8958 138.186 78.5739 133.194 72.2397 133.004C70.4259 132.948 68.8441 133.229 67.4451 133.475C63.7613 134.122 61.1038 134.593 58.6362 128.434L59.29 128.174C61.5397 133.806 63.7191 133.419 67.3185 132.786C68.7527 132.533 70.3767 132.252 72.2608 132.301C78.8692 132.505 84.2121 137.511 84.4371 137.729L83.952 138.235Z" fill="url(#paint4_radial_114_2107)"/>
<path fill-rule="evenodd" clip-rule="evenodd" d="M111.117 137.778C115.265 130.192 136.693 120.216 136.693 120.216C136.693 120.216 133.529 46.6928 97.0001 45.0969C60.4782 46.6998 57.3146 120.216 57.3146 120.216C57.3146 120.216 78.7427 130.185 82.8905 137.778C87.0383 145.363 81.1611 164.542 81.1611 164.542C81.1611 164.542 86.2228 175.868 97.0001 177C107.777 175.875 112.839 164.542 112.839 164.542C112.839 164.542 106.962 145.363 111.11 137.778H111.117Z" fill="url(#paint5_linear_114_2107)"/>
<path style="mix-blend-mode:multiply" opacity="0.5" d="M103.863 122.258C119.273 118.47 128.694 102.907 124.906 87.4966C121.118 72.0866 105.555 62.665 90.1457 66.4529C74.7359 70.2408 65.3144 85.8038 69.1023 101.214C72.8902 116.624 88.4529 126.046 103.863 122.258Z" fill="url(#paint6_linear_114_2107)"/>
<path style="mix-blend-mode:multiply" opacity="0.5" fill-rule="evenodd" clip-rule="evenodd" d="M85.2737 163.65C85.2737 163.65 96.5501 182.238 108.867 163.692C108.867 163.692 102.076 144.562 108.48 134.6C114.836 124.716 133.501 119.534 133.501 119.534C133.501 119.534 133.114 106.254 129.227 94.3516C130.176 102.443 122.021 126.543 97.7242 127.282C73.6035 128.013 65.8773 106.177 65.7086 99.1744C65.7086 99.1744 61.5608 109.333 61.9474 118.191C61.9474 118.191 83.727 127.345 87.6147 136.386C91.5024 145.434 85.2807 163.635 85.2807 163.635L85.2737 163.65Z" fill="url(#paint7_linear_114_2107)"/>
<path style="mix-blend-mode:multiply" opacity="0.5" fill-rule="evenodd" clip-rule="evenodd" d="M71.2415 71.7561C71.2415 71.7561 81.5688 62.2651 97.0002 62.2651C112.431 62.2651 121.423 71.7561 121.423 71.7561C121.423 71.7561 117.332 49.7722 97.0002 49.7722C76.6688 49.7722 71.2415 71.7561 71.2415 71.7561Z" fill="url(#paint8_linear_114_2107)"/>
<path fill-rule="evenodd" clip-rule="evenodd" d="M85.2737 163.649L85.7869 163.122C85.7869 163.122 90.2862 170.391 97.0071 170.391C103.728 170.391 108.094 163.523 108.094 163.523L108.874 163.699C108.874 163.699 104.944 171.931 97.0774 171.931C89.2106 171.931 85.2807 163.656 85.2807 163.656L85.2737 163.649Z" fill="url(#paint9_radial_114_2107)"/>
<path fill-rule="evenodd" clip-rule="evenodd" d="M71.2415 71.7559L72.4366 69.9562C72.4366 69.9562 97.8719 50.3978 121.149 70.5819L121.423 71.763C121.423 71.763 100.002 50.6931 71.2415 71.763V71.7559Z" fill="url(#paint10_radial_114_2107)"/>
<path style="mix-blend-mode:multiply" opacity="0.5" fill-rule="evenodd" clip-rule="evenodd" d="M120.98 69.9563C120.98 69.9563 116.425 50.4682 96.3323 50.6932C77.4913 50.9041 72.4366 69.9563 72.4366 69.9563L71.2415 71.7561C71.2415 71.7561 76.8797 49.7722 97.0002 49.7722C117.121 49.7722 120.98 69.9563 120.98 69.9563Z" fill="url(#paint11_linear_114_2107)"/>
<path style="mix-blend-mode:multiply" opacity="0.5" fill-rule="evenodd" clip-rule="evenodd" d="M65.6946 99.1884L64.8369 101.537C64.8369 101.537 68.9988 129.517 96.6767 129.517C124.355 129.517 130.598 99.1814 130.598 99.1814L129.213 94.3516C129.213 94.3516 127.139 127.352 97.0001 127.296C68.4012 127.246 65.6946 99.1744 65.6946 99.1744V99.1884Z" fill="url(#paint12_radial_114_2107)"/>
<g style="mix-blend-mode:multiply" opacity="0.3">
<path fill-rule="evenodd" clip-rule="evenodd" d="M63.0302 123.092L64.8439 119.506L66.8616 120.068L71.7125 117.453V114.789L118.632 77.5701V75.454L126.084 70.6453L126.977 72.7825L120.727 77.9287L120.369 80.0729L79.1996 115.161L74.5105 118.114L74.6581 120.884L70.6861 122.445L68.6121 121.742L67.6068 125.608L63.0302 123.092Z" fill="url(#paint13_radial_114_2107)"/>
<path fill-rule="evenodd" clip-rule="evenodd" d="M58.9737 121.025L62.0248 114.339L67.9232 111.049V107.983L125.093 68.4518L124.566 67.334L114.73 71.7561L114.822 73.5699L71.5437 104.447L67.2553 106.184L66.5804 107.829L62.299 111.941L57.4903 117.453L57.3146 120.216L58.9737 121.025Z" fill="url(#paint14_radial_114_2107)"/>
<path fill-rule="evenodd" clip-rule="evenodd" d="M110.681 138.699C110.681 138.699 111.988 131.029 118.977 125.608L120.832 124.603L132.313 107.829L132.032 106.092L134.731 102.458L135.174 105.382L132.58 109.305L132.868 111.948L122.92 123.914L121.416 124.603C121.416 124.603 115.729 128.322 114.428 133.764C114.428 133.764 111.419 135.95 110.674 138.706L110.681 138.699Z" fill="url(#paint15_radial_114_2107)"/>
<path fill-rule="evenodd" clip-rule="evenodd" d="M82.0469 161.351L86.7993 158.398L86.4056 159.874C86.4056 159.874 97.5625 158.946 106.624 154.672L106.343 152.985L109.957 150.215L109.732 147.459L106.013 149.708L106.189 151.354C106.189 151.354 95.573 156.331 87.186 156.865L87.3828 156.008L83.1928 156.31L82.0539 161.351H82.0469Z" fill="url(#paint16_radial_114_2107)"/>
<path fill-rule="evenodd" clip-rule="evenodd" d="M83.6638 153.505L88.1772 151.817L88.0366 152.661C88.0366 152.661 98.2374 152.45 105.76 147.466V146.566L109.662 144.295L109.725 143.191L105.563 145.525L105.626 146.235C105.626 146.235 101.021 152.148 88.2897 151.135L88.4303 150.158L83.9731 151.332L83.6638 153.498V153.505Z" fill="url(#paint17_radial_114_2107)"/>
</g>
<path fill-rule="evenodd" clip-rule="evenodd" d="M136.693 120.216C136.693 120.216 119.124 127.893 115.468 131.064C110.681 135.219 109.95 141.349 109.95 141.349C109.95 141.349 110.287 136.969 117.289 131.844C124.291 126.726 136.693 120.209 136.693 120.209V120.216Z" fill="#7F2727"/>
<path fill-rule="evenodd" clip-rule="evenodd" d="M57.3146 120.216C57.3146 120.216 73.9129 127.401 80.0432 132.913C86.1806 138.418 84.2965 147.93 84.2965 147.93C84.2965 147.93 85.0347 140.878 80.908 135.655C76.7883 130.431 57.3146 120.216 57.3146 120.216Z" fill="#7F2727"/>
<path fill-rule="evenodd" clip-rule="evenodd" d="M82.0538 50.686C82.0538 50.686 87.671 47.0724 97.0071 46.9389C106.343 46.8053 112.931 51.4664 112.931 51.4664C112.931 51.4664 106.21 45.0055 97.0071 45.0969C87.8045 45.1883 82.0538 50.686 82.0538 50.686Z" fill="#EAAC5B"/>
<path opacity="0.5" fill-rule="evenodd" clip-rule="evenodd" d="M97.0704 171.924L96.0018 170.406C96.0018 170.406 97.914 170.609 100.86 169.625L102.301 170.602C102.301 170.602 100.607 171.875 97.0704 171.924Z" fill="#EAAC5B"/>
<path d="M103.186 121.032C117.918 117.614 127.09 102.901 123.673 88.1691C120.255 73.437 105.543 64.2646 90.8107 67.6821C76.0789 71.0995 66.9067 85.8126 70.324 100.545C73.7414 115.277 88.4543 124.449 103.186 121.032Z" fill="url(#paint18_radial_114_2107)"/>
<path style="mix-blend-mode:multiply" opacity="0.5" fill-rule="evenodd" clip-rule="evenodd" d="M85.7728 57.1188C85.7728 57.1188 94.434 64.4515 107.721 57.2805C107.721 57.2805 97.0493 46.2781 85.7728 57.1188Z" fill="url(#paint19_linear_114_2107)"/>
<path fill-rule="evenodd" clip-rule="evenodd" d="M87.4882 56.9994C87.4882 56.9994 94.7996 63.1861 106.013 57.14C106.013 57.14 97 47.853 87.4882 56.9994Z" fill="url(#paint20_radial_114_2107)"/>
<path fill-rule="evenodd" clip-rule="evenodd" d="M92.796 60.1068L93.4287 59.5303C93.4287 59.5303 97.5976 60.5427 102.28 58.7781L103.004 59.3194C103.004 59.3194 97.4148 61.1262 92.7889 60.1068H92.796Z" fill="url(#paint21_radial_114_2107)"/>
<path fill-rule="evenodd" clip-rule="evenodd" d="M91.8821 59.91L92.6132 59.3546L91.9875 59.1929L90.8838 59.6428L91.8821 59.91Z" fill="url(#paint22_radial_114_2107)"/>
<path style="mix-blend-mode:screen" opacity="0.96" fill-rule="evenodd" clip-rule="evenodd" d="M101.359 54.4122C102.877 55.073 103.897 56.1065 103.63 56.7111C103.362 57.3157 101.914 57.2735 100.396 56.6127C98.8772 55.9518 97.8578 54.9184 98.1249 54.3138C98.3921 53.7092 99.8403 53.7513 101.359 54.4122Z" fill="url(#paint23_radial_114_2107)"/>
<path style="mix-blend-mode:screen" opacity="0.96" fill-rule="evenodd" clip-rule="evenodd" d="M119.138 81.0009C121.978 84.966 122.998 89.1068 121.409 90.2387C119.82 91.3776 116.235 89.0787 113.394 85.1136C110.554 81.1485 109.535 77.0077 111.124 75.8758C112.713 74.7439 116.298 77.0358 119.138 81.0009Z" fill="url(#paint24_radial_114_2107)"/>
<path style="mix-blend-mode:screen" opacity="0.96" fill-rule="evenodd" clip-rule="evenodd" d="M81.7937 105.804C84.6339 109.769 85.6533 113.91 84.0645 115.042C82.4756 116.174 78.8902 113.882 76.05 109.917C73.2098 105.952 72.1904 101.811 73.7793 100.679C75.3681 99.5399 78.9535 101.839 81.7937 105.804Z" fill="url(#paint25_radial_114_2107)"/>
<path style="mix-blend-mode:screen" opacity="0.6" fill-rule="evenodd" clip-rule="evenodd" d="M69.6526 92.9243C72.0921 85.6198 78.3349 82.3718 87.4812 83.3068C96.6275 84.2348 88.2686 101.368 95.9948 112.855C103.721 124.343 119.455 115.267 120.769 101.354C122.084 87.4406 116.256 88.6709 107.264 85.3315C98.2796 81.9921 102.434 89.9083 97.7172 97.6346C93.0069 105.368 99.0529 111.168 107.088 111.056C115.124 110.943 117.971 96.6855 112.917 92.9665C107.862 89.2474 108.206 97.6346 104.234 101.607C100.262 105.579 107.953 107.224 108.902 104.37C109.851 101.515 106.744 103.505 106.744 101.347C106.744 99.1883 108.129 94.3444 111.412 93.6554C114.695 92.9665 116.769 102.127 111.496 107.484C106.224 112.841 97.668 106.704 100.178 96.5098C102.681 86.3087 106.392 86.14 112.924 89.5989C119.448 93.0579 120.643 99.7015 118.759 106.451C116.875 113.2 107.609 121.053 98.2796 114.057C88.9435 107.055 96.0159 89.0787 96.1143 78.8004C96.2057 68.515 87.9171 68.5291 87.9171 68.5291C87.9171 68.5291 70.9743 73.9494 69.6526 92.9384V92.9243Z" fill="url(#paint26_radial_114_2107)"/>
<path style="mix-blend-mode:multiply" opacity="0.3" fill-rule="evenodd" clip-rule="evenodd" d="M69.6525 92.9243C69.6525 92.9243 76.1555 83.7216 85.7728 83.3701C96.3322 82.9834 89.9628 95.877 91.7415 107.864C93.5201 119.85 104.93 120.582 104.93 120.582C104.93 120.582 99.6997 122.817 94.0403 121.587C94.0403 121.587 92.339 119.372 85.7728 111.941C79.2066 104.51 91.7063 95.3849 87.9944 88.7272C84.2754 82.0694 70.9742 91.23 70.0462 99.1953C70.0462 99.1953 69.4346 95.0545 69.6525 92.9243Z" fill="url(#paint27_linear_114_2107)"/>
<path style="mix-blend-mode:multiply" opacity="0.3" fill-rule="evenodd" clip-rule="evenodd" d="M85.7729 69.3798C85.7729 69.3798 94.1107 66.652 96.1073 74.6877C98.1039 82.7233 90.8136 99.5117 95.2988 111.73C99.7841 123.949 116.6 114.964 117.69 109.052C117.69 109.052 105.943 120.223 97.3235 111.941C88.7045 103.66 97.7102 89.0084 100.368 80.1994C103.025 71.3834 97.9703 66.9965 97.9703 66.9965C97.9703 66.9965 92.4305 66.3427 85.7659 69.3798H85.7729Z" fill="url(#paint28_linear_114_2107)"/>
<path d="M110.132 150.524L109.774 149.919C110.864 149.28 112.403 148.091 112.403 147.452C112.403 146.889 110.695 142.58 107.306 139.571C104.825 137.363 102.09 136.407 99.1865 136.751C90.3284 137.785 83.1997 141.574 83.031 142.502C83.031 143.367 84.2051 145.364 84.662 146.06L84.0715 146.439C83.8957 146.165 82.328 143.726 82.328 142.488C82.328 140.843 90.6166 137.04 99.1091 136.048C102.209 135.683 105.134 136.695 107.777 139.043C111.159 142.052 113.106 146.573 113.106 147.452C113.106 148.717 110.632 150.236 110.132 150.524Z" fill="url(#paint29_radial_114_2107)"/>
<path d="M110.147 151.41L109.851 150.77C110.133 150.643 110.793 149.645 110.807 148.302C110.822 147.149 110.336 145.532 107.981 144.4C103.44 142.214 85.6955 143.325 84.5777 144.316C83.945 145.075 84.3949 147.107 84.6269 147.824L83.9591 148.035C83.8606 147.733 83.0522 145.047 84.0505 143.859C85.1894 142.502 103.777 141.588 108.291 143.768C111.117 145.132 111.525 147.199 111.51 148.309C111.496 149.772 110.779 151.121 110.147 151.41Z" fill="url(#paint30_radial_114_2107)"/>
<path d="M81.8429 161.646C81.625 161.498 80.5424 160.725 80.3877 160.015C80.1979 159.115 83.2068 153.259 90.694 150.925C98.1882 148.591 110.273 152.408 110.786 152.57L110.575 153.238C110.456 153.195 98.1952 149.322 90.9049 151.592C83.8958 153.779 81.0766 159.143 81.0766 159.888C81.1399 160.184 81.8078 160.767 82.2366 161.062L81.8359 161.639L81.8429 161.646Z" fill="url(#paint31_radial_114_2107)"/>
<path d="M112.516 162.651L111.981 162.187C111.981 162.187 114.084 159.734 113.5 158.074C113.24 157.322 112.431 156.816 111.096 156.563C105.521 155.522 83.3404 158.749 82.2929 159.79C81.2665 160.83 82.0258 162.18 82.0609 162.236L81.4563 162.595C81.0767 161.955 80.6619 160.444 81.7938 159.298C83.2631 157.814 105.732 154.848 111.229 155.874C112.825 156.169 113.816 156.837 114.168 157.842C114.885 159.888 112.614 162.539 112.516 162.651Z" fill="url(#paint32_radial_114_2107)"/>
<path d="M112.902 163.72L112.235 163.495C112.235 163.495 112.614 162.342 111.981 161.189C111.419 160.162 110.238 159.417 108.48 158.988C107.124 158.658 104.909 158.074 102.35 157.399C95.4324 155.586 85.0558 152.858 83.1646 152.858C83.1225 152.858 83.0873 152.858 83.0522 152.858C82.6444 152.893 82.5038 153.062 82.4335 153.188C82.0468 153.884 82.7217 155.543 82.9889 156.064L82.3632 156.38C82.2367 156.141 81.1751 153.99 81.8148 152.837C81.9695 152.555 82.307 152.204 82.9889 152.155C84.5496 152.035 92.7468 154.144 102.519 156.717C105.078 157.385 107.285 157.969 108.635 158.299C110.597 158.784 111.932 159.642 112.593 160.858C113.373 162.285 112.909 163.656 112.888 163.713L112.902 163.72Z" fill="url(#paint33_radial_114_2107)"/>
<path d="M111.405 158.855L111.201 158.18C112.677 157.723 113.458 157.167 113.514 156.528C113.697 154.383 106.407 150.685 101.584 148.239C92.7679 143.768 82.8483 147.184 82.3632 148.091C82.2578 148.281 82.2929 148.394 82.3281 148.471C82.553 148.935 83.699 149.272 84.2262 149.357L84.1067 150.053C83.9099 150.018 82.1453 149.694 81.6954 148.78C81.5899 148.555 81.5055 148.197 81.7446 147.761C82.6374 146.116 93.0351 143.114 101.907 147.613C109.008 151.213 114.428 154.166 114.217 156.591C114.133 157.554 113.219 158.299 111.412 158.855H111.405Z" fill="url(#paint34_radial_114_2107)"/>
<path d="M83.2701 139.416L82.6584 139.064C82.785 138.854 85.7166 133.869 89.0067 132.807C90.9049 132.196 93.2389 132.196 95.4956 132.196C97.1618 132.196 98.7295 132.196 100.121 131.971C101.436 131.76 103.531 130.354 105.964 128.73C109.605 126.29 114.133 123.26 119.019 122.051C123.863 120.856 126.871 121.833 128.538 122.867C130.372 124.005 131.293 125.622 131.547 126.768C131.617 127.092 131.547 127.415 131.322 127.703C129.894 129.538 121.873 129.848 120.966 129.876L120.945 129.173C123.328 129.095 129.733 128.603 130.766 127.268C130.886 127.113 130.879 127 130.858 126.916C130.633 125.918 129.81 124.484 128.165 123.464C126.611 122.501 123.792 121.594 119.187 122.733C114.421 123.914 109.95 126.902 106.357 129.313C103.756 131.057 101.703 132.428 100.234 132.667C96.8103 133.222 92.339 132.477 89.2247 133.482C86.1876 134.46 83.2982 139.374 83.2701 139.423V139.416Z" fill="url(#paint35_radial_114_2107)"/>
<path d="M81.7516 157.28C80.8798 155.972 82.7991 154.524 87.0032 151.36C90.9541 148.386 96.3674 147.915 104.023 149.877C110.744 151.599 118.962 148.618 119.047 148.59L119.293 149.251C118.948 149.378 110.793 152.337 103.855 150.559C96.4166 148.654 91.2002 149.089 87.432 151.923C83.7552 154.693 81.857 156.169 82.3421 156.893L81.7586 157.28H81.7516Z" fill="url(#paint36_radial_114_2107)"/>
<path style="mix-blend-mode:multiply" opacity="0.8" fill-rule="evenodd" clip-rule="evenodd" d="M82.6796 167.228C82.6796 167.228 90.3917 175.861 97.0704 175.861C103.749 175.861 111.468 167.01 111.468 167.01C111.468 167.01 105.823 177 97.0071 177C88.1913 177 82.6866 167.228 82.6866 167.228H82.6796Z" fill="url(#paint37_radial_114_2107)"/>
<path opacity="0.79" fill-rule="evenodd" clip-rule="evenodd" d="M79.1996 115.161C79.1996 115.161 84.7113 122.515 96.3392 123.077C107.96 123.64 116.27 113.818 116.27 113.818C116.27 113.818 107.77 121.798 96.1143 121.727C84.4582 121.657 79.1996 115.161 79.1996 115.161Z" fill="#68C2FF"/>
<path style="mix-blend-mode:screen" opacity="0.3" fill-rule="evenodd" clip-rule="evenodd" d="M91.2072 141.75C57.6028 124.596 28.6875 123.858 54.8118 95.7083C80.9361 67.5518 92.5219 91.2581 112.924 92.9665C133.325 94.6678 115.616 62.5041 128.221 52.9709C140.826 43.4449 155.738 73.851 146.858 106.872C137.979 139.894 125.557 119.176 109.725 135.24C93.8998 151.304 116.312 144.042 124.551 150.137C132.791 156.225 121.43 158.06 121.43 158.06C121.43 158.06 124.812 151.283 116.846 148.928C108.881 146.573 95.2496 151.171 100.543 139.247C105.83 127.324 133.902 130.066 143.681 111.948C153.46 93.8242 144.848 60.7816 134.605 61.4495C124.362 62.1174 139.006 94.7452 122.935 104.166C106.863 113.586 98.8209 81.2258 79.1996 85.0222C59.5783 88.8116 54.0525 108.595 71.5789 120.23C89.1052 131.865 91.2072 141.764 91.2072 141.764V141.75Z" fill="url(#paint38_linear_114_2107)"/>
<path style="mix-blend-mode:screen" d="M97.5343 139.149C114.61 139.149 128.453 128.592 128.453 115.569C128.453 102.546 114.61 91.9893 97.5343 91.9893C80.4583 91.9893 66.6155 102.546 66.6155 115.569C66.6155 128.592 80.4583 139.149 97.5343 139.149Z" fill="url(#paint39_radial_114_2107)"/>
<path fill-rule="evenodd" clip-rule="evenodd" d="M70.1869 59.7904C70.1869 60.1771 69.8706 60.4935 69.4839 60.4935C69.0972 60.4935 68.7809 60.1771 68.7809 59.7904C68.7809 59.4038 69.0972 59.0874 69.4839 59.0874C69.8706 59.0874 70.1869 59.4038 70.1869 59.7904Z" fill="#8DFFF7"/>
<path fill-rule="evenodd" clip-rule="evenodd" d="M145.15 96.7206C145.15 97.1073 144.834 97.4236 144.447 97.4236C144.06 97.4236 143.744 97.1073 143.744 96.7206C143.744 96.3339 144.06 96.0176 144.447 96.0176C144.834 96.0176 145.15 96.3339 145.15 96.7206Z" fill="#8DFFF7"/>
<path fill-rule="evenodd" clip-rule="evenodd" d="M59.7821 77.0006C59.7821 77.2607 59.5712 77.4716 59.3111 77.4716C59.051 77.4716 58.8401 77.2607 58.8401 77.0006C58.8401 76.7405 59.051 76.5295 59.3111 76.5295C59.5712 76.5295 59.7821 76.7405 59.7821 77.0006Z" fill="#8DFFF7"/>
<path d="M123.321 54.2433C123.581 54.2433 123.792 54.0324 123.792 53.7723C123.792 53.5122 123.581 53.3013 123.321 53.3013C123.061 53.3013 122.85 53.5122 122.85 53.7723C122.85 54.0324 123.061 54.2433 123.321 54.2433Z" fill="#8DFFF7"/>
<path d="M126.977 40.464C127.105 40.464 127.209 40.3601 127.209 40.232C127.209 40.1039 127.105 40 126.977 40C126.849 40 126.745 40.1039 126.745 40.232C126.745 40.3601 126.849 40.464 126.977 40.464Z" fill="#8DFFF7"/>
<path fill-rule="evenodd" clip-rule="evenodd" d="M56.2319 63.6641C56.2319 63.7907 56.1265 63.8961 55.9999 63.8961C55.8734 63.8961 55.7679 63.7907 55.7679 63.6641C55.7679 63.5376 55.8734 63.4321 55.9999 63.4321C56.1265 63.4321 56.2319 63.5376 56.2319 63.6641Z" fill="#8DFFF7"/>
<path d="M155.456 62.8698C155.584 62.8698 155.688 62.7659 155.688 62.6378C155.688 62.5096 155.584 62.4058 155.456 62.4058C155.328 62.4058 155.224 62.5096 155.224 62.6378C155.224 62.7659 155.328 62.8698 155.456 62.8698Z" fill="#8DFFF7"/>
<path fill-rule="evenodd" clip-rule="evenodd" d="M138.668 126.086C138.668 126.213 138.563 126.318 138.436 126.318C138.31 126.318 138.204 126.213 138.204 126.086C138.204 125.96 138.31 125.854 138.436 125.854C138.563 125.854 138.668 125.96 138.668 126.086Z" fill="#8DFFF7"/>
<path d="M57.8981 61.9628C58.5504 61.9628 59.0792 61.434 59.0792 60.7817C59.0792 60.1294 58.5504 59.6006 57.8981 59.6006C57.2458 59.6006 56.717 60.1294 56.717 60.7817C56.717 61.434 57.2458 61.9628 57.8981 61.9628Z" fill="#8DFFF7"/>
<path fill-rule="evenodd" clip-rule="evenodd" d="M129.62 60.3246C129.62 60.7535 129.276 61.0979 128.847 61.0979C128.418 61.0979 128.074 60.7535 128.074 60.3246C128.074 59.8958 128.418 59.5513 128.847 59.5513C129.276 59.5513 129.62 59.8958 129.62 60.3246Z" fill="#8DFFF7"/>
</g>
<defs>
<filter id="filter0_d_114_2107" x="0.697144" y="0" width="218.991" height="245" filterUnits="userSpaceOnUse" color-interpolation-filters="sRGB">
<feFlood flood-opacity="0" result="BackgroundImageFix"/>
<feColorMatrix in="SourceAlpha" type="matrix" values="0 0 0 0 0 0 0 0 0 0 0 0 0 0 0 0 0 0 127 0" result="hardAlpha"/>
<feOffset dx="10" dy="14"/>
<feGaussianBlur stdDeviation="27"/>
<feComposite in2="hardAlpha" operator="out"/>
<feColorMatrix type="matrix" values="0 0 0 0 0 0 0 0 0 0 0 0 0 0 0 0 0 0 0.45 0"/>
<feBlend mode="normal" in2="BackgroundImageFix" result="effect1_dropShadow_114_2107"/>
<feBlend mode="normal" in="SourceGraphic" in2="effect1_dropShadow_114_2107" result="shape"/>
</filter>
<radialGradient id="paint0_radial_114_2107" cx="0" cy="0" r="1" gradientUnits="userSpaceOnUse" gradientTransform="translate(60.6328 93.346) scale(5.11799 5.11808)">
<stop stop-color="#FFC827"/>
<stop offset="0.16" stop-color="#FCC426"/>
<stop offset="0.29" stop-color="#F5BA26"/>
<stop offset="0.42" stop-color="#E9A924"/>
<stop offset="0.53" stop-color="#D89123"/>
<stop offset="0.64" stop-color="#C27220"/>
<stop offset="0.72" stop-color="#B0591F"/>
<stop offset="0.77" stop-color="#B35D1F"/>
<stop offset="0.82" stop-color="#BD6B20"/>
<stop offset="0.88" stop-color="#CD8221"/>
<stop offset="0.94" stop-color="#E4A224"/>
<stop offset="1" stop-color="#FFC827"/>
</radialGradient>
<radialGradient id="paint1_radial_114_2107" cx="0" cy="0" r="1" gradientUnits="userSpaceOnUse" gradientTransform="translate(64.9564 70.596) scale(6.02489 6.02499)">
<stop stop-color="#FFC827"/>
<stop offset="0.16" stop-color="#FCC426"/>
<stop offset="0.29" stop-color="#F5BA26"/>
<stop offset="0.42" stop-color="#E9A924"/>
<stop offset="0.53" stop-color="#D89123"/>
<stop offset="0.64" stop-color="#C27220"/>
<stop offset="0.72" stop-color="#B0591F"/>
<stop offset="0.77" stop-color="#B35D1F"/>
<stop offset="0.82" stop-color="#BD6B20"/>
<stop offset="0.88" stop-color="#CD8221"/>
<stop offset="0.94" stop-color="#E4A224"/>
<stop offset="1" stop-color="#FFC827"/>
</radialGradient>
<radialGradient id="paint2_radial_114_2107" cx="0" cy="0" r="1" gradientUnits="userSpaceOnUse" gradientTransform="translate(129.67 80.7338) scale(7.45905 7.45918)">
<stop stop-color="#FFC827"/>
<stop offset="0.16" stop-color="#FCC426"/>
<stop offset="0.29" stop-color="#F5BA26"/>
<stop offset="0.42" stop-color="#E9A924"/>
<stop offset="0.53" stop-color="#D89123"/>
<stop offset="0.64" stop-color="#C27220"/>
<stop offset="0.72" stop-color="#B0591F"/>
<stop offset="0.77" stop-color="#B35D1F"/>
<stop offset="0.82" stop-color="#BD6B20"/>
<stop offset="0.88" stop-color="#CD8221"/>
<stop offset="0.94" stop-color="#E4A224"/>
<stop offset="1" stop-color="#FFC827"/>
</radialGradient>
<radialGradient id="paint3_radial_114_2107" cx="0" cy="0" r="1" gradientUnits="userSpaceOnUse" gradientTransform="translate(137.143 89.8521) scale(4.36576 4.36583)">
<stop stop-color="#FFC827"/>
<stop offset="0.16" stop-color="#FCC426"/>
<stop offset="0.29" stop-color="#F5BA26"/>
<stop offset="0.42" stop-color="#E9A924"/>
<stop offset="0.53" stop-color="#D89123"/>
<stop offset="0.64" stop-color="#C27220"/>
<stop offset="0.72" stop-color="#B0591F"/>
<stop offset="0.77" stop-color="#B35D1F"/>
<stop offset="0.82" stop-color="#BD6B20"/>
<stop offset="0.88" stop-color="#CD8221"/>
<stop offset="0.94" stop-color="#E4A224"/>
<stop offset="1" stop-color="#FFC827"/>
</radialGradient>
<radialGradient id="paint4_radial_114_2107" cx="0" cy="0" r="1" gradientUnits="userSpaceOnUse" gradientTransform="translate(71.5367 133.201) scale(9.79308 9.79325)">
<stop stop-color="#FFC827"/>
<stop offset="0.16" stop-color="#FCC426"/>
<stop offset="0.29" stop-color="#F5BA26"/>
<stop offset="0.42" stop-color="#E9A924"/>
<stop offset="0.53" stop-color="#D89123"/>
<stop offset="0.64" stop-color="#C27220"/>
<stop offset="0.72" stop-color="#B0591F"/>
<stop offset="0.77" stop-color="#B35D1F"/>
<stop offset="0.82" stop-color="#BD6B20"/>
<stop offset="0.88" stop-color="#CD8221"/>
<stop offset="0.94" stop-color="#E4A224"/>
<stop offset="1" stop-color="#FFC827"/>
</radialGradient>
<linearGradient id="paint5_linear_114_2107" x1="97.0001" y1="177" x2="97.0001" y2="45.104" gradientUnits="userSpaceOnUse">
<stop stop-color="#A33432"/>
<stop offset="1" stop-color="#CF7242"/>
</linearGradient>
<linearGradient id="paint6_linear_114_2107" x1="96.8825" y1="130.951" x2="96.8825" y2="73.3108" gradientUnits="userSpaceOnUse">
<stop stop-color="#FFB8AE"/>
<stop offset="1" stop-color="#A33488"/>
</linearGradient>
<linearGradient id="paint7_linear_114_2107" x1="97.7031" y1="171.924" x2="97.7031" y2="94.3586" gradientUnits="userSpaceOnUse">
<stop stop-color="#FFB8AE"/>
<stop offset="1" stop-color="#A33488"/>
</linearGradient>
<linearGradient id="paint8_linear_114_2107" x1="96.3323" y1="71.7561" x2="96.3323" y2="49.7722" gradientUnits="userSpaceOnUse">
<stop stop-color="#FFB8AE"/>
<stop offset="1" stop-color="#A33488"/>
</linearGradient>
<radialGradient id="paint9_radial_114_2107" cx="0" cy="0" r="1" gradientUnits="userSpaceOnUse" gradientTransform="translate(97.0704 167.523) scale(8.90025 8.90039)">
<stop stop-color="#CF7242"/>
<stop offset="1" stop-color="#CA4132"/>
</radialGradient>
<radialGradient id="paint10_radial_114_2107" cx="0" cy="0" r="1" gradientUnits="userSpaceOnUse" gradientTransform="translate(96.3323 66.5957) scale(18.1098 18.1101)">
<stop stop-color="#EF8D42"/>
<stop offset="1" stop-color="#F06532"/>
</radialGradient>
<linearGradient id="paint11_linear_114_2107" x1="71.2415" y1="60.7606" x2="120.98" y2="60.7606" gradientUnits="userSpaceOnUse">
<stop stop-color="#FFB8AE"/>
<stop offset="1" stop-color="#A33488"/>
</linearGradient>
<radialGradient id="paint12_radial_114_2107" cx="0" cy="0" r="1" gradientUnits="userSpaceOnUse" gradientTransform="translate(97.7172 111.941) scale(26.3633 26.3637)">
<stop stop-color="#FFB8AE"/>
<stop offset="1" stop-color="#A33488"/>
</radialGradient>
<radialGradient id="paint13_radial_114_2107" cx="0" cy="0" r="1" gradientUnits="userSpaceOnUse" gradientTransform="translate(95.0036 98.1268) scale(29.8081 29.8086)">
<stop stop-color="white"/>
<stop offset="1" stop-color="#A33488"/>
</radialGradient>
<radialGradient id="paint14_radial_114_2107" cx="0" cy="0" r="1" gradientUnits="userSpaceOnUse" gradientTransform="translate(91.2072 94.1758) scale(30.5674 30.5679)">
<stop stop-color="white"/>
<stop offset="1" stop-color="#A33488"/>
</radialGradient>
<radialGradient id="paint15_radial_114_2107" cx="0" cy="0" r="1" gradientUnits="userSpaceOnUse" gradientTransform="translate(122.935 120.575) scale(15.4665 15.4667)">
<stop stop-color="white"/>
<stop offset="1" stop-color="#A33488"/>
</radialGradient>
<radialGradient id="paint16_radial_114_2107" cx="0" cy="0" r="1" gradientUnits="userSpaceOnUse" gradientTransform="translate(96.0018 154.412) scale(11.0234 11.0236)">
<stop stop-color="white"/>
<stop offset="1" stop-color="#A33488"/>
</radialGradient>
<radialGradient id="paint17_radial_114_2107" cx="0" cy="0" r="1" gradientUnits="userSpaceOnUse" gradientTransform="translate(96.6908 148.344) scale(9.90557 9.90573)">
<stop stop-color="white"/>
<stop offset="1" stop-color="#A33488"/>
</radialGradient>
<radialGradient id="paint18_radial_114_2107" cx="0" cy="0" r="1" gradientUnits="userSpaceOnUse" gradientTransform="translate(123.419 84.8429) scale(96.1311 52.873)">
<stop stop-color="#0081AE"/>
<stop offset="0.95" stop-color="#00FFB6"/>
</radialGradient>
<linearGradient id="paint19_linear_114_2107" x1="96.747" y1="60.4231" x2="96.747" y2="52.3382" gradientUnits="userSpaceOnUse">
<stop stop-color="#FFB8AE"/>
<stop offset="1" stop-color="#A33488"/>
</linearGradient>
<radialGradient id="paint20_radial_114_2107" cx="0" cy="0" r="1" gradientUnits="userSpaceOnUse" gradientTransform="translate(96.5501 61.1688) scale(11.0515 6.96256)">
<stop stop-color="#FF0097"/>
<stop offset="0.35" stop-color="#CE003D"/>
<stop offset="1" stop-color="#590048"/>
</radialGradient>
<radialGradient id="paint21_radial_114_2107" cx="0" cy="0" r="1" gradientUnits="userSpaceOnUse" gradientTransform="translate(97.7874 62.6303) scale(6.06004 3.81789)">
<stop stop-color="#EF8D42"/>
<stop offset="1" stop-color="#F06532"/>
</radialGradient>
<radialGradient id="paint22_radial_114_2107" cx="0" cy="0" r="1" gradientUnits="userSpaceOnUse" gradientTransform="translate(91.7274 62.276) scale(1.03344 0.651079)">
<stop stop-color="#EF8D42"/>
<stop offset="1" stop-color="#F06532"/>
</radialGradient>
<radialGradient id="paint23_radial_114_2107" cx="0" cy="0" r="1" gradientUnits="userSpaceOnUse" gradientTransform="translate(99.7915 55.0549) rotate(-66.4403) scale(1.19881 2.99291)">
<stop offset="0.48" stop-color="#FF86FB"/>
<stop offset="1"/>
</radialGradient>
<radialGradient id="paint24_radial_114_2107" cx="0" cy="0" r="1" gradientUnits="userSpaceOnUse" gradientTransform="translate(115.524 82.1328) rotate(-35.6004) scale(3.53439 8.824)">
<stop offset="0.48" stop-color="#86FFFB"/>
<stop offset="1"/>
</radialGradient>
<radialGradient id="paint25_radial_114_2107" cx="0" cy="0" r="1" gradientUnits="userSpaceOnUse" gradientTransform="translate(78.173 106.938) rotate(-35.6004) scale(3.53439 8.824)">
<stop offset="0.48" stop-color="#86FF24"/>
<stop offset="1"/>
</radialGradient>
<radialGradient id="paint26_radial_114_2107" cx="0" cy="0" r="1" gradientUnits="userSpaceOnUse" gradientTransform="translate(95.3058 93.2969) scale(25.2174 25.2178)">
<stop offset="0.48" stop-color="#6BEAFB"/>
<stop offset="1"/>
</radialGradient>
<linearGradient id="paint27_linear_114_2107" x1="69.6033" y1="102.654" x2="104.93" y2="102.654" gradientUnits="userSpaceOnUse">
<stop stop-color="#83DDFF"/>
<stop offset="1" stop-color="#A37EFF"/>
</linearGradient>
<linearGradient id="paint28_linear_114_2107" x1="85.7729" y1="92.376" x2="117.69" y2="92.376" gradientUnits="userSpaceOnUse">
<stop stop-color="#83DDFF"/>
<stop offset="1" stop-color="#A37EFF"/>
</linearGradient>
<radialGradient id="paint29_radial_114_2107" cx="0" cy="0" r="1" gradientUnits="userSpaceOnUse" gradientTransform="translate(97.7171 143.247) scale(12.0357 12.0359)">
<stop stop-color="#FFC827"/>
<stop offset="0.16" stop-color="#FCC426"/>
<stop offset="0.29" stop-color="#F5BA26"/>
<stop offset="0.42" stop-color="#E9A924"/>
<stop offset="0.53" stop-color="#D89123"/>
<stop offset="0.64" stop-color="#C27220"/>
<stop offset="0.72" stop-color="#B0591F"/>
<stop offset="0.77" stop-color="#B35D1F"/>
<stop offset="0.82" stop-color="#BD6B20"/>
<stop offset="0.88" stop-color="#CD8221"/>
<stop offset="0.94" stop-color="#E4A224"/>
<stop offset="1" stop-color="#FFC827"/>
</radialGradient>
<radialGradient id="paint30_radial_114_2107" cx="0" cy="0" r="1" gradientUnits="userSpaceOnUse" gradientTransform="translate(97.5344 146.938) scale(10.3766 10.3768)">
<stop stop-color="#FFC827"/>
<stop offset="0.16" stop-color="#FCC426"/>
<stop offset="0.29" stop-color="#F5BA26"/>
<stop offset="0.42" stop-color="#E9A924"/>
<stop offset="0.53" stop-color="#D89123"/>
<stop offset="0.64" stop-color="#C27220"/>
<stop offset="0.72" stop-color="#B0591F"/>
<stop offset="0.77" stop-color="#B35D1F"/>
<stop offset="0.82" stop-color="#BD6B20"/>
<stop offset="0.88" stop-color="#CD8221"/>
<stop offset="0.94" stop-color="#E4A224"/>
<stop offset="1" stop-color="#FFC827"/>
</radialGradient>
<radialGradient id="paint31_radial_114_2107" cx="0" cy="0" r="1" gradientUnits="userSpaceOnUse" gradientTransform="translate(95.587 155.902) scale(11.4944 11.4946)">
<stop stop-color="#FFC827"/>
<stop offset="0.16" stop-color="#FCC426"/>
<stop offset="0.29" stop-color="#F5BA26"/>
<stop offset="0.42" stop-color="#E9A924"/>
<stop offset="0.53" stop-color="#D89123"/>
<stop offset="0.64" stop-color="#C27220"/>
<stop offset="0.72" stop-color="#B0591F"/>
<stop offset="0.77" stop-color="#B35D1F"/>
<stop offset="0.82" stop-color="#BD6B20"/>
<stop offset="0.88" stop-color="#CD8221"/>
<stop offset="0.94" stop-color="#E4A224"/>
<stop offset="1" stop-color="#FFC827"/>
</radialGradient>
<radialGradient id="paint32_radial_114_2107" cx="0" cy="0" r="1" gradientUnits="userSpaceOnUse" gradientTransform="translate(97.682 159.157) scale(12.0076 12.0078)">
<stop stop-color="#FFC827"/>
<stop offset="0.16" stop-color="#FCC426"/>
<stop offset="0.29" stop-color="#F5BA26"/>
<stop offset="0.42" stop-color="#E9A924"/>
<stop offset="0.53" stop-color="#D89123"/>
<stop offset="0.64" stop-color="#C27220"/>
<stop offset="0.72" stop-color="#B0591F"/>
<stop offset="0.77" stop-color="#B35D1F"/>
<stop offset="0.82" stop-color="#BD6B20"/>
<stop offset="0.88" stop-color="#CD8221"/>
<stop offset="0.94" stop-color="#E4A224"/>
<stop offset="1" stop-color="#FFC827"/>
</radialGradient>
<radialGradient id="paint33_radial_114_2107" cx="0" cy="0" r="1" gradientUnits="userSpaceOnUse" gradientTransform="translate(97.3375 157.934) scale(11.8459 11.8461)">
<stop stop-color="#FFC827"/>
<stop offset="0.16" stop-color="#FCC426"/>
<stop offset="0.29" stop-color="#F5BA26"/>
<stop offset="0.42" stop-color="#E9A924"/>
<stop offset="0.53" stop-color="#D89123"/>
<stop offset="0.64" stop-color="#C27220"/>
<stop offset="0.72" stop-color="#B0591F"/>
<stop offset="0.77" stop-color="#B35D1F"/>
<stop offset="0.82" stop-color="#BD6B20"/>
<stop offset="0.88" stop-color="#CD8221"/>
<stop offset="0.94" stop-color="#E4A224"/>
<stop offset="1" stop-color="#FFC827"/>
</radialGradient>
<radialGradient id="paint34_radial_114_2107" cx="0" cy="0" r="1" gradientUnits="userSpaceOnUse" gradientTransform="translate(97.893 152.049) scale(12.4997 12.4999)">
<stop stop-color="#FFC827"/>
<stop offset="0.16" stop-color="#FCC426"/>
<stop offset="0.29" stop-color="#F5BA26"/>
<stop offset="0.42" stop-color="#E9A924"/>
<stop offset="0.53" stop-color="#D89123"/>
<stop offset="0.64" stop-color="#C27220"/>
<stop offset="0.72" stop-color="#B0591F"/>
<stop offset="0.77" stop-color="#B35D1F"/>
<stop offset="0.82" stop-color="#BD6B20"/>
<stop offset="0.88" stop-color="#CD8221"/>
<stop offset="0.94" stop-color="#E4A224"/>
<stop offset="1" stop-color="#FFC827"/>
</radialGradient>
<radialGradient id="paint35_radial_114_2107" cx="0" cy="0" r="1" gradientUnits="userSpaceOnUse" gradientTransform="translate(107.117 130.459) scale(18.4192 18.4195)">
<stop stop-color="#FFC827"/>
<stop offset="0.16" stop-color="#FCC426"/>
<stop offset="0.29" stop-color="#F5BA26"/>
<stop offset="0.42" stop-color="#E9A924"/>
<stop offset="0.53" stop-color="#D89123"/>
<stop offset="0.64" stop-color="#C27220"/>
<stop offset="0.72" stop-color="#B0591F"/>
<stop offset="0.77" stop-color="#B35D1F"/>
<stop offset="0.82" stop-color="#BD6B20"/>
<stop offset="0.88" stop-color="#CD8221"/>
<stop offset="0.94" stop-color="#E4A224"/>
<stop offset="1" stop-color="#FFC827"/>
</radialGradient>
<radialGradient id="paint36_radial_114_2107" cx="0" cy="0" r="1" gradientUnits="userSpaceOnUse" gradientTransform="translate(100.417 152.935) scale(13.6949 13.6951)">
<stop stop-color="#FFC827"/>
<stop offset="0.16" stop-color="#FCC426"/>
<stop offset="0.29" stop-color="#F5BA26"/>
<stop offset="0.42" stop-color="#E9A924"/>
<stop offset="0.53" stop-color="#D89123"/>
<stop offset="0.64" stop-color="#C27220"/>
<stop offset="0.72" stop-color="#B0591F"/>
<stop offset="0.77" stop-color="#B35D1F"/>
<stop offset="0.82" stop-color="#BD6B20"/>
<stop offset="0.88" stop-color="#CD8221"/>
<stop offset="0.94" stop-color="#E4A224"/>
<stop offset="1" stop-color="#FFC827"/>
</radialGradient>
<radialGradient id="paint37_radial_114_2107" cx="0" cy="0" r="1" gradientUnits="userSpaceOnUse" gradientTransform="translate(97.0704 172.002) scale(10.7703 10.7705)">
<stop stop-color="#FFB8AE"/>
<stop offset="1" stop-color="#A33488"/>
</radialGradient>
<linearGradient id="paint38_linear_114_2107" x1="97.1196" y1="158.053" x2="97.1196" y2="51.1993" gradientUnits="userSpaceOnUse">
<stop/>
<stop offset="0.07" stop-color="#000004"/>
<stop offset="0.15" stop-color="#000211"/>
<stop offset="0.23" stop-color="#000627"/>
<stop offset="0.32" stop-color="#000B46"/>
<stop offset="0.41" stop-color="#00126D"/>
<stop offset="0.49" stop-color="#001A9E"/>
<stop offset="0.58" stop-color="#0023D6"/>
<stop offset="0.64" stop-color="#002AFF"/>
<stop offset="1" stop-color="#00FF00"/>
</linearGradient>
<radialGradient id="paint39_radial_114_2107" cx="0" cy="0" r="1" gradientUnits="userSpaceOnUse" gradientTransform="translate(97.5104 117.116) scale(30.9128 23.6321)">
<stop stop-color="#00FF00"/>
<stop offset="0.36" stop-color="#002AFF"/>
<stop offset="0.42" stop-color="#0023D6"/>
<stop offset="0.51" stop-color="#001A9E"/>
<stop offset="0.59" stop-color="#00126D"/>
<stop offset="0.68" stop-color="#000B46"/>
<stop offset="0.77" stop-color="#000627"/>
<stop offset="0.85" stop-color="#000211"/>
<stop offset="0.93" stop-color="#000004"/>
<stop offset="1"/>
</radialGradient>
</defs>
</svg>
