<svg width="32" height="32" viewBox="0 0 32 32" fill="none" xmlns="http://www.w3.org/2000/svg">
<g clip-path="url(#clip0_117_6630)">
<path d="M0.197582 14.7148C0.0282026 15.5476 -0.0353149 16.4016 0.0140876 17.2485C0.06349 18.053 0.09172 18.8717 0.578687 19.5492C0.769239 19.8174 1.00919 20.0503 1.27738 20.2408C1.45382 20.3679 1.6726 20.4243 1.84904 20.5443C1.89138 20.5725 1.93373 20.5937 1.93373 20.6502C1.93373 20.756 1.722 20.869 1.65143 20.9325C1.51028 21.0525 1.36207 21.1865 1.31267 21.37C1.22092 21.6947 1.38324 22.0334 1.51733 22.3157C1.84198 22.9721 2.20897 23.6073 2.60419 24.2213C4.22035 26.6843 6.08353 29.218 8.9277 30.3331C10.558 30.9682 12.273 31.0317 13.995 31.1164C15.8017 31.2082 17.6155 31.2082 19.4151 31.1164C21.0313 31.0317 22.8098 30.8977 24.186 30.0578C25.2093 29.4297 26.0209 28.4981 26.6491 27.5524C27.6865 25.9998 28.5899 24.3624 29.3591 22.6616C29.4297 22.4992 29.5356 22.351 29.5356 22.1746C29.5356 22.0899 29.5497 22.0123 29.5356 21.9276C29.5144 21.7653 29.4438 21.6029 29.3309 21.4759C29.6344 21.3277 29.8743 21.0595 30.0296 20.7631C30.1143 20.6008 30.1849 20.4314 30.2343 20.255C30.2837 20.1067 30.319 19.9656 30.4037 19.8386C30.5942 19.5563 30.6577 19.2034 30.7495 18.8787C30.9612 18.1165 31.1376 17.3473 31.2717 16.5709C31.2929 16.458 31.307 16.3451 31.3282 16.2322C31.3988 15.7311 31.4552 15.23 31.427 14.7289C31.427 14.6795 31.427 14.6301 31.4199 14.5878C31.3494 16.458 30.7071 18.0954 29.9379 19.8386C29.1333 21.6806 28.1735 23.4379 27.0725 25.1035C26.4444 26.0492 25.6398 26.9807 24.6165 27.6089C23.2403 28.4558 21.4759 28.5828 19.8739 28.6745C18.0813 28.7733 16.2816 28.7733 14.489 28.6887C12.7811 28.611 11.0661 28.5546 9.44995 27.9194C7.72087 27.2348 6.30231 25.9856 5.15194 24.6094C3.90982 23.1062 2.91472 21.37 2.06782 19.768C0.719837 17.2273 0.218755 14.609 0.868044 11.9624C0.550457 12.8728 0.352847 13.8468 0.169352 14.736L0.197582 14.7148Z" fill="url(#paint0_linear_117_6630)"/>
<path d="M31.4482 14.4257C31.4482 14.4751 31.4482 14.5174 31.4482 14.5669C31.4129 15.4843 31.2364 16.3595 30.9753 17.2064C30.7142 18.0744 30.3543 18.9354 29.9732 19.8176C29.7261 20.3681 29.4721 20.9186 29.2039 21.455C29.1898 21.4903 29.1686 21.5255 29.1545 21.5538C28.5405 22.7677 27.863 23.9463 27.1078 25.0825C26.8396 25.4848 26.5432 25.8871 26.2045 26.2611C25.7598 26.7693 25.2376 27.228 24.6518 27.5879C23.2827 28.4348 21.5112 28.5619 19.9092 28.6536C18.1166 28.7524 16.3169 28.7524 14.5243 28.6607C12.8164 28.576 11.1014 28.5266 9.48526 27.8914C7.75617 27.2068 6.33762 25.9576 5.18725 24.5744C5.18725 24.5673 5.17313 24.5603 5.17313 24.5532C4.33329 23.5299 3.59931 22.4007 2.96414 21.2785C2.78064 20.968 2.6042 20.6504 2.43482 20.3399C2.3219 20.1352 2.20898 19.9305 2.10312 19.7259C1.96903 19.4718 1.84905 19.2248 1.72907 18.9707C1.16447 17.7568 0.804543 16.5147 0.677508 15.2726C0.606933 14.5527 0.606933 13.8399 0.691623 13.1201C0.741025 12.7178 0.8116 12.3226 0.910405 11.9203C1.03038 11.4545 1.18565 10.9816 1.36914 10.5088C1.41854 10.3818 1.46795 10.2547 1.52441 10.1277C1.69379 9.7113 1.86317 9.30196 2.05372 8.89263C2.15252 8.66679 2.25839 8.44801 2.36425 8.22217C2.58303 7.76343 2.80887 7.31175 3.05588 6.86007C3.2182 6.56366 3.38759 6.26724 3.56402 5.97788C3.7828 5.61089 4.0157 5.24391 4.26271 4.88397C4.27683 4.8628 4.29094 4.84163 4.30506 4.8134C4.42504 4.63696 4.55207 4.46052 4.67205 4.28409C4.77791 4.13588 4.87672 3.99473 4.98964 3.85358C5.00375 3.83241 5.02492 3.80418 5.0461 3.783C5.98474 2.56206 7.09983 1.48932 8.6807 0.960007C12.0189 -0.119789 15.4982 -0.105674 19.1258 0.127223C20.5867 0.226028 22.2099 0.494213 23.3603 1.40463C25.7528 3.30309 27.8418 5.51915 29.5074 8.01044C29.5285 8.03867 29.5497 8.0669 29.5638 8.09513C30.2131 9.06907 30.7071 10.1418 31.0247 11.2569C31.0247 11.2569 31.0247 11.2639 31.0247 11.271C31.0882 11.4757 31.1376 11.6874 31.187 11.8991C31.2223 12.0614 31.2576 12.2167 31.2859 12.379C31.2859 12.3861 31.2859 12.3931 31.2859 12.4002C31.3705 12.8448 31.4129 13.2965 31.4411 13.7552C31.4552 13.9881 31.4552 14.214 31.4482 14.4328V14.4257Z" fill="url(#paint1_linear_117_6630)"/>
<path d="M31.4482 14.4258C31.4482 14.4752 31.4482 14.5175 31.4482 14.5669C31.4129 15.4844 31.2364 16.3595 30.9753 17.2064C30.0578 17.1641 29.1333 17.0935 28.1805 17.037C24.4401 16.7971 20.7066 16.5783 16.9662 16.3807C11.4896 16.0913 6.06941 15.922 0.670428 15.2868C0.599853 14.5669 0.599853 13.8541 0.684543 13.1343C6.09058 12.7461 11.4896 12.8872 16.9732 13.0072C17.0438 13.0072 17.1214 13.0072 17.192 13.0143C16.8815 12.9649 16.5639 12.9155 16.2534 12.8661C11.4825 12.1321 6.23173 11.6381 1.52438 10.1489C1.69376 9.73254 1.86314 9.32321 2.0537 8.91388C2.1525 8.68804 2.25836 8.46925 2.36423 8.24341C2.58301 7.78468 2.80885 7.333 3.05586 6.88132C3.21818 6.5849 3.38756 6.28849 3.564 5.99913C8.10903 5.8721 12.7952 6.52139 17.1567 6.89543C20.7561 7.1989 24.3765 7.43886 27.9688 7.81291C28.484 7.86231 29.0063 7.92583 29.5144 7.9964C29.5356 8.02463 29.5567 8.05286 29.5709 8.08109C30.2201 9.05502 30.7142 10.1278 31.0318 11.2428C31.0318 11.2428 31.0318 11.2499 31.0318 11.257C31.0953 11.4616 31.1447 11.6734 31.1941 11.8851C31.2294 12.0474 31.2647 12.2027 31.2929 12.365C31.2929 12.372 31.2929 12.3791 31.2929 12.3862C31.3776 12.8308 31.4199 13.2825 31.4482 13.7412C31.4623 13.9741 31.4623 14.1999 31.4552 14.4187L31.4482 14.4258ZM29.0839 21.5538C27.503 21.3845 25.9362 21.2292 24.3483 21.1869C21.1866 21.1022 18.0319 20.9681 14.8772 20.7987C11.7154 20.6223 8.60305 20.4458 5.43424 20.4529C4.50265 20.4529 3.46519 20.3682 2.42774 20.3541C2.59712 20.6646 2.77356 20.9751 2.95706 21.2927C3.59929 22.4149 4.32621 23.5441 5.16605 24.5674C8.26429 25.139 11.3272 25.4496 14.489 25.6825C17.6437 25.9083 20.7984 26.0918 23.9531 26.233C24.7082 26.2682 25.4493 26.2753 26.1903 26.2682C26.5291 25.8942 26.8326 25.4919 27.0937 25.0896C27.8488 23.9604 28.5334 22.7818 29.1404 21.5609C29.1192 21.5609 29.1051 21.5609 29.0839 21.5609V21.5538Z" fill="url(#paint2_linear_117_6630)"/>
<path d="M29.5568 8.08785C30.2061 9.06179 30.7001 10.1345 31.0177 11.2496C30.9471 11.1014 30.8625 10.9532 30.7848 10.8191C30.5237 10.3321 30.2485 9.85223 29.9591 9.38643C29.4016 8.49719 28.7876 7.63617 28.1312 6.81751C27.8489 6.46463 27.5172 6.1541 27.3549 5.72359C27.2137 5.36366 26.9244 5.08136 26.6562 4.81318C25.767 3.90982 24.7224 3.18995 23.7556 2.3854C23.198 1.91961 22.6546 1.41147 21.9982 1.09388C21.356 0.78335 20.6362 0.677488 19.9304 0.635143C19.6693 0.621028 19.4152 0.61397 19.1541 0.61397C19.0482 0.61397 18.9494 0.61397 18.8436 0.578683C18.7306 0.543395 18.6107 0.536338 18.4907 0.522223C18.159 0.486935 17.8343 0.458705 17.5026 0.430475C14.7643 0.225808 11.9907 0.458705 9.32299 1.12211C8.83603 1.24209 8.342 1.38324 7.89738 1.61613C7.83386 1.65142 7.77035 1.68671 7.70683 1.72905C7.29044 1.99018 6.92345 2.32188 6.54234 2.63241C6.35179 2.79474 6.16124 2.94294 5.96363 3.08409C5.87894 3.14055 5.80836 3.1829 5.71662 3.22524C5.57547 3.29582 5.49078 3.44402 5.40609 3.57812C5.22259 3.86042 5.10967 4.14977 4.96852 4.44619C4.94735 4.49559 4.92618 4.53088 4.91206 4.58734C4.87677 4.74966 4.84854 4.91198 4.82031 5.07431C4.6227 5.06725 4.41804 5.01079 4.24866 4.90493C4.26277 4.88375 4.27689 4.86258 4.291 4.83435C4.41098 4.65791 4.53801 4.48148 4.65799 4.30504C4.76385 4.15683 4.86266 4.01568 4.97558 3.87453C4.98969 3.85336 5.01087 3.82513 5.03204 3.80396C5.97069 2.58301 7.08577 1.51027 8.66665 0.98096C12.019 -0.120009 15.4983 -0.105894 19.1259 0.127003C20.5868 0.225808 22.21 0.493993 23.3603 1.40441C25.7811 3.32405 27.8842 5.56833 29.5639 8.08785H29.5568Z" fill="#EB924D"/>
<path d="M31.2788 12.3788C31.2718 12.4353 31.2577 12.4776 31.2435 12.5341C31.2083 12.3294 31.1589 12.1248 31.18 11.9201V11.8989C31.2153 12.0612 31.2506 12.2165 31.2788 12.3788Z" fill="#EB924D"/>
<path d="M29.2463 13.6914C29.6274 13.6914 30.0297 13.6985 30.3684 13.8749C30.933 14.1572 31.2012 14.8136 31.3635 15.4276C31.427 14.8841 31.42 14.3337 31.3353 13.7973C31.3212 13.7055 31.3 13.6067 31.2506 13.5291C31.1871 13.4374 31.0883 13.3809 30.9895 13.3386C30.1708 12.9716 29.2251 13.1692 28.3359 13.3103C27.7854 13.4021 27.2349 13.4656 26.6844 13.5079C26.1269 13.5503 25.5764 13.5714 25.0188 13.5644C24.913 13.5644 24.7789 13.5362 24.6871 13.5926C24.5531 13.6703 24.7224 13.6561 24.7859 13.6561C25.0682 13.6561 25.3505 13.6561 25.6399 13.6561C26.2045 13.6561 26.7691 13.6632 27.3337 13.6703C27.8983 13.6703 28.47 13.6773 29.0346 13.6844C29.1051 13.6844 29.1757 13.6844 29.2392 13.6844L29.2463 13.6914Z" fill="#EB924D"/>
<path d="M27.0937 25.0893C26.4727 26.035 25.6611 26.9737 24.6377 27.5947C23.2686 28.4416 21.4971 28.5687 19.8951 28.6604C18.1025 28.7592 16.3028 28.7592 14.5102 28.6675C12.8023 28.5828 11.0873 28.5334 9.47117 27.8982C7.74209 27.2136 6.32353 25.9645 5.17316 24.5812C4.3192 23.5578 3.59228 22.4216 2.94299 21.2853C2.63952 20.7631 2.35016 20.2408 2.08198 19.7327C1.94788 19.4786 1.82791 19.2316 1.70793 18.9775C0.642249 16.6697 0.296431 14.3125 0.882203 11.9271C1.00218 11.4613 1.15745 10.9885 1.34094 10.5156C1.46092 10.2192 1.5809 9.92277 1.70793 9.63342C1.85614 9.28054 2.03257 8.94178 2.17372 8.58891C2.30782 8.23603 2.47014 7.89022 2.63952 7.55851C2.98534 6.89511 3.41584 6.26699 3.90281 5.70239C3.98044 5.6177 4.05807 5.52596 4.16394 5.48361C4.26274 5.44127 4.3686 5.44127 4.47447 5.44832C4.82734 5.45538 5.18022 5.48361 5.53309 5.5189C6.64112 5.6177 7.76326 5.98469 8.8854 5.96352C9.44294 5.9494 10.0005 5.8506 10.558 5.82237C10.8474 5.80826 11.1297 5.82237 11.419 5.83649C11.5602 5.84354 11.7084 5.85766 11.8495 5.86472C11.9201 5.86472 11.9907 5.87883 12.0613 5.88589C12.1036 5.88589 12.146 5.87883 12.1954 5.87883C12.2307 5.87883 12.2659 5.89294 12.3012 5.9C12.0401 5.97763 11.7649 6.01998 11.4967 6.06938C11.2285 6.11879 10.9532 6.15407 10.678 6.1823C10.1275 6.23876 9.57703 6.26699 9.02655 6.28111C8.46901 6.28816 7.91852 6.28111 7.36098 6.26699C6.88107 6.25288 6.3941 6.23876 5.9142 6.22465C5.42017 6.21053 4.91909 6.20347 4.44624 6.35874C3.82518 6.56341 3.31704 7.03626 2.95711 7.58674C2.94299 7.60792 2.92888 7.62909 2.91476 7.65026C2.70304 7.98196 2.5266 8.34895 2.37839 8.71594C2.30076 8.89944 2.2443 9.09705 2.15961 9.26643C2.13138 9.32289 2.08903 9.35817 2.04669 9.41463C1.98317 9.50638 1.94083 9.61224 1.89848 9.71811C1.79262 9.94395 1.69381 10.1627 1.60207 10.3956C1.45386 10.7626 1.31271 11.1437 1.19979 11.5248C1.10099 11.8495 0.945721 12.2517 0.981008 12.5976C1.00924 12.8728 0.945721 13.1622 0.924548 13.4374C0.924548 13.508 0.875146 14.3266 0.924548 14.3266C1.46798 14.3549 2.00434 14.4678 2.51954 14.6513C2.2937 14.6725 2.07492 14.7148 1.85614 14.7572C1.65147 14.7995 1.3974 14.8983 1.25625 15.0677C1.19273 15.1383 1.17862 15.2724 1.1645 15.3641C1.12922 15.5829 1.14333 15.8158 1.1645 16.0346C1.26331 16.9944 1.57384 17.926 1.95494 18.8082L2.2443 19.4716C2.32193 19.6551 2.41368 19.8527 2.58306 19.9656C2.71715 20.0573 2.88653 20.0856 3.0418 20.1138C3.35938 20.1703 3.6558 20.3043 3.98044 20.3749C4.61562 20.502 5.26491 20.6008 5.9142 20.6149C7.08574 20.6431 8.27845 20.4031 9.40765 20.7207C9.22416 20.7349 9.04066 20.749 8.85717 20.7631C7.71386 20.8478 6.56348 20.9183 5.41311 20.9819C4.84851 21.0101 4.27686 21.0454 3.71226 21.0666C3.59228 21.0666 3.33115 21.0454 3.26764 21.1724C3.25352 21.2077 3.26058 21.243 3.26764 21.2783C3.30998 21.49 3.45819 21.7158 3.56405 21.9064C3.87458 22.4569 4.26274 22.9509 4.63679 23.452C4.99672 23.946 5.39194 24.4259 5.81539 24.8635C6.013 25.0682 6.21767 25.2869 6.43645 25.4634C6.47174 25.4916 6.51408 25.5198 6.55643 25.541C6.74698 25.6398 6.88813 25.8304 7.04339 25.9715C7.39627 26.2962 7.79149 26.5785 8.20788 26.8184C8.79365 27.1642 9.42883 27.4254 10.0781 27.623C11.3908 28.0252 12.767 28.1664 14.1362 28.2511C16.9874 28.4275 19.8739 28.3569 22.6616 27.7288C23.4168 27.5594 24.1719 27.3477 24.8494 26.9596C25.9998 26.2962 26.8114 25.1952 27.5454 24.0872C27.99 23.4167 28.4347 22.7039 28.4911 21.8993C27.9547 21.73 27.4113 21.5888 26.8608 21.49C27.4184 21.4406 27.9689 21.3771 28.5193 21.3206C28.5829 21.3206 28.6464 21.3065 28.7099 21.3206C28.7593 21.3277 28.7946 21.3418 28.851 21.3418C28.9216 21.3418 28.9922 21.3347 29.0628 21.3206C29.0839 21.3206 29.2533 21.2994 29.2533 21.2783C29.1757 21.5676 29.0628 21.8499 28.9146 22.1181C28.851 22.2381 28.7805 22.3581 28.6958 22.4639C28.5617 22.6333 28.477 22.838 28.3711 23.0285C28.237 23.2685 28.0959 23.5084 27.9547 23.7484C27.6795 24.2071 27.3901 24.6659 27.0937 25.1105V25.0893Z" fill="#EB924D"/>
<path d="M23.6567 13.628C25.654 13.5856 27.6442 13.5503 29.6344 13.515C30.0226 13.508 30.4249 13.5009 30.7848 13.6421C31.1447 13.7832 31.4552 14.1079 31.4411 14.4749C31.4411 14.4607 31.4411 14.4537 31.4411 14.4396C31.4411 14.2208 31.4411 13.9879 31.4341 13.762C31.4129 13.3104 31.3635 12.8587 31.2788 12.4141C31.2576 12.4846 31.2294 12.5482 31.18 12.5976C31.0247 12.7881 30.6436 12.8022 30.4107 12.8446C30.2061 12.8728 30.0014 12.901 29.8038 12.9222C27.7501 13.1622 25.6963 13.3951 23.6497 13.6421L23.6567 13.628Z" fill="url(#paint3_linear_117_6630)"/>
<path d="M2.73832 20.7205C2.8089 20.9111 2.87947 21.1016 2.95711 21.2922C2.65363 20.7699 2.36428 20.2477 2.09609 19.7395C1.962 19.4855 1.84202 19.2384 1.72205 18.9844C1.75733 19.0197 1.79262 19.0479 1.82085 19.0691C2.0114 19.2314 2.20901 19.3655 2.42074 19.4855C3.13354 19.8877 3.95927 19.9795 4.75677 20.0924C5.20139 20.1559 5.67424 20.2547 6.12592 20.2547C7.90441 20.4382 9.6829 20.6076 11.4684 20.7629C8.56076 20.6923 5.65307 20.6782 2.74538 20.7205H2.73832Z" fill="url(#paint4_linear_117_6630)"/>
<path d="M29.3521 20.4032C28.5687 20.9678 27.5454 21.2148 26.5503 21.4477C27.4254 21.4477 28.2935 21.4477 29.1686 21.4689C29.0628 21.6171 29.0275 21.8077 29.0769 21.9771L29.5991 20.7843C29.7685 20.3962 29.9026 19.9798 30.1143 19.6128C30.1143 19.7398 29.8885 19.9233 29.7967 20.0221C29.6626 20.1562 29.5144 20.2833 29.3521 20.4032Z" fill="url(#paint5_linear_117_6630)"/>
<path d="M13.3245 5.80847C10.8121 6.21074 8.17257 6.14017 5.65304 5.87198C5.22959 5.82964 4.65088 5.68849 4.25566 5.95667C4.03688 6.09782 3.82515 6.24603 3.60637 6.39424C3.4017 6.53539 3.21115 6.69771 3.04883 6.88826C3.42993 6.18957 3.84632 5.50499 4.298 4.84865C4.41798 4.67221 4.54502 4.49577 4.66499 4.31934C4.66499 4.35462 4.65794 4.38285 4.66499 4.41814C4.68617 4.70044 4.88378 4.95451 5.13079 5.10272C5.3778 5.25093 5.6601 5.3215 5.9424 5.3709C8.32783 5.85081 10.8897 5.61086 13.3245 5.81552V5.80847Z" fill="url(#paint6_linear_117_6630)"/>
<path d="M0.621148 13.3738C0.515285 13.6208 0.663493 13.9172 0.889332 14.0654C1.11517 14.2136 1.39041 14.2559 1.6586 14.2842C2.67488 14.4042 3.70527 14.503 4.72861 14.4042C3.56412 14.4536 2.29377 14.5735 1.12929 14.6229C1.05165 14.6229 0.974022 14.63 0.903447 14.6653C0.75524 14.7359 0.705837 14.9264 0.712895 15.0887C0.712895 15.251 0.75524 15.4204 0.712895 15.5757C0.543515 14.8417 0.543515 14.1148 0.61409 13.3667L0.621148 13.3738Z" fill="url(#paint7_linear_117_6630)"/>
<path d="M26.7196 13.1973C26.522 12.1175 26.1551 10.9883 25.661 9.92266C25.2164 8.96284 24.6447 7.99596 23.9813 7.15612C23.3815 6.40097 22.4146 5.92811 21.5818 5.45526C21.2219 5.2506 20.9043 4.98947 20.5302 4.82009C12.9928 1.46072 4.1145 7.9889 4.87671 15.9004C5.00374 17.2272 5.42719 18.5257 6.11177 19.6832C7.99612 22.8943 11.4543 24.941 15.2301 25.3009C16.6274 25.435 18.053 25.3715 19.4151 25.0469C22.1817 24.3905 24.4471 22.6332 25.7951 20.2125C26.9384 18.1587 27.129 15.4628 26.7126 13.1973H26.7196ZM23.3321 19.1539C22.3158 20.9747 20.6149 22.2944 18.533 22.7885C17.5096 23.0284 16.4369 23.0778 15.3924 22.979C12.5553 22.7108 9.9581 21.1794 8.53955 18.7657C8.02435 17.8906 7.70676 16.9237 7.60796 15.9215C7.57973 15.611 7.56561 15.3005 7.57973 14.9899C7.57973 14.8558 7.6009 14.7147 7.59384 14.5806C7.59384 14.51 7.56561 14.4465 7.5515 14.3759C7.49504 14.1713 7.50915 13.9313 7.5515 13.7266C7.6009 13.5008 7.72088 13.282 7.91143 13.162C8.05964 13.0703 8.24313 13.0421 8.41957 13.0209C8.83596 12.9785 9.25236 12.9574 9.66875 12.9715C9.13944 12.8868 8.61012 12.8092 8.08081 12.7245C8.05964 12.7245 8.25725 12.0893 8.27842 12.0399C8.36311 11.8211 8.48309 11.6235 8.58895 11.4188C8.75127 11.0801 8.99123 10.7625 9.21707 10.4661C9.67581 9.85208 10.2192 9.30865 10.8262 8.82874C11.4331 8.35589 12.0965 7.95361 12.7952 7.64309C13.501 7.33256 14.2491 7.11377 15.0113 7.00085C15.7805 6.88793 16.571 6.88793 17.3473 7.00085C18.046 7.10672 18.7306 7.30433 19.3799 7.59368C19.6622 7.72072 19.9021 7.91833 20.1703 8.06653C20.7914 8.41941 21.5183 8.77934 21.97 9.34394C22.471 9.97206 22.9015 10.699 23.2332 11.4188C23.6002 12.2234 23.8755 13.0703 24.0237 13.8819C24.1931 14.8064 24.2213 15.7098 24.0096 16.6273C22.9368 16.6837 21.857 16.6978 20.7772 16.6696L23.7202 16.9943C24.0307 17.0295 23.8684 17.3048 23.7978 17.5024C23.7414 17.6718 23.7132 17.8412 23.7132 18.0247C23.7132 18.187 23.699 18.3352 23.6426 18.4905C23.6002 18.6034 23.5508 18.7163 23.5014 18.8292C23.4732 18.8857 23.445 18.9421 23.4167 18.9986C23.3956 19.0409 23.325 19.1186 23.325 19.1609L23.3321 19.1539Z" fill="url(#paint8_linear_117_6630)"/>
<path d="M24.306 21.8361C25.2094 20.9398 25.8304 19.7894 26.1904 18.5684C26.5503 17.3545 26.6703 16.0701 26.6562 14.8068C26.6562 14.6233 26.635 14.4327 26.5715 14.2634C26.4797 14.0234 26.2962 13.9317 26.0563 13.8752C25.6893 13.7835 25.3294 13.6988 24.9624 13.607C25.8234 13.6423 26.762 13.5929 27.623 13.5576C27.4748 13.607 27.3337 13.6564 27.1855 13.7058C27.1502 13.7199 27.1149 13.7341 27.0867 13.7552C27.0585 13.7835 27.0443 13.8187 27.0302 13.8611C26.9738 14.0658 27.002 14.2845 27.0232 14.4963C27.0514 14.835 27.0443 15.1808 27.0232 15.5267C27.0161 15.696 26.9949 15.8654 26.9808 16.0348C26.9455 16.4088 26.8679 16.7688 26.7973 17.1428C26.6562 17.8415 26.5644 18.5473 26.3739 19.2318C26.1833 19.9164 25.8798 20.5869 25.3788 21.095C25.4352 21.2362 25.5481 21.3561 25.6893 21.4267C25.5129 21.4408 25.3294 21.4479 25.1812 21.5396C25.0965 21.589 25.0259 21.6596 24.9624 21.7302C24.7224 21.9843 24.4895 22.2383 24.2496 22.4853C24.1719 22.563 24.0872 22.6194 23.9884 22.6759C23.7767 22.8029 23.6356 23.0288 23.4662 23.1982C22.6899 23.9815 21.6595 24.4826 20.6079 24.8214C20.5303 24.8496 20.4526 24.8708 20.3679 24.892C19.641 25.1107 18.9 25.2519 18.1448 25.3295C17.3897 25.4071 16.6345 25.4142 15.8794 25.3507C15.5053 25.3225 15.1242 25.2731 14.7572 25.2025C14.5737 25.1672 14.3832 25.1319 14.1997 25.0896C13.6139 24.9555 13.0211 24.8567 12.4424 24.6732C10.7486 24.1227 9.26651 23.0993 7.89736 21.9843C7.73504 21.8502 7.56566 21.7161 7.40333 21.5749C7.33276 21.5185 7.24101 21.455 7.17749 21.3844C7.12103 21.3279 7.07869 21.2644 7.02223 21.2079C6.90225 21.1021 6.75404 21.0386 6.59878 20.9962C6.35177 20.9327 6.0977 20.9256 5.84363 20.8904C5.87892 20.8127 5.97772 20.7845 6.06241 20.7633C6.25296 20.728 6.45057 20.7069 6.64818 20.6998C6.74699 20.6998 6.84579 20.7139 6.9446 20.6998C7.02223 20.6927 7.0928 20.6857 7.17044 20.6998C7.5586 20.7351 7.93265 20.8268 8.31375 20.8692C8.54665 20.8974 8.77955 20.9045 9.01244 20.8692C8.4549 20.9186 7.90442 20.968 7.34687 21.0103C7.5586 21.5185 8.0738 21.829 8.56782 22.076C8.66663 22.1254 8.77955 22.1678 8.86424 22.2383C8.89952 22.2666 8.94187 22.3019 8.97715 22.3301C9.05479 22.3865 9.13242 22.4501 9.21005 22.5065C9.36532 22.6265 9.52058 22.7465 9.67585 22.8594C9.98638 23.0923 10.304 23.3111 10.6357 23.5157C11.0944 23.798 11.5814 24.045 12.0825 24.2427C12.8588 24.5461 13.6845 24.7367 14.5173 24.7931C16.0205 24.899 17.4885 25.0966 18.9847 24.8637C19.1611 24.8355 19.3376 24.8073 19.514 24.772C20.6926 24.525 21.7583 23.911 22.7604 23.2334C23.3674 22.8241 23.7979 22.3371 24.3131 21.8219L24.306 21.8361Z" fill="#EB924D"/>
<path d="M6.07654 19.4153C5.86481 18.9002 5.64603 18.3779 5.4343 17.8627C5.31433 17.5733 5.19435 17.284 5.11672 16.9805C5.04614 16.7194 5.01086 16.4512 4.96851 16.183C4.93322 15.9219 4.89088 15.6537 4.85559 15.3926C4.89088 15.6466 4.89088 15.9148 4.92617 16.1689C4.9544 16.43 4.99674 16.6912 5.03909 16.9523C5.13083 17.4675 5.25081 17.9827 5.40608 18.4838C5.47665 18.7167 5.55428 18.9566 5.63897 19.1825C5.67426 19.2742 5.70955 19.373 5.73072 19.4718C5.74483 19.5353 5.74483 19.6059 5.75189 19.6765C5.77306 19.8811 5.89304 20.0858 5.97773 20.2693C6.16828 20.2552 6.35884 20.2481 6.54939 20.234C6.5141 20.234 6.4153 20.0858 6.39412 20.0576C6.34472 19.987 6.29532 19.9164 6.25297 19.8459C6.17534 19.7047 6.14711 19.5565 6.08359 19.4083L6.07654 19.4153Z" fill="#EB924D"/>
<path d="M9.67584 6.32323C10.6992 6.41498 11.7296 6.33734 12.7529 6.25971C12.5059 6.20325 12.2518 6.16796 11.9978 6.13973C11.7437 6.1115 11.4896 6.10445 11.2355 6.09739C10.9815 6.09739 10.7203 6.09739 10.4663 6.09739C10.2122 6.09739 9.95108 6.10445 9.69701 6.10445C9.44294 6.10445 9.18181 6.10445 8.92774 6.09033C8.89951 6.09033 8.86422 6.09033 8.83599 6.09033C8.82188 6.13268 8.81482 6.19619 8.83599 6.23148C8.86422 6.28088 8.92068 6.27383 8.97009 6.27383C9.12535 6.27383 9.28062 6.28794 9.43588 6.30206C9.52057 6.30911 9.60526 6.31617 9.68995 6.32323H9.67584Z" fill="#EB924D"/>
<path d="M22.7675 7.82004C22.6546 7.74946 22.5346 7.70006 22.4217 7.63654C22.3582 7.60125 22.3017 7.55185 22.2382 7.52362C22.0971 7.4601 21.9348 7.44599 21.7866 7.4601C21.5466 7.48128 21.3208 7.57302 21.102 7.65771C21.0737 7.50245 21.0314 7.34718 20.9749 7.19898C20.9538 7.14252 20.9397 7.09311 20.9044 7.04371C20.8267 6.92373 20.6926 6.86022 20.5656 6.81787C20.4386 6.78258 20.3186 6.72612 20.1845 6.7473C19.9093 6.7967 19.6622 6.95196 19.4999 7.1778C19.4646 7.22721 19.4293 7.28367 19.4011 7.34013C18.0743 10.1349 16.6275 13.3743 15.7242 16.2114C14.7149 14.6658 13.5716 12.7462 12.2519 11.3417C11.8919 10.9606 11.3273 10.8759 10.8827 11.1512C10.6428 11.2994 10.4099 11.4688 10.184 11.6381C10.0923 11.7087 10.0358 11.7511 9.97937 11.8428C9.91585 11.9416 9.85939 12.0475 9.80999 12.1604C9.76058 12.2592 9.71824 12.3651 9.68295 12.4709C9.67589 12.4992 9.5912 12.7462 9.59826 12.7462C9.46417 12.732 9.33008 12.7179 9.19598 12.7038C9.15364 12.7038 9.11129 12.6968 9.06895 12.7038C9.0266 12.7109 8.99132 12.7391 8.96309 12.7603C8.70902 12.9579 8.61021 13.2896 8.51846 13.5931C8.47612 13.7342 8.43378 13.8754 8.39143 14.0165C8.34203 14.1859 8.2644 14.3694 8.25734 14.5458C8.25734 14.6023 8.25028 14.6587 8.23617 14.7152C8.18676 14.9904 8.25028 15.2798 8.40555 15.5127C10.0076 17.884 11.659 20.2342 13.5928 22.3302C13.7551 22.5067 13.9668 22.6196 14.2068 22.6619C14.4256 22.6972 14.6444 22.7043 14.8632 22.7396C14.8984 22.7396 14.9337 22.7537 14.9761 22.7537C15.1102 22.7466 15.2231 22.7113 15.3642 22.7325C15.4066 22.7325 15.4419 22.7466 15.4842 22.7325C15.5266 22.7255 15.5548 22.6972 15.5901 22.669C15.8089 22.4714 15.9994 22.2455 16.1476 21.9915C16.0912 22.2032 16.0629 22.422 16.0559 22.6337C16.0559 22.669 16.5358 22.6549 16.5781 22.6549C16.684 22.6549 16.7898 22.6902 16.8957 22.6761C17.1639 22.6549 17.425 22.4008 17.5521 22.182C17.5944 22.1044 17.6438 22.0197 17.6861 21.9421C17.9473 21.4763 18.2084 21.0034 18.4625 20.5306C18.7165 20.0577 18.9636 19.5778 19.2106 19.0979C19.4576 18.618 19.6905 18.131 19.9234 17.6441C20.1563 17.1571 20.3821 16.6701 20.6009 16.1761C20.8197 15.6821 21.0314 15.1881 21.2431 14.694C21.8571 13.212 22.45 11.6875 22.9652 10.1561C23.0498 9.902 23.1275 9.64087 23.191 9.37268C23.2192 9.23859 23.2475 9.1045 23.2686 8.97041C23.3039 8.75868 23.311 8.56107 23.2404 8.3564C23.1557 8.11645 22.9934 7.91884 22.7746 7.79181L22.7675 7.82004Z" fill="#9C3708"/>
<path d="M23.2404 9.07614C23.1063 9.49253 22.9651 9.90892 22.8169 10.3183C22.7463 10.5229 22.6687 10.7276 22.5911 10.9323C22.3299 11.638 22.0618 12.3296 21.7724 13.0213C21.7089 13.1695 21.6524 13.3389 21.5607 13.473C21.476 13.5929 21.4336 13.7482 21.356 13.8682C21.2995 13.9599 21.229 14.0446 21.1584 14.1293C21.1302 14.1575 21.1019 14.1928 21.0666 14.2281C21.0525 14.2422 21.0031 14.2846 20.9396 14.334C20.8479 14.4187 20.7349 14.5104 20.7208 14.5104C20.7561 14.5669 20.7632 14.6304 20.7632 14.6939C20.7632 14.7574 20.742 14.828 20.7279 14.8915C20.7279 14.8986 20.7208 14.9127 20.7208 14.9197C20.622 15.2867 20.5373 15.6608 20.4315 16.0207C20.3891 16.1619 20.2974 16.3101 20.2339 16.4512C20.1351 16.6559 20.0362 16.8535 19.9374 17.0511C19.8104 17.3052 19.6834 17.5522 19.5563 17.8063C19.4716 17.9756 19.387 18.1309 19.3023 18.2932C18.9 19.0695 18.4836 19.8388 18.0531 20.601C18.039 20.6293 18.0178 20.6645 18.0037 20.6928H17.9966C17.9119 20.841 17.8061 20.9468 17.679 21.0456C17.6085 21.1092 17.5308 21.1797 17.4391 21.2221L17.4179 21.2362C17.3262 21.2785 17.2133 21.2785 17.1144 21.2715H17.0509C16.9027 21.2715 16.6981 21.2927 16.5781 21.1939C16.4581 21.095 16.4722 20.9116 16.4863 20.7563C16.4863 20.7422 16.4863 20.7351 16.4934 20.7139C16.5146 20.5657 16.5357 20.4105 16.5569 20.2623C16.571 20.1917 16.5781 20.1211 16.5851 20.0576C16.5569 20.0929 16.5287 20.1352 16.5075 20.1776C16.324 20.4528 16.1335 20.7139 15.95 20.9962L15.8582 21.1233C15.8018 21.1939 15.7382 21.2574 15.6606 21.2997C15.5265 21.3703 15.3501 21.3844 15.1948 21.3491C15.1454 21.335 15.1031 21.3209 15.0607 21.2997C15.0043 21.2785 14.9478 21.2362 14.8913 21.215C14.8208 21.1939 14.7431 21.1868 14.6726 21.1727C14.5667 21.1515 14.4679 21.1162 14.3761 21.0739C14.2562 21.0174 14.1503 20.9398 14.0586 20.841C13.7339 20.4881 13.4163 20.1352 13.1128 19.7682C12.9576 19.5847 12.8023 19.3942 12.6471 19.2036C12.5694 19.1048 12.4847 19.006 12.4071 18.9143C12.3506 18.8508 12.2871 18.7802 12.2448 18.7096C12.2165 18.6532 12.2024 18.6108 12.1601 18.5685C12.0401 18.4414 11.9201 18.3285 11.8213 18.1874C11.7014 18.018 11.6237 17.8133 11.6449 17.6016C11.6519 17.5098 11.6731 17.411 11.6096 17.3475C11.532 17.2558 11.3696 17.3122 11.2638 17.2487C11.2356 17.2275 11.2144 17.1993 11.1932 17.1781C11.1085 17.0864 11.0238 16.9876 10.9462 16.8888C10.8897 16.8323 10.8262 16.797 10.7698 16.7406C10.6357 16.6135 10.5439 16.43 10.431 16.2818C10.2546 16.0348 10.0852 15.7949 9.91581 15.5479C9.56293 15.0397 9.21711 14.5316 8.8713 14.0164C8.67369 13.727 8.61723 13.3247 8.76543 13.0001C8.77249 12.986 8.77955 12.9719 8.79366 12.9507C8.81484 12.9154 8.84307 12.8872 8.87835 12.859C9.0195 12.739 9.11831 12.5555 9.22417 12.4002C9.2524 12.372 9.28063 12.3296 9.31592 12.3226C9.35121 12.3155 9.39355 12.3367 9.42884 12.3579C10.064 12.739 10.3887 13.4659 10.8897 14.0164C10.9885 14.1364 11.1085 14.2422 11.2356 14.341C11.2356 14.341 11.2356 14.3481 11.2426 14.3481C11.2356 14.334 11.2285 14.3269 11.2214 14.3128C10.7768 13.6988 10.4028 13.0213 10.1205 12.3226C10.1064 12.3014 10.0993 12.2732 10.0852 12.245C10.0287 12.0826 9.96521 11.8991 10.057 11.7509C10.0711 11.7298 10.0852 11.7086 10.1064 11.6874C10.191 11.5957 10.3181 11.5533 10.4239 11.4898C10.4875 11.4475 10.5298 11.391 10.6004 11.3486C10.6992 11.2851 10.7909 11.2216 10.8897 11.1581C10.9391 11.1299 10.9885 11.1016 11.0379 11.0805C11.4543 10.904 11.9413 11.0099 12.2518 11.3486C12.8376 11.9627 13.3457 12.6402 13.8327 13.3318C14.0797 13.6847 14.3197 14.0446 14.5526 14.4045C14.6161 14.5033 14.6867 14.6092 14.7572 14.708C14.9055 14.9339 15.0537 15.1597 15.1948 15.3926C15.2442 15.4702 15.3007 15.5479 15.3571 15.6184C15.4065 15.6749 15.4489 15.7384 15.4912 15.7949C15.583 15.929 15.6747 16.0631 15.7665 16.1971L15.7876 16.2324C15.8512 16.3383 15.9217 16.4442 15.9852 16.5571C16.0841 16.7265 16.1829 16.9029 16.2675 17.0793C16.1476 16.797 16.0488 16.5077 15.9782 16.2113C15.9711 16.1901 15.9641 16.1689 15.957 16.1407C15.9288 16.0348 15.9076 15.9219 15.9006 15.809C15.9006 15.7172 15.9076 15.6325 15.9288 15.5408C15.9782 15.2938 16.0911 15.0609 16.1687 14.8351C16.1899 14.7786 16.2181 14.7433 16.2464 14.6939C16.2887 14.6304 16.3099 14.5528 16.3381 14.4822C16.4016 14.3128 16.4652 14.1505 16.5216 13.9882C16.7263 13.4518 16.938 12.9154 17.1568 12.3861L17.3191 11.9909C17.6014 11.3204 17.8908 10.65 18.1872 9.98655C18.2084 9.93715 18.2366 9.88069 18.2578 9.83129C18.533 9.2314 18.8082 8.63857 19.0835 8.04574C19.1894 7.81285 19.3023 7.57995 19.4152 7.34705C19.6693 6.81774 20.2974 6.5919 20.8267 6.8248C20.989 6.89537 21.1372 7.00829 21.2713 7.12121C21.3913 7.22707 21.483 7.36117 21.5183 7.52349C21.5466 7.65052 21.5183 7.78462 21.4901 7.91871C21.4195 8.21512 21.2925 8.50448 21.236 8.80795C21.2219 8.87853 21.2078 8.9491 21.2007 9.02674C21.3772 8.67386 21.5607 8.3351 21.7512 7.98928C21.7724 7.94694 21.7936 7.90459 21.8147 7.86931C21.8712 7.77756 21.9277 7.6717 22.0265 7.62935C22.0265 7.62935 22.0265 7.62935 22.0335 7.62935C22.1606 7.57995 22.3017 7.63641 22.4146 7.68581C22.4781 7.71404 22.5487 7.74933 22.6193 7.7705C22.6828 7.78462 22.7393 7.78462 22.7887 7.8199C23.0145 7.96811 23.1909 8.20101 23.2615 8.46919C23.3109 8.67386 23.3109 8.87853 23.2404 9.07614Z" fill="url(#paint9_linear_117_6630)"/>
<path d="M23.2404 9.07592C23.1063 9.49231 22.9652 9.9087 22.817 10.318C22.2665 11.6872 21.6102 13.0211 20.9467 14.3408C20.9185 14.4043 20.8832 14.4678 20.855 14.5314C20.8268 14.5878 20.7985 14.6443 20.7703 14.7007C20.3963 15.4418 19.9869 16.1828 19.3447 16.698C18.5754 17.305 17.5662 17.5237 16.5852 17.559C14.9832 17.6225 13.3599 17.2555 11.9837 16.451C11.3909 16.1052 10.8475 15.6888 10.3746 15.1948C9.94412 14.7572 9.57007 14.2561 9.2666 13.7268C9.12545 13.4868 9.01959 13.2328 8.85021 13.014C8.83609 12.9928 8.82198 12.9787 8.80786 12.9575C8.82903 12.9222 8.85726 12.894 8.89255 12.8658C9.0337 12.7458 9.13251 12.5623 9.23837 12.4071C9.2666 12.3788 9.29483 12.3365 9.33012 12.3294C9.3654 12.3224 9.40775 12.3435 9.44304 12.3647C10.0782 12.7458 10.4029 13.4727 10.9039 14.0232C11.0027 14.1432 11.1227 14.2491 11.2498 14.3479C11.2498 14.3479 11.2498 14.3549 11.2568 14.3549C11.2498 14.3408 11.2427 14.3337 11.2356 14.3196C10.791 13.7056 10.417 13.0281 10.1347 12.3294C10.1206 12.3082 10.1135 12.28 10.0994 12.2518C10.0429 12.0895 9.97941 11.906 10.0712 11.7578C10.0853 11.7366 10.0994 11.7154 10.1206 11.6942C10.2052 11.6025 10.3323 11.5602 10.4381 11.4966C10.5017 11.4543 10.544 11.3978 10.6146 11.3555C10.7134 11.292 10.8051 11.2285 10.9039 11.1649C10.9533 11.1367 11.0027 11.1085 11.0521 11.0873C11.4685 10.9109 11.9555 11.0167 12.266 11.3555C12.8518 11.9695 13.3599 12.647 13.8469 13.3386C14.0939 13.6915 14.3339 14.0514 14.5668 14.4114C14.7785 14.736 15.0114 15.0607 15.202 15.3994C15.2514 15.4771 15.3078 15.5547 15.3643 15.6253C15.4137 15.6817 15.456 15.7452 15.4984 15.8017C15.5901 15.9358 15.6819 16.0699 15.7736 16.204L15.7948 16.2393C15.8583 16.3451 15.9289 16.451 15.9924 16.5639C16.0912 16.7333 16.19 16.9097 16.2747 17.0862C16.1547 16.8039 16.0559 16.5145 15.9853 16.2181C15.9783 16.1969 15.9712 16.1758 15.9642 16.1475C15.9359 16.0417 15.9148 15.9287 15.9077 15.8158C15.9077 15.7241 15.9148 15.6394 15.9359 15.5476C15.9853 15.3006 16.0983 15.0677 16.1759 14.8419C16.1971 14.7854 16.2253 14.7501 16.2535 14.7007C16.2959 14.6372 16.317 14.5596 16.3453 14.489C16.4088 14.3196 16.4723 14.1573 16.5288 13.995C16.7334 13.4586 16.9451 12.9222 17.1639 12.3929L17.3263 11.9977C17.6086 11.3273 17.8979 10.6568 18.1943 9.99339C18.2155 9.94399 18.2437 9.88753 18.2649 9.83812C18.5401 9.23824 18.8154 8.64541 19.0906 8.05258C19.1965 7.81968 19.3094 7.58679 19.4223 7.35389C19.6764 6.82458 20.3045 6.59874 20.8338 6.83163C20.9962 6.90221 21.1444 7.01513 21.2785 7.12805C21.3984 7.23391 21.4902 7.368 21.5255 7.53033C21.5537 7.65736 21.5255 7.79145 21.4972 7.92554C21.4267 8.22196 21.2996 8.51132 21.2432 8.81479C21.229 8.88536 21.2149 8.95594 21.2079 9.03357C21.3843 8.6807 21.5678 8.34194 21.7584 7.99612C21.7795 7.95377 21.8007 7.91143 21.8219 7.87614C21.8783 7.78439 21.9348 7.67853 22.0336 7.63619C22.1677 7.57973 22.3088 7.64324 22.4288 7.69265C22.4923 7.72088 22.5629 7.75617 22.6335 7.77734C22.697 7.79145 22.7535 7.79145 22.8029 7.82674C23.0287 7.97495 23.2051 8.20784 23.2757 8.47603C23.3251 8.6807 23.3251 8.88536 23.2545 9.08297L23.2404 9.07592Z" fill="url(#paint10_linear_117_6630)"/>
<path style="mix-blend-mode:screen" d="M22.0266 7.63641C19.4506 12.0473 17.3192 16.7053 15.202 21.3562C15.1526 21.3421 15.1102 21.3279 15.0679 21.3068C15.0114 21.2856 14.955 21.2433 14.8985 21.2221C14.8279 21.2009 14.7503 21.1939 14.6797 21.1797C14.5739 21.1586 14.4751 21.1233 14.3833 21.0809C14.2633 21.0245 14.1575 20.9468 14.0657 20.848C13.7411 20.4952 13.4235 20.1423 13.12 19.7753C12.9648 19.5918 12.8095 19.4012 12.6542 19.2107C12.6331 19.1684 12.6119 19.126 12.5978 19.0837C12.5978 19.0837 12.7954 18.9566 12.8095 18.9425C13.4023 18.5191 13.8822 17.9474 14.221 17.2981C14.5527 16.6488 14.7362 15.929 14.7362 15.202C14.7362 15.0538 14.715 14.9056 14.7503 14.7574L14.7644 14.708C14.9126 14.9339 15.0608 15.1597 15.202 15.3926C15.2514 15.4702 15.3079 15.5479 15.3643 15.6184C15.4137 15.6749 15.4561 15.7384 15.4984 15.7949C15.5902 15.929 15.6819 16.0631 15.7736 16.1971L15.7948 16.2324C15.8583 16.3383 15.9289 16.4442 15.9924 16.5571C16.0912 16.7265 16.19 16.9029 16.2747 17.0793C16.1548 16.797 16.0559 16.5077 15.9854 16.2113C15.9783 16.1901 15.9713 16.1689 15.9642 16.1407C15.936 16.0348 15.9148 15.9219 15.9077 15.809C15.9077 15.7172 15.9148 15.6325 15.936 15.5408C15.9854 15.2938 16.0983 15.0609 16.1759 14.8351C16.1971 14.7786 16.2253 14.7433 16.2536 14.6939C16.2959 14.6304 16.3171 14.5528 16.3453 14.4822C16.4088 14.3128 16.4723 14.1505 16.5288 13.9882C16.7335 13.4518 16.9452 12.9154 17.164 12.3861L17.3263 11.9909C17.6086 11.3204 17.898 10.65 18.1944 9.98655C18.2155 9.93715 18.2438 9.88069 18.2649 9.83129C18.5402 9.2314 18.8154 8.63857 19.0907 8.04574C19.1965 7.81285 19.3095 7.57995 19.4224 7.34705C19.6764 6.81774 20.3046 6.5919 20.8339 6.8248C20.9962 6.89537 21.1444 7.00829 21.2785 7.12121C21.3985 7.22707 21.4902 7.36117 21.5255 7.52349C21.5537 7.65052 21.5255 7.78462 21.4973 7.91871C21.4267 8.21512 21.2997 8.50448 21.2432 8.80795C21.2291 8.87853 21.215 8.9491 21.2079 9.02674C21.3844 8.67386 21.5679 8.3351 21.7584 7.98928C21.7796 7.94694 21.8007 7.90459 21.8219 7.86931C21.8784 7.77756 21.9348 7.6717 22.0336 7.62935C22.0336 7.62935 22.0336 7.62935 22.0407 7.62935L22.0266 7.63641Z" fill="url(#paint11_linear_117_6630)"/>
<path d="M15.8653 21.1231C15.8088 21.1937 15.7453 21.2572 15.6677 21.2996C15.4983 21.3913 15.2442 21.3772 15.0678 21.2996C15.0113 21.2714 14.9549 21.2361 14.8984 21.2149C14.8278 21.1937 14.7502 21.1796 14.6796 21.1725C14.4467 21.1302 14.228 21.0102 14.0656 20.8408C13.741 20.488 13.4234 20.1351 13.1199 19.7681C12.88 19.4858 12.6471 19.2035 12.4142 18.9141C12.3577 18.8506 12.3013 18.7801 12.2519 18.7095C12.2236 18.6601 12.2095 18.6107 12.1672 18.5683C12.0542 18.4413 11.9272 18.3284 11.8284 18.1872C11.7155 18.0178 11.6379 17.8132 11.652 17.6085C11.652 17.5168 11.6802 17.418 11.6167 17.3474C11.5391 17.2556 11.3767 17.3121 11.2709 17.2486C11.2426 17.2274 11.2215 17.2062 11.2003 17.178C11.1227 17.0863 11.038 16.9875 10.9533 16.8886C10.9039 16.8322 10.8333 16.7969 10.7768 16.7404C10.6428 16.6134 10.5439 16.4299 10.4381 16.2746C10.2687 16.0347 10.0923 15.7877 9.92289 15.5407C9.57001 15.0325 9.22419 14.5244 8.87838 14.0163C8.68077 13.7269 8.62431 13.3246 8.77251 13C8.80074 12.9435 8.83603 12.9082 8.88543 12.8659C9.02658 12.7459 9.12539 12.5624 9.23125 12.4071C9.25242 12.3719 9.28065 12.3366 9.323 12.3295C9.36534 12.3225 9.40063 12.3436 9.43592 12.3648C10.064 12.7459 10.3957 13.4728 10.8968 14.0233C10.9603 14.1433 11.0239 14.2633 11.0874 14.3903C10.6992 13.8963 10.2405 13.4517 9.73939 13.0705C9.64059 12.9929 9.51355 12.9082 9.37946 12.9294C9.11833 12.9717 8.7584 13.3599 8.89955 13.6281C9.59824 14.9196 10.3463 16.2464 11.5038 17.1427C11.5602 17.1921 11.6237 17.2345 11.659 17.305C11.7155 17.418 11.6873 17.5521 11.7155 17.672C11.7437 17.7991 11.8284 17.9049 11.9131 18.0037C12.4495 18.6601 12.9858 19.3094 13.5222 19.9657C13.7198 20.2057 13.9245 20.4527 14.1927 20.615C14.4326 20.7562 14.7079 20.8267 14.976 20.8973C15.2795 20.9749 15.5759 21.0455 15.8794 21.1231H15.8653Z" fill="#FFDF80"/>
<path d="M15.8724 16.5993C15.8935 16.6558 15.9147 16.7052 15.9359 16.7616C15.9994 16.9028 16.077 17.0439 16.1688 17.1709C16.2111 17.2345 16.2605 17.298 16.317 17.3544C16.3664 17.4109 16.437 17.4603 16.4722 17.5168C15.8794 16.6134 15.216 15.7524 14.5244 14.9196C14.3832 14.7502 14.1644 14.5597 13.9668 14.6585C14.0374 14.5385 14.108 14.4044 14.1009 14.2633C14.1009 14.1503 14.0374 14.0445 13.9809 13.9457C13.4869 13.1199 12.8306 12.4071 12.1178 11.7579C11.9625 11.6167 11.7931 11.4685 11.5814 11.412C11.4473 11.3767 11.292 11.3909 11.1721 11.4614C11.1227 11.4897 11.0591 11.532 11.045 11.5885C11.0239 11.6661 11.0874 11.8073 11.1085 11.8637C11.2568 12.2166 11.4403 12.5553 11.659 12.8659C11.412 12.5553 11.165 12.2448 10.918 11.9272C10.8404 11.8284 10.7486 11.7226 10.6286 11.6873C10.5792 11.6732 10.5228 11.659 10.4804 11.6873C10.4663 11.7014 10.4522 11.7226 10.4451 11.7367C10.3605 11.8355 10.2616 11.9202 10.1981 12.0401C10.1487 12.1319 10.1276 12.2307 10.1205 12.3295C10.1064 12.3083 10.0993 12.2801 10.0852 12.2519C10.0217 12.0896 9.96523 11.9061 10.0499 11.7579C10.1276 11.6238 10.2899 11.5744 10.4169 11.4967C10.4804 11.4544 10.5298 11.3909 10.5934 11.3556C10.6922 11.2921 10.7839 11.2285 10.8827 11.165C11.3273 10.8898 11.8919 10.9745 12.2519 11.3556C12.8306 11.9696 13.3458 12.64 13.8327 13.3317C14.0798 13.6845 14.3197 14.0445 14.5526 14.4044C14.7643 14.7291 14.9972 15.0537 15.1878 15.3925C15.2654 15.5336 15.3854 15.6606 15.4842 15.7947C15.5054 15.823 15.5265 15.8583 15.5477 15.8865C15.6395 16.0206 15.7665 16.1547 15.7947 16.3099C15.8159 16.4087 15.8441 16.5005 15.8724 16.5922V16.5993Z" fill="#FFDF80"/>
<path d="M15.943 16.1546C15.9147 16.0417 15.8936 15.9358 15.8865 15.8229C15.8795 15.4912 16.0418 15.1595 16.1547 14.8489C16.1759 14.7925 16.2041 14.7572 16.2323 14.7078C16.2747 14.6372 16.2958 14.5666 16.3241 14.489C16.3876 14.3267 16.4511 14.1573 16.5076 13.995C16.7616 13.3245 17.0298 12.6541 17.3121 11.9977C17.5944 11.3273 17.8838 10.6568 18.1802 9.99339C18.4696 9.3441 18.773 8.69481 19.0765 8.05258C19.1824 7.81968 19.2953 7.58679 19.4082 7.35389C19.6623 6.82458 20.2904 6.59874 20.8197 6.83163C20.982 6.90221 21.1302 7.01513 21.2573 7.12805C21.3702 7.23391 21.476 7.368 21.5043 7.52327C21.5325 7.6503 21.5043 7.78439 21.476 7.91849C21.4055 8.2149 21.2784 8.50426 21.222 8.80773C21.2079 8.8289 21.1937 8.84302 21.1937 8.86419C21.2784 8.46897 21.3561 8.05258 21.2502 7.65736C21.1443 7.2692 20.7774 6.90927 20.3751 6.95867C19.9587 7.00807 19.6976 7.42446 19.507 7.80557C19.4505 7.92554 19.387 8.04552 19.3306 8.15844C19.1612 8.4972 19.013 8.83596 18.8436 9.17472C18.7942 9.28058 18.7025 9.35116 18.646 9.44996C18.5613 9.60523 18.5119 9.78872 18.4484 9.9581C18.4413 9.97927 18.6248 10.0922 18.646 10.1063C18.7236 10.1628 18.8083 10.2122 18.8859 10.2545C18.6813 10.3957 18.4554 10.5086 18.2155 10.5792C18.1661 10.5933 18.1237 10.6074 18.0885 10.6356C18.0532 10.6639 18.039 10.7062 18.0179 10.7485C17.8838 11.1014 17.7567 11.4472 17.6227 11.8001C17.5874 11.8848 17.5591 11.9765 17.5662 12.0683C17.5662 12.1389 17.6015 12.2024 17.6085 12.2659C17.6297 12.4635 17.4674 12.647 17.3474 12.7882C17.291 12.8587 17.2063 12.9293 17.178 13.014C17.051 13.3951 16.8887 13.7621 16.7405 14.1291C16.5358 14.6372 16.3382 15.1454 16.1335 15.6535C16.063 15.837 15.9853 16.0275 15.9641 16.2252C15.9571 16.204 15.95 16.1758 15.943 16.1546Z" fill="#FFDF80"/>
<path d="M23.2404 9.07617C23.0357 9.69723 22.8169 10.3183 22.5911 10.9394C22.337 11.638 22.0618 12.3367 21.7795 13.0284C21.716 13.1766 21.6666 13.346 21.5748 13.4801C21.4901 13.6 21.4478 13.7482 21.3702 13.8753C21.2925 14.0023 21.1937 14.1293 21.0879 14.2352C21.0596 14.2634 20.7632 14.5175 20.742 14.5175C20.8126 14.6304 20.7773 14.7716 20.742 14.8915C20.742 14.9057 20.742 14.9127 20.735 14.9268C20.6362 15.2938 20.5515 15.6608 20.4456 16.0278C20.4033 16.176 20.3115 16.3172 20.248 16.4583C20.1492 16.663 20.0504 16.8606 19.9516 17.0582C19.7469 17.4746 19.5352 17.891 19.3235 18.3003C18.9 19.1049 18.4695 19.9094 18.0178 20.6999C18.0178 20.6999 18.0178 20.6999 18.0178 20.7069C17.9402 20.8481 17.8273 20.9539 17.7003 21.0527C17.6156 21.1163 17.5379 21.2009 17.4391 21.2433C17.3262 21.2927 17.1851 21.2786 17.0651 21.2786C16.9169 21.2786 16.7122 21.2998 16.5922 21.2009C16.4723 21.1021 16.4864 20.9186 16.5075 20.7634C16.5075 20.7493 16.5075 20.7422 16.5075 20.7281C16.6134 20.9328 16.8251 21.088 17.058 21.081C17.4674 21.0739 17.7497 20.6787 17.9614 20.3329C18.9706 18.6885 19.9869 17.0159 20.5938 15.1809C20.615 15.1103 20.6432 15.0256 20.6079 14.9551C20.5797 14.8915 20.5091 14.8633 20.4456 14.8421C20.2127 14.7645 19.9657 14.7363 19.7187 14.7786C20.615 14.4752 21.4196 13.8753 21.7371 12.986C22.0194 12.1815 22.3017 11.384 22.584 10.5865C22.7887 9.99365 23.0004 9.37965 22.944 8.75859C22.9157 8.48335 22.7817 8.24339 22.5346 8.10224C22.4429 8.05284 22.3441 8.01755 22.2523 7.97521C22.1677 7.93992 22.083 7.88346 21.9912 7.89052C21.9065 7.89052 21.8289 7.93992 21.7583 7.98932C21.7795 7.94698 21.8007 7.91169 21.8218 7.8764C21.8783 7.78465 21.9348 7.68585 22.0336 7.6435C22.1677 7.58704 22.3088 7.6435 22.4288 7.69996C22.4923 7.72819 22.5629 7.76348 22.6334 7.7776C22.6899 7.79171 22.7464 7.79171 22.8028 7.827C23.0357 7.97521 23.2051 8.2081 23.2757 8.47629C23.3251 8.6739 23.3251 8.88562 23.2545 9.08323L23.2404 9.07617Z" fill="#FFDF80"/>
</g>
<defs>
<linearGradient id="paint0_linear_117_6630" x1="15.5547" y1="-0.825773" x2="15.71" y2="14.3055" gradientUnits="userSpaceOnUse">
<stop stop-color="#CF5C2B"/>
<stop offset="1" stop-color="#59173E"/>
</linearGradient>
<linearGradient id="paint1_linear_117_6630" x1="26.889" y1="-5.79401" x2="-0.345823" y2="44.7235" gradientUnits="userSpaceOnUse">
<stop stop-color="#CF5C2B"/>
<stop offset="1" stop-color="#59173E"/>
</linearGradient>
<linearGradient id="paint2_linear_117_6630" x1="23.8261" y1="-0.112656" x2="-3.40881" y2="50.4119" gradientUnits="userSpaceOnUse">
<stop stop-color="#CF5C2B"/>
<stop offset="1" stop-color="#59173E"/>
</linearGradient>
<linearGradient id="paint3_linear_117_6630" x1="27.4042" y1="-0.94577" x2="27.5595" y2="14.1784" gradientUnits="userSpaceOnUse">
<stop stop-color="#CF5C2B"/>
<stop offset="1" stop-color="#59173E"/>
</linearGradient>
<linearGradient id="paint4_linear_117_6630" x1="6.37999" y1="-0.727203" x2="6.53526" y2="14.397" gradientUnits="userSpaceOnUse">
<stop stop-color="#CF5C2B"/>
<stop offset="1" stop-color="#59173E"/>
</linearGradient>
<linearGradient id="paint5_linear_117_6630" x1="28.11" y1="-0.95273" x2="28.2723" y2="14.1715" gradientUnits="userSpaceOnUse">
<stop stop-color="#CF5C2B"/>
<stop offset="1" stop-color="#59173E"/>
</linearGradient>
<linearGradient id="paint6_linear_117_6630" x1="14.5384" y1="-4.70014" x2="10.4027" y2="2.47733" gradientUnits="userSpaceOnUse">
<stop stop-color="#CF5C2B"/>
<stop offset="1" stop-color="#59173E"/>
</linearGradient>
<linearGradient id="paint7_linear_117_6630" x1="5.53316" y1="3.1404" x2="2.61842" y2="14.1077" gradientUnits="userSpaceOnUse">
<stop stop-color="#CF5C2B"/>
<stop offset="1" stop-color="#59173E"/>
</linearGradient>
<linearGradient id="paint8_linear_117_6630" x1="16.8039" y1="44.4761" x2="15.8864" y2="15.4981" gradientUnits="userSpaceOnUse">
<stop stop-color="#CF5C2B"/>
<stop offset="1" stop-color="#59173E"/>
</linearGradient>
<linearGradient id="paint9_linear_117_6630" x1="16.1335" y1="23.7134" x2="16.0347" y2="14.7927" gradientUnits="userSpaceOnUse">
<stop stop-color="#FFCE3B"/>
<stop offset="1" stop-color="#CC6923"/>
</linearGradient>
<linearGradient id="paint10_linear_117_6630" x1="16.1124" y1="19.3375" x2="16.0559" y2="12.5976" gradientUnits="userSpaceOnUse">
<stop stop-color="#FFCE3B"/>
<stop offset="1" stop-color="#CC6923"/>
</linearGradient>
<linearGradient id="paint11_linear_117_6630" x1="22.563" y1="2.43504" x2="13.9881" y2="20.2834" gradientUnits="userSpaceOnUse">
<stop stop-color="#F2DE6D"/>
<stop offset="1"/>
</linearGradient>
<clipPath id="clip0_117_6630">
<rect width="31.4552" height="31.18" fill="white"/>
</clipPath>
</defs>
</svg>
