<svg width="129" height="802" viewBox="0 0 129 802" fill="none" xmlns="http://www.w3.org/2000/svg">
<g opacity="0.1" clip-path="url(#clip0_112_50)">
<path d="M-105.553 501.197L-105.553 300.803L128.553 1.29734L128.553 800.703L-105.553 501.197Z" stroke="#F50057" stroke-miterlimit="10"/>
<path d="M61.7983 715.291L61.7983 86.7091" stroke="#F50057" stroke-miterlimit="10"/>
<path d="M18.5422 659.96L18.5422 142.04" stroke="#F50057" stroke-miterlimit="10"/>
<path d="M-105.552 319.02L128.553 73.9771" stroke="#F50057" stroke-miterlimit="10"/>
<path d="M-105.552 337.236L128.553 146.648" stroke="#F50057" stroke-miterlimit="10"/>
<path d="M-105.552 355.462L128.553 219.319" stroke="#F50057" stroke-miterlimit="10"/>
<path d="M-105.552 373.679L128.553 291.989" stroke="#F50057" stroke-miterlimit="10"/>
<path d="M-105.552 391.896L128.553 364.66" stroke="#F50057" stroke-miterlimit="10"/>
<path d="M-105.552 410.113L128.553 437.34" stroke="#F50057" stroke-miterlimit="10"/>
<path d="M-105.552 428.33L128.553 510.01" stroke="#F50057" stroke-miterlimit="10"/>
<path d="M-105.552 446.547L128.553 582.681" stroke="#F50057" stroke-miterlimit="10"/>
<path d="M-105.552 464.764L128.553 655.352" stroke="#F50057" stroke-miterlimit="10"/>
<path d="M-105.553 482.98L128.553 728.032" stroke="#F50057" stroke-miterlimit="10"/>
</g>
<defs>
<clipPath id="clip0_112_50">
<rect width="802" height="235" fill="white" transform="translate(-106 802) rotate(-90)"/>
</clipPath>
</defs>
</svg>
