<svg width="421" height="89" viewBox="0 0 421 89" fill="none" xmlns="http://www.w3.org/2000/svg">
<mask id="mask0_20_646" style="mask-type:alpha" maskUnits="userSpaceOnUse" x="0" y="0" width="421" height="89">
<rect width="421" height="89" fill="#D9D9D9"/>
</mask>
<g mask="url(#mask0_20_646)">
<mask id="path-2-inside-1_20_646" fill="white">
<path fill-rule="evenodd" clip-rule="evenodd" d="M378.594 -153.506C388.226 -130.64 408.573 -112 433.385 -112H941C968.614 -112 991 -89.6142 991 -62V-45C991 -17.3858 968.614 5 941 5H392.771C375.641 5 360.083 14.1253 348.784 27.0008C315.492 64.9362 265.894 89 210.5 89C155.106 89 105.508 64.9362 72.2161 27.0008C60.9168 14.1253 45.3592 5 28.2287 5H-520C-547.614 5 -570 -17.3858 -570 -45V-62C-570 -89.6142 -547.614 -112 -520 -112H-12.3855C12.4266 -112 32.7742 -130.64 42.4055 -153.506C69.4598 -217.738 134.529 -263 210.5 -263C286.471 -263 351.54 -217.738 378.594 -153.506Z"/>
</mask>
<path fill-rule="evenodd" clip-rule="evenodd" d="M378.594 -153.506C388.226 -130.64 408.573 -112 433.385 -112H941C968.614 -112 991 -89.6142 991 -62V-45C991 -17.3858 968.614 5 941 5H392.771C375.641 5 360.083 14.1253 348.784 27.0008C315.492 64.9362 265.894 89 210.5 89C155.106 89 105.508 64.9362 72.2161 27.0008C60.9168 14.1253 45.3592 5 28.2287 5H-520C-547.614 5 -570 -17.3858 -570 -45V-62C-570 -89.6142 -547.614 -112 -520 -112H-12.3855C12.4266 -112 32.7742 -130.64 42.4055 -153.506C69.4598 -217.738 134.529 -263 210.5 -263C286.471 -263 351.54 -217.738 378.594 -153.506Z" fill="#1B0D08"/>
<path d="M42.4055 -153.506L41.4839 -153.895L42.4055 -153.506ZM348.784 27.0008L349.535 27.6604L348.784 27.0008ZM72.2161 27.0008L71.4645 27.6604L72.2161 27.0008ZM378.594 -153.506L379.516 -153.895L378.594 -153.506ZM433.385 -111H941V-113H433.385V-111ZM990 -62V-45H992V-62H990ZM941 4H392.771V6H941V4ZM348.032 26.3412C314.926 64.065 265.6 88 210.5 88V90C266.188 90 316.058 65.8075 349.535 27.6604L348.032 26.3412ZM210.5 88C155.4 88 106.074 64.065 72.9678 26.3412L71.4645 27.6604C104.942 65.8075 154.812 90 210.5 90V88ZM28.2287 4H-520V6H28.2287V4ZM-569 -45V-62H-571V-45H-569ZM-520 -111H-12.3855V-113H-520V-111ZM43.3271 -153.118C70.2252 -216.979 134.931 -262 210.5 -262V-264C134.127 -264 68.6945 -218.497 41.4839 -153.895L43.3271 -153.118ZM210.5 -262C286.069 -262 350.775 -216.979 377.673 -153.118L379.516 -153.895C352.306 -218.497 286.873 -264 210.5 -264V-262ZM-12.3855 -111C12.9615 -111 33.5985 -130.021 43.3271 -153.118L41.4839 -153.895C31.9499 -131.259 11.8916 -113 -12.3855 -113V-111ZM-569 -62C-569 -89.062 -547.062 -111 -520 -111V-113C-548.167 -113 -571 -90.1665 -571 -62H-569ZM-520 4C-547.062 4 -569 -17.9381 -569 -45H-571C-571 -16.8335 -548.166 6 -520 6V4ZM392.771 4C375.276 4 359.464 13.3152 348.032 26.3412L349.535 27.6604C360.703 14.9354 376.006 6 392.771 6V4ZM990 -45C990 -17.938 968.062 4 941 4V6C969.167 6 992 -16.8335 992 -45H990ZM941 -111C968.062 -111 990 -89.0619 990 -62H992C992 -90.1665 969.166 -113 941 -113V-111ZM72.9678 26.3412C61.5364 13.3152 45.7245 4 28.2287 4V6C44.994 6 60.2972 14.9354 71.4645 27.6604L72.9678 26.3412ZM433.385 -113C409.108 -113 389.05 -131.259 379.516 -153.895L377.673 -153.118C387.401 -130.021 408.038 -111 433.385 -111V-113Z" fill="url(#paint0_linear_20_646)" mask="url(#path-2-inside-1_20_646)"/>
<mask id="path-4-inside-2_20_646" fill="white">
<path fill-rule="evenodd" clip-rule="evenodd" d="M378.594 -153.506C388.226 -130.64 408.573 -112 433.385 -112H941C968.614 -112 991 -89.6142 991 -62V-45C991 -17.3858 968.614 5 941 5H392.771C375.641 5 360.083 14.1253 348.784 27.0008C315.492 64.9362 265.894 89 210.5 89C155.106 89 105.508 64.9362 72.2161 27.0008C60.9168 14.1253 45.3592 5 28.2287 5H-520C-547.614 5 -570 -17.3858 -570 -45V-62C-570 -89.6142 -547.614 -112 -520 -112H-12.3855C12.4266 -112 32.7742 -130.64 42.4055 -153.506C69.4598 -217.738 134.529 -263 210.5 -263C286.471 -263 351.54 -217.738 378.594 -153.506Z"/>
</mask>
<path fill-rule="evenodd" clip-rule="evenodd" d="M378.594 -153.506C388.226 -130.64 408.573 -112 433.385 -112H941C968.614 -112 991 -89.6142 991 -62V-45C991 -17.3858 968.614 5 941 5H392.771C375.641 5 360.083 14.1253 348.784 27.0008C315.492 64.9362 265.894 89 210.5 89C155.106 89 105.508 64.9362 72.2161 27.0008C60.9168 14.1253 45.3592 5 28.2287 5H-520C-547.614 5 -570 -17.3858 -570 -45V-62C-570 -89.6142 -547.614 -112 -520 -112H-12.3855C12.4266 -112 32.7742 -130.64 42.4055 -153.506C69.4598 -217.738 134.529 -263 210.5 -263C286.471 -263 351.54 -217.738 378.594 -153.506Z" fill="#1B0D08"/>
<path d="M42.4055 -153.506L41.4839 -153.895L42.4055 -153.506ZM348.784 27.0008L349.535 27.6604L348.784 27.0008ZM72.2161 27.0008L71.4645 27.6604L72.2161 27.0008ZM378.594 -153.506L379.516 -153.895L378.594 -153.506ZM433.385 -111H941V-113H433.385V-111ZM990 -62V-45H992V-62H990ZM941 4H392.771V6H941V4ZM348.032 26.3412C314.926 64.065 265.6 88 210.5 88V90C266.188 90 316.058 65.8075 349.535 27.6604L348.032 26.3412ZM210.5 88C155.4 88 106.074 64.065 72.9678 26.3412L71.4645 27.6604C104.942 65.8075 154.812 90 210.5 90V88ZM28.2287 4H-520V6H28.2287V4ZM-569 -45V-62H-571V-45H-569ZM-520 -111H-12.3855V-113H-520V-111ZM43.3271 -153.118C70.2252 -216.979 134.931 -262 210.5 -262V-264C134.127 -264 68.6945 -218.497 41.4839 -153.895L43.3271 -153.118ZM210.5 -262C286.069 -262 350.775 -216.979 377.673 -153.118L379.516 -153.895C352.306 -218.497 286.873 -264 210.5 -264V-262ZM-12.3855 -111C12.9615 -111 33.5985 -130.021 43.3271 -153.118L41.4839 -153.895C31.9499 -131.259 11.8916 -113 -12.3855 -113V-111ZM-569 -62C-569 -89.062 -547.062 -111 -520 -111V-113C-548.167 -113 -571 -90.1665 -571 -62H-569ZM-520 4C-547.062 4 -569 -17.9381 -569 -45H-571C-571 -16.8335 -548.166 6 -520 6V4ZM392.771 4C375.276 4 359.464 13.3152 348.032 26.3412L349.535 27.6604C360.703 14.9354 376.006 6 392.771 6V4ZM990 -45C990 -17.938 968.062 4 941 4V6C969.167 6 992 -16.8335 992 -45H990ZM941 -111C968.062 -111 990 -89.0619 990 -62H992C992 -90.1665 969.166 -113 941 -113V-111ZM72.9678 26.3412C61.5364 13.3152 45.7245 4 28.2287 4V6C44.994 6 60.2972 14.9354 71.4645 27.6604L72.9678 26.3412ZM433.385 -113C409.108 -113 389.05 -131.259 379.516 -153.895L377.673 -153.118C387.401 -130.021 408.038 -111 433.385 -111V-113Z" fill="url(#paint1_linear_20_646)" mask="url(#path-4-inside-2_20_646)"/>
</g>
<defs>
<linearGradient id="paint0_linear_20_646" x1="1144.5" y1="293.5" x2="1243.73" y2="94.9672" gradientUnits="userSpaceOnUse">
<stop stop-color="#EB6A21"/>
<stop offset="1" stop-color="#260E04"/>
</linearGradient>
<linearGradient id="paint1_linear_20_646" x1="1144.5" y1="293.5" x2="1243.73" y2="94.9672" gradientUnits="userSpaceOnUse">
<stop stop-color="#EB6A21"/>
<stop offset="1" stop-color="#260E04"/>
</linearGradient>
</defs>
</svg>
