<svg width="72" height="71" viewBox="0 0 72 71" fill="none" xmlns="http://www.w3.org/2000/svg">
<g clip-path="url(#clip0_110_1557)">
<path d="M0.452284 33.5072C0.0645793 35.4036 -0.08081 37.3481 0.0322705 39.2766C0.145351 41.1086 0.209969 42.9728 1.32462 44.5156C1.76079 45.1263 2.31004 45.6566 2.9239 46.0905C3.32776 46.3798 3.82855 46.5084 4.2324 46.7816C4.32933 46.8458 4.42626 46.8941 4.42626 47.0226C4.42626 47.2637 3.94163 47.5208 3.78008 47.6654C3.457 47.9386 3.11775 48.244 3.00467 48.6618C2.79467 49.4011 3.16622 50.1725 3.47315 50.8153C4.21625 52.3099 5.05628 53.7562 5.96092 55.1544C9.66027 60.763 13.925 66.5323 20.4352 69.0715C24.1669 70.5179 28.0924 70.6625 32.0341 70.8553C36.1696 71.0643 40.3213 71.0643 44.4406 70.8553C48.14 70.6625 52.2109 70.3572 55.361 68.4448C57.7034 67.0145 59.5611 64.8931 60.9988 62.7397C63.3735 59.2041 65.4413 55.4758 67.2021 51.6027C67.3637 51.2331 67.606 50.8956 67.606 50.4939C67.606 50.301 67.6383 50.1242 67.606 49.9314C67.5575 49.5618 67.396 49.1922 67.1375 48.9029C67.8321 48.5654 68.3814 47.9547 68.7368 47.2797C68.9306 46.9101 69.0922 46.5244 69.2053 46.1227C69.3183 45.7852 69.3991 45.4638 69.593 45.1745C70.0291 44.5317 70.1745 43.7281 70.3845 42.9889C70.8692 41.2533 71.273 39.5016 71.58 37.7338C71.6284 37.4767 71.6607 37.2195 71.7092 36.9624C71.8707 35.8214 72 34.6804 71.9353 33.5394C71.9353 33.4269 71.9353 33.3144 71.9192 33.218C71.7577 37.4767 70.2876 41.2051 68.5268 45.1745C66.6852 49.3689 64.4882 53.3705 61.9681 57.1632C60.5304 59.3166 58.6888 61.438 56.3464 62.8682C53.1963 64.7967 49.1577 65.086 45.4907 65.2949C41.3874 65.5199 37.2681 65.5199 33.1649 65.3271C29.2555 65.1503 25.33 65.0217 21.6307 63.5754C17.6728 62.0165 14.4258 59.172 11.7926 56.0382C8.94948 52.6152 6.67171 48.6618 4.73319 45.0138C1.64771 39.2284 0.500747 33.2662 1.98695 27.2397C1.26 29.3128 0.80768 31.5305 0.387667 33.5554L0.452284 33.5072Z" fill="url(#paint0_linear_110_1557)"/>
<path d="M71.9838 32.8484C71.9838 32.9609 71.9838 33.0573 71.9838 33.1698C71.903 35.259 71.4991 37.2517 70.9014 39.1802C70.3037 41.1569 69.4799 43.1175 68.6075 45.1263C68.0421 46.3798 67.4606 47.6333 66.8467 48.8547C66.8144 48.9351 66.7659 49.0154 66.7336 49.0797C65.3282 51.8438 63.7774 54.5276 62.0488 57.115C61.435 58.031 60.7565 58.947 59.9811 59.7988C58.9634 60.9559 57.7679 62.0005 56.4271 62.8201C53.2932 64.7485 49.2384 65.0378 45.5714 65.2467C41.4682 65.4717 37.3488 65.4717 33.2456 65.2628C29.3363 65.07 25.4107 64.9575 21.7114 63.5111C17.7536 61.9523 14.5065 59.1078 11.8734 55.9579C11.8734 55.9418 11.8411 55.9258 11.8411 55.9097C9.9187 53.5795 8.23865 51.0082 6.78476 48.4529C6.36474 47.7458 5.96089 47.0226 5.57318 46.3155C5.31471 45.8495 5.05624 45.3834 4.81393 44.9174C4.50699 44.3389 4.23237 43.7764 3.95774 43.1978C2.6654 40.4337 1.84152 37.6053 1.55074 34.7768C1.3892 33.1376 1.3892 31.5145 1.58305 29.8753C1.69613 28.9593 1.85768 28.0593 2.08384 27.1433C2.35846 26.0826 2.71386 25.0059 3.13387 23.9292C3.24695 23.6399 3.36003 23.3506 3.48927 23.0614C3.87697 22.1132 4.26468 21.1811 4.70085 20.249C4.92701 19.7347 5.16932 19.2365 5.41164 18.7223C5.91242 17.6777 6.42936 16.6492 6.99477 15.6207C7.36632 14.9457 7.75402 14.2707 8.15788 13.6118C8.65867 12.7762 9.19176 11.9405 9.75716 11.1209C9.78947 11.0727 9.82178 11.0245 9.85409 10.9602C10.1287 10.5584 10.4195 10.1566 10.6941 9.75488C10.9364 9.4174 11.1626 9.09599 11.4211 8.77457C11.4534 8.72636 11.5018 8.66208 11.5503 8.61387C13.6988 5.83365 16.2512 3.39091 19.8698 2.18562C27.5108 -0.273186 35.4749 -0.241045 43.7783 0.289285C47.1222 0.514274 50.8377 1.12496 53.4709 3.19807C58.9472 7.52106 63.7289 12.5672 67.5413 18.2402C67.5898 18.3045 67.6382 18.3687 67.6706 18.433C69.1568 20.6508 70.2876 23.0935 71.0145 25.6327C71.0145 25.6327 71.0145 25.6487 71.0145 25.6648C71.1599 26.1308 71.273 26.613 71.3861 27.0951C71.4668 27.4647 71.5476 27.8183 71.6122 28.1879C71.6122 28.204 71.6122 28.22 71.6122 28.2361C71.8061 29.2485 71.903 30.2771 71.9676 31.3217C71.9999 31.852 71.9999 32.3662 71.9838 32.8644V32.8484Z" fill="url(#paint1_linear_110_1557)"/>
<path d="M71.9838 32.8484C71.9838 32.9609 71.9838 33.0573 71.9838 33.1698C71.903 35.259 71.4992 37.2517 70.9015 39.1802C68.8014 39.0838 66.6852 38.9231 64.5043 38.7945C55.9425 38.2481 47.3969 37.7499 38.8351 37.2999C26.2993 36.641 13.8927 36.2553 1.53463 34.809C1.37309 33.1698 1.37309 31.5466 1.56694 29.9074C13.9412 29.0236 26.2993 29.345 38.8512 29.6182C39.0128 29.6182 39.1905 29.6182 39.352 29.6342C38.6412 29.5217 37.9143 29.4093 37.2035 29.2968C26.2831 27.6254 14.2643 26.5005 3.48931 23.1096C3.87701 22.1614 4.26472 21.2293 4.70089 20.2972C4.92705 19.783 5.16936 19.2848 5.41168 18.7705C5.91246 17.7259 6.4294 16.6974 6.99481 15.6689C7.36636 14.9939 7.75406 14.3189 8.15792 13.66C18.5613 13.3708 29.2878 14.8493 39.2712 15.701C47.5099 16.392 55.7971 16.9384 64.0197 17.7902C65.199 17.9027 66.3944 18.0473 67.5575 18.208C67.606 18.2723 67.6544 18.3366 67.6867 18.4009C69.173 20.6186 70.3038 23.0614 71.0307 25.6005C71.0307 25.6005 71.0307 25.6166 71.0307 25.6327C71.1761 26.0987 71.2892 26.5808 71.4023 27.0629C71.483 27.4326 71.5638 27.7861 71.6284 28.1557C71.6284 28.1718 71.6284 28.1879 71.6284 28.204C71.8223 29.2164 71.9192 30.2449 71.9838 31.2895C72.0161 31.8198 72.0161 32.3341 72 32.8323L71.9838 32.8484ZM66.5721 49.0797C62.9535 48.694 59.3672 48.3404 55.7325 48.244C48.4954 48.0512 41.2744 47.7458 34.0534 47.3601C26.8162 46.9584 19.6921 46.5566 12.4388 46.5727C10.3064 46.5727 7.93176 46.3798 5.55707 46.3477C5.94477 47.0548 6.34863 47.7619 6.76864 48.4851C8.23869 51.0403 9.90259 53.6116 11.825 55.9418C18.9167 57.2436 25.9277 57.9507 33.1649 58.481C40.3859 58.9953 47.6069 59.4131 54.8279 59.7345C56.5564 59.8149 58.2526 59.8309 59.9488 59.8149C60.7242 58.9631 61.4189 58.0471 62.0166 57.1311C63.7451 54.5598 65.3121 51.876 66.7013 49.0958C66.6529 49.0958 66.6206 49.0958 66.5721 49.0958V49.0797Z" fill="url(#paint2_linear_110_1557)"/>
<path d="M67.6544 18.4169C69.1406 20.6347 70.2714 23.0774 70.9984 25.6166C70.8368 25.2791 70.643 24.9416 70.4653 24.6363C69.8675 23.5274 69.2375 22.4346 68.5752 21.3739C67.299 19.349 65.8936 17.3884 64.3912 15.5242C63.745 14.7207 62.9858 14.0136 62.6142 13.0333C62.2912 12.2137 61.6288 11.5708 61.015 10.9602C58.9795 8.90311 56.5887 7.26391 54.3755 5.43186C53.0993 4.3712 51.8554 3.21411 50.3531 2.49094C48.883 1.78383 47.2353 1.54277 45.6199 1.44634C45.0221 1.4142 44.4406 1.39813 43.8429 1.39813C43.6006 1.39813 43.3744 1.39813 43.1321 1.31778C42.8736 1.23743 42.599 1.22136 42.3244 1.18921C41.5651 1.10886 40.822 1.04458 40.0627 0.980297C33.7949 0.514249 27.4462 1.04458 21.3398 2.55522C20.2252 2.82842 19.0944 3.14983 18.0767 3.68016C17.9313 3.76051 17.7859 3.84087 17.6405 3.93729C16.6874 4.5319 15.8474 5.28722 14.975 5.99433C14.5389 6.36396 14.1027 6.70144 13.6504 7.02285C13.4565 7.15142 13.295 7.24784 13.085 7.34426C12.7619 7.50497 12.568 7.84245 12.3742 8.14779C11.9542 8.79062 11.6957 9.44951 11.3726 10.1245C11.3241 10.237 11.2757 10.3173 11.2434 10.4459C11.1626 10.8155 11.098 11.1851 11.0334 11.5548C10.581 11.5387 10.1126 11.4101 9.72485 11.1691C9.75716 11.1209 9.78947 11.0726 9.82178 11.0084C10.0964 10.6066 10.3872 10.2048 10.6618 9.80307C10.9041 9.46558 11.1303 9.14417 11.3888 8.82276C11.4211 8.77455 11.4695 8.71027 11.518 8.66205C13.6665 5.88184 16.2189 3.4391 19.8375 2.23381C27.5108 -0.273211 35.4749 -0.24107 43.7783 0.28926C47.1222 0.514249 50.8377 1.12493 53.4709 3.19804C59.0118 7.56925 63.8258 12.6797 67.6706 18.4169H67.6544Z" fill="#EB924D"/>
<path d="M71.5961 28.1879C71.5799 28.3165 71.5476 28.4129 71.5153 28.5414C71.4346 28.0754 71.3215 27.6094 71.3699 27.1433V27.0951C71.4507 27.4647 71.5315 27.8183 71.5961 28.1879Z" fill="#EB924D"/>
<path d="M66.9437 31.177C67.816 31.177 68.7368 31.193 69.5122 31.5948C70.8046 32.2376 71.4184 33.7322 71.79 35.1303C71.9354 33.8929 71.9192 32.6394 71.7254 31.418C71.6931 31.2091 71.6446 30.9841 71.5315 30.8074C71.3861 30.5984 71.16 30.4699 70.9338 30.3734C69.0599 29.5378 66.8952 29.9878 64.8598 30.3092C63.5997 30.5181 62.3397 30.6627 61.0797 30.7591C59.8035 30.8556 58.5434 30.9038 57.2672 30.8877C57.0249 30.8877 56.718 30.8234 56.508 30.952C56.201 31.1288 56.5887 31.0966 56.7341 31.0966C57.3803 31.0966 58.0265 31.0966 58.6888 31.0966C59.9812 31.0966 61.2735 31.1127 62.5658 31.1288C63.8582 31.1288 65.1667 31.1448 66.4591 31.1609C66.6206 31.1609 66.7821 31.1609 66.9275 31.1609L66.9437 31.177Z" fill="#EB924D"/>
<path d="M62.0165 57.1311C60.5949 59.2845 58.7372 61.4219 56.3948 62.8361C53.2609 64.7646 49.2061 65.0539 45.5391 65.2628C41.4359 65.4878 37.3165 65.4878 33.2133 65.2789C29.3039 65.086 25.3784 64.9735 21.6791 63.5272C17.7213 61.9683 14.4742 59.1238 11.8411 55.974C9.88639 53.6437 8.22249 51.0564 6.73629 48.469C6.04165 47.2798 5.37932 46.0905 4.76546 44.9335C4.45853 44.3549 4.1839 43.7924 3.90928 43.2139C1.46997 37.9588 0.678405 32.5912 2.01922 27.1594C2.29384 26.0987 2.64924 25.022 3.06925 23.9452C3.34387 23.2703 3.6185 22.5953 3.90928 21.9364C4.24852 21.1329 4.65238 20.3615 4.97547 19.558C5.2824 18.7544 5.65395 17.967 6.04165 17.2116C6.83322 15.701 7.81863 14.2707 8.93328 12.9851C9.11098 12.7922 9.28868 12.5833 9.531 12.4869C9.75716 12.3905 9.99947 12.3905 10.2418 12.4065C11.0495 12.4226 11.8572 12.4869 12.6649 12.5672C15.2012 12.7922 17.7697 13.6279 20.3383 13.5797C21.6145 13.5475 22.8907 13.3226 24.1668 13.2583C24.8292 13.2261 25.4754 13.2583 26.1377 13.2904C26.4608 13.3065 26.8 13.3386 27.1231 13.3547C27.2846 13.3547 27.4462 13.3868 27.6077 13.4029C27.7047 13.4029 27.8016 13.3868 27.9147 13.3868C27.9954 13.3868 28.0762 13.419 28.157 13.435C27.5593 13.6118 26.9292 13.7082 26.3154 13.8207C25.7015 13.9332 25.0715 14.0136 24.4415 14.0779C23.1814 14.2064 21.9214 14.2707 20.6614 14.3029C19.3852 14.3189 18.1251 14.3029 16.8489 14.2707C15.7504 14.2386 14.6358 14.2064 13.5373 14.1743C12.4065 14.1422 11.2595 14.1261 10.1772 14.4796C8.75559 14.9457 7.59247 16.0224 6.7686 17.2759C6.73629 17.3241 6.70398 17.3723 6.67167 17.4206C6.18704 18.1759 5.78318 19.0116 5.44394 19.8472C5.26624 20.2651 5.13701 20.715 4.94316 21.1007C4.87854 21.2293 4.78161 21.3097 4.68469 21.4382C4.5393 21.6471 4.44237 21.8882 4.34545 22.1293C4.10313 22.6435 3.87697 23.1417 3.66696 23.672C3.32772 24.5077 3.00463 25.3755 2.74616 26.2433C2.52 26.9826 2.16461 27.8986 2.24538 28.6861C2.31 29.3128 2.16461 29.9717 2.11614 30.5985C2.11614 30.7592 2.00306 32.6234 2.11614 32.6234C3.36003 32.6876 4.58776 32.9448 5.76703 33.3626C5.25009 33.4108 4.7493 33.5072 4.24852 33.6037C3.78004 33.7001 3.19849 33.9251 2.8754 34.3108C2.73001 34.4715 2.6977 34.7768 2.66539 34.9857C2.58462 35.4839 2.61693 36.0143 2.66539 36.5125C2.89155 38.6981 3.60234 40.8194 4.47468 42.8282L5.13701 44.3388C5.31471 44.7567 5.52471 45.2067 5.91242 45.4638C6.21935 45.6727 6.60706 45.737 6.96245 45.8013C7.6894 45.9298 8.36788 46.2352 9.11098 46.3959C10.5649 46.6852 12.0511 46.9101 13.5373 46.9423C16.2189 47.0066 18.949 46.4602 21.5337 47.1833C21.1137 47.2155 20.6937 47.2476 20.2736 47.2798C17.6566 47.4726 15.0235 47.6333 12.3903 47.778C11.098 47.8422 9.78947 47.9226 8.49712 47.9708C8.22249 47.9708 7.62478 47.9226 7.47939 48.2119C7.44708 48.2922 7.46324 48.3726 7.47939 48.4529C7.57632 48.935 7.91556 49.4493 8.15788 49.8832C8.86867 51.1367 9.75716 52.2617 10.6133 53.4027C11.4372 54.5276 12.3419 55.6204 13.3111 56.6168C13.7634 57.0829 14.2319 57.581 14.7327 57.9828C14.8135 58.0471 14.9104 58.1114 15.0073 58.1596C15.4435 58.3846 15.7666 58.8185 16.122 59.1399C16.9297 59.8791 17.8343 60.522 18.7874 61.0684C20.1283 61.8558 21.5821 62.4504 23.0684 62.9004C26.0731 63.8164 29.2232 64.1379 32.3571 64.3307C38.8835 64.7325 45.4906 64.5718 51.8716 63.1415C53.6001 62.7558 55.3286 62.2737 56.8794 61.3898C59.5126 59.8791 61.3703 57.3721 63.0504 54.849C64.0681 53.3223 65.0858 51.6992 65.2151 49.8671C63.9874 49.4814 62.7435 49.16 61.4834 48.935C62.7596 48.8226 64.0197 48.6779 65.2797 48.5494C65.4251 48.5494 65.5705 48.5172 65.7159 48.5494C65.829 48.5654 65.9097 48.5976 66.039 48.5976C66.2005 48.5976 66.362 48.5815 66.5236 48.5494C66.5721 48.5494 66.9598 48.5011 66.9598 48.4529C66.7821 49.1118 66.5236 49.7546 66.1843 50.3653C66.039 50.6385 65.8774 50.9117 65.6836 51.1528C65.3766 51.5385 65.1828 52.0045 64.9405 52.4384C64.6335 52.9848 64.3104 53.5312 63.9874 54.0776C63.3573 55.1222 62.695 56.1668 62.0165 57.1793V57.1311Z" fill="#EB924D"/>
<path d="M54.1495 31.0324C58.7211 30.936 63.2767 30.8556 67.8322 30.7753C68.7207 30.7592 69.6415 30.7431 70.4654 31.0645C71.2892 31.3859 72 32.1252 71.9677 32.9609C71.9677 32.9287 71.9677 32.9127 71.9677 32.8805C71.9677 32.3823 71.9677 31.852 71.9516 31.3377C71.9031 30.3092 71.79 29.2807 71.5962 28.2682C71.5477 28.429 71.4831 28.5736 71.37 28.6861C71.0146 29.12 70.1423 29.1521 69.6092 29.2486C69.1407 29.3128 68.6722 29.3771 68.2199 29.4253C63.519 29.9717 58.8181 30.5021 54.1333 31.0645L54.1495 31.0324Z" fill="url(#paint3_linear_110_1557)"/>
<path d="M6.26788 47.1834C6.42942 47.6173 6.59097 48.0512 6.76866 48.4851C6.07403 47.2958 5.4117 46.1066 4.79783 44.9495C4.4909 44.371 4.21627 43.8085 3.94165 43.23C4.02242 43.3103 4.10319 43.3746 4.16781 43.4228C4.60398 43.7925 5.0563 44.0978 5.54093 44.371C7.17252 45.287 9.06258 45.4959 10.888 45.7531C11.9058 45.8977 12.9881 46.1227 14.022 46.1227C18.0929 46.5405 22.1638 46.9262 26.2508 47.2798C19.5952 47.1191 12.9396 47.0869 6.28403 47.1834H6.26788Z" fill="url(#paint4_linear_110_1557)"/>
<path d="M67.186 46.4602C65.3929 47.7458 63.0505 48.3083 60.7727 48.8386C62.7758 48.8386 64.7628 48.8386 66.766 48.8868C66.5237 49.2243 66.4429 49.6582 66.556 50.0439L67.7514 47.328C68.1391 46.4441 68.446 45.496 68.9307 44.6603C68.9307 44.9495 68.4137 45.3674 68.2037 45.5924C67.8968 45.8977 67.5575 46.187 67.186 46.4602Z" fill="url(#paint5_linear_110_1557)"/>
<path d="M30.4994 13.2261C24.7484 14.1421 18.7067 13.9814 12.9396 13.3707C11.9703 13.2743 10.6457 12.9529 9.74103 13.5636C9.24025 13.885 8.75562 14.2225 8.25483 14.56C7.78636 14.8814 7.35019 15.251 6.97864 15.6849C7.85097 14.0939 8.80408 12.5351 9.83796 11.0405C10.1126 10.6387 10.4034 10.237 10.678 9.83521C10.678 9.91556 10.6618 9.97984 10.678 10.0602C10.7265 10.703 11.1788 11.2816 11.7442 11.619C12.3096 11.9565 12.9558 12.1172 13.6019 12.2297C19.0621 13.3225 24.9261 12.7761 30.4994 13.2422V13.2261Z" fill="url(#paint6_linear_110_1557)"/>
<path d="M1.4215 30.4538C1.17919 31.0163 1.51843 31.6913 2.03537 32.0287C2.55231 32.3662 3.18233 32.4626 3.79619 32.5269C6.12242 32.8001 8.48096 33.0251 10.8233 32.8001C8.15787 32.9126 5.25009 33.1858 2.58462 33.2983C2.40692 33.2983 2.22922 33.3144 2.06768 33.3947C1.72844 33.5554 1.61536 33.9893 1.63151 34.359C1.63151 34.7286 1.72844 35.1143 1.63151 35.4678C1.24381 33.7965 1.24381 32.1412 1.40535 30.4377L1.4215 30.4538Z" fill="url(#paint7_linear_110_1557)"/>
<path d="M61.1604 30.0521C60.7081 27.5933 59.8681 25.022 58.7373 22.5953C57.7196 20.4097 56.411 18.208 54.8925 16.2956C53.5194 14.5761 51.3063 13.4993 49.4001 12.4226C48.5762 11.9565 47.8492 11.3619 46.9931 10.9762C29.7402 3.32662 9.41801 18.1919 11.1627 36.2071C11.4535 39.2284 12.4227 42.1854 13.9897 44.821C18.3029 52.1331 26.2185 56.7936 34.8611 57.6132C38.0597 57.9185 41.3229 57.7739 44.4407 57.0346C50.7732 55.5401 55.9587 51.5385 59.0442 46.0263C61.6612 41.3497 62.0974 35.2107 61.1443 30.0521H61.1604ZM53.4063 43.6157C51.0801 47.7619 47.1869 50.7671 42.4214 51.892C40.079 52.4384 37.6235 52.5509 35.2327 52.326C28.7386 51.7153 22.7938 48.2279 19.5468 42.7318C18.3675 40.739 17.6406 38.5374 17.4144 36.2553C17.3498 35.5482 17.3175 34.8411 17.3498 34.134C17.3498 33.8287 17.3983 33.5073 17.3821 33.2019C17.3821 33.0412 17.3175 32.8966 17.2852 32.7359C17.1559 32.2698 17.1883 31.7234 17.2852 31.2574C17.3983 30.7431 17.6729 30.2449 18.1091 29.9717C18.4483 29.7628 18.8683 29.6985 19.2722 29.6503C20.2253 29.5539 21.1784 29.5057 22.1315 29.5378C20.9199 29.345 19.7083 29.1682 18.4968 28.9753C18.4483 28.9753 18.9006 27.529 18.9491 27.4165C19.1429 26.9183 19.4176 26.4683 19.6599 26.0023C20.0314 25.2309 20.5807 24.5077 21.0976 23.8327C22.1476 22.4346 23.3915 21.1972 24.7808 20.1044C26.1701 19.0276 27.6886 18.1116 29.2879 17.4045C30.9033 16.6974 32.6157 16.1992 34.3603 15.9421C36.1212 15.6849 37.9305 15.6849 39.7074 15.9421C41.3067 16.1831 42.8737 16.6331 44.3599 17.292C45.0061 17.5813 45.5553 18.0312 46.1692 18.3687C47.5908 19.1723 49.2547 19.9919 50.2885 21.2775C51.4355 22.7078 52.4209 24.3631 53.1802 26.0023C54.0202 27.8343 54.6502 29.7628 54.9895 31.6109C55.3772 33.7162 55.4418 35.7732 54.9572 37.8624C52.5017 37.991 50.0301 38.0231 47.5585 37.9588L54.2948 38.6981C55.0056 38.7784 54.6341 39.4052 54.4725 39.8551C54.3433 40.2408 54.2787 40.6265 54.2787 41.0444C54.2787 41.414 54.2464 41.7515 54.1171 42.105C54.0202 42.3622 53.9071 42.6193 53.794 42.8764C53.7294 43.005 53.6648 43.1336 53.6002 43.2621C53.5517 43.3585 53.3902 43.5353 53.3902 43.6317L53.4063 43.6157Z" fill="url(#paint8_linear_110_1557)"/>
<path d="M55.6355 49.7225C57.7033 47.6815 59.1249 45.062 59.9488 42.2818C60.7726 39.5176 61.0473 36.5928 61.015 33.7161C61.015 33.2983 60.9665 32.8644 60.8211 32.4787C60.6111 31.9323 60.1911 31.7234 59.6418 31.5948C58.8018 31.3859 57.9779 31.1931 57.1379 30.9841C59.1087 31.0645 61.2573 30.952 63.2281 30.8716C62.8889 30.9841 62.5658 31.0966 62.2265 31.2091C62.1458 31.2413 62.065 31.2734 62.0004 31.3216C61.9358 31.3859 61.9034 31.4663 61.8711 31.5627C61.7419 32.0287 61.8065 32.5269 61.855 33.009C61.9196 33.7804 61.9034 34.5679 61.855 35.3553C61.8388 35.741 61.7904 36.1267 61.7581 36.5124C61.6773 37.3642 61.4996 38.1838 61.338 39.0355C61.015 40.6265 60.8049 42.2336 60.3688 43.7924C59.9326 45.3513 59.238 46.878 58.091 48.0351C58.2202 48.3565 58.4787 48.6297 58.8018 48.7904C58.3979 48.8225 57.9779 48.8386 57.6387 49.0475C57.4448 49.16 57.2833 49.3207 57.1379 49.4814C56.5887 50.06 56.0556 50.6385 55.5063 51.201C55.3286 51.3778 55.1348 51.5063 54.9086 51.6349C54.424 51.9242 54.1009 52.4384 53.7132 52.8241C51.9362 54.6079 49.5777 55.749 47.1707 56.5204C46.993 56.5846 46.8153 56.6328 46.6214 56.6811C44.9575 57.1793 43.2613 57.5007 41.5328 57.6774C39.8043 57.8542 38.0758 57.8703 36.3472 57.7256C35.4911 57.6614 34.6187 57.5489 33.7787 57.3882C33.3587 57.3078 32.9225 57.2275 32.5025 57.131C31.1617 56.8257 29.8047 56.6007 28.4801 56.1829C24.603 54.9294 21.2106 52.5991 18.0767 50.06C17.7051 49.7546 17.3174 49.4493 16.9458 49.1279C16.7843 48.9993 16.5743 48.8547 16.4289 48.694C16.2997 48.5654 16.2027 48.4208 16.0735 48.2922C15.7989 48.0511 15.4596 47.9065 15.1043 47.8101C14.5388 47.6654 13.9573 47.6494 13.3757 47.569C13.4565 47.3922 13.6827 47.328 13.8765 47.2797C14.3127 47.1994 14.765 47.1512 15.2173 47.1351C15.4435 47.1351 15.6697 47.1673 15.8958 47.1351C16.0735 47.119 16.2351 47.103 16.4128 47.1351C17.3012 47.2155 18.1574 47.4244 19.0298 47.5208C19.5629 47.5851 20.0959 47.6012 20.629 47.5208C19.3528 47.6333 18.0928 47.7458 16.8166 47.8422C17.3012 48.9993 18.4805 49.7064 19.6113 50.2689C19.8375 50.3814 20.0959 50.4778 20.2898 50.6385C20.3706 50.7028 20.4675 50.7831 20.5483 50.8474C20.726 50.976 20.9037 51.1206 21.0814 51.2492C21.4368 51.5224 21.7922 51.7956 22.1476 52.0527C22.8583 52.5831 23.5853 53.0812 24.3445 53.5473C25.3946 54.1901 26.5092 54.7526 27.6562 55.2026C29.4332 55.8936 31.3232 56.3275 33.2294 56.4561C36.6703 56.6971 40.0304 57.1471 43.4552 56.6168C43.859 56.5525 44.2629 56.4882 44.6667 56.4079C47.3645 55.8454 49.8038 54.4472 52.0977 52.9045C53.487 51.9724 54.4724 50.8635 55.6517 49.6903L55.6355 49.7225Z" fill="#EB924D"/>
<path d="M13.9088 44.2103C13.4242 43.0371 12.9234 41.8479 12.4388 40.6748C12.1642 40.0159 11.8895 39.357 11.7118 38.6659C11.5503 38.0713 11.4695 37.4606 11.3726 36.85C11.2918 36.2553 11.1949 35.6447 11.1141 35.05C11.1949 35.6286 11.1949 36.2393 11.2757 36.8178C11.3403 37.4124 11.4372 38.007 11.5341 38.6017C11.7442 39.7748 12.0188 40.948 12.3742 42.089C12.5357 42.6193 12.7134 43.1657 12.9073 43.68C12.988 43.8889 13.0688 44.1139 13.1173 44.3389C13.1496 44.4835 13.1496 44.6442 13.1657 44.8049C13.2142 45.271 13.4888 45.737 13.6827 46.1548C14.1188 46.1227 14.555 46.1066 14.9912 46.0745C14.9104 46.0745 14.6843 45.737 14.6358 45.6727C14.5227 45.512 14.4096 45.3513 14.3127 45.1906C14.135 44.8692 14.0704 44.5317 13.925 44.1942L13.9088 44.2103Z" fill="#EB924D"/>
<path d="M22.1477 14.3993C24.49 14.6082 26.8486 14.4314 29.191 14.2547C28.6256 14.1261 28.044 14.0457 27.4624 13.9815C26.8809 13.9172 26.2993 13.9011 25.7178 13.885C25.1362 13.885 24.5385 13.885 23.9569 13.885C23.3754 13.885 22.7777 13.9011 22.1961 13.9011C21.6146 13.9011 21.0169 13.9011 20.4353 13.869C20.3707 13.869 20.2899 13.869 20.2253 13.869C20.193 13.9654 20.1768 14.11 20.2253 14.1904C20.2899 14.3029 20.4191 14.2868 20.5322 14.2868C20.8876 14.2868 21.243 14.3189 21.5984 14.3511C21.7923 14.3671 21.9861 14.3832 22.18 14.3993H22.1477Z" fill="#EB924D"/>
<path d="M58.3334 36.882C58.3495 37.7659 58.3011 38.6337 58.1718 39.4694C57.8811 41.6711 57.1541 43.696 56.1041 45.4959C56.1041 45.4959 56.1041 45.512 56.1041 45.528C51.5809 53.258 40.9998 56.9382 31.9533 54.5919C26.2993 53.1455 21.5499 49.2243 18.6421 44.2263C18.416 43.8567 18.206 43.4549 18.0121 43.0692C16.5582 40.2247 15.6697 37.0588 15.5405 33.8447C15.4759 32.6233 15.5405 31.418 15.7182 30.1967C15.7505 29.8592 15.8151 29.5378 15.8636 29.2164C16.0574 28.2521 16.3159 27.32 16.6551 26.4201C18.0929 22.5471 20.8553 19.4133 24.1346 16.8902C25.1846 16.1027 26.267 15.3635 27.3816 14.6885C33.7949 10.8476 41.7106 11.8922 47.7684 15.926C51.7909 18.6098 54.6179 22.2739 56.3141 26.4683C56.4756 26.854 56.621 27.2557 56.7664 27.6575C56.7987 27.7379 56.831 27.8182 56.8633 27.9146C56.9603 28.22 57.0572 28.5253 57.1541 28.8467C57.2834 29.2646 57.3964 29.6985 57.4934 30.1324C57.5418 30.2931 57.5741 30.4538 57.6064 30.6145C57.6549 30.7752 57.6872 30.952 57.7195 31.1127C57.7518 31.2895 57.7841 31.4662 57.8326 31.643C57.8649 31.8841 57.9134 32.1412 57.9618 32.3983V32.4626C57.9942 32.6715 58.0265 32.8805 58.0588 33.0894C58.0588 33.1376 58.0588 33.1697 58.0588 33.2019C58.0911 33.4751 58.1234 33.7483 58.1557 34.0215C58.1557 34.0697 58.1718 34.1179 58.1718 34.15C58.2688 35.05 58.3172 35.966 58.3334 36.882Z" fill="url(#paint9_linear_110_1557)"/>
<path d="M53.164 44.4674C52.4855 45.3995 51.7424 46.2834 50.9508 47.1351C50.8862 47.1994 50.8216 47.2637 50.757 47.328C51.2416 46.8137 51.6132 46.0423 51.9524 45.4156C52.3239 44.7406 52.6632 44.0656 52.9701 43.3585C53.2609 42.6835 53.6001 41.9604 53.7455 41.2372C53.8586 40.739 53.6648 40.2408 53.6809 39.7265C53.6971 39.1319 53.8748 38.6177 53.9878 38.0391C54.0525 37.6695 54.0201 37.2999 54.0201 36.9303C54.0201 36.1267 53.9555 35.3232 53.8586 34.5357C53.6648 32.9447 53.3094 31.3698 52.7601 29.8753C52.7278 29.7788 52.6955 29.6985 52.6632 29.6021C50.8377 24.9094 46.8799 20.8918 41.9528 19.7508C38.3181 18.9151 34.4411 19.6865 31.0486 21.2293C30.6286 21.406 30.2086 21.615 29.8048 21.8239C28.1732 22.6756 26.6385 23.672 25.1523 24.7648C23.6984 25.8255 22.3576 27.079 20.8552 28.0753C20.1606 28.5253 19.3206 28.8789 18.4967 28.6378C17.7051 28.4128 17.3013 27.7379 16.9297 27.0629C16.8167 26.854 16.7197 26.6451 16.6228 26.4201C18.0605 22.5471 20.8229 19.4133 24.1023 16.8902C25.1523 16.1027 26.2346 15.3635 27.3493 14.6885C33.7626 10.8476 41.6782 11.8922 47.7361 15.926C49.1415 16.8581 50.45 17.9509 51.6132 19.1722C52.5501 20.1525 53.3901 21.2132 54.1332 22.3381C56.3787 25.7451 57.9618 30.2931 58.2687 34.359C58.3495 35.5321 58.3172 36.7696 57.7357 37.7981C57.5095 38.1998 57.1864 38.5855 56.831 38.8748C56.7179 38.9712 56.6372 39.0194 56.5402 39.148C55.5225 40.5622 54.7633 42.1371 53.7778 43.5674C53.5678 43.8728 53.3578 44.162 53.1478 44.4513L53.164 44.4674Z" fill="#FFDF80"/>
<path d="M54.8925 36.8338C54.9087 37.5891 54.8602 38.3123 54.7633 39.0194C54.521 40.8836 53.9071 42.5871 53.0348 44.0977C53.0348 44.1138 53.0186 44.1299 53.0186 44.1299C49.5131 50.1242 41.759 53.2258 34.6188 52.1652C34.6027 52.1652 34.5865 52.1491 34.5542 52.1491C33.9403 52.0688 33.3265 51.9402 32.7287 51.7795C28.6902 50.7349 25.2008 48.1957 22.7454 44.837C22.3092 44.2584 21.9215 43.6638 21.5661 43.0371C21.3722 42.7157 21.1945 42.3943 21.033 42.0568C19.8053 39.6622 19.0622 36.9945 18.9491 34.2786C18.9006 33.2661 18.9652 32.2376 19.0945 31.2091C19.1429 30.9198 19.1752 30.6466 19.2399 30.3734C20.0476 26.0022 22.7938 22.5952 26.1701 19.9918C27.0586 19.3168 27.9632 18.6901 28.9002 18.1276C30.3056 17.2759 31.7756 16.7134 33.2942 16.4081C37.6235 15.5081 42.2598 16.6491 46.0238 19.1722C49.4001 21.4382 51.7586 24.5237 53.1963 28.0593C53.3256 28.3967 53.4548 28.7182 53.5679 29.0717C53.6002 29.136 53.6163 29.2003 53.6486 29.2806C53.7294 29.5378 53.8102 29.811 53.891 30.0681C53.9556 30.2931 54.0364 30.5341 54.0687 30.7591C54.0687 30.7752 54.0687 30.7913 54.0687 30.8073C54.1171 30.9198 54.1333 31.0323 54.1656 31.1448C54.1979 31.2894 54.2302 31.418 54.2625 31.5627C54.2948 31.6912 54.3271 31.8359 54.3594 31.9805C54.3594 32.1251 54.4079 32.2698 54.4402 32.4305C54.4725 32.6233 54.521 32.8483 54.5533 33.0572V33.1215C54.5856 33.2983 54.6179 33.459 54.6502 33.6518V33.7483C54.6825 33.9732 54.6987 34.2143 54.731 34.4393C54.731 34.4714 54.7471 34.5036 54.7471 34.5518C54.7795 34.9214 54.8118 35.3071 54.8441 35.6928C54.8441 36.0785 54.8764 36.4642 54.8764 36.8338H54.8925Z" fill="url(#paint10_linear_110_1557)"/>
<path d="M54.8602 35.6928C49.0285 39.823 39.5782 41.5747 31.2749 40.0319C26.3962 39.1319 22.1153 37.0588 18.9491 34.2786C18.9006 33.2662 18.9652 32.2376 19.0945 31.2091C19.1429 30.9198 19.1752 30.6466 19.2399 30.3734C20.0476 26.0022 22.7938 22.5953 26.1701 19.9918C27.0586 19.3169 27.9632 18.6901 28.9002 18.1276C34.2796 14.8814 40.9352 15.7652 46.0238 19.1722C49.4 21.4382 51.7586 24.5237 53.1963 28.0593C53.3256 28.3968 53.4548 28.7182 53.5679 29.0717C53.6002 29.136 53.6163 29.2003 53.6486 29.2806C53.7294 29.5378 53.8102 29.811 53.891 30.0681C54.004 30.4216 54.101 30.7913 54.1817 31.1448C54.2141 31.2895 54.2464 31.418 54.2787 31.5627C54.311 31.6912 54.3433 31.8359 54.3756 31.9805C54.3756 32.1251 54.4241 32.2698 54.4564 32.4305C54.4887 32.6233 54.5371 32.8483 54.5694 33.0572V33.1215C54.6018 33.2983 54.6341 33.459 54.6664 33.6518V33.7483C54.6987 33.9733 54.7148 34.2143 54.7471 34.4393C54.7471 34.4714 54.7633 34.5036 54.7633 34.5518C54.7956 34.9214 54.8279 35.3071 54.8602 35.6928Z" fill="url(#paint11_linear_110_1557)"/>
<path style="mix-blend-mode:screen" d="M54.0687 30.7591C53.891 30.3574 53.7294 29.9556 53.6164 29.4735C53.471 28.8789 53.2771 28.2682 52.8409 27.8343C52.4209 27.3843 51.7263 27.1593 51.177 27.4325C50.8216 27.6093 50.5955 27.9628 50.3855 28.3003C49.3839 29.9395 48.56 31.6591 47.5746 33.2983C44.0691 39.1158 39.352 44.2263 33.7788 48.1475C33.2457 48.5172 32.6803 48.9029 32.3572 49.4653C32.131 49.8349 32.0341 50.2849 32.1472 50.7028C32.2926 51.3295 33.068 51.6509 33.6011 51.8438C33.908 51.9563 34.2311 52.0527 34.5542 52.1491C33.9403 52.0688 33.3265 51.9402 32.7288 51.7795C28.6902 50.7349 25.2008 48.1957 22.7454 44.837C23.1977 45.0138 23.6823 45.062 24.1831 44.9655C25.0716 44.7727 25.7824 44.1138 26.4447 43.487C30.7579 39.3087 34.8288 34.7768 37.6881 29.4895C38.5605 27.8664 39.3359 26.1469 39.6105 24.3309C39.8851 22.4988 39.6267 20.5382 38.5766 19.0115C38.3343 18.674 38.0435 18.2562 37.6558 18.0633C37.5266 17.999 37.3812 17.9669 37.2358 17.8866C36.7835 17.6616 36.3796 17.3723 35.9112 17.1634C35.0873 16.7938 34.1988 16.5206 33.2942 16.4081C37.6235 15.5081 42.2598 16.6491 46.0238 19.1722C49.4001 21.4382 51.7586 24.5237 53.1963 28.0593C53.3256 28.3967 53.4548 28.7182 53.5679 29.0717C53.6002 29.136 53.6164 29.2003 53.6487 29.2806C53.7294 29.5378 53.8102 29.811 53.891 30.0681C53.9556 30.2931 54.0364 30.5341 54.0687 30.7591Z" fill="url(#paint12_linear_110_1557)"/>
<path d="M47.9461 45.2227C47.8492 45.2227 47.7361 45.2388 47.6392 45.2548C46.3468 45.3834 45.0545 45.4959 43.7783 45.5923C39.1905 45.9298 34.5865 46.0584 29.9986 45.8334C29.3848 45.8012 28.7709 45.7691 28.1732 45.7209C27.8824 45.7048 27.5916 45.6727 27.317 45.6566C27.2524 45.6566 26.5577 45.6245 26.5577 45.5923C26.3477 44.1138 26.1862 42.6192 26.057 41.1086C33.3426 41.189 40.9997 41.1247 48.2531 41.0122C48.1884 42.1853 48.2531 43.4388 48.0269 44.5799C47.9784 44.7888 47.9784 44.9977 47.9623 45.2066L47.9461 45.2227ZM25.5562 32.8644C25.5562 32.8644 25.5885 33.7965 25.6046 33.8608C25.6046 33.9411 25.6531 34.0054 25.6693 34.0697C25.7177 34.3268 25.6854 34.6 25.7016 34.8571C25.7177 35.3875 25.75 35.9178 25.7662 36.4481C25.7662 36.641 25.7662 36.8338 25.7823 37.0267C25.7823 37.3159 31.9856 37.1231 32.7126 37.1392C33.3426 37.1392 33.9726 37.1392 34.6188 37.1552C35.9273 37.1552 37.2196 37.1552 38.5281 37.1552C39.1905 37.1552 39.8528 37.1552 40.5151 37.1552C41.1774 37.1552 48.4308 37.0749 48.4308 37.0267C48.4792 35.6125 48.5115 34.1822 48.5277 32.768C41.129 32.4465 33.2133 32.4305 25.5723 32.8483L25.5562 32.8644ZM37.0419 28.7021C38.3343 28.7021 39.6428 28.7021 40.9351 28.7021C42.2275 28.7021 43.5198 28.7182 44.8122 28.7342C46.0399 28.7342 47.2676 28.7503 48.4954 28.7664C48.4954 28.7664 48.4469 27.6414 48.4308 27.5771C48.35 26.7736 48.2531 25.9219 48.3984 25.1183C48.4146 25.0058 48.4308 24.3952 48.3823 24.3952C40.7897 23.7523 32.761 23.5756 25.2169 24.2023C25.1846 24.2023 25.2492 24.9094 25.2492 24.9576C25.3139 25.8737 25.4431 26.9343 25.3623 27.8503C25.3623 27.9146 25.33 27.9789 25.33 28.0432C25.33 28.0914 25.33 28.1235 25.33 28.1718C25.33 28.22 25.3785 28.7342 25.3946 28.7342C25.7016 28.7664 26.0408 28.7342 26.3477 28.7342C26.6708 28.7342 26.9939 28.7342 27.317 28.7342C29.6109 28.7182 31.9371 28.7021 34.2472 28.7021C35.168 28.7021 36.105 28.7021 37.0258 28.7021H37.0419Z" fill="#FFDF80"/>
<path d="M48.4146 44.6763C48.3177 44.6763 48.2046 44.6924 48.1077 44.7084C46.8153 44.837 45.523 44.9495 44.2468 45.0459C39.659 45.3834 35.055 45.512 30.4671 45.287C29.8533 45.2548 29.2394 45.2227 28.6417 45.1745C28.3509 45.1584 28.0601 45.1263 27.7855 45.1102C27.7209 45.1102 27.0263 45.0781 27.0263 45.0459C26.8162 43.5674 26.6547 42.0729 26.5255 40.5622C33.8111 40.6426 41.4683 40.5783 48.7216 40.4658C48.6569 41.639 48.7216 42.8925 48.4954 44.0335C48.4469 44.2424 48.4469 44.4513 48.4308 44.6602L48.4146 44.6763ZM26.0247 32.318C26.0247 32.318 26.057 33.2501 26.0731 33.3144C26.0731 33.3947 26.1216 33.459 26.1378 33.5233C26.1862 33.7804 26.1539 34.0536 26.1701 34.3107C26.1862 34.8411 26.2185 35.3714 26.2347 35.9017C26.2347 36.0946 26.2347 36.2874 26.2508 36.4803C26.2508 36.7696 32.4541 36.5767 33.1811 36.5928C33.8111 36.5928 34.4411 36.5928 35.0873 36.6088C36.3958 36.6088 37.6881 36.6088 38.9966 36.6088C39.659 36.6088 40.3213 36.6088 40.9836 36.6088C41.646 36.6088 48.8993 36.5285 48.8993 36.4803C48.9477 35.0661 48.98 33.6358 48.9962 32.2216C41.5975 31.9002 33.6818 31.8841 26.0408 32.3019L26.0247 32.318ZM37.5104 28.1557C38.8028 28.1557 40.1113 28.1557 41.4036 28.1557C42.696 28.1557 43.9883 28.1718 45.2807 28.1878C46.5084 28.1878 47.7361 28.2039 48.9639 28.22C48.9639 28.22 48.9154 27.095 48.8993 27.0308C48.8185 26.2272 48.7216 25.3755 48.8669 24.572C48.8831 24.4595 48.8993 23.8488 48.8508 23.8488C41.2582 23.2059 33.2295 23.0292 25.6854 23.6559C25.6531 23.6559 25.7177 24.363 25.7177 24.4112C25.7824 25.3273 25.9116 26.3879 25.8308 27.304C25.8308 27.3682 25.7985 27.4325 25.7985 27.4968C25.7985 27.545 25.7985 27.5772 25.7985 27.6254C25.7985 27.6736 25.847 28.1878 25.8631 28.1878C26.1701 28.22 26.5093 28.1878 26.8162 28.1878C27.1393 28.1878 27.4624 28.1878 27.7855 28.1878C30.0794 28.1718 32.4057 28.1557 34.7157 28.1557C35.6365 28.1557 36.5735 28.1557 37.4943 28.1557H37.5104Z" fill="#A04623"/>
</g>
<defs>
<linearGradient id="paint0_linear_110_1557" x1="35.6042" y1="-1.88028" x2="35.9559" y2="32.5752" gradientUnits="userSpaceOnUse">
<stop stop-color="#CF5C2B"/>
<stop offset="1" stop-color="#59173E"/>
</linearGradient>
<linearGradient id="paint1_linear_110_1557" x1="61.5481" y1="-13.194" x2="-0.290974" y2="102.108" gradientUnits="userSpaceOnUse">
<stop stop-color="#CF5C2B"/>
<stop offset="1" stop-color="#59173E"/>
</linearGradient>
<linearGradient id="paint2_linear_110_1557" x1="54.5371" y1="-0.25711" x2="-7.30192" y2="115.061" gradientUnits="userSpaceOnUse">
<stop stop-color="#CF5C2B"/>
<stop offset="1" stop-color="#59173E"/>
</linearGradient>
<linearGradient id="paint3_linear_110_1557" x1="62.7274" y1="-2.15343" x2="63.0791" y2="32.2859" gradientUnits="userSpaceOnUse">
<stop stop-color="#CF5C2B"/>
<stop offset="1" stop-color="#59173E"/>
</linearGradient>
<linearGradient id="paint4_linear_110_1557" x1="14.6035" y1="-1.65527" x2="14.9553" y2="32.7841" gradientUnits="userSpaceOnUse">
<stop stop-color="#CF5C2B"/>
<stop offset="1" stop-color="#59173E"/>
</linearGradient>
<linearGradient id="paint5_linear_110_1557" x1="64.3428" y1="-2.16949" x2="64.7105" y2="32.2699" gradientUnits="userSpaceOnUse">
<stop stop-color="#CF5C2B"/>
<stop offset="1" stop-color="#59173E"/>
</linearGradient>
<linearGradient id="paint6_linear_110_1557" x1="33.2779" y1="-10.7031" x2="23.8852" y2="5.68301" gradientUnits="userSpaceOnUse">
<stop stop-color="#CF5C2B"/>
<stop offset="1" stop-color="#59173E"/>
</linearGradient>
<linearGradient id="paint7_linear_110_1557" x1="12.6649" y1="7.15142" x2="6.05768" y2="32.1422" gradientUnits="userSpaceOnUse">
<stop stop-color="#CF5C2B"/>
<stop offset="1" stop-color="#59173E"/>
</linearGradient>
<linearGradient id="paint8_linear_110_1557" x1="38.4636" y1="101.277" x2="36.3852" y2="35.2904" gradientUnits="userSpaceOnUse">
<stop stop-color="#CF5C2B"/>
<stop offset="1" stop-color="#59173E"/>
</linearGradient>
<linearGradient id="paint9_linear_110_1557" x1="39.6266" y1="6.29966" x2="35.7414" y2="47.9424" gradientUnits="userSpaceOnUse">
<stop stop-color="#FFCA2B"/>
<stop offset="1" stop-color="#D15B24"/>
</linearGradient>
<linearGradient id="paint10_linear_110_1557" x1="35.4911" y1="62.6111" x2="36.93" y2="34.9046" gradientUnits="userSpaceOnUse">
<stop stop-color="#FFCE3B"/>
<stop offset="1" stop-color="#CC6923"/>
</linearGradient>
<linearGradient id="paint11_linear_110_1557" x1="36.3635" y1="46.4119" x2="37.7864" y2="14.4147" gradientUnits="userSpaceOnUse">
<stop stop-color="#FFCE3B"/>
<stop offset="1" stop-color="#CC6923"/>
</linearGradient>
<linearGradient id="paint12_linear_110_1557" x1="62.0974" y1="6.57284" x2="15.3136" y2="53.0512" gradientUnits="userSpaceOnUse">
<stop stop-color="#F2DE6D"/>
<stop offset="1"/>
</linearGradient>
<clipPath id="clip0_110_1557">
<rect width="72" height="71" fill="white"/>
</clipPath>
</defs>
</svg>
