<svg width="226" height="212" viewBox="0 0 226 215" fill="none" xmlns="http://www.w3.org/2000/svg">
<g filter="url(#filter0_d_114_2791)">
<path d="M54.7456 117.522C57.2224 128.089 59.1772 131.874 60.7433 132.657C62.3094 133.439 111.838 140.88 115.881 137.488C119.923 134.095 154.202 75.6134 154.202 75.6134L152.77 67.7828L149.984 55.4033C149.984 55.4033 90.6172 56.365 87.8546 58.6432C85.0921 60.9214 54.7456 117.522 54.7456 117.522Z" fill="#E6B4BE"/>
<path d="M110.012 121.3C112.741 127.066 115.267 134.16 113.922 135.007C112.577 135.851 64.6871 131.431 62.378 129.92C60.0688 128.409 53.6292 118.182 54.7418 117.522C55.8545 116.862 108.835 118.819 110.009 121.3H110.012Z" fill="#C45E83"/>
<g style="mix-blend-mode:multiply" opacity="0.4">
<path d="M56.7004 121.372C60.0231 125.967 112.882 131.874 111.967 129.004C111.057 126.131 113.945 122.067 89.0245 121.372C64.1041 120.678 54.4827 118.312 56.6966 121.372H56.7004Z" fill="#C37886"/>
</g>
<path d="M161.888 77.3076C161.888 78.7425 152.762 94.6709 145.332 106.028C132.254 126.016 121.349 142.967 119.653 144.666C117.957 146.364 57.6416 137.48 56.5975 136.698C55.5535 135.915 43.6763 118.377 44.9833 114.721C51.7582 95.7394 87.9195 49.9004 91.3222 48.1946C95.7537 45.9774 147.439 46.5384 150.487 47.9084C152.034 48.6029 152.175 54.224 152.175 55.5291C152.175 56.4755 150.316 60.3641 144.749 70.5417C142.653 74.3769 140.226 78.7463 137.513 83.5699C127.609 101.193 111.182 123.906 111.182 123.906C109.368 124.166 59.2915 120.311 58.659 120.25L56.0564 119.892C56.0564 119.892 60.0841 129.39 61.3873 130.306C62.6904 131.218 114.699 136.049 114.699 136.049C130.734 112.42 153.414 75.2164 153.414 75.2164C153.212 74.4036 153.234 70.4119 152.911 68.6947C152.819 68.21 152.762 67.9048 152.762 67.9048C152.762 67.9048 159.895 69.0038 160.714 69.6029C161.278 70.0151 161.888 75.7392 161.888 77.3038V77.3076Z" fill="url(#paint0_linear_114_2791)"/>
<path opacity="0.56" d="M117.115 140.155C115.16 141.323 63.8221 134.992 61.0824 134.603C58.3465 134.21 50.7027 120.91 51.0914 119.995C51.4839 119.082 56.0564 119.895 56.0564 119.895C56.0564 119.895 60.0841 129.394 61.3872 130.309C62.6904 131.222 114.699 136.053 114.699 136.053C130.734 112.423 153.414 75.2202 153.414 75.2202C153.212 74.4074 153.234 70.4157 152.911 68.6985C155.742 69.0305 158.984 69.5571 159.346 70.2555C159.998 71.5224 119.07 138.987 117.115 140.155Z" fill="url(#paint1_linear_114_2791)"/>
<path opacity="0.56" d="M46.2712 113.469C45.8901 115.312 107.924 120.647 109.75 118.56C111.575 116.472 150.941 49.0378 149.961 48.5265C148.982 48.0113 96.7444 45.9926 92.2824 48.8318C87.8242 51.6671 48.9423 100.479 46.2712 113.469Z" fill="url(#paint2_linear_114_2791)"/>
<g style="mix-blend-mode:soft-light">
<path d="M147.161 50.2859C143.583 47.3513 119.268 48.3282 115.877 50.2859C112.485 52.2435 96.5844 74.1785 100.105 77.5443C103.626 80.9101 125.913 81.4863 128.783 79.5287C131.652 77.571 148.597 51.4612 147.161 50.2859Z" fill="#8DFFFF"/>
</g>
<g style="mix-blend-mode:multiply" opacity="0.4">
<path d="M124.328 83.192C114.193 81.5778 74.4838 74.5028 72.1098 76.8191C69.7359 79.1355 44.7089 108.901 50.314 111.771C55.9192 114.644 103.756 120.388 107.799 116.732C111.841 113.076 126.192 83.4897 124.328 83.192Z" fill="#635EC0"/>
</g>
<g style="mix-blend-mode:soft-light">
<path d="M95.3498 75.4798C83.4764 75.663 76.3966 72.404 76.7815 70.5494C77.1663 68.691 94.3743 48.1489 96.4587 48.4351C98.543 48.7213 112.325 48.4771 112.752 50.679C113.179 52.8809 99.5451 75.4188 95.3498 75.4798Z" fill="#8DFFFF"/>
</g>
<g style="mix-blend-mode:multiply" opacity="0.6">
<path d="M150.83 49.3355C150.026 50.0835 139.113 68.7938 139.258 70.3584C139.403 71.923 141.273 74.5638 142.093 74.2241C142.912 73.8845 152.164 56.8609 151.916 55.529C151.668 54.1972 151.478 48.7249 150.826 49.3317L150.83 49.3355Z" fill="#905EC0"/>
</g>
<g style="mix-blend-mode:soft-light">
<path d="M61.8483 130.641C60.2137 130.958 60.2518 133.462 61.132 134.091C62.0122 134.725 109.864 140.201 115.355 139.834C116.334 139.77 115.42 137.194 113.792 136.686C112.162 136.179 63.4792 130.321 61.8483 130.638V130.641Z" fill="#8DFFFF"/>
</g>
<g style="mix-blend-mode:multiply" opacity="0.6">
<path d="M50.1807 115.282C48.7518 115.163 45.2919 115.438 45.6463 116.674C47.2848 122.345 55.6563 136.625 56.6013 136.698C57.5463 136.77 61.513 137.465 60.9986 136.69C60.4842 135.915 52.4594 125.608 50.5046 120.91C49.9597 119.605 51.7887 119.533 54.1322 119.64C56.4794 119.746 60.6061 120.517 61.2577 119.93C61.9093 119.342 61.9207 116.934 60.0955 116.674C58.2703 116.415 51.0876 115.358 50.1769 115.282H50.1807Z" fill="#905EC0"/>
</g>
<g style="mix-blend-mode:soft-light">
<path d="M110.142 118.56C109.685 119.605 111.072 123.585 111.453 123.192C111.834 122.799 121.909 108.5 121.726 107.199C121.543 105.898 121.41 102.322 120.499 102.803C119.588 103.284 110.595 117.514 110.138 118.56H110.142Z" fill="#8DFFFF"/>
</g>
<g style="mix-blend-mode:soft-light">
<path d="M117.683 140.75C117.63 141.857 118.681 144.551 119.398 144.341C120.114 144.131 129.179 130.439 129.469 129.134C129.758 127.829 129.434 124.677 128.066 125.154C126.698 125.631 117.729 139.838 117.683 140.754V140.75Z" fill="#8DFFFF"/>
</g>
<g style="mix-blend-mode:multiply" opacity="0.6">
<path d="M118.03 144.353C117.001 144.54 100.368 143.429 100.174 142.708C99.9795 141.991 101.595 139.739 102.449 139.854C103.302 139.968 115.751 140.392 116.86 141.338C117.969 142.284 118.498 144.269 118.033 144.353H118.03Z" fill="#905EC0"/>
</g>
<g style="mix-blend-mode:multiply" opacity="0.6">
<path d="M109.174 119.605C108.397 119.311 93.3913 118.144 92.7397 119.037C92.0881 119.93 90.7125 121.967 91.8214 122.391C92.9302 122.815 110.134 124.116 110.367 123.524C110.599 122.933 109.852 119.857 109.178 119.605H109.174Z" fill="#905EC0"/>
</g>
<g style="mix-blend-mode:multiply" opacity="0.6">
<path d="M160.52 70.5494C159.625 70.8661 152.61 84.1614 152.72 85.207C152.831 86.2526 154.004 90.519 154.526 90.2786C155.048 90.0382 160.676 79.6088 161.24 77.6359C161.804 75.663 161.175 70.3204 160.524 70.5494H160.52Z" fill="#905EC0"/>
</g>
<path d="M56.0602 119.895C56.0602 119.895 57.9236 127.287 61.3911 130.309L64.5842 130.802C64.5842 130.802 59.9126 129.413 57.7254 123.131C56.7004 120.189 57.5463 120.128 57.5463 120.128L56.0602 119.899V119.895Z" fill="#301F5C"/>
<g style="mix-blend-mode:multiply" opacity="0.7">
<path d="M140.9 77.5213L138.709 81.4442L140.687 95.7928H144.897L146.726 103.757L147.812 101.982L151.447 95.7928L144.196 71.8276L140.9 77.5213Z" fill="#BE5286"/>
</g>
<path d="M88.1138 55.0484C88.1138 55.0484 88.7616 53.9036 89.1541 53.9036C89.5465 53.9036 83.4841 65.39 78.9382 68.5231C78.9382 68.5231 79.6698 66.9432 80.1614 65.764C80.6491 64.5848 88.1138 55.0522 88.1138 55.0522V55.0484Z" fill="#4D3982"/>
<path d="M64.2604 92.4461C64.2604 92.4461 65.8074 91.0494 66.1961 91.1486C66.5886 91.2478 58.678 104.764 55.2067 107.245C55.2067 107.245 55.4201 104.772 58.358 100.563C61.2958 96.3538 64.2566 92.4461 64.2566 92.4461H64.2604Z" fill="#301F5C"/>
<path d="M88.571 55.5101C88.571 55.5101 86.3534 53.0793 84.3986 52.7053C82.4438 52.3275 79.5365 51.4307 78.5991 52.3504C77.1435 53.7776 70.4523 62.818 70.4523 64.165C70.4523 65.5121 72.9291 70.2632 72.9291 70.2632L76.3395 65.7869C76.3395 65.7869 78.5 64.7833 80.8473 66.0884L81.4874 66.1151C81.4874 66.1151 85.5074 61.0702 88.571 55.5178V55.5101Z" fill="url(#paint3_linear_114_2791)"/>
<path d="M65.011 93.0834C65.011 93.0834 61.2501 89.7329 59.2954 89.3551C57.3406 88.9773 54.7381 89.0536 53.8007 89.9695C52.3451 91.3967 45.6539 100.437 45.6539 101.784C45.6539 103.131 47.7725 108.424 47.7725 108.424L50.6418 103.349C50.6418 103.349 54.7457 102.677 57.0929 103.986H58.217C59.242 102.761 61.7645 98.9717 65.011 93.0796V93.0834Z" fill="url(#paint4_linear_114_2791)"/>
<path d="M151.329 105.406C151.051 105.524 150.64 105.619 150.159 105.7H150.148C148.262 106.005 145.332 106.028 145.332 106.028L147.808 101.979C147.808 101.979 138.964 69.6297 138.206 69.5038C137.448 69.3778 131.29 70.0609 130.604 69.7671C129.918 69.4732 126.695 65.6533 126.695 64.9702C126.695 64.2872 126.207 61.3526 126.695 60.7611C127.182 60.1734 134.026 57.235 136.373 56.1589C138.72 55.0827 145.854 55.7124 145.854 55.7124C147.126 56.0596 156.61 94.9305 156.805 95.5181C156.999 96.1058 152.697 104.818 151.329 105.406Z" fill="url(#paint5_linear_114_2791)"/>
<path d="M151.329 105.406L150.159 105.699H150.148C148.262 106.005 145.332 106.028 145.332 106.028L147.808 101.979C147.808 101.979 138.964 69.6296 138.206 69.5037C137.448 69.3777 131.29 70.0608 130.604 69.767C129.918 69.4731 126.695 65.6532 126.695 64.9701C126.695 64.2871 126.207 61.3525 126.695 60.761C127.087 63.2071 129.743 66.0539 131.042 66.634C132.803 67.4163 139.989 65.2945 140.77 66.4393C141.552 67.5842 152.697 101.49 151.325 105.406H151.329Z" fill="url(#paint6_linear_114_2791)"/>
<path d="M58.2131 103.986C58.2131 103.986 54.8409 101.04 52.787 100.872C50.7332 100.704 46.6675 99.998 46.2674 101.49C45.8673 102.982 47.7687 108.424 47.7687 108.424L50.6379 103.349C50.6379 103.349 53.1871 103.253 54.7456 103.654C56.3003 104.058 57.0929 103.982 57.0929 103.982H58.2169L58.2131 103.986Z" fill="url(#paint7_linear_114_2791)"/>
<path d="M81.4836 66.1072C81.4836 66.1072 78.9877 61.9172 77.4216 62.2225C75.8593 62.5239 71.081 62.7147 71.0658 64.4854C71.0544 66.2523 72.9215 70.2592 72.9215 70.2592L76.3318 65.7829C76.3318 65.7829 77.8103 65.3593 78.9839 65.5615C80.1575 65.7638 80.8396 66.0843 80.8396 66.0843L81.4798 66.1111L81.4836 66.1072Z" fill="url(#paint8_linear_114_2791)"/>
<g style="mix-blend-mode:soft-light">
<path d="M140.576 65.4929C138.96 66.5347 132.037 67.1262 130.997 66.1455C129.953 65.1647 127.571 61.4326 129.149 60.2572C130.726 59.0819 136.423 56.2045 138.705 56.0748C140.988 55.945 145.011 55.6359 145.072 56.4831C145.133 57.3303 141.761 64.7259 140.572 65.4891L140.576 65.4929Z" fill="white"/>
</g>
<g style="mix-blend-mode:multiply" opacity="0.2">
<path d="M141.647 65.3633C142.527 68.3017 148.17 89.958 148.898 89.7749C149.626 89.5917 153.093 84.9017 152.686 82.6044C152.278 80.3071 146.539 56.8457 145.758 57.628C144.977 58.4103 141.228 63.9666 141.643 65.3633H141.647Z" fill="#DA0553"/>
</g>
<g style="mix-blend-mode:soft-light">
<path d="M149.573 91.9195C150.182 94.7969 151.28 101.185 152.69 101.002C153.68 100.872 155.928 97.4567 155.829 95.6059C155.73 93.7551 153.962 83.5546 153.223 84.2911C152.484 85.0277 149.199 90.1527 149.573 91.9195Z" fill="white"/>
</g>
<g style="mix-blend-mode:soft-light">
<path d="M129.171 61.1007C130.882 62.9935 143.335 60.8221 144.173 58.8416C145.012 56.861 142.249 55.8574 138.099 56.5519C133.95 57.2465 127.735 59.5132 129.171 61.1007Z" fill="white"/>
</g>
<g style="mix-blend-mode:soft-light">
<path d="M150.99 104.723C151.402 102.395 148.593 100.414 147.812 101.983C147.031 103.547 145.316 105.543 146.246 105.76C147.176 105.978 150.842 105.558 150.986 104.726L150.99 104.723Z" fill="white"/>
</g>
<g style="mix-blend-mode:multiply" opacity="0.3">
<path d="M145.514 81.9594C144.425 78.6813 141.433 76.5977 141.167 77.0595C140.9 77.5212 147.225 100.861 147.911 101.006C148.597 101.151 149.969 100.754 150.259 99.6813C150.544 98.6052 146.299 84.3101 145.518 81.9594H145.514Z" fill="#B30053"/>
</g>
<g style="mix-blend-mode:multiply" opacity="0.3">
<path d="M140.287 67.027C139.357 68.687 138.766 69.0839 137.131 69.2289C135.497 69.3739 130.509 69.8662 130.707 69.4731C130.901 69.08 130.806 67.2445 131.686 67.027C132.563 66.8095 140.972 65.802 140.29 67.027H140.287Z" fill="#B30053"/>
</g>
<g style="mix-blend-mode:soft-light">
<path d="M127.281 63.2758C126.63 62.6232 126.729 64.7106 127.217 65.428C127.704 66.1455 130.177 69.7593 130.509 69.2785C130.837 68.7977 131.084 67.4849 130.699 66.9621C130.315 66.4393 128.055 64.0466 127.285 63.2758H127.281Z" fill="white"/>
</g>
<g style="mix-blend-mode:soft-light">
<path d="M147.404 59.7307C148.791 68.5612 145.13 77.3573 144.124 76.0598L147.481 86.9968C147.481 86.9968 147.328 62.9706 150.83 72.0644L147.404 59.7307Z" fill="white"/>
</g>
<g style="mix-blend-mode:multiply" opacity="0.5">
<path d="M74.9868 126.417C74.9868 126.417 104.895 129.107 111.152 130.569C111.152 130.569 105.97 131.004 91.2079 129.76C76.4462 128.516 74.9868 126.417 74.9868 126.417Z" fill="#913F67"/>
</g>
<g style="mix-blend-mode:multiply" opacity="0.7">
<path d="M44.8879 115.282C45.3757 117.732 47.4105 124.826 56.6013 136.698C56.6013 136.698 108.648 145.292 119.089 144.83L117.111 140.155C117.111 140.155 104.697 139.186 99.0764 134.828C99.0764 134.828 112.485 135.66 114.703 136.053C114.703 136.053 114.063 127.932 111.979 125.288L114.798 118.815L111.182 123.91C111.182 123.91 110.607 118.468 109.749 118.556C105.215 119.033 99.9071 118.522 77.6197 118.228C55.3324 117.938 44.8879 115.282 44.8879 115.282Z" fill="#BE5286"/>
</g>
<path d="M137.056 64.1706C140.2 63.8858 142.581 61.7967 142.374 59.5046C142.167 57.2125 139.45 55.5853 136.307 55.8702C133.163 56.1551 130.782 58.2441 130.989 60.5362C131.196 62.8283 133.913 64.4555 137.056 64.1706Z" fill="url(#paint9_linear_114_2791)"/>
<g style="mix-blend-mode:soft-light">
<path d="M133.153 57.1701C131.199 58.6698 133.679 58.0936 136.171 58.128C138.663 58.1623 141.159 58.7996 140.816 57.8837C140.187 56.2008 136.209 54.827 133.153 57.1701Z" fill="white"/>
</g>
<g style="mix-blend-mode:multiply" opacity="0.3">
<path d="M141.331 59.0095C140.748 58.1776 132.551 58.5286 132.304 58.769C130.981 60.0513 133.161 62.6577 136.895 62.402C140.629 62.1463 142.138 60.1619 141.331 59.0095Z" fill="#B30053"/>
</g>
<path d="M135.607 56.2734C135.703 56.9946 137.051 57.3533 137.543 57.2198C138.038 57.0824 138.507 56.3459 138.183 56.2314C137.855 56.1169 135.565 55.9528 135.607 56.2734Z" fill="white"/>
<g style="mix-blend-mode:multiply" opacity="0.7">
<path d="M131.012 59.8147C132.136 63.4171 139.959 63.6804 142.317 60.4444C142.317 60.4444 142.497 62.963 139.246 64.5886C135.996 66.2143 132.951 65.6877 131.663 64.5161C130.376 63.3446 131.012 59.8147 131.012 59.8147Z" fill="#BE5286"/>
</g>
<g style="mix-blend-mode:multiply" opacity="0.2">
<path d="M85.8809 53.911C83.8347 54.4147 78.7248 61.4936 79.1249 62.2072C79.525 62.9208 80.6491 65.1723 81.3083 64.7296C81.9675 64.2908 87.9461 56.3953 88.03 55.7236C88.1138 55.052 86.2695 53.8156 85.8809 53.911Z" fill="#DA0553"/>
</g>
<g style="mix-blend-mode:soft-light">
<path d="M78.401 61.5472C77.1892 62.3868 72.1785 62.4097 72.1442 61.9632C72.1099 61.5167 78.2714 52.4115 79.1021 52.3466C79.9328 52.2817 84.631 52.9648 84.7911 53.3579C84.9511 53.7509 79.3802 60.8718 78.401 61.551V61.5472Z" fill="white"/>
</g>
<g style="mix-blend-mode:soft-light">
<path d="M60.0232 89.9885C57.615 89.4542 55.2449 89.3054 54.2046 89.9885C53.1682 90.6716 46.2865 100.12 47.0676 100.219C47.8488 100.319 52.4442 100.612 53.7169 99.876C54.9896 99.1433 60.8272 90.1678 60.0232 89.9885Z" fill="white"/>
</g>
<g style="mix-blend-mode:multiply" opacity="0.2">
<path d="M60.6594 90.5762C59.9393 91.3318 54.0978 100.074 54.6161 100.563C55.1343 101.051 56.9138 102.929 57.9083 102.715C58.899 102.501 64.2756 93.9572 64.2756 93.3925C64.2756 92.8277 61.231 89.977 60.6594 90.5762Z" fill="#DA0553"/>
</g>
<path d="M138.709 84.5582C138.709 84.5582 135.764 87.8935 130.711 89.8931C125.605 91.9156 117.553 91.9195 117.462 91.9195L117.13 87.7904C117.637 87.1303 117.995 86.2525 117.995 86.2525L116.14 86.0198C116.14 86.0198 113.975 90.6754 107.01 96.3996C99.9072 102.234 90.5258 103.353 90.5258 103.353C89.9466 103.902 89.6342 104.948 89.6342 104.948C90.7316 105.016 93.4904 105.131 94.6259 104.948L95.3499 109.668C95.3499 109.668 93.8219 111.687 88.5863 115.835C82.7716 120.437 77.0368 122.391 77.0368 122.391C75.4974 120.605 73.1502 118.205 72.1099 115.732C71.405 114.057 70.9096 111.198 71.0735 109.619C71.485 105.673 72.9444 103.139 72.9444 103.139C72.9444 103.139 77.113 104.181 78.5 103.761C79.0945 103.581 81.3121 99.6356 81.3121 99.6356C81.3121 99.6356 79.1897 98.7274 77.6884 95.5753C75.3221 90.6067 76.0918 84.5887 76.0918 84.5887C76.0918 84.5887 74.5676 84.0965 73.8246 84.2834C73.0816 84.4666 70.0942 89.9961 70.0942 89.9961C65.876 88.027 60.4156 82.3105 60.4156 82.3105C59.082 78.2502 59.524 76.8268 59.524 76.8268C71.1306 70.6409 77.6351 69.8509 78.5267 69.4197C78.5915 69.3892 78.6715 69.3663 78.702 69.4197C79.5136 70.9194 80.5577 73.2702 80.5577 73.2702C80.5577 73.2702 82.7868 69.6525 91.6613 62.5088C100.463 55.4261 107.425 55.5635 107.425 55.5635L108.454 54.2698L104.038 54.4148L104.019 49.7744C110.466 43.2374 119.348 40.1311 120.125 40.0014C120.564 39.9289 122.118 42.707 123.357 45.695C124.309 47.9961 124.386 49.5302 124.302 50.8735C124.107 53.9569 122.347 55.9145 122.347 55.9145C120.556 55.2658 117.82 54.8384 117.82 54.8384L115.423 58.4828C120.712 61.6349 121.718 69.683 121.551 72.4077C121.387 75.0447 121.65 75.2469 121.547 75.4644L121.539 75.4759H123.425L124.687 72.568C131.126 72.0338 137.421 79.6774 137.924 80.2918C138.096 80.5017 138.24 81.0627 138.355 81.7114C138.583 82.9669 138.709 84.5544 138.709 84.5544V84.5582Z" fill="url(#paint10_linear_114_2791)"/>
<path d="M76.7777 81.1962L76.088 84.581C76.088 84.581 73.8398 84.2452 73.7103 84.4551C73.4855 84.8215 70.0942 89.9885 70.0942 89.9885C65.876 88.0194 60.4156 82.3028 60.4156 82.3028C59.082 78.2425 59.524 76.8191 59.524 76.8191C62.7514 80.7802 67.465 83.8674 68.1165 83.8674C68.7681 83.8674 72.1099 80.2307 72.1099 80.2307L76.7815 81.1962H76.7777Z" fill="url(#paint11_linear_114_2791)"/>
<path d="M80.5539 73.2626L79.9442 73.8159L76.2786 73.1366L78.5229 69.4121H78.6982C79.6813 71.0187 80.5539 73.2626 80.5539 73.2626Z" fill="url(#paint12_linear_114_2791)"/>
<path d="M110.759 50.5796L108.446 54.2621L104.03 54.4071L104.011 49.7667C107.749 49.679 110.756 50.5834 110.756 50.5834L110.759 50.5796Z" fill="url(#paint13_linear_114_2791)"/>
<path d="M117.816 54.8423L115.42 58.4866C120.708 61.6387 121.714 69.6869 121.547 72.4116C121.383 75.0485 121.646 75.2508 121.543 75.4683L121.535 75.4798H117.241C121.219 60.6618 111.979 56.4679 111.979 56.4679L115.061 51.0681L122.873 50.8315C122.873 50.8315 124.237 48.7976 123.357 45.6951C124.309 47.9924 124.386 49.5303 124.302 50.8697C124.107 53.9531 122.347 55.9108 122.347 55.9108C120.392 55.3956 117.82 54.8346 117.82 54.8346L117.816 54.8423Z" fill="url(#paint14_linear_114_2791)"/>
<path d="M138.709 84.5582C138.709 84.5582 135.764 87.8935 130.711 89.8931C125.605 91.9157 117.553 91.9195 117.462 91.9195L117.13 87.7905C127.781 87.1112 131.519 84.73 138.099 80.6467C138.328 81.9022 138.713 84.5544 138.713 84.5544L138.709 84.5582Z" fill="url(#paint15_linear_114_2791)"/>
<path d="M120.084 82.0435L117.995 86.2527L116.14 86.0199C116.14 86.0199 113.975 90.6755 107.01 96.3997C99.9072 102.234 90.5258 103.353 90.5258 103.353C89.9466 103.902 89.6342 104.948 89.6342 104.948C88.2129 105.005 84.8063 104.494 84.8063 104.494L87.6908 100.559C87.6908 100.559 95.8147 98.7695 103.744 93.0797C109.677 88.8209 114.295 81.5283 114.295 81.5283L120.084 82.0397V82.0435Z" fill="url(#paint16_linear_114_2791)"/>
<path d="M95.3499 109.668C95.3499 109.668 93.9705 111.882 88.5863 115.835C82.3143 120.437 77.0368 122.391 77.0368 122.391C75.4974 120.605 71.043 116.953 71.043 110.138C71.9842 115.293 74.7201 116.858 76.1947 117.392C76.1947 117.392 84.189 117.129 94.6297 104.948C94.7249 104.837 95.3537 109.668 95.3537 109.668H95.3499Z" fill="url(#paint17_linear_114_2791)"/>
<path d="M113.678 69.3204C113.705 72.2512 112.733 75.678 110.645 79.2041C104.899 88.897 92.8578 96.1362 85.2102 92.3887C85.0731 92.3201 84.9397 92.2514 84.8063 92.1789C77.4026 88.0804 80.6872 76.0482 89.7828 67.7024C96.8779 61.1883 105.329 59.1887 109.944 61.921C112.341 63.3406 113.648 66.008 113.678 69.3242V69.3204Z" fill="url(#paint18_linear_114_2791)"/>
<path d="M88.6054 85.6382C88.6054 85.6382 90.823 88.1988 95.5137 86.4854C100.204 84.7719 103.725 73.8083 103.725 71.9804C103.725 70.1525 98.9012 70.6142 97.4685 71.427C96.0357 72.2399 91.1927 77.5366 92.7664 78.2159C94.3401 78.899 96.9464 75.6324 96.9464 75.6324C96.9464 75.6324 97.3389 79.5477 97.076 80.9864C96.8169 82.4212 88.5673 82.6197 87.2831 82.0625C85.999 81.5054 97.9905 66.3631 99.8157 65.909C101.641 65.451 108.641 70.6753 109.052 71.9804C109.464 73.2855 101.119 85.5962 97.0798 87.0769C93.0407 88.5575 90.4306 87.4203 88.6092 85.642L88.6054 85.6382Z" fill="#47FFFF"/>
<path d="M113.678 69.3206C112.649 63.1652 104.537 59.6238 94.763 65.8784C84.9854 72.1368 80.813 86.1038 84.8101 92.1752C77.4064 88.0767 80.691 76.0445 89.7866 67.6987C96.8816 61.1846 105.333 59.185 109.948 61.9173C112.344 63.3369 113.651 66.0044 113.682 69.3206H113.678Z" fill="url(#paint19_linear_114_2791)"/>
<g style="mix-blend-mode:multiply" opacity="0.5">
<path d="M83.305 86.283C89.2569 71.7284 95.9138 64.0084 104.019 64.5389C112.123 65.0731 112.287 73.7319 112.062 76.4489C112.062 76.4489 117.999 62.9056 107.391 60.9517C96.7826 58.9979 88.2281 69.1068 87.1878 70.3546C86.1476 71.6025 83.4917 78.0326 83.1945 81.1924C82.9011 84.3559 83.305 86.2792 83.305 86.2792V86.283Z" fill="#D42F55"/>
</g>
<path d="M100.3 66.6454C96.4092 69.019 88.0452 79.8758 87.9805 80.7803C87.9157 81.6809 95.2241 82.4212 96.192 80.7803C97.1599 79.1393 96.5845 76.1361 96.5845 76.1361L96.9465 75.6362C96.9465 75.6362 97.9601 79.4446 97.076 80.9902C96.1958 82.5357 88.2129 83.0356 87.2832 82.0663C86.3534 81.097 97.6781 66.3554 99.5985 65.6151C101.519 64.8747 108.153 70.3051 109.048 71.9803C109.944 73.6556 101.717 83.192 101.717 83.192C101.717 83.192 108.717 74.5715 108.195 72.4802C107.673 70.3852 101.37 65.9967 100.3 66.6492V66.6454Z" fill="#479DFF"/>
<path d="M88.6053 85.6382C90.1829 86.8555 93.4561 88.7788 97.8571 86.6914C97.8571 86.6914 93.3113 89.565 90.9678 88.3056C88.6206 87.0501 88.6092 85.6382 88.6092 85.6382H88.6053Z" fill="#3645F4"/>
<path d="M94.1153 74.7166C93.9743 74.8921 91.0631 77.8458 91.8443 78.8265C92.6254 79.8072 95.1556 77.7465 96.9465 75.6362C96.9465 75.6362 93.437 79.1089 93.2313 77.8C93.0255 76.491 94.1153 74.7166 94.1153 74.7166Z" fill="#3645F4"/>
<path d="M97.4685 71.427C98.3144 70.7515 101.393 70.1371 102.453 70.2592C103.74 70.4081 105.044 70.8469 104.849 71.8277C104.655 72.8084 101.469 79.0783 101.469 79.0783C101.469 79.0783 103.893 72.5642 103.725 71.9803C103.032 69.5914 97.2589 71.5949 97.4685 71.427Z" fill="white"/>
<g style="mix-blend-mode:soft-light" opacity="0.68">
<path d="M88.8187 74.5143C88.2357 76.182 109.83 75.5523 111.034 73.7931C112.234 72.0339 113.335 64.7947 108.667 62.5623C103.862 60.265 91.9128 65.6724 88.8187 74.5143Z" fill="white"/>
</g>
<g style="mix-blend-mode:multiply" opacity="0.3">
<path d="M83.1945 78.0938C77.6503 87.0692 85.7475 92.1179 88.5711 92.4194C94.7631 93.0834 106.484 85.8023 108.824 81.9251C110.877 78.525 84.8102 75.4797 83.1983 78.0938H83.1945Z" fill="#912774"/>
</g>
<path d="M106.755 65.2335C103.18 65.5273 110.683 71.7246 111.457 70.5035C112.23 69.2823 112.23 64.787 106.755 65.2335Z" fill="white"/>
<g style="mix-blend-mode:soft-light">
<path d="M115.122 49.4119C117.866 49.7058 122.362 50.5491 122.884 49.515C123.406 48.4808 121.855 40.8677 119.722 40.6921C118.407 40.5853 114.227 49.3165 115.122 49.4119Z" fill="white"/>
</g>
<g style="mix-blend-mode:soft-light">
<path d="M125.167 73.1404C124.359 73.2205 123.837 78.8646 124.492 79.5133C125.144 80.162 136.846 81.2802 136.853 80.1811C136.857 79.0821 130.067 72.6596 125.17 73.1404H125.167Z" fill="white"/>
</g>
<g style="mix-blend-mode:multiply" opacity="0.2">
<path d="M124.492 80.4484C122.343 81.7993 117.839 86.6305 118.498 87.1342C119.158 87.6379 131.225 85.8291 136.423 81.1963C137.044 80.643 125.662 79.7157 124.492 80.4484Z" fill="#DA0553"/>
</g>
<g style="mix-blend-mode:soft-light">
<path d="M71.3326 76.2009C65.0758 76.2086 61.1968 76.5482 62.0427 75.93C66.0818 72.9725 77.0063 69.6754 76.9721 71.1102C76.934 72.5413 72.3766 76.2009 71.3364 76.2009H71.3326Z" fill="white"/>
</g>
<g style="mix-blend-mode:multiply" opacity="0.2">
<path d="M68.6271 83.1921C66.2113 83.1921 60.0727 77.6434 60.5147 77.0596C60.9529 76.4757 71.1382 76.2048 71.4774 77.0596C71.8203 77.9144 69.4921 83.1921 68.6271 83.1921Z" fill="#DA0553"/>
</g>
<g style="mix-blend-mode:multiply" opacity="0.2">
<path d="M80.5539 105.245C80.7329 104.501 73.3635 102.944 72.7577 103.94C72.148 104.936 68.9929 114.259 75.928 116.865C77.0406 117.281 80.3062 106.295 80.5539 105.249V105.245Z" fill="#DA0553"/>
</g>
<g style="mix-blend-mode:soft-light">
<path d="M81.2969 105.245C80.0547 106.409 76.5529 116.354 77.4255 116.667C78.2981 116.98 90.9831 108.722 90.7849 107.245C90.5906 105.768 82.3029 104.306 81.2969 105.245Z" fill="white"/>
</g>
<g style="mix-blend-mode:multiply" opacity="0.2">
<path d="M113.53 49.1447C112.188 49.7057 105.253 49.1485 105.318 48.786C105.383 48.4197 112.985 42.8291 118.418 40.9057C119.363 40.5699 114.345 48.8051 113.53 49.1447Z" fill="#DA0553"/>
</g>
<g style="mix-blend-mode:multiply" opacity="0.6">
<path d="M105.711 49.3814C108.706 49.9462 112.489 50.9727 113.305 50.9078C114.12 50.8429 122.233 50.5796 122.038 50.3545C121.844 50.1255 115.199 49.3928 113.469 49.3852C111.739 49.3776 105.173 49.2821 105.714 49.3852L105.711 49.3814Z" fill="#B30053"/>
</g>
<g style="mix-blend-mode:multiply" opacity="0.6">
<path d="M75.9699 73.4954C75.2726 73.816 71.9765 76.1781 71.8203 76.5178C71.5841 77.0329 70.1818 81.5856 70.8753 81.1963C71.5688 80.8071 76.9416 73.0451 75.9699 73.4954Z" fill="#B30053"/>
</g>
<g style="mix-blend-mode:multiply" opacity="0.6">
<path d="M78.4353 104.036C76.8882 103.238 86.06 105.005 85.1798 104.944C84.2995 104.883 81.857 105.234 81.0721 104.944C80.2909 104.654 78.8163 104.234 78.4314 104.036H78.4353Z" fill="#B30053"/>
</g>
<g style="mix-blend-mode:multiply" opacity="0.6">
<path d="M123.422 75.7431C122.568 76.5979 118.777 84.2225 119.752 83.9744C120.731 83.7226 124.1 80.4712 124.195 79.9446C124.29 79.418 124.104 75.0562 123.422 75.7431Z" fill="#B30053"/>
</g>
<g style="mix-blend-mode:soft-light">
<path d="M84.0557 69.9234C84.2805 70.2974 86.1172 70.6447 86.4677 70.2402C87.7747 68.7252 99.1794 58.6087 107.17 60.4519C115.16 62.295 113.678 67.733 113.678 72.4115C113.678 73.6899 116.906 72.6519 117.294 72.0833C118.99 69.6219 116.871 56.9868 109.856 56.0824C102.841 55.178 97.6133 58.0134 93.498 61.1006C89.3789 64.1878 83.7089 69.3396 84.0595 69.9234H84.0557Z" fill="white"/>
</g>
<g style="mix-blend-mode:soft-light">
<path d="M79.5098 74.3654C79.6051 75.0981 77.6656 80.536 76.7625 80.391C75.8594 80.246 72.8644 79.9102 73.3826 79.0745C73.9047 78.2387 75.8556 73.7968 76.7625 73.8159C77.6694 73.8311 79.3955 73.4801 79.5098 74.3654Z" fill="white"/>
</g>
<g style="mix-blend-mode:soft-light">
<path d="M114.917 81.1963C115.381 81.6504 119.192 81.9442 119.855 81.5321C120.518 81.1199 123.033 76.2811 122.347 76.0369C121.661 75.7927 117.672 75.5484 117.298 76.0369C116.925 76.5254 114.478 80.7689 114.917 81.1963Z" fill="white"/>
</g>
<g style="mix-blend-mode:soft-light">
<path d="M108.123 55.533C108.85 56.1283 111.556 56.4069 111.819 55.9185C112.082 55.43 114.699 51.9306 113.857 51.4155C113.015 50.9003 111.541 51.0033 110.759 51.4155C109.978 51.8276 107.589 55.098 108.119 55.533H108.123Z" fill="white"/>
</g>
<g style="mix-blend-mode:soft-light">
<path d="M79.5136 103.204C80.23 103.444 83.3622 104.177 84.4558 103.83C85.5494 103.482 87.447 100.807 86.4677 100.563C85.4884 100.319 81.7008 99.7883 81.2969 100.075C80.893 100.361 79.0716 103.063 79.5136 103.208V103.204Z" fill="white"/>
</g>
<g style="mix-blend-mode:multiply" opacity="0.2">
<path d="M79.8185 81.5319C79.6241 80.9366 77.6351 80.4329 77.2845 81.219C76.9339 82.0089 75.5165 89.6564 78.058 94.9837C80.5996 100.311 85.8275 100.044 89.5465 99.3989C93.2617 98.754 103.935 92.5643 106.198 90.4921C108.462 88.42 111.826 83.7529 111.979 83.3942C112.131 83.0355 110.1 82.0356 109.117 82.4478C108.134 82.8599 101.687 92.7627 90.7849 93.6442C79.8832 94.5257 80.0128 82.131 79.8185 81.5319Z" fill="#DA0553"/>
</g>
<g style="mix-blend-mode:soft-light" opacity="0.3">
<path d="M81.9904 83.9782C81.476 91.5875 88.9674 92.1141 93.8486 90.8663C98.7298 89.6222 93.7495 88.6377 90.0343 84.7834C86.3191 80.9292 82.3219 79.0516 81.9904 83.9782Z" fill="white"/>
</g>
<g style="mix-blend-mode:soft-light">
<path d="M101.443 57.2922C103.885 55.6398 108.953 55.1819 112.524 57.7921C116.094 60.4023 116.338 64.5618 116.01 64.7832C115.682 65.0045 113.861 64.7183 113.682 64.4702C113.503 64.2222 110.759 60.616 107.661 60.0283C104.567 59.4406 102.357 59.6543 102.159 59.3452C101.965 59.0323 100.97 57.6127 101.443 57.296V57.2922Z" fill="white"/>
</g>
<path d="M112.588 57.1473C110.71 56.8343 111.594 60.0284 111.925 60.5932C112.257 61.158 115.237 61.9975 115.549 61.0282C115.862 60.0589 113.408 57.2884 112.588 57.1511V57.1473Z" fill="white"/>
<path d="M118.152 42.6995C119.767 43.0467 119.462 47.1948 116.528 47.0078C115.629 46.9506 117.851 42.6346 118.152 42.6995Z" fill="white"/>
<g style="mix-blend-mode:multiply" opacity="0.3">
<path d="M115.732 85.8748C116.54 84.0355 114.928 81.639 114.295 82.0549C113.663 82.4709 110.63 90.1412 101.165 94.9839C91.6995 99.8265 88.1786 100.51 88.3729 100.853C88.5673 101.197 88.9864 102.792 91.7109 102.803C94.4354 102.811 102.037 100.525 108.283 94.9839C114.234 89.7024 115.473 86.4625 115.732 85.8748Z" fill="#B30053"/>
</g>
<g style="mix-blend-mode:multiply" opacity="0.3">
<path d="M72.308 80.8146C71.7136 81.0321 68.2346 83.5737 68.429 84.2606C68.6233 84.9475 69.3549 89.9046 69.9341 89.5306C70.5133 89.1566 73.6074 84.5544 73.6074 84.0316C73.6074 83.5088 72.9787 80.5666 72.3042 80.8146H72.308Z" fill="#B30053"/>
</g>
<g style="mix-blend-mode:soft-light">
<path d="M76.4157 117.911C76.6786 118.666 77.6389 122.215 77.2883 122.051C76.9378 121.887 72.6853 117.384 72.6358 115.85C72.6167 115.282 76.309 117.606 76.4157 117.911Z" fill="white"/>
</g>
<g style="mix-blend-mode:soft-light">
<path d="M67.987 84.7719C68.3909 85.8671 69.1454 88.9505 68.631 88.7864C68.1166 88.6223 63.5212 85.703 63.2621 84.1994C63.0029 82.6959 63.1897 81.532 63.5745 81.532C64.1728 81.532 67.625 83.7835 67.987 84.7719Z" fill="white"/>
</g>
<g style="mix-blend-mode:soft-light">
<path d="M115.58 51.6099C116.079 52.377 116.871 54.888 116.677 55.4031C116.483 55.9183 115.618 58.1202 115 57.9256C114.379 57.731 112.169 56.5556 112.76 55.9183C113.354 55.281 115.191 51.0108 115.58 51.6099Z" fill="white"/>
</g>
<g style="mix-blend-mode:multiply" opacity="0.3">
<path d="M116.707 51.5527C116.97 52.6021 117.298 54.991 117.82 54.8422C118.338 54.6933 121.764 55.6932 122.347 55.4031C122.93 55.1131 123.277 51.255 122.347 51.068C121.417 50.8811 116.555 50.9574 116.707 51.5565V51.5527Z" fill="#B30053"/>
</g>
<g style="mix-blend-mode:multiply" opacity="0.3">
<path d="M137.695 81.7305C136.629 80.9215 132.22 84.9132 128.211 86.203C124.203 87.4929 120.148 87.7791 118.662 88.0805C117.176 88.382 117.702 91.3128 118.152 91.6066C118.601 91.9005 126.058 91.328 131.435 89.0193C136.811 86.7106 137.878 84.8025 138.08 84.5087C138.278 84.2148 138.035 81.9939 137.692 81.7344L137.695 81.7305Z" fill="#B30053"/>
</g>
<g style="mix-blend-mode:soft-light">
<path d="M83.5679 53.6172C76.4576 51.6099 76.8463 61.2494 78.2066 61.1044C79.5669 60.9593 84.9549 54.0102 83.5679 53.6172Z" fill="white"/>
</g>
<g style="mix-blend-mode:soft-light">
<path d="M59.1429 90.8699C55.8202 90.9997 53.2405 97.7656 53.9607 98.9105C54.6808 100.055 61.6349 90.7707 59.1429 90.8699Z" fill="white"/>
</g>
<g style="mix-blend-mode:multiply" opacity="0.3">
<path d="M49.4986 103.353C48.607 101.548 47.1857 100.727 46.7284 101.754C46.2712 102.78 47.5439 107.692 47.9325 107.466C48.325 107.237 49.9368 104.246 49.4948 103.353H49.4986Z" fill="#B30053"/>
</g>
<g style="mix-blend-mode:multiply" opacity="0.3">
<path d="M75.4059 65.0046C72.4947 63.2454 71.7174 63.7491 71.4964 64.7833C71.2754 65.8174 73.1921 69.7404 73.4512 69.3626C73.7103 68.9848 76.5681 65.7067 75.4059 65.0046Z" fill="#B30053"/>
</g>
<g style="mix-blend-mode:multiply" opacity="0.7">
<path d="M47.7687 108.428C47.7687 108.428 45.5548 102.96 45.6501 101.788C45.7492 100.613 51.1867 99.8304 53.553 100.563C53.553 100.563 56.6013 102.276 58.2132 103.99L56.9786 105.52L55.5954 105.726H49.2967L47.7687 108.428Z" fill="#BE5286"/>
</g>
<g style="mix-blend-mode:multiply" opacity="0.7">
<path d="M77.4255 62.2225C74.2971 62.1805 70.399 63.7337 70.4523 64.1611C70.5057 64.5885 71.6107 68.1031 72.9291 70.2592L75.1316 67.3704L79.5136 67.2674L80.1918 67.4964L81.4874 66.1073C81.4874 66.1073 79.3345 62.2492 77.4255 62.2225Z" fill="#BE5286"/>
</g>
<g style="mix-blend-mode:multiply" opacity="0.7">
<path d="M126.695 60.7648C126.695 60.7648 126.344 62.3141 126.481 63.1499C126.481 63.1499 124.85 65.1342 124.827 65.5426C124.805 65.9509 127.217 69.8891 128.325 70.66C129.434 71.4346 136.419 71.4346 137.128 71.8239C137.84 72.2169 139.532 79.9827 139.532 79.9827L140.896 77.5213L147.808 101.979L145.332 106.028C145.332 106.028 151.211 106.196 151.325 105.406C151.44 104.616 150.163 94.8655 145.976 81.9709C141.788 69.0763 141.418 66.8515 140.321 66.4317C139.223 66.0119 132.749 67.8093 131.039 66.634C129.328 65.4586 126.687 60.761 126.687 60.761L126.695 60.7648Z" fill="#BE5286"/>
</g>
<g style="mix-blend-mode:multiply" opacity="0.7">
<path d="M59.5201 76.8192C59.3791 76.552 59.3868 80.246 60.4118 82.3029L62.6333 84.4666L61.2501 86.4701C61.2501 86.4701 67.4306 92.3889 69.4425 92.9765C69.4425 92.9765 72.5824 91.0723 72.971 91.1448C73.3635 91.2135 75.4402 98.4984 77.4064 100.365L75.6726 103.62C75.6726 103.62 78.0123 104.207 78.4924 103.761C78.9725 103.314 81.3045 99.6356 81.3045 99.6356C81.3045 99.6356 76.4995 96.7278 76.0804 89.4047C75.6612 82.0777 76.7739 81.2039 76.7739 81.2039L72.1022 80.2384C72.1022 80.2384 70.2694 82.2762 68.1089 83.8751C68.1089 83.8751 61.0329 79.7308 59.5163 76.8268L59.5201 76.8192Z" fill="#BE5286"/>
</g>
<g style="mix-blend-mode:multiply" opacity="0.7">
<path d="M104.015 49.763V51.5489C104.015 51.5489 100.105 54.8384 99.9567 55.178C99.8119 55.5215 99.9567 56.6625 99.9567 56.6625C99.9567 56.6625 93.7342 59.2155 88.3653 64.4664C82.9963 69.7174 81.4836 72.0223 81.4836 72.0223C81.4836 72.0223 95.2279 55.5825 107.418 55.552C107.418 55.552 110.222 51.797 110.759 50.5758C110.759 50.5758 106.019 49.5798 104.015 49.7592V49.763Z" fill="#BE5286"/>
</g>
<g style="mix-blend-mode:multiply" opacity="0.7">
<path d="M122.873 50.8352C123.665 52.3426 122.347 55.9183 122.347 55.9183L115.957 57.6775L115.423 58.4903L111.982 56.4754L115.065 51.0756L122.877 50.839L122.873 50.8352Z" fill="#BE5286"/>
</g>
<g style="mix-blend-mode:multiply" opacity="0.7">
<path d="M138.709 84.5581L138.096 80.6504C138.096 80.6504 130.631 87.1149 117.127 87.7941L120.083 82.0433L114.295 81.5319C114.295 81.5319 113.103 86.283 104.354 92.6291C95.6089 98.9791 87.687 100.559 87.687 100.559L84.8025 104.493C84.8025 104.493 87.7823 104.944 92.3472 105.062C92.3472 105.062 100.441 102.627 105.215 99.8339C109.99 97.0406 115.24 91.9193 115.24 91.9193L115.084 93.3924C115.084 93.3924 120.51 94.0411 125.167 93.0833C125.167 93.0833 127.121 94.4113 128.962 94.2128C130.802 94.0144 131.778 93.2397 131.778 93.2397L135.28 87.4469C135.28 87.4469 138.076 85.3442 138.705 84.5543L138.709 84.5581Z" fill="#BE5286"/>
</g>
<g style="mix-blend-mode:multiply" opacity="0.7">
<path d="M72.1023 105.062L68.6919 105.726C68.6919 105.726 66.2151 110.805 68.0403 117.915L68.4328 120.979L76.4691 121.75L77.0368 122.395L76.1947 117.396C76.1947 117.396 72.6434 114.843 71.5155 112.038C70.3876 109.229 72.1061 105.066 72.1061 105.066L72.1023 105.062Z" fill="#BE5286"/>
</g>
<g style="mix-blend-mode:multiply" opacity="0.7">
<path d="M117.127 115.472C117.504 118.235 119.641 128.668 119.641 128.668C119.641 128.668 123.654 129.241 124.1 129.76C124.542 130.275 126.306 135.114 126.306 135.114L130.311 129.199L123.719 105.757L117.127 115.469V115.472Z" fill="#BE5286"/>
</g>
<path d="M130.932 136.366C130.654 136.465 130.242 136.545 129.762 136.61H129.751C127.864 136.862 125.395 136.488 125.395 136.488L127.613 133.137C127.613 133.137 118.437 105.944 117.679 105.837C116.921 105.73 110.763 106.298 110.077 106.054C109.391 105.81 106.168 102.654 106.168 102.085C106.168 101.517 105.68 99.0936 106.168 98.6052C106.655 98.1167 114.032 94.4914 116.376 93.6023C118.719 92.7131 125.856 93.2321 125.856 93.2321C127.129 93.5221 136.926 125.513 137.12 125.997C137.314 126.482 132.296 135.877 130.928 136.366H130.932Z" fill="url(#paint20_linear_114_2791)"/>
<path d="M130.932 136.366L129.762 136.61H129.751C127.864 136.862 125.395 136.488 125.395 136.488L127.613 133.137C127.613 133.137 118.437 105.944 117.679 105.837C116.921 105.73 110.763 106.298 110.077 106.054C109.391 105.81 106.168 102.654 106.168 102.086C106.168 101.517 105.68 99.0937 106.168 98.6052C106.785 99.6279 110.077 103.463 111.445 103.139C112.813 102.814 119.07 102.402 119.851 103.349C120.632 104.295 132.3 133.126 130.932 136.366Z" fill="url(#paint21_linear_114_2791)"/>
<g style="mix-blend-mode:soft-light">
<path d="M106.232 99.8608C106.107 101.017 106.362 102.047 106.72 102.536C107.078 103.024 109.883 106.009 110.176 105.757C110.47 105.505 110.401 104.246 110.142 103.757C109.883 103.269 106.271 99.4945 106.232 99.857V99.8608Z" fill="white"/>
</g>
<g style="mix-blend-mode:soft-light">
<path d="M107.242 99.2386C109.311 101.742 110.614 102.372 111.594 102.372C112.573 102.372 118.731 102.322 119.706 101.784C120.686 101.246 126.5 94.1479 124.888 93.7549C123.277 93.3618 119.165 93.3733 117.13 93.7549C115.096 94.1365 106.286 98.0785 107.242 99.2386Z" fill="white"/>
</g>
<g style="mix-blend-mode:soft-light">
<path d="M108.29 98.6053C111.46 100.09 119.592 99.2731 121.223 97.9184C122.854 96.5637 126.066 94.7014 124.328 94.2626C122.591 93.8199 120.746 93.465 117.13 94.2626C113.514 95.0601 107.36 98.1703 108.29 98.6053Z" fill="white"/>
</g>
<g style="mix-blend-mode:multiply" opacity="0.2">
<path d="M125.978 94.8006C124.908 94.4991 120.358 100.605 120.503 102.803C120.647 105.001 128.425 123.849 129.465 123.521C130.505 123.192 133.165 117.571 133.34 116.079C133.515 114.587 127.24 95.1555 125.974 94.8006H125.978Z" fill="#DA0553"/>
</g>
<g style="mix-blend-mode:soft-light">
<path d="M129.484 126.253C129.8 127.547 130.966 134.751 131.633 134.828C132.296 134.904 136.716 126.848 136.617 125.917C136.518 124.986 134.418 116.625 133.588 117.392C132.757 118.159 129.194 125.07 129.484 126.253Z" fill="white"/>
</g>
<g style="mix-blend-mode:soft-light">
<path d="M128.2 98.6052L132.445 111.244C132.445 111.244 132.17 106.55 128.585 107.985C124.999 109.42 127.19 121.742 127.19 121.742L121.726 107.535C121.726 107.535 126.596 109.141 127.605 104.497C128.619 99.8569 128.196 98.6052 128.196 98.6052H128.2Z" fill="white"/>
</g>
<g style="mix-blend-mode:multiply" opacity="0.3">
<path d="M122.461 110.924C122.095 110.393 120.689 111.771 121.543 114.316C122.396 116.862 127.415 132.721 128.002 133.179C128.588 133.637 130.116 130.729 129.827 129.76C129.537 128.791 123.635 112.622 122.461 110.924Z" fill="#B30053"/>
</g>
<g style="mix-blend-mode:multiply" opacity="0.3">
<path d="M119.851 103.353C120.205 104.932 117.664 105.532 116.509 105.52C115.355 105.509 110.725 105.989 110.794 105.52C110.858 105.051 109.883 103.749 111.773 103.288C113.663 102.826 119.592 102.192 119.855 103.353H119.851Z" fill="#B30053"/>
</g>
<g style="mix-blend-mode:soft-light">
<path d="M130.143 132.504C128.611 132.744 127.674 133.557 127.236 134.118C126.797 134.679 125.628 135.782 126.062 136.198C126.496 136.614 130.318 136.492 130.68 136.026C131.042 135.56 130.539 132.439 130.143 132.5V132.504Z" fill="white"/>
</g>
<path d="M121.375 96.0103C121.581 98.3037 119.199 100.391 116.056 100.674C112.912 100.96 110.195 99.3303 109.99 97.0406C109.784 94.7471 112.165 92.6597 115.309 92.3773C118.453 92.0911 121.169 93.7206 121.375 96.0103Z" fill="url(#paint22_linear_114_2791)"/>
<g style="mix-blend-mode:soft-light">
<path d="M112.158 93.6672C110.203 95.1669 112.684 94.5907 115.176 94.625C117.668 94.6594 120.163 95.2967 119.821 94.3808C119.192 92.6979 115.214 91.3241 112.158 93.6672Z" fill="white"/>
</g>
<g style="mix-blend-mode:multiply" opacity="0.3">
<path d="M120.335 95.5104C119.752 94.6785 111.556 95.0296 111.308 95.27C109.986 96.5522 112.165 99.1586 115.9 98.903C119.634 98.6473 121.143 96.6629 120.335 95.5104Z" fill="#B30053"/>
</g>
<path d="M114.612 92.7741C114.707 93.4953 116.056 93.8541 116.547 93.7205C117.043 93.5831 117.511 92.8466 117.188 92.7321C116.86 92.6176 114.57 92.4535 114.612 92.7741Z" fill="white"/>
<g style="mix-blend-mode:multiply" opacity="0.7">
<path d="M110.012 96.3118C111.137 99.9142 118.959 100.177 121.318 96.9414C121.318 96.9414 121.497 99.4601 118.247 101.086C114.996 102.711 111.952 102.185 110.664 101.013C109.376 99.8417 110.012 96.3118 110.012 96.3118Z" fill="#BE5286"/>
</g>
<g style="mix-blend-mode:multiply" opacity="0.7">
<path d="M106.168 98.6091L105.954 101.006C105.954 101.006 104.541 103.402 104.476 104.207C104.411 105.016 108.191 109.382 108.942 109.157C109.692 108.932 115.138 108.455 115.74 108.84C116.342 109.226 118.506 113.454 118.506 113.454L119.992 111.309L127.621 133.141L125.403 136.492C125.403 136.492 130.2 137.014 130.939 136.369C131.675 135.725 128.002 124.616 124.835 115.598C121.669 106.577 120.545 104.238 119.862 103.356C119.177 102.475 112.066 103.349 110.931 103.108C109.795 102.868 106.179 98.6129 106.179 98.6129L106.168 98.6091Z" fill="#BE5286"/>
</g>
<g style="mix-blend-mode:multiply" opacity="0.7">
<path d="M91.326 142.078L98.1238 142.96L96.7826 133.229L93.0712 134.477L91.326 142.078Z" fill="#BE5286"/>
</g>
<path d="M103.744 129.413L92.854 128.432C92.854 128.432 92.3548 129.855 88.1785 145.452C88.1404 145.593 88.571 145.891 88.571 145.891L95.4679 136.354L97.3693 146.234L97.7999 146.867L103.744 131.79V129.413Z" fill="#479DFF"/>
<g style="mix-blend-mode:multiply" opacity="0.7">
<path d="M97.3694 146.234C97.3694 146.234 101.058 134.927 100.909 134.477C99.4575 130.065 92.3548 129.852 92.3548 129.852L92.854 128.428L103.744 129.409L105.219 133.698V135.229L102.975 139.377L102.91 143.685L99.3241 143.227L97.7999 146.864L97.3694 146.23V146.234Z" fill="#BE5286"/>
</g>
<g style="mix-blend-mode:multiply" opacity="0.7">
<path d="M88.1786 145.452L95.1403 135.404L95.4642 136.354L88.5711 145.887L88.1786 145.452Z" fill="#BE5286"/>
</g>
<path d="M136.701 48.3206C135.863 48.8968 136.51 52.0337 137.516 52.1558C138.522 52.2779 145.172 49.8012 144.234 48.9426C143.297 48.084 137.364 47.8665 136.701 48.3206Z" fill="#D2FFF1"/>
</g>
<defs>
<filter id="filter0_d_114_2791" x="0.882935" y="0" width="225.005" height="214.867" filterUnits="userSpaceOnUse" color-interpolation-filters="sRGB">
<feFlood flood-opacity="0" result="BackgroundImageFix"/>
<feColorMatrix in="SourceAlpha" type="matrix" values="0 0 0 0 0 0 0 0 0 0 0 0 0 0 0 0 0 0 127 0" result="hardAlpha"/>
<feOffset dx="10" dy="14"/>
<feGaussianBlur stdDeviation="27"/>
<feComposite in2="hardAlpha" operator="out"/>
<feColorMatrix type="matrix" values="0 0 0 0 0 0 0 0 0 0 0 0 0 0 0 0 0 0 0.45 0"/>
<feBlend mode="normal" in2="BackgroundImageFix" result="effect1_dropShadow_114_2791"/>
<feBlend mode="normal" in="SourceGraphic" in2="effect1_dropShadow_114_2791" result="shape"/>
</filter>
<linearGradient id="paint0_linear_114_2791" x1="103.39" y1="144.883" x2="103.39" y2="46.7063" gradientUnits="userSpaceOnUse">
<stop stop-color="#512EFF"/>
<stop offset="1" stop-color="#6B2ED8"/>
</linearGradient>
<linearGradient id="paint1_linear_114_2791" x1="51.0799" y1="104.497" x2="159.354" y2="104.497" gradientUnits="userSpaceOnUse">
<stop offset="0.04" stop-color="#9190FF"/>
<stop offset="0.99" stop-color="#7A8BFF"/>
</linearGradient>
<linearGradient id="paint2_linear_114_2791" x1="46.2712" y1="83.1919" x2="149.98" y2="83.1919" gradientUnits="userSpaceOnUse">
<stop offset="0.04" stop-color="#9190FF"/>
<stop offset="0.99" stop-color="#7A8BFF"/>
</linearGradient>
<linearGradient id="paint3_linear_114_2791" x1="84.2005" y1="65.5465" x2="71.3292" y2="55.3036" gradientUnits="userSpaceOnUse">
<stop stop-color="#FFEA34"/>
<stop offset="0.63" stop-color="#FF8100"/>
<stop offset="0.7" stop-color="#FFA400"/>
<stop offset="1" stop-color="#FFBA00"/>
</linearGradient>
<linearGradient id="paint4_linear_114_2791" x1="58.8953" y1="102.353" x2="48.5705" y2="95.2271" gradientUnits="userSpaceOnUse">
<stop stop-color="#FFEA34"/>
<stop offset="0.63" stop-color="#FF8100"/>
<stop offset="0.7" stop-color="#FFA400"/>
<stop offset="1" stop-color="#FFBA00"/>
</linearGradient>
<linearGradient id="paint5_linear_114_2791" x1="148.357" y1="105.226" x2="135.419" y2="55.8973" gradientUnits="userSpaceOnUse">
<stop stop-color="#FFEA34"/>
<stop offset="0.63" stop-color="#FF8100"/>
<stop offset="0.7" stop-color="#FFA400"/>
<stop offset="1" stop-color="#FFBA00"/>
</linearGradient>
<linearGradient id="paint6_linear_114_2791" x1="129.236" y1="63.8978" x2="154.122" y2="104.006" gradientUnits="userSpaceOnUse">
<stop offset="0.04" stop-color="#EF6300"/>
<stop offset="1" stop-color="#E13E00"/>
</linearGradient>
<linearGradient id="paint7_linear_114_2791" x1="55.0085" y1="106.375" x2="89.7117" y2="119.468" gradientUnits="userSpaceOnUse">
<stop offset="0.04" stop-color="#EF6300"/>
<stop offset="1" stop-color="#E13E00"/>
</linearGradient>
<linearGradient id="paint8_linear_114_2791" x1="70.5095" y1="64.3938" x2="105.262" y2="77.5101" gradientUnits="userSpaceOnUse">
<stop offset="0.04" stop-color="#EF6300"/>
<stop offset="1" stop-color="#E13E00"/>
</linearGradient>
<linearGradient id="paint9_linear_114_2791" x1="136.725" y1="56.8208" x2="136.631" y2="63.485" gradientUnits="userSpaceOnUse">
<stop offset="0.04" stop-color="#FF9000"/>
<stop offset="1" stop-color="#E13E00"/>
</linearGradient>
<linearGradient id="paint10_linear_114_2791" x1="104.426" y1="47.2787" x2="93.1072" y2="118.242" gradientUnits="userSpaceOnUse">
<stop stop-color="#FFEA34"/>
<stop offset="0.63" stop-color="#FF8100"/>
<stop offset="0.7" stop-color="#FFA400"/>
<stop offset="1" stop-color="#FFBA00"/>
</linearGradient>
<linearGradient id="paint11_linear_114_2791" x1="67.3926" y1="83.7186" x2="76.5106" y2="26.7446" gradientUnits="userSpaceOnUse">
<stop offset="0.04" stop-color="#EF6300"/>
<stop offset="1" stop-color="#E13E00"/>
</linearGradient>
<linearGradient id="paint12_linear_114_2791" x1="76.511" y1="85.1421" x2="85.6061" y2="28.294" gradientUnits="userSpaceOnUse">
<stop stop-color="#FF5900"/>
<stop offset="0.23" stop-color="#FE6800"/>
<stop offset="0.66" stop-color="#FA9300"/>
<stop offset="0.85" stop-color="#F66A00"/>
<stop offset="1" stop-color="#F63F00"/>
</linearGradient>
<linearGradient id="paint13_linear_114_2791" x1="108.412" y1="47.6755" x2="77.9084" y2="121.768" gradientUnits="userSpaceOnUse">
<stop offset="0.04" stop-color="#EF6300"/>
<stop offset="1" stop-color="#E13E00"/>
</linearGradient>
<linearGradient id="paint14_linear_114_2791" x1="121.093" y1="55.4147" x2="96.7056" y2="114.653" gradientUnits="userSpaceOnUse">
<stop offset="0.04" stop-color="#EF6300"/>
<stop offset="1" stop-color="#E13E00"/>
</linearGradient>
<linearGradient id="paint15_linear_114_2791" x1="126.798" y1="93.2132" x2="136.607" y2="31.912" gradientUnits="userSpaceOnUse">
<stop offset="0.04" stop-color="#EF6300"/>
<stop offset="1" stop-color="#E13E00"/>
</linearGradient>
<linearGradient id="paint16_linear_114_2791" x1="103.23" y1="88.3553" x2="112.684" y2="29.2788" gradientUnits="userSpaceOnUse">
<stop offset="0.04" stop-color="#EF6300"/>
<stop offset="1" stop-color="#E13E00"/>
</linearGradient>
<linearGradient id="paint17_linear_114_2791" x1="107.147" y1="51.5528" x2="84.6274" y2="106.252" gradientUnits="userSpaceOnUse">
<stop offset="0.04" stop-color="#EF6300"/>
<stop offset="1" stop-color="#E13E00"/>
</linearGradient>
<linearGradient id="paint18_linear_114_2791" x1="80.7292" y1="77.0595" x2="113.678" y2="77.0595" gradientUnits="userSpaceOnUse">
<stop stop-color="#3D069A"/>
<stop offset="1" stop-color="#6509BA"/>
</linearGradient>
<linearGradient id="paint19_linear_114_2791" x1="99.1489" y1="70.8012" x2="68.4236" y2="145.427" gradientUnits="userSpaceOnUse">
<stop offset="0.04" stop-color="#EF6300"/>
<stop offset="1" stop-color="#E13E00"/>
</linearGradient>
<linearGradient id="paint20_linear_114_2791" x1="127.495" y1="136.415" x2="116.169" y2="93.2365" gradientUnits="userSpaceOnUse">
<stop stop-color="#FFEA34"/>
<stop offset="0.63" stop-color="#FF8100"/>
<stop offset="0.7" stop-color="#FFA400"/>
<stop offset="1" stop-color="#FFBA00"/>
</linearGradient>
<linearGradient id="paint21_linear_114_2791" x1="112.665" y1="97.9908" x2="119.722" y2="121.675" gradientUnits="userSpaceOnUse">
<stop offset="0.04" stop-color="#EF6300"/>
<stop offset="1" stop-color="#E13E00"/>
</linearGradient>
<linearGradient id="paint22_linear_114_2791" x1="115.722" y1="93.3206" x2="115.626" y2="99.9848" gradientUnits="userSpaceOnUse">
<stop offset="0.04" stop-color="#FF9000"/>
<stop offset="1" stop-color="#E13E00"/>
</linearGradient>
</defs>
</svg>
