<svg width="320" height="102" viewBox="0 0 320 102" fill="none" xmlns="http://www.w3.org/2000/svg">
<path d="M282.823 33.4271C282.823 33.4271 278.505 35.0194 275.92 33.9333C275.92 33.9333 275.776 33.87 275.71 33.8384C275.71 33.8384 275.566 33.7645 275.5 33.7118C275.343 33.6275 275.225 33.5431 275.094 33.4377C272.758 31.4552 269.241 27.0264 263.782 25.2127C258.309 23.399 252.365 24.1793 241.604 23.0826C241.25 23.0405 240.895 22.9983 240.554 22.9456H240.515C230.791 21.5642 230.187 15.9016 230.187 15.9016C234.623 16.0387 269.044 11.7575 271.905 17.2092C271.944 17.2935 271.983 17.3779 272.01 17.4517C272.508 18.9069 272.758 20.5203 273.046 22.1442C273.046 22.2285 273.073 22.3129 273.099 22.3972C273.178 22.8296 273.256 23.2619 273.335 23.6837V23.747C273.374 23.9157 273.401 24.0949 273.453 24.2531C273.453 24.2848 273.453 24.3164 273.453 24.348C273.663 25.3603 273.952 26.3515 274.332 27.2795C275.5 30.1688 277.757 32.5519 282.823 33.4166V33.4271Z" fill="url(#paint0_linear_110_1105)"/>
<path d="M282.823 83.0088C282.338 83.0931 281.865 83.1775 281.432 83.304C272.43 85.5395 273.86 93.4271 271.997 98.9842C270.041 104.794 234.689 100.408 230.174 100.524C230.174 100.524 230.817 94.4499 241.591 93.3532C252.352 92.2566 258.297 93.0369 263.769 91.2232C269.228 89.4095 272.745 84.9807 275.081 82.9982C275.802 82.3866 276.826 82.1547 277.863 82.1336C277.863 82.1336 277.902 82.1336 277.928 82.1336C278.676 82.1125 279.437 82.2074 280.133 82.3234C281.616 82.5764 282.797 83.0088 282.797 83.0088H282.823Z" fill="url(#paint1_linear_110_1105)"/>
<path d="M319.738 21.8489C318.097 25.9825 311.378 27.0475 308.439 26.9421C307.612 26.921 307.087 26.805 307.048 26.6363C306.877 25.856 315.079 21.3428 306.562 19.5291C298.505 17.8208 282.285 26.7206 289.476 34.0176C289.765 34.3234 290.106 34.6292 290.513 34.935C290.644 35.0405 290.775 35.1354 290.92 35.2408C290.946 35.2408 290.959 35.2619 290.972 35.2725C301.576 42.7804 302.297 55.2444 302.297 55.2444C303.505 52.914 304.961 51.5642 304.961 51.5642C304.961 54.4746 309.594 57.9438 309.961 63.5748V63.6169C310.118 66.1899 309.371 69.2268 306.877 72.8753C298.951 84.4641 284.568 80.4676 278.007 82.1126C277.954 82.1126 277.928 82.1336 277.928 82.1336L275.146 82.9983C275.146 82.9983 285.526 72.6117 284.568 58.2602C283.899 48.1372 279.044 40.2075 275.973 33.9227C275.422 32.805 274.936 31.7611 274.543 30.7593C273.991 29.3779 273.611 28.0809 273.48 26.8683C273.322 25.5502 273.309 24.5379 273.375 23.7365V23.6732C273.65 20.2461 275.33 20.7839 273.624 16.914C271.537 12.1372 262.378 0.379683 262.378 0.379683C262.378 0.379683 264.792 -0.516626 272.994 0.379683C281.196 1.28654 297.744 6.4535 291.773 10.1969C291.392 10.4394 291.025 10.7031 290.684 10.9772C290.684 10.9772 290.657 11.0089 290.592 11.0721C289.909 11.5888 289.319 12.1582 288.781 12.7804C285.986 15.9755 284.936 19.856 284.66 21.1319C284.621 21.2795 284.608 21.385 284.595 21.4588C284.949 20.341 288.072 11.4307 299.528 12.2742C308.583 12.9386 316.522 14.9632 319.134 18.1266C320.052 19.2338 320.315 20.457 319.777 21.8278L319.738 21.8489Z" fill="url(#paint2_linear_110_1105)"/>
<g style="mix-blend-mode:multiply" opacity="0.5">
<path d="M281.445 83.2936C272.443 85.5397 273.873 93.4272 272.01 98.9843C270.054 104.794 234.702 100.408 230.187 100.524C230.187 100.524 264.057 99.5326 268.375 97.8665C272.692 96.2005 272.915 88.4184 273.033 86.8683C273.138 85.4553 270.566 87.4588 270.054 87.849C270.619 87.3006 274.529 83.4623 275.553 83.0089C276.642 82.5133 281.432 83.2936 281.432 83.2936H281.445Z" fill="#9B64A1"/>
</g>
<g style="mix-blend-mode:multiply" opacity="0.5">
<path d="M306.864 72.8752C298.938 84.464 284.555 80.4675 277.994 82.1125C278.755 81.87 284.949 79.8981 288.873 78.5589C293.059 77.1353 299.883 76.7452 304.305 74.2988C308.544 71.9473 309.843 64.2601 309.948 63.6274C310.105 66.2004 309.357 69.2373 306.864 72.8858V72.8752Z" fill="#9B64A1"/>
</g>
<g style="mix-blend-mode:multiply" opacity="0.5">
<path d="M303.505 65.2514C299.41 70.6714 292.678 72.4957 292.075 72.6117C292.534 72.3269 297.796 69.6486 300.119 64.9878C302.534 60.1477 302.284 55.2443 302.284 55.2443C303.492 52.9139 304.948 51.5642 304.948 51.5642C304.213 55.2443 307.402 60.095 303.505 65.2514Z" fill="#9B64A1"/>
</g>
<g style="mix-blend-mode:multiply" opacity="0.5">
<path d="M311.483 19.9298C311.483 23.1354 307.035 26.6363 307.035 26.6363C306.864 25.856 315.066 21.3428 306.549 19.5291C298.019 17.7154 280.356 27.7857 290.946 35.2725C290.552 35.0405 284.057 31.1073 284.66 27.8279C285.264 24.4324 285.736 21.3323 292.075 18.2321C298.413 15.1214 311.47 16.7347 311.47 19.9193L311.483 19.9298Z" fill="#9B64A1"/>
</g>
<g style="mix-blend-mode:multiply" opacity="0.5">
<path d="M319.738 21.8489C318.097 25.9825 311.378 27.0475 308.439 26.942C309.069 26.6362 317.087 26.942 319.095 18.1582C320.013 19.2443 320.276 20.4781 319.738 21.8489Z" fill="#9B64A1"/>
</g>
<g style="mix-blend-mode:multiply" opacity="0.5">
<path d="M272.01 17.4518C272.508 18.9069 272.758 20.5203 273.047 22.1442C272.718 20.4781 272.338 18.7699 271.918 17.2092C271.957 17.2936 271.997 17.3779 272.023 17.4518H272.01Z" fill="#9B64A1"/>
</g>
<g style="mix-blend-mode:multiply" opacity="0.3">
<path d="M274.346 27.29C274.267 28.1125 274.28 29.051 274.424 30.1582C274.267 29.1248 273.939 26.921 273.466 24.3586C273.466 24.3269 273.466 24.2953 273.466 24.2637C273.427 24.0844 273.388 23.8946 273.348 23.7153V23.6943C273.624 20.2672 275.304 20.805 273.598 16.935C271.511 12.1582 262.351 0.400757 262.351 0.400757C262.351 0.400757 273.834 4.37615 277.928 8.05629C282.009 11.7364 280.461 18.4218 277.928 21.1319C276.052 23.1354 274.634 24.5695 274.346 27.29Z" fill="#9B64A1"/>
</g>
<g style="mix-blend-mode:multiply" opacity="0.5">
<path d="M290.644 10.9983C290.644 10.9983 289.201 12.7382 285.421 15.2584C281.642 17.7787 281.327 25.5291 281.327 25.5291L284.621 21.1214C284.621 21.1214 286.222 15.1952 290.644 10.9878V10.9983Z" fill="#9B64A1"/>
</g>
<g style="mix-blend-mode:multiply" opacity="0.5">
<path d="M275.776 33.9965C275.776 33.9965 275.684 33.8911 275.526 33.7224C274.188 32.3305 268.178 26.2461 263.571 24.7066C260.002 23.5255 247.929 23.1143 240.58 22.9667H240.541C230.817 21.5853 230.213 15.9227 230.213 15.9227C230.213 15.9227 249.596 18.2531 260.435 19.0967C270.592 19.8876 275.185 32.2566 275.749 33.8489C275.789 33.9649 275.802 34.0176 275.802 34.0176L275.776 33.9965Z" fill="#9B64A1"/>
</g>
<g style="mix-blend-mode:multiply" opacity="0.5">
<path d="M280.435 38.6362C280.435 38.6362 290.644 46.3972 293.977 51.5642C297.311 56.7311 288.138 67.6345 288.138 67.6345C288.138 67.6345 292.495 61.2443 291.773 55.529C291.051 49.8137 280.435 38.6362 280.435 38.6362Z" fill="#9B64A1"/>
</g>
<g style="mix-blend-mode:multiply" opacity="0.3">
<path d="M262.338 0.400757C262.338 0.400757 270.146 10.3867 273.047 15.2795C275.934 20.1723 280.238 15.0686 279.897 10.9983C279.556 6.928 262.338 0.400757 262.338 0.400757Z" fill="#9B64A1"/>
</g>
<g style="mix-blend-mode:multiply" opacity="0.3">
<path d="M230.187 15.9016C230.187 15.9016 254.924 18.5273 259.805 19.0229C264.674 19.5185 266.367 25.9192 266.367 25.9192C266.367 25.9192 261.131 23.6204 252.614 23.3779C244.097 23.1354 232.996 22.8085 230.187 15.9016Z" fill="#9B64A1"/>
</g>
<g style="mix-blend-mode:multiply" opacity="0.3">
<path d="M292.075 23.536C284.936 26.3199 288.623 18.8436 296.34 17.2724C304.056 15.7012 308.15 18.7592 308.426 19.1916C308.701 19.6239 303.701 18.8541 299.292 20.0668C294.896 21.2794 292.062 23.536 292.062 23.536H292.075Z" fill="#9B64A1"/>
</g>
<g style="mix-blend-mode:multiply" opacity="0.5">
<path d="M294.712 71.7259C294.712 71.7259 299.319 69.7013 302.534 66.4113C305.749 63.1213 303.82 53.884 303.82 53.884C303.82 53.884 301.943 54.6644 302.284 55.2443C302.612 55.8243 301.589 67.2865 294.712 71.7259Z" fill="#9B64A1"/>
</g>
<g style="mix-blend-mode:multiply" opacity="0.5">
<path d="M281.314 39.6381C281.314 39.6381 289.083 45.0054 292.075 48.8437C295.067 52.682 294.857 55.4658 293.61 57.5326C292.363 59.5994 291.681 60.1794 291.681 60.1794C291.681 60.1794 293.006 54.3692 289.07 48.7488C285.133 43.1284 281.314 39.6381 281.314 39.6381Z" fill="#9B64A1"/>
</g>
<g style="mix-blend-mode:soft-light" opacity="0.5">
<path d="M249.557 93.1635C249.557 93.1635 240.279 98.436 239.806 99.3217C239.334 100.197 260.488 99.1425 265.514 98.457C270.54 97.7716 270.973 91.5713 270.999 90.8964C271.026 90.2215 264.031 91.7716 260.777 92.2567C257.522 92.7418 249.557 93.1741 249.557 93.1741V93.1635Z" fill="#FFA799"/>
</g>
<g style="mix-blend-mode:soft-light" opacity="0.5">
<path d="M300.933 68.8261C297.193 72.2637 300.946 74.0563 302.14 74.4148C303.334 74.7734 308.386 71.631 309.108 67.0651C309.83 62.4992 305.762 63.2162 305.04 63.6064C304.318 63.9966 300.946 68.8155 300.946 68.8155L300.933 68.8261Z" fill="#FFA799"/>
</g>
<g style="mix-blend-mode:soft-light" opacity="0.5">
<path d="M279.647 33.269C278.532 34.7031 287.114 42.7804 291.169 46.5238C295.224 50.2673 299.24 50.6363 300.211 50.2145C301.182 49.7927 298.728 43.1179 295.25 39.1003C291.773 35.0933 280.317 32.4149 279.647 33.269Z" fill="#FFA799"/>
</g>
<g style="mix-blend-mode:soft-light" opacity="0.5">
<path d="M264.044 0.790878C264.044 0.790878 276.773 6.03165 280.172 8.83657C283.571 11.6415 292.56 10.2496 292.836 7.79263C293.098 5.33569 278.637 -0.179245 264.044 0.780333V0.790878Z" fill="#FFA799"/>
</g>
<g style="mix-blend-mode:soft-light" opacity="0.5">
<path d="M236.67 15.5114C236.67 15.5114 244.623 17.7469 255.357 18.7171C266.091 19.6872 270.304 16.5659 270.304 16.5659C270.304 16.5659 266.078 14.3199 253.48 14.4359C240.883 14.5519 236.657 15.5114 236.657 15.5114H236.67Z" fill="#FFA799"/>
</g>
<g style="mix-blend-mode:soft-light" opacity="0.5">
<path d="M295.906 12.3481C288.846 13.1811 291.3 17.0616 291.681 17.6416C292.075 18.2215 295.92 16.1864 303.557 16.6609C311.208 17.1249 313.215 16.7558 313.622 15.9017C314.029 15.0476 305.184 11.2514 295.893 12.3481H295.906Z" fill="#FFA799"/>
</g>
<path d="M254.15 99.4482C254.15 99.4482 266.065 98.2144 268.204 97.3287C270.343 96.4429 271.288 95.0299 271.288 95.0299C271.288 95.0299 270.33 97.1178 268.388 97.8665C266.446 98.6151 254.15 99.4587 254.15 99.4587V99.4482Z" fill="#FFA799"/>
<path d="M293.978 77.3146C293.978 77.3146 300.513 75.2373 303.885 73.1494C307.258 71.0616 308.806 67.9719 308.806 67.9719C308.806 67.9719 307.468 72.1477 304.896 73.9087C302.324 75.6696 293.978 77.3146 293.978 77.3146Z" fill="#FFA799"/>
<path d="M289.529 19.6767C289.529 19.6767 291.707 17.747 295.631 16.5555C299.555 15.3639 305.486 16.8824 305.486 16.8824C305.486 16.8824 300.421 16.1021 296.235 17.0616C292.048 18.0212 289.529 19.6767 289.529 19.6767Z" fill="#FFA799"/>
<path d="M247.615 17.7469C247.615 17.7469 259.714 18.3902 263.323 18.6749C266.931 18.9596 268.375 22.5448 268.375 22.5448C268.375 22.5448 265.212 19.181 247.615 17.7469Z" fill="#FFA799"/>
<path d="M273.755 5.3147C273.755 5.3147 278.571 7.10732 280.172 8.84721C281.773 10.5871 280.435 14.436 280.435 14.436C280.435 14.436 280.645 9.00538 273.768 5.3147H273.755Z" fill="#FFA799"/>
<path d="M248.284 17.7469C247.365 17.5993 251.578 16.7874 253.835 17.283C256.079 17.7786 254.767 18.7803 248.284 17.7469Z" fill="#FFD6D6"/>
<path d="M296.235 17.0721C292.613 17.1881 296.274 14.457 301.011 14.9632C305.749 15.4588 300.211 16.9456 296.235 17.0721Z" fill="#FFD6D6"/>
<path d="M279.844 8.08798C278.414 7.67673 279.608 10.9878 280.947 10.9983C282.285 10.9983 281.432 8.5414 279.844 8.08798Z" fill="#FFD6D6"/>
<path d="M303.268 74.7417C300.447 75.1846 305.985 70.9034 306.47 71.0721C306.956 71.2408 305.683 74.3516 303.268 74.7417Z" fill="#FFD6D6"/>
<g style="mix-blend-mode:multiply" opacity="0.5">
<path d="M239.793 93.5432C239.793 93.5432 261.538 94.7664 265.475 94.4395C269.412 94.1126 273.873 84.6117 273.873 84.6117C273.873 84.6117 269.333 87.7857 263.861 89.0089C258.402 90.2321 239.78 93.5326 239.78 93.5326L239.793 93.5432Z" fill="#9B64A1"/>
</g>
<g style="mix-blend-mode:multiply" opacity="0.2">
<path d="M279.556 78.8753C279.556 78.8753 291.615 73.3393 296.458 69.5748C301.3 65.7997 302.56 58.2813 302.297 55.7821C302.035 53.283 297.193 56.4148 295.749 56.6574C294.306 56.8999 290.408 70.334 279.556 78.8753Z" fill="#9B64A1"/>
</g>
<g style="mix-blend-mode:multiply" opacity="0.5">
<path d="M281.314 25.5291C278.374 22.5871 274.963 26.5309 275.776 31.2655C276.249 34.0177 281.156 39.1952 281.156 39.1952C281.156 39.1952 277.968 35.3885 278.401 33.2585C278.834 31.1284 286.432 33.6697 287.888 33.986C289.345 34.2918 282.679 28.0915 282.823 24.6644C282.967 21.2268 281.314 25.5291 281.314 25.5291Z" fill="#9B64A1"/>
</g>
<path d="M282.364 36.8437C281.052 36.8648 283.768 38.3411 284.162 38.6363C284.555 38.9316 286.944 36.7593 282.364 36.8437Z" fill="#FFD6D6"/>
<g style="mix-blend-mode:multiply" opacity="0.5">
<path d="M278.453 81.9544C278.453 81.9544 286.13 79.0651 288.112 78.8753C290.08 78.6855 298.282 79.1389 298.282 79.1389C298.282 79.1389 295.172 81.3217 288.82 81.4799C282.456 81.638 282.023 81.3006 278.453 81.9649V81.9544Z" fill="#9B64A1"/>
</g>
<path d="M37.177 33.427C37.177 33.427 41.4944 35.0193 44.0796 33.9331C44.0796 33.9331 44.224 33.8699 44.2896 33.8382C44.2896 33.8382 44.4339 33.7644 44.4995 33.7117C44.657 33.6273 44.7751 33.543 44.9063 33.4375C47.2422 31.4551 50.7591 27.0263 56.2182 25.2126C61.6904 23.3989 67.6351 24.1792 78.3958 23.0825C78.7501 23.0403 79.1044 22.9982 79.4456 22.9454H79.485C89.209 21.5641 89.8126 15.9015 89.8126 15.9015C85.3771 16.0386 50.956 11.7574 48.0952 17.2091C48.0558 17.2934 48.0165 17.3778 47.9902 17.4516C47.4915 18.9068 47.2422 20.5201 46.9535 22.144C46.9535 22.2284 46.9273 22.3127 46.901 22.3971C46.8223 22.8294 46.7435 23.2618 46.6648 23.6836V23.7468C46.6254 23.9156 46.5992 24.0948 46.5467 24.253C46.5467 24.2846 46.5467 24.3163 46.5467 24.3479C46.3367 25.3602 46.048 26.3514 45.6675 27.2794C44.4995 30.1686 42.2424 32.5518 37.177 33.4164V33.427Z" fill="url(#paint3_linear_110_1105)"/>
<path d="M37.177 83.0088C37.6625 83.0931 38.135 83.1775 38.568 83.304C47.5703 85.5395 46.1399 93.4271 48.0033 98.9842C49.9586 104.794 85.3115 100.408 89.8258 100.524C89.8258 100.524 89.1827 94.4499 78.4089 93.3532C67.6482 92.2566 61.7036 93.0369 56.2313 91.2232C50.7722 89.4095 47.2553 84.9807 44.9195 82.9982C44.1977 82.3866 43.1741 82.1547 42.1374 82.1336C42.1374 82.1336 42.0981 82.1336 42.0718 82.1336C41.3238 82.1125 40.5627 82.2074 39.8672 82.3234C38.3843 82.5764 37.2032 83.0088 37.2032 83.0088H37.177Z" fill="url(#paint4_linear_110_1105)"/>
<path d="M0.275624 21.8488C1.91598 25.9824 8.63486 27.0474 11.5744 26.942C12.4011 26.9209 12.926 26.8049 12.9654 26.6362C13.136 25.8559 4.93423 21.3427 13.4509 19.529C21.5084 17.8207 37.7282 26.7205 30.5369 34.0176C30.2481 34.3233 29.907 34.6292 29.5001 34.935C29.3689 35.0404 29.2377 35.1353 29.0933 35.2407C29.0671 35.2407 29.054 35.2618 29.0408 35.2724C18.4376 42.7803 17.7159 55.2443 17.7159 55.2443C16.5086 52.9139 15.0519 51.5641 15.0519 51.5641C15.0519 54.4745 10.4196 57.9437 10.0521 63.5747V63.6169C9.89465 66.1898 10.6427 69.2267 13.136 72.8752C21.0622 84.464 35.4448 80.4675 42.0062 82.1125C42.0587 82.1125 42.0849 82.1336 42.0849 82.1336L44.867 82.9982C44.867 82.9982 34.4868 72.6116 35.4448 58.2601C36.1141 48.1371 40.9695 40.2074 44.0402 33.9226C44.5914 32.8049 45.0769 31.761 45.4706 30.7592C46.0218 29.3778 46.4023 28.0808 46.5336 26.8682C46.691 25.5501 46.7042 24.5378 46.6386 23.7364V23.6731C46.363 20.246 44.6833 20.7838 46.3892 16.9139C48.502 12.1581 57.6617 0.400679 57.6617 0.400679C57.6617 0.400679 55.2471 -0.49563 47.0454 0.400679C38.8436 1.30753 22.2957 6.47449 28.2666 10.2179C28.6472 10.4604 29.0146 10.7241 29.3558 10.9982C29.3558 10.9982 29.382 11.0299 29.4477 11.0931C30.13 11.6098 30.7206 12.1792 31.2586 12.8014C34.0538 15.9965 35.1036 19.877 35.3792 21.1529C35.4185 21.3005 35.4317 21.406 35.4448 21.4798C35.0905 20.362 31.9672 11.4516 20.511 12.2952C11.4563 12.9596 3.51696 14.9842 0.90552 18.1476H0.918643C4.50505e-05 19.2443 -0.262411 20.478 0.275624 21.8488Z" fill="url(#paint5_linear_110_1105)"/>
<g style="mix-blend-mode:multiply" opacity="0.5">
<path d="M38.568 83.2935C47.5702 85.5395 46.1399 93.4271 48.0033 98.9842C49.9586 104.794 85.3115 100.408 89.8257 100.524C89.8257 100.524 55.9426 99.5325 51.6383 97.8664C47.3209 96.2003 47.0978 88.4183 46.9797 86.8682C46.8747 85.4552 49.4468 87.4587 49.9586 87.8488C49.3943 87.3005 45.4837 83.4622 44.4601 83.0088C43.3709 82.5132 38.5811 83.2935 38.5811 83.2935H38.568Z" fill="#9B64A1"/>
</g>
<g style="mix-blend-mode:multiply" opacity="0.5">
<path d="M13.136 72.8751C21.0622 84.4639 35.4448 80.4674 42.0062 82.1124C41.2451 81.8699 35.0511 79.898 31.1274 78.5588C26.9412 77.1352 20.1173 76.7451 15.6949 74.2987C11.4563 71.9472 10.1571 64.26 10.0521 63.6273C9.89465 66.2003 10.6427 69.2372 13.136 72.8857V72.8751Z" fill="#9B64A1"/>
</g>
<g style="mix-blend-mode:multiply" opacity="0.5">
<path d="M16.5085 65.2513C20.6028 70.6713 27.3349 72.4955 27.9385 72.6115C27.4792 72.3268 22.217 69.6484 19.8942 64.9876C17.4796 60.1476 17.729 55.2442 17.729 55.2442C16.5217 52.9138 15.065 51.5641 15.065 51.5641C15.7999 55.2442 12.6111 60.0948 16.5085 65.2513Z" fill="#9B64A1"/>
</g>
<g style="mix-blend-mode:multiply" opacity="0.5">
<path d="M8.52991 19.9297C8.52991 23.1353 12.9785 26.6362 12.9785 26.6362C13.1491 25.8559 4.94738 21.3427 13.4641 19.529C21.9939 17.7153 39.6572 27.7856 29.0671 35.2724C29.4608 35.0404 35.9566 31.1072 35.353 27.8277C34.7493 24.4323 34.2769 21.3321 27.9386 18.232C21.6002 15.1212 8.54303 16.7346 8.54303 19.9191L8.52991 19.9297Z" fill="#9B64A1"/>
</g>
<g style="mix-blend-mode:multiply" opacity="0.5">
<path d="M0.275624 21.8488C1.91598 25.9823 8.63486 27.0474 11.5744 26.9419C10.9445 26.6361 2.92643 26.9419 0.918643 18.1581C4.50504e-05 19.2337 -0.262411 20.4779 0.275624 21.8488Z" fill="#9B64A1"/>
</g>
<g style="mix-blend-mode:multiply" opacity="0.5">
<path d="M47.9902 17.4516C47.4915 18.9068 47.2422 20.5202 46.9535 22.1441C47.2816 20.478 47.6621 18.7697 48.0821 17.2091C48.0427 17.2935 48.0033 17.3778 47.9771 17.4516H47.9902Z" fill="#9B64A1"/>
</g>
<g style="mix-blend-mode:multiply" opacity="0.3">
<path d="M45.6674 27.2899C45.7461 28.1124 45.733 29.0509 45.5887 30.1581C45.7461 29.1247 46.0742 26.9208 46.5466 24.3585C46.5466 24.3268 46.5466 24.2952 46.5466 24.2636C46.586 24.0843 46.6254 23.8945 46.6647 23.7152V23.6941C46.3891 20.2671 44.7094 20.8049 46.4154 16.9349C48.5019 12.1581 57.6616 0.400635 57.6616 0.400635C57.6616 0.400635 46.1792 4.37603 42.0849 8.05617C38.0037 11.7363 39.5522 18.4217 42.0849 21.1317C43.9614 23.1353 45.3787 24.5694 45.6543 27.2899H45.6674Z" fill="#9B64A1"/>
</g>
<g style="mix-blend-mode:multiply" opacity="0.5">
<path d="M29.3558 10.9982C29.3558 10.9982 30.7993 12.7381 34.5787 15.2583C38.3581 17.7785 38.673 25.529 38.673 25.529L35.3792 21.1212C35.3792 21.1212 33.7782 15.1951 29.3558 10.9877V10.9982Z" fill="#9B64A1"/>
</g>
<g style="mix-blend-mode:multiply" opacity="0.5">
<path d="M44.224 33.9964C44.224 33.9964 44.3159 33.891 44.4733 33.7223C45.8119 32.3303 51.8221 26.246 56.4282 24.7064C59.9976 23.5254 72.0706 23.1142 79.4194 22.9665H79.4588C89.1828 21.5852 89.7864 15.9226 89.7864 15.9226C89.7864 15.9226 70.404 18.253 59.5646 19.0966C49.4075 19.8875 44.8145 32.2565 44.2502 33.8488C44.2109 33.9648 44.1978 34.0175 44.1978 34.0175L44.224 33.9964Z" fill="#9B64A1"/>
</g>
<g style="mix-blend-mode:multiply" opacity="0.5">
<path d="M39.5785 38.6361C39.5785 38.6361 29.3689 46.3971 26.0357 51.5641C22.7025 56.731 31.8754 67.6343 31.8754 67.6343C31.8754 67.6343 27.5186 61.2442 28.2404 55.5289C28.9621 49.8136 39.5785 38.6361 39.5785 38.6361Z" fill="#9B64A1"/>
</g>
<g style="mix-blend-mode:multiply" opacity="0.3">
<path d="M57.6617 0.400635C57.6617 0.400635 49.8536 10.3866 46.9534 15.2794C44.0664 20.1722 39.7621 15.0685 40.1033 10.9982C40.4445 6.92788 57.6617 0.400635 57.6617 0.400635Z" fill="#9B64A1"/>
</g>
<g style="mix-blend-mode:multiply" opacity="0.3">
<path d="M89.8127 15.9015C89.8127 15.9015 65.0762 18.5271 60.1945 19.0228C55.3259 19.5184 53.6331 25.9191 53.6331 25.9191C53.6331 25.9191 58.8691 23.6203 67.3858 23.3778C75.9025 23.1352 87.0044 22.8083 89.8127 15.9015Z" fill="#9B64A1"/>
</g>
<g style="mix-blend-mode:multiply" opacity="0.3">
<path d="M27.9254 23.536C35.0642 26.3199 31.3767 18.8436 23.6605 17.2724C15.9443 15.7012 11.85 18.7592 11.5744 19.1916C11.2988 19.6239 16.2986 18.8541 20.7079 20.0668C25.104 21.2794 27.9385 23.536 27.9385 23.536H27.9254Z" fill="#9B64A1"/>
</g>
<g style="mix-blend-mode:multiply" opacity="0.5">
<path d="M25.3009 71.7257C25.3009 71.7257 20.6948 69.7011 17.4665 66.4112C14.2514 63.1212 16.1805 53.8839 16.1805 53.8839C16.1805 53.8839 18.0571 54.6642 17.7159 55.2442C17.3878 55.8242 18.4114 67.2864 25.2877 71.7257H25.3009Z" fill="#9B64A1"/>
</g>
<g style="mix-blend-mode:multiply" opacity="0.5">
<path d="M38.6861 39.6379C38.6861 39.6379 30.9173 45.0052 27.9253 48.8436C24.9333 52.6819 25.1433 55.4657 26.39 57.5325C27.6366 59.5993 28.319 60.1792 28.319 60.1792C28.319 60.1792 26.9936 54.369 30.9305 48.7487C34.8673 43.1283 38.6861 39.6379 38.6861 39.6379Z" fill="#9B64A1"/>
</g>
<g style="mix-blend-mode:soft-light" opacity="0.5">
<path d="M70.4434 93.1634C70.4434 93.1634 79.7212 98.4358 80.1936 99.3216C80.666 100.197 59.5121 99.1423 54.486 98.4569C49.46 97.7715 49.0269 91.5712 49.0007 90.8963C48.9744 90.2214 55.9689 91.7715 59.2234 92.2566C62.4778 92.7416 70.4434 93.174 70.4434 93.174V93.1634Z" fill="#FFA799"/>
</g>
<g style="mix-blend-mode:soft-light" opacity="0.5">
<path d="M19.0807 68.826C22.8207 72.2636 19.0675 74.0562 17.8734 74.4147C16.6792 74.7838 11.6269 71.6309 10.9051 67.065C10.1834 62.4991 14.2515 63.2161 14.9732 63.6063C15.695 63.9964 19.0675 68.8154 19.0675 68.8154L19.0807 68.826Z" fill="#FFA799"/>
</g>
<g style="mix-blend-mode:soft-light" opacity="0.5">
<path d="M40.3527 33.2689C41.4681 34.703 32.8858 42.7803 28.8308 46.5237C24.7759 50.2671 20.7603 50.6362 19.7892 50.2144C18.8181 49.7926 21.2721 43.1177 24.7496 39.1002C28.2272 35.0931 39.6834 32.4148 40.3527 33.2689Z" fill="#FFA799"/>
</g>
<g style="mix-blend-mode:soft-light" opacity="0.5">
<path d="M55.9688 0.79082C55.9688 0.79082 43.2397 6.03159 39.8409 8.83652C36.442 11.6414 27.4529 10.2495 27.1773 7.79258C26.9018 5.33564 41.3762 -0.179303 55.9688 0.79082Z" fill="#FFA799"/>
</g>
<g style="mix-blend-mode:soft-light" opacity="0.5">
<path d="M83.33 15.5114C83.33 15.5114 75.3775 17.7469 64.6431 18.7171C53.9086 19.6872 49.6962 16.5659 49.6962 16.5659C49.6962 16.5659 53.9217 14.3199 66.5196 14.4359C79.1175 14.5519 83.3431 15.5114 83.3431 15.5114H83.33Z" fill="#FFA799"/>
</g>
<g style="mix-blend-mode:soft-light" opacity="0.5">
<path d="M24.0936 12.348C31.1537 13.181 28.6997 17.0615 28.3191 17.6415C27.9254 18.2214 24.0805 16.1863 16.443 16.6608C8.79237 17.1248 6.78458 16.7557 6.37777 15.9016C5.97096 15.0474 14.8157 11.2513 24.1067 12.348H24.0936Z" fill="#FFA799"/>
</g>
<path d="M65.8635 99.4481C65.8635 99.4481 53.948 98.2143 51.809 97.3286C49.6699 96.4428 48.7251 95.0298 48.7251 95.0298C48.7251 95.0298 49.6831 97.1177 51.6252 97.8663C53.5674 98.615 65.8635 99.4586 65.8635 99.4586V99.4481Z" fill="#FFA799"/>
<path d="M26.0226 77.3145C26.0226 77.3145 19.4875 75.2372 16.1149 73.1493C12.7423 71.0614 11.1938 67.9718 11.1938 67.9718C11.1938 67.9718 12.5324 72.1475 15.1044 73.9085C17.6765 75.6695 26.0226 77.3145 26.0226 77.3145Z" fill="#FFA799"/>
<path d="M30.4713 19.6766C30.4713 19.6766 28.2929 17.7469 24.3692 16.5554C20.4454 15.3638 14.5139 16.8822 14.5139 16.8822C14.5139 16.8822 19.5793 16.1019 23.7655 17.0615C27.9517 18.0211 30.4713 19.6766 30.4713 19.6766Z" fill="#FFA799"/>
<path d="M72.3855 17.7468C72.3855 17.7468 60.2863 18.3901 56.6775 18.6748C53.0688 18.9595 51.6252 22.5447 51.6252 22.5447C51.6252 22.5447 54.7878 19.1809 72.3855 17.7468Z" fill="#FFA799"/>
<path d="M46.258 5.31458C46.258 5.31458 41.4419 7.10719 39.8409 8.84709C38.2399 10.587 39.5785 14.4358 39.5785 14.4358C39.5785 14.4358 39.3685 9.00526 46.2449 5.31458H46.258Z" fill="#FFA799"/>
<path d="M71.7162 17.7469C72.6348 17.5993 68.4224 16.7874 66.1653 17.283C63.9081 17.7786 65.2335 18.7803 71.7162 17.7469Z" fill="#FFD6D6"/>
<path d="M23.7786 17.072C27.4005 17.188 23.7393 14.4569 19.0019 14.963C14.2646 15.4586 19.8024 16.9455 23.7786 17.072Z" fill="#FFD6D6"/>
<path d="M40.1558 8.08785C41.5862 7.67661 40.3921 10.9877 39.0535 10.9982C37.715 10.9982 38.568 8.54128 40.1558 8.08785Z" fill="#FFD6D6"/>
<path d="M16.7448 74.7416C19.5662 75.1845 14.0283 70.9033 13.5428 71.072C13.0572 71.2407 14.3302 74.3514 16.7448 74.7416Z" fill="#FFD6D6"/>
<g style="mix-blend-mode:multiply" opacity="0.5">
<path d="M80.2067 93.543C80.2067 93.543 58.4622 94.7662 54.5253 94.4393C50.5885 94.1125 46.1267 84.6116 46.1267 84.6116C46.1267 84.6116 50.6672 87.7856 56.1394 89.0088C61.5985 90.232 80.2198 93.5325 80.2198 93.5325L80.2067 93.543Z" fill="#9B64A1"/>
</g>
<g style="mix-blend-mode:multiply" opacity="0.2">
<path d="M40.4577 78.8752C40.4577 78.8752 28.3978 73.3391 23.5555 69.5746C18.7132 65.7996 17.4534 58.2811 17.7158 55.782C17.9783 53.2829 22.8206 56.4147 24.2641 56.6572C25.7076 56.8998 29.6051 70.3339 40.4577 78.8752Z" fill="#9B64A1"/>
</g>
<g style="mix-blend-mode:multiply" opacity="0.5">
<path d="M38.6861 25.529C41.6256 22.587 45.0376 26.5307 44.224 31.2654C43.7515 34.0176 38.8436 39.1951 38.8436 39.1951C38.8436 39.1951 42.0324 35.3884 41.5994 33.2583C41.1663 31.1283 33.5682 33.6696 32.1116 33.9859C30.655 34.2917 37.3214 28.0914 37.177 24.6643C37.0327 21.2267 38.6861 25.529 38.6861 25.529Z" fill="#9B64A1"/>
</g>
<path d="M37.6363 36.8436C38.9486 36.8647 36.2322 38.3409 35.8385 38.6362C35.4448 38.9315 33.0565 36.7592 37.6363 36.8436Z" fill="#FFD6D6"/>
<g style="mix-blend-mode:multiply" opacity="0.5">
<path d="M41.56 81.9543C41.56 81.9543 33.8832 79.065 31.9016 78.8752C29.9332 78.6854 21.7314 79.1388 21.7314 79.1388C21.7314 79.1388 24.8416 81.3216 31.193 81.4797C37.5576 81.6379 37.9906 81.3005 41.56 81.9648V81.9543Z" fill="#9B64A1"/>
</g>
<path d="M292.075 58.2707C292.075 60.3796 291.077 62.9948 289.476 65.8313C289.476 65.8313 289.476 65.8313 289.476 65.8524C287.98 68.5202 285.907 71.399 283.624 74.1934C277.653 81.5115 270.146 88.4289 266.787 90.4007C263.756 92.1828 260.632 94.0176 194.218 94.0176C176.423 94.0176 161.476 93.8594 159.993 93.8489C158.524 93.87 143.577 94.0176 125.769 94.0176C59.3545 94.0176 56.2313 92.1723 53.1999 90.4007C47.8064 87.2268 31.7178 71.3568 28.4896 61.4236V61.4025C28.1222 60.2742 27.9122 59.2197 27.9122 58.2707C27.9122 48.9807 47.2028 29.6942 53.213 26.1512C56.2444 24.3691 59.3545 22.5343 125.782 22.5343C143.577 22.5343 158.524 22.6925 160.007 22.703C161.476 22.703 176.423 22.5343 194.231 22.5343C260.645 22.5343 263.769 24.3796 266.8 26.1512C272.81 29.6942 292.101 48.9807 292.101 58.2707H292.075Z" fill="url(#paint6_linear_110_1105)"/>
<path d="M261.512 31.9191C256.249 28.819 159.993 29.8524 159.993 29.8524C159.993 29.8524 63.7507 28.819 58.4753 31.9191C53.1999 35.0193 36.8226 52.587 36.8226 58.2706C36.8226 63.9543 53.213 81.5219 58.4753 84.6221C63.7375 87.7223 159.993 86.6889 159.993 86.6889C159.993 86.6889 256.236 87.7223 261.512 84.6221C266.774 81.5219 283.164 63.9543 283.164 58.2706C283.164 52.587 266.774 35.0193 261.512 31.9191Z" fill="url(#paint7_linear_110_1105)"/>
<path d="M58.4752 31.9192C58.4752 31.9192 41.5337 49.4552 52.793 58.2707C52.793 58.2707 42.2029 67.6556 55.9556 82.7557C55.9556 82.7557 36.9932 65.1775 36.8357 58.2707C36.6782 51.3638 58.4883 31.9192 58.4883 31.9192H58.4752Z" fill="url(#paint8_linear_110_1105)"/>
<path d="M261.512 31.9192C261.512 31.9192 278.453 49.4552 267.194 58.2707C267.194 58.2707 277.784 67.6556 264.031 82.7557C264.031 82.7557 282.994 65.1775 283.151 58.2707C283.309 51.3638 261.498 31.9192 261.498 31.9192H261.512Z" fill="url(#paint9_linear_110_1105)"/>
<path d="M52.7931 58.2706H55.3914C55.3914 58.2706 50.5622 66.601 52.7931 72.9912C57.3204 85.9086 64.6299 82.7768 68.8554 83.6204C76.4535 85.1177 212.682 86.0457 258.257 82.9982C269.254 82.2601 268.742 72.2847 268.388 67.6344C268.02 62.9842 261.525 58.3761 261.525 58.3761L267.207 58.2706C267.207 58.2706 271.301 63.8278 270.986 69.5641C270.671 75.29 266.564 82.9033 261.512 84.6221C255.842 86.5624 211.225 87.3427 162.644 87.5009C112.633 87.659 61.8347 86.1617 58.4752 84.6221C51.8482 81.5852 50.116 74.7416 49.0006 69.4903C47.872 64.239 52.7931 58.2706 52.7931 58.2706Z" fill="url(#paint10_linear_110_1105)"/>
<path d="M267.207 58.9244L261.525 58.3866C261.525 58.3866 268.034 54.2109 268.401 49.5712C268.664 46.1546 268.427 40.0914 263.952 36.6959C262.338 35.4727 260.147 34.587 257.234 34.3128C208.285 29.7364 76.4798 32.0879 68.8817 33.5747C65.8766 34.1652 61.323 32.7627 57.3205 36.5167C55.6801 38.0351 54.1448 40.4393 52.8325 44.1933C50.5885 50.594 55.4308 58.2601 55.4308 58.2601H52.8325C52.8325 58.2601 47.9114 52.9455 49.04 47.6942C49.788 44.2355 50.7853 40.0914 53.2787 36.7908C54.5647 35.0826 56.2575 33.5958 58.5278 32.5624C61.8872 31.0228 112.686 29.5255 162.684 29.6836C208.154 29.8418 250.147 30.5272 259.989 32.2144C260.659 32.3304 261.184 32.4464 261.551 32.5729C266.603 34.2917 271.039 41.9262 271.551 48.4429C271.997 54.1687 267.233 58.9139 267.233 58.9139L267.207 58.9244Z" fill="url(#paint11_linear_110_1105)"/>
<g style="mix-blend-mode:multiply" opacity="0.5">
<path d="M289.201 66.211L283.61 74.1829C277.64 81.501 270.133 88.4184 266.774 90.3902C263.742 92.1723 260.619 94.0071 194.205 94.0071C176.41 94.0071 161.463 93.8489 159.98 93.8384C158.511 93.8595 143.564 94.0071 125.756 94.0071C59.3414 94.0071 56.2182 92.1618 53.1868 90.3902C47.7934 87.2162 31.7048 71.3463 28.4766 61.4131C28.9096 62.0985 43.1479 84.1899 58.4622 89.3252C74.0127 94.566 197.787 95.4623 262.325 89.3252C272.614 88.3445 286.983 69.153 289.188 66.2004L289.201 66.211Z" fill="#9B64A1"/>
</g>
<g style="mix-blend-mode:multiply" opacity="0.5">
<path d="M277.968 82.1231C278.716 82.102 279.477 82.1969 280.172 82.3129L277.968 82.1231Z" fill="#9B64A1"/>
</g>
<g style="mix-blend-mode:multiply" opacity="0.5">
<path d="M274.489 30.6539C274.463 30.4851 274.437 30.3164 274.411 30.1477C274.45 30.3691 274.476 30.5484 274.489 30.6539Z" fill="#9B64A1"/>
</g>
<g style="mix-blend-mode:multiply" opacity="0.5">
<path d="M261.512 58.3761C261.512 58.3761 267.391 63.6907 268.454 68.6046C269.517 73.5184 270.894 71.3673 270.999 67.6344C271.117 63.9016 267.194 58.935 267.194 58.935L261.512 58.3866V58.3761Z" fill="#9B64A1"/>
</g>
<g style="mix-blend-mode:multiply" opacity="0.5">
<path d="M55.3914 58.2706H52.7931C52.7931 58.2706 49.3155 62.8893 49.0793 65.5044C48.8431 68.1195 50.9165 70.0492 51.612 70.4499C52.3075 70.8506 52.0582 61.6977 55.3914 58.2706Z" fill="#9B64A1"/>
</g>
<g style="mix-blend-mode:multiply" opacity="0.5">
<path d="M265.527 36.8436C265.527 36.8436 265.002 36.7909 263.939 36.6855C256.577 36.0106 223.482 33.3428 161.817 33.3428C104.628 33.3428 68.816 35.6415 57.2942 36.5168C54.5909 36.7171 53.2393 36.8436 53.2393 36.8436V36.8015C54.5384 35.0932 56.2313 33.6064 58.5015 32.573C61.861 31.0334 112.659 29.5361 162.657 29.6943C208.128 29.8524 250.121 30.5378 259.963 32.225C264.07 33.4904 265.54 36.8436 265.54 36.8436H265.527Z" fill="#9B64A1"/>
</g>
<g style="mix-blend-mode:multiply" opacity="0.5">
<path d="M287.18 51.0053C286.366 44.942 279.162 43.8665 275.33 45.7434C274.49 46.1547 272.561 53.5466 272.141 54.8753C271.708 56.2039 275.422 57.3638 276.629 57.1529C277.836 56.9315 277.416 55.2443 277.718 54.58C278.007 53.9157 276.524 55.4447 274.385 55.4869C272.246 55.529 274.647 47.9262 275.855 47.0194C277.062 46.1125 284.831 49.6661 286.209 51.4587C287.587 53.2514 281.419 58.1336 281.419 58.1336C281.419 58.1336 287.587 63.0159 286.209 64.8085C284.831 66.6011 277.062 70.1547 275.855 69.2478C274.647 68.341 272.259 60.7382 274.385 60.7804C276.511 60.8225 278.007 62.3515 277.718 61.6872C277.43 61.0229 277.836 59.3252 276.629 59.1143C275.422 58.9034 271.708 60.0528 272.141 61.392C272.574 62.7206 274.359 70.5132 275.33 70.5238C276.301 70.5343 286.379 71.3146 287.18 65.2619C287.573 62.3621 283.597 58.1441 283.597 58.1441C283.597 58.1441 287.56 53.9262 287.18 51.0264V51.0053Z" fill="#9B64A1"/>
</g>
<path d="M273.493 66.3374C273.493 66.3374 274.516 70.1441 275.159 70.3761C276.393 70.8295 282.98 70.1125 284.66 68.9209C286.34 67.7188 286.996 66.0527 286.996 66.0527C286.996 66.0527 286.576 67.8348 285.5 68.8577C283.322 70.9244 277.416 71.2091 275.304 70.8612C273.742 70.6081 273.493 66.348 273.493 66.348V66.3374Z" fill="#FFA799"/>
<path d="M273.598 61.5079C274.123 59.9895 277.548 62.1406 277.758 62.1406C277.968 62.1406 277.548 60.6327 277.548 60.6327C277.548 60.6327 277.744 61.7294 277.548 61.7821C277.351 61.8348 276.025 60.6327 274.372 60.7592C273.493 60.8225 273.598 61.5079 273.598 61.5079Z" fill="#FFA799"/>
<path d="M272.417 55.7504C272.417 55.7504 272.836 56.4147 273.952 56.8998C275.067 57.3849 276.524 57.6379 276.905 57.3427C277.666 56.7522 277.534 55.4341 277.534 55.4341C277.534 55.4341 277.39 56.8576 276.248 57.0685C275.107 57.2794 272.994 56.6046 272.403 55.7504H272.417Z" fill="#FFA799"/>
<path d="M274.752 48.8225C274.752 48.8225 275.645 47.3779 276.603 47.2092C278.427 46.8717 283.374 49.3603 284.175 49.8876C284.175 49.8876 279.267 47.2197 277.823 46.8085C276.367 46.3972 275.815 46.9877 275.658 47.1986C275.5 47.4201 274.766 48.8331 274.766 48.8331L274.752 48.8225Z" fill="#FFA799"/>
<path d="M281.406 58.123C281.406 58.123 284.49 60.7276 285.264 61.8665L281.406 58.123Z" fill="#FFA799"/>
<g style="mix-blend-mode:multiply" opacity="0.5">
<path d="M272.823 52.3129C272.823 52.3129 274.739 47.3674 276.091 46.6503C277.443 45.9333 283.676 48.8753 285.251 50.0774C286.839 51.2795 286.786 52.3024 286.786 52.3024C286.786 52.3024 287.626 49.3076 285.251 47.7154C282.875 46.1231 278.781 44.8472 275.697 45.7118C274.582 46.0282 272.823 52.2918 272.823 52.2918V52.3129Z" fill="#9B64A1"/>
</g>
<g style="mix-blend-mode:multiply" opacity="0.5">
<path d="M276.262 69.3955C273.099 69.269 281.143 70.1442 283.728 68.805C286.314 67.4553 286.195 64.798 286.195 64.798C286.195 64.798 284.555 66.4113 281.406 67.7505C278.256 69.1003 277.272 69.4377 276.275 69.3955H276.262Z" fill="#9B64A1"/>
</g>
<g style="mix-blend-mode:multiply" opacity="0.5">
<path d="M278.112 53.6942C278.112 53.6942 279.162 52.007 278.466 50.2144C277.771 48.4218 280.211 49.1072 281.393 50.5518C282.574 52.007 278.112 53.6836 278.112 53.6836V53.6942Z" fill="#9B64A1"/>
</g>
<g style="mix-blend-mode:multiply" opacity="0.5">
<path d="M278.112 62.5203C278.112 62.5203 279.162 64.2074 278.466 66.0001C277.771 67.7927 280.211 67.1073 281.393 65.6626C282.574 64.2074 278.112 62.5308 278.112 62.5308V62.5203Z" fill="#9B64A1"/>
</g>
<path d="M278.112 53.6942C278.112 53.6942 280.802 52.587 281.393 51.6379C281.393 51.6379 281.183 53.3884 278.112 53.6942Z" fill="#FFA799"/>
<path d="M278.348 66.4851C278.348 66.4851 278.243 66.928 278.834 67.0545C279.424 67.1811 280.697 66.3164 280.697 66.3164C280.697 66.3164 279.779 67.3393 278.899 67.3393C278.099 67.3393 278.348 66.4746 278.348 66.4746V66.4851Z" fill="#FFA799"/>
<g style="mix-blend-mode:multiply" opacity="0.5">
<path d="M32.5839 51.0053C33.3976 44.942 40.602 43.8665 44.4338 45.7434C45.2737 46.1547 47.2028 53.5466 47.6227 54.8753C48.0557 56.2039 44.342 57.3638 43.1347 57.1529C41.9274 56.9315 42.3473 55.2443 42.0455 54.58C41.7568 53.9157 43.2397 55.4447 45.3787 55.4869C47.5177 55.529 45.1162 47.9262 43.9089 47.0194C42.7016 46.1125 34.9329 49.6661 33.555 51.4587C32.1771 53.2514 38.3449 58.1336 38.3449 58.1336C38.3449 58.1336 32.1771 63.0159 33.555 64.8085C34.9329 66.6011 42.7016 70.1547 43.9089 69.2478C45.1162 68.341 47.5046 60.7382 45.3787 60.7804C43.2528 60.8225 41.7568 62.3515 42.0455 61.6872C42.3342 61.0229 41.9274 59.3252 43.1347 59.1143C44.342 58.9034 48.0557 60.0528 47.6227 61.392C47.1896 62.7206 45.4049 70.5132 44.4338 70.5238C43.4628 70.5343 33.3844 71.3146 32.5839 65.2619C32.1903 62.3621 36.1665 58.1441 36.1665 58.1441C36.1665 58.1441 32.2034 53.9262 32.5839 51.0264V51.0053Z" fill="#9B64A1"/>
</g>
<path d="M46.2579 66.3374C46.2579 66.3374 45.2343 70.1441 44.5913 70.3761C43.3578 70.8295 36.757 70.1125 35.0904 68.9209C33.4107 67.7188 32.7545 66.0527 32.7545 66.0527C32.7545 66.0527 33.1744 67.8348 34.2505 68.8577C36.4289 70.9244 42.3342 71.2091 44.4469 70.8612C46.0086 70.6081 46.2579 66.348 46.2579 66.348V66.3374Z" fill="#FFA799"/>
<path d="M46.1661 61.5079C45.6412 59.9895 42.2161 62.1406 42.0062 62.1406C41.7962 62.1406 42.2161 60.6327 42.2161 60.6327C42.2161 60.6327 42.0193 61.7294 42.2161 61.7821C42.413 61.8348 43.7384 60.6327 45.3919 60.7592C46.2711 60.8225 46.1661 61.5079 46.1661 61.5079Z" fill="#FFA799"/>
<path d="M47.3471 55.7504C47.3471 55.7504 46.9272 56.4147 45.8118 56.8998C44.6963 57.3849 43.2397 57.6379 42.8591 57.3427C42.098 56.7522 42.2161 55.4341 42.2161 55.4341C42.2161 55.4341 42.3605 56.8576 43.5021 57.0685C44.6438 57.2794 46.7566 56.6046 47.3471 55.7504Z" fill="#FFA799"/>
<path d="M44.9981 48.8225C44.9981 48.8225 44.1058 47.3779 43.1478 47.2092C41.3237 46.8717 36.3764 49.3603 35.5759 49.8876C35.5759 49.8876 40.4839 47.2197 41.9274 46.8085C43.384 46.3972 43.9352 46.9877 44.0926 47.1986C44.2501 47.4095 44.985 48.8331 44.985 48.8331L44.9981 48.8225Z" fill="#FFA799"/>
<path d="M38.358 58.123C38.358 58.123 35.2741 60.7276 34.4999 61.8665L38.358 58.123Z" fill="#FFA799"/>
<g style="mix-blend-mode:multiply" opacity="0.5">
<path d="M46.9272 52.3129C46.9272 52.3129 45.0113 47.3674 43.6596 46.6503C42.308 45.9333 36.0747 48.8753 34.4999 50.0774C32.9252 51.2795 32.9645 52.3024 32.9645 52.3024C32.9645 52.3024 32.1247 49.3076 34.4999 47.7154C36.8752 46.1231 40.9695 44.8472 44.0533 45.7118C45.1688 46.0282 46.9272 52.2918 46.9272 52.2918V52.3129Z" fill="#9B64A1"/>
</g>
<g style="mix-blend-mode:multiply" opacity="0.5">
<path d="M43.5021 69.3955C46.6647 69.269 38.6204 70.1442 36.0352 68.805C33.45 67.4553 33.5681 64.798 33.5681 64.798C33.5681 64.798 35.2084 66.4113 38.3579 67.7505C41.5074 69.1003 42.4916 69.4377 43.4889 69.3955H43.5021Z" fill="#9B64A1"/>
</g>
<g style="mix-blend-mode:multiply" opacity="0.5">
<path d="M41.6386 53.6942C41.6386 53.6942 40.5888 52.007 41.2843 50.2144C41.9798 48.4218 39.539 49.1072 38.3579 50.5518C37.1769 52.007 41.6386 53.6836 41.6386 53.6836V53.6942Z" fill="#9B64A1"/>
</g>
<g style="mix-blend-mode:multiply" opacity="0.5">
<path d="M41.6386 62.5203C41.6386 62.5203 40.5888 64.2074 41.2843 66.0001C41.9798 67.7927 39.539 67.1073 38.3579 65.6626C37.1769 64.2074 41.6386 62.5308 41.6386 62.5308V62.5203Z" fill="#9B64A1"/>
</g>
<path d="M41.6387 53.6942C41.6387 53.6942 38.9486 52.587 38.358 51.6379C38.358 51.6379 38.568 53.3884 41.6387 53.6942Z" fill="#FFA799"/>
<path d="M41.4156 66.4851C41.4156 66.4851 41.5206 66.928 40.9301 67.0545C40.3396 67.1811 39.0667 66.3164 39.0667 66.3164C39.0667 66.3164 39.9852 67.3393 40.8645 67.3393C41.665 67.3393 41.4156 66.4746 41.4156 66.4746V66.4851Z" fill="#FFA799"/>
<g style="mix-blend-mode:soft-light" opacity="0.5">
<path d="M99.8253 22.6503C99.8253 22.6503 96.6759 28.7663 164.941 29.6837C233.193 30.6116 252.995 25.9192 252.995 25.9192C252.995 25.9192 222.327 22.6924 99.8385 22.6503H99.8253Z" fill="#FFA799"/>
</g>
<path d="M156.765 29.5466C156.765 29.5466 182.696 28.5659 198.614 28.4394C214.532 28.3128 234.689 30.6643 234.689 30.6643L156.765 29.5466Z" fill="#FFA799"/>
<g style="mix-blend-mode:soft-light" opacity="0.5">
<path d="M58.4753 39.638C54.3285 40.334 91.2693 56.3094 176.384 57.3428C261.499 58.3761 265.868 48.1793 265.514 41.7259C265.16 35.283 135.152 26.7417 58.4753 39.638Z" fill="#FFA799"/>
</g>
<g style="mix-blend-mode:multiply" opacity="0.2">
<path d="M64.8793 83.4201C58.8953 83.2513 51.6252 51.5642 191.226 58.9244C263.401 62.7311 265.58 78.5589 261.512 82.1019C257.444 85.6556 115.363 84.7909 64.8793 83.4201Z" fill="#9B64A1"/>
</g>
<g style="mix-blend-mode:multiply" opacity="0.2">
<path d="M195.727 59.0405C146.005 58.5132 206.881 77.9157 239.793 77.7153C272.718 77.515 243.625 59.5572 195.727 59.0405Z" fill="#CF6481"/>
</g>
<path d="M197.656 22.6503C191.947 22.5976 199.427 25.5923 208.43 25.5291C217.432 25.4658 216.303 23.2725 216.303 23.2725C216.303 23.2725 209.23 22.7663 197.656 22.6503Z" fill="#FFD6D6"/>
<g style="mix-blend-mode:soft-light" opacity="0.5">
<path d="M227.628 45.7751C219.886 50.6785 235.568 49.6134 239.793 46.5133C244.019 43.4131 231.237 43.4869 227.628 45.7751Z" fill="#FFA799"/>
</g>
<path d="M261.512 58.3761C261.512 58.3761 266.21 54.58 268.375 53.1353C270.553 51.6907 270.908 55.0861 267.509 58.587C267.509 58.587 265.895 58.8717 261.512 58.3761Z" fill="#FFA799"/>
<path d="M52.7931 58.2707C52.7931 58.2707 49.4993 55.624 49.7355 53.4412C49.9717 51.2584 55.3783 58.2707 55.3783 58.2707H52.78H52.7931Z" fill="#FFA799"/>
<g style="mix-blend-mode:multiply" opacity="0.2">
<path d="M101.466 92.9525C101.466 92.9525 118.893 88.2073 151.201 87.5114C183.509 86.826 218.469 92.0562 218.469 92.0562C218.469 92.0562 149.705 95.5044 101.466 92.9525Z" fill="#9B64A1"/>
</g>
<g style="mix-blend-mode:soft-light">
<path d="M241.132 90.9807C241.132 90.9807 261.892 88.6714 267.653 85.6556C275.422 81.5959 282.823 74.1301 282.823 74.1301C282.823 74.1301 271.026 87.5853 263.874 89.0089C256.722 90.443 241.132 90.9807 241.132 90.9807Z" fill="#FFA799"/>
</g>
<g style="mix-blend-mode:multiply" opacity="0.5">
<path d="M56.7955 92.0562C56.7955 92.0562 67.0445 91.0123 73.0678 91.4552C79.1043 91.9086 93.6838 93.8172 93.6838 93.8172C93.6838 93.8172 65.2335 93.2267 56.7955 92.0562Z" fill="#9B64A1"/>
</g>
<g style="mix-blend-mode:multiply" opacity="0.5">
<path d="M266.787 90.4007C266.787 90.4007 261.105 89.5571 254.858 90C248.612 90.4429 234.702 93.8278 234.702 93.8278C234.702 93.8278 253.336 92.8577 259.254 92.4253C265.173 91.993 266.8 90.4007 266.8 90.4007H266.787Z" fill="#9B64A1"/>
</g>
<g style="mix-blend-mode:soft-light" opacity="0.5">
<path d="M64.8793 83.4201C66.7952 78.2953 89.7076 75.3849 115.507 78.8752C141.307 82.3656 149.508 85.0123 149.508 85.0123C149.508 85.0123 83.1331 84.5589 64.8793 83.4201Z" fill="#FFA799"/>
</g>
<g style="mix-blend-mode:soft-light" opacity="0.5">
<path d="M85.3639 84.1371C85.3639 84.1371 100.77 87.0264 142.986 87.775C185.202 88.5343 221.369 84.6116 221.369 84.6116C221.369 84.6116 146.136 86.6889 85.377 84.1371H85.3639Z" fill="#FFA799"/>
</g>
<path d="M162.434 85.3497C162.434 85.3497 166.948 87.4692 175.833 87.1213C184.704 86.7733 186.764 85.3497 186.764 85.3497H162.434Z" fill="#FFD6D6"/>
<g style="mix-blend-mode:soft-light" opacity="0.8">
<path d="M73.5533 37.4552C73.5533 37.4552 122.738 36.232 134.076 35.2724C145.414 34.3128 149.508 33.9965 149.508 33.9965C149.508 33.9965 119.864 32.0668 73.5665 37.4552H73.5533Z" fill="#FFA799"/>
</g>
<g style="mix-blend-mode:soft-light" opacity="0.5">
<path d="M46.2579 33.2689C45.7199 36.0738 53.9741 31.8981 61.2966 31.2759C68.6061 30.6538 77.3065 24.8436 76.4666 24.1582C75.6268 23.4833 64.4461 23.7047 57.6747 24.949C50.9034 26.1933 46.2579 33.2689 46.2579 33.2689Z" fill="#FFA799"/>
</g>
<path d="M56.4412 25.529C52.8456 26.805 53.3049 31.044 59.9319 29.0088C66.5589 26.9737 61.2967 23.8102 56.4412 25.529Z" fill="#FFD6D6"/>
<g style="mix-blend-mode:soft-light">
<path d="M44.9982 80.8682C44.9982 80.8682 55.8639 87.7539 62.3072 89.5465C68.7374 91.3497 96.2428 92.7627 96.2428 92.7627C96.2428 92.7627 69.0654 91.7399 61.5067 90.1265C53.9479 88.5132 44.9982 80.8682 44.9982 80.8682Z" fill="#FFA799"/>
</g>
<g style="mix-blend-mode:multiply" opacity="0.5">
<path d="M256.643 44.3515C254.767 43.8875 252.142 46.8506 253.494 49.3076C254.819 51.7223 260.921 45.406 256.643 44.3515Z" fill="#9B64A1"/>
</g>
<g style="mix-blend-mode:multiply" opacity="0.5">
<path d="M253.704 46.4394C253.533 48.232 256.341 48.3374 257.43 47.4095C258.52 46.471 258.493 44.3515 256.407 44.3093C254.32 44.2671 253.717 46.4394 253.717 46.4394H253.704Z" fill="#9B64A1"/>
</g>
<path d="M253.126 47.9894C253.743 46.9139 255.383 48.232 256.407 48.2952C257.417 48.3585 255.672 50.1089 254.504 49.8559C253.336 49.5922 253.126 47.9894 253.126 47.9894Z" fill="#FFA799"/>
<g style="mix-blend-mode:multiply" opacity="0.5">
<path d="M280.579 15.5325C279.057 15.1634 276.944 17.5571 278.033 19.5395C279.109 21.4903 284.043 16.3866 280.579 15.5325Z" fill="#9B64A1"/>
</g>
<g style="mix-blend-mode:multiply" opacity="0.5">
<path d="M278.204 17.2197C278.059 18.6644 280.343 18.7593 281.209 18C282.088 17.2408 282.062 15.5325 280.382 15.5009C278.689 15.4693 278.204 17.2197 278.204 17.2197Z" fill="#9B64A1"/>
</g>
<path d="M277.731 18.4745C278.23 17.6099 279.556 18.6749 280.382 18.7171C281.196 18.7698 279.792 20.1828 278.847 19.9824C277.902 19.7715 277.731 18.4745 277.731 18.4745Z" fill="#FFA799"/>
<g style="mix-blend-mode:multiply" opacity="0.5">
<path d="M28.9358 38.9842C27.0592 38.5202 24.4347 41.4833 25.7863 43.9403C27.1117 46.355 33.2138 40.0387 28.9358 38.9842Z" fill="#9B64A1"/>
</g>
<g style="mix-blend-mode:multiply" opacity="0.5">
<path d="M25.9963 41.0826C25.8257 42.8752 28.634 42.9806 29.7232 42.0527C30.8124 41.1142 30.7862 38.9947 28.6996 38.9525C26.6131 38.9103 26.0095 41.0826 26.0095 41.0826H25.9963Z" fill="#9B64A1"/>
</g>
<path d="M25.4187 42.6221C26.0355 41.5465 27.6758 42.8647 28.6994 42.9279C29.7099 42.9912 27.9645 44.7416 26.7966 44.4886C25.6287 44.2249 25.4187 42.6221 25.4187 42.6221Z" fill="#FFA799"/>
<g style="mix-blend-mode:multiply" opacity="0.5">
<path d="M255.842 65.5044C254.635 65.2197 253.428 66.58 253.94 67.4974C254.438 68.4042 257.942 66.0105 255.842 65.5044Z" fill="#9B64A1"/>
</g>
<g style="mix-blend-mode:multiply" opacity="0.5">
<path d="M255.318 65.4622C254.478 65.6414 254.202 66.5905 254.53 66.8646C254.858 67.1388 256.446 66.8014 256.512 66.1581C256.577 65.5149 255.646 65.3778 255.318 65.4516V65.4622Z" fill="#9B64A1"/>
</g>
<path d="M253.808 67.1704C254.032 66.3374 254.478 67.1704 255.121 67.2653C255.764 67.3602 253.835 68.2882 253.808 67.1704Z" fill="#FF7940"/>
<g style="mix-blend-mode:multiply" opacity="0.5">
<path d="M58.0554 65.9683C55.982 66.9806 56.8481 70.1229 59.1315 70.724C61.3886 71.3145 61.6642 64.2073 58.0554 65.9683Z" fill="#9B64A1"/>
</g>
<g style="mix-blend-mode:multiply" opacity="0.5">
<path d="M57.2943 66.5273C56.5332 67.7188 57.8586 69.2584 58.7772 69.2478C59.6958 69.2373 61.1393 66.9702 60.0763 66.0738C59.0134 65.167 57.583 66.0633 57.2812 66.5273H57.2943Z" fill="#9B64A1"/>
</g>
<path d="M58.3835 70.45C57.1762 69.1108 59.2496 69.6802 60.2601 69.0581C61.2705 68.4359 60.4176 71.8419 58.3835 70.45Z" fill="#FF7940"/>
<path style="mix-blend-mode:screen" opacity="0.8" d="M161.857 59.7575C210.8 59.7575 250.475 53.6673 250.475 46.1547C250.475 38.6421 210.8 32.5519 161.857 32.5519C112.914 32.5519 73.2385 38.6421 73.2385 46.1547C73.2385 53.6673 112.914 59.7575 161.857 59.7575Z" fill="url(#paint12_radial_110_1105)"/>
<path d="M85.364 42.6221C83.3694 45.5746 91.1643 47.3356 92.7915 44.1195C94.4188 40.9033 86.6894 40.6713 85.364 42.6221Z" fill="#FFD6D6"/>
<g style="mix-blend-mode:soft-light" opacity="0.8">
<path d="M83.9204 59.9262C89.9569 56.8893 96.374 54.3691 102.896 52.0598C109.431 49.7821 116.098 47.7364 122.908 46.0598C126.294 45.1529 129.745 44.457 133.183 43.6977C136.635 42.9701 140.125 42.4113 143.603 41.7575C147.12 41.2724 150.611 40.7135 154.141 40.2918L159.442 39.7434C161.214 39.5747 162.972 39.3427 164.757 39.2584C178.943 38.225 193.299 38.1406 207.446 39.754C209.217 39.9332 210.962 40.239 212.721 40.471C214.466 40.7979 216.225 41.0615 217.931 41.4622C221.382 42.2109 224.794 43.1283 227.996 44.4253C231.185 45.7223 234.229 47.4411 236.329 49.8559C237.313 51.0896 237.956 52.5343 238.009 54.0211C238.048 55.4974 237.549 56.9842 236.631 58.2496C234.794 60.8014 231.933 62.71 228.914 64.239C225.857 65.7575 222.576 66.949 219.204 67.8981C212.458 69.8067 205.333 70.8612 198.181 70.9772C191.029 71.0932 183.851 70.355 177.027 68.6573C173.615 67.8137 170.295 66.696 167.185 65.2619C164.101 63.8278 161.148 62.0668 159.022 59.7153C157.972 58.5448 157.133 57.2056 156.857 55.7505C156.581 54.3058 156.923 52.7768 157.841 51.5114C158.734 50.225 160.072 49.2127 161.503 48.3375C162.92 47.4517 164.481 46.7241 166.069 46.0703C172.486 43.4974 179.428 41.9895 186.383 40.7874C193.365 39.638 200.451 38.8788 207.551 38.4781C214.65 38.1195 221.828 38.0141 228.875 38.9104C221.828 38.0563 214.65 38.2039 207.564 38.6046C200.464 39.0475 193.404 39.8383 186.449 41.0299C179.507 42.2425 172.591 43.761 166.24 46.3234C164.665 46.9772 163.13 47.6942 161.739 48.5694C160.335 49.4236 159.035 50.4253 158.196 51.6485C157.329 52.8612 157.001 54.3058 157.277 55.6766C157.539 57.058 158.34 58.355 159.377 59.4833C161.463 61.761 164.363 63.5114 167.421 64.9139C170.492 66.3269 173.786 67.4236 177.184 68.2566C183.969 69.9332 191.095 70.6503 198.181 70.5237C205.28 70.3867 212.327 69.3322 219.007 67.4236C222.353 66.4745 225.581 65.283 228.586 63.7856C231.552 62.2777 234.334 60.3902 236.066 57.9649C236.946 56.7628 237.405 55.3814 237.379 54C237.339 52.6186 236.749 51.2795 235.817 50.0984C233.836 47.7891 230.87 46.102 227.747 44.8155C224.597 43.5185 221.225 42.6116 217.799 41.8629C216.093 41.4622 214.348 41.1881 212.629 40.8717C210.884 40.6292 209.138 40.3234 207.38 40.1441C193.312 38.5097 178.969 38.5624 164.809 39.5642C163.038 39.638 161.279 39.87 159.508 40.0281L154.219 40.5659C150.702 40.9772 147.212 41.536 143.695 42.0106C140.23 42.6538 136.74 43.2021 133.288 43.9297C129.85 44.6784 126.399 45.3638 123.013 46.2601C116.189 47.8946 109.51 49.8981 102.962 52.1336C96.4265 54.4007 89.9963 56.8788 83.9204 59.884V59.9262Z" fill="#FFD6D6"/>
<path d="M107.135 55.3814C117.252 54.3058 127.462 53.7786 137.671 53.6204C147.881 53.4833 158.104 53.6731 168.287 54.4218C178.457 55.2127 188.588 56.5097 198.469 58.6081C203.404 59.6837 208.298 60.8858 213.023 62.457C217.747 64.0281 222.327 65.8524 226.684 68.0141C217.865 63.87 208.22 61.0018 198.365 58.9561C188.496 56.9104 178.378 55.6766 168.235 54.9491C158.091 54.1477 147.881 53.8946 137.685 53.9684C132.58 54.0211 127.488 54.1687 122.396 54.4007C117.305 54.6222 112.213 54.9069 107.135 55.3708V55.3814Z" fill="#FFD6D6"/>
<path d="M129.68 65.8946C133.013 66.7487 136.425 67.4236 139.85 68.0141C143.275 68.6151 146.713 69.1002 150.178 69.4693C157.106 70.1863 164.114 70.5449 171.082 70.1336C178.05 69.7962 184.966 68.6679 191.436 66.58C194.651 65.5044 197.735 64.1758 200.635 62.6046C203.509 61.0018 206.12 59.1143 208.495 57.0475C206.199 59.167 203.64 61.1283 200.819 62.8155C197.945 64.4499 194.861 65.8313 191.633 66.9596C185.124 69.1424 178.129 70.2812 171.122 70.6608C164.101 71.0405 157.041 70.6819 150.099 69.87C143.157 69.0264 136.294 67.7505 129.68 65.8946Z" fill="#FFD6D6"/>
<path d="M121.491 58.0387C123.499 56.7206 125.625 55.5291 127.777 54.3691C129.955 53.2514 132.186 52.1758 134.456 51.1741C139.01 49.1706 143.734 47.4307 148.59 45.9649C153.458 44.5308 158.419 43.276 163.497 42.4219C166.017 41.9368 168.589 41.631 171.148 41.3041C173.707 40.9878 176.305 40.8823 178.877 40.6609C173.746 41.1987 168.628 41.7997 163.615 42.8226C158.589 43.7505 153.655 44.9948 148.826 46.4711C143.97 47.8841 139.273 49.624 134.706 51.5431C130.139 53.4728 125.677 55.5818 121.504 58.0598L121.491 58.0387Z" fill="#FFD6D6"/>
<path d="M143.721 38.9315C149.574 38.6362 155.453 38.6784 161.306 39.0475C167.158 39.4271 172.985 40.123 178.707 41.1986C184.402 42.348 190.005 43.8664 195.333 45.87C200.609 47.9684 205.53 50.6046 209.886 53.7575C205.359 50.7522 200.385 48.2531 195.11 46.2285C189.769 44.3199 184.231 42.812 178.549 41.7048C172.867 40.587 167.08 39.9016 161.253 39.4376C155.427 38.9947 149.574 38.8155 143.708 38.9209L143.721 38.9315Z" fill="#FFD6D6"/>
<path d="M156.647 67.4341C158.012 67.9191 159.416 68.3515 160.833 68.7311C162.237 69.1318 163.668 69.4903 165.098 69.8172C167.972 70.4604 170.885 70.9877 173.838 71.304C176.778 71.6836 179.77 71.7469 182.735 71.6836L184.966 71.5782C185.714 71.5255 186.436 71.42 187.184 71.3357C188.68 71.2408 190.11 70.8717 191.58 70.6397C188.732 71.3884 185.78 71.9473 182.775 72.0949C179.77 72.2425 176.738 72.1793 173.759 71.8313C170.78 71.4622 167.828 70.9455 164.967 70.2074C162.106 69.4692 159.311 68.5624 156.66 67.4341H156.647Z" fill="#FFD6D6"/>
<path d="M163.799 73.7083C165.243 72.6116 166.817 71.6204 168.431 70.6819C170.046 69.7434 171.725 68.8788 173.457 68.0774C175.216 67.3181 176.988 66.5695 178.877 66.0317C180.754 65.4833 182.696 65.051 184.691 64.9456C182.748 65.2724 180.872 65.7997 179.061 66.4113C177.25 67.0229 175.491 67.761 173.786 68.5413C172.053 69.29 170.387 70.1547 168.72 71.0194C167.067 71.884 165.426 72.7909 163.812 73.7083H163.799Z" fill="#FFD6D6"/>
<path d="M94.6942 63.2162C99.2085 64.9034 103.841 66.4113 108.486 67.8348C113.132 69.2689 117.83 70.6081 122.58 71.8313C132.068 74.2672 141.74 76.2707 151.555 77.5888C156.45 78.2953 161.398 78.7803 166.358 79.0756C171.318 79.3814 176.305 79.4236 181.265 79.1599C186.226 78.8963 191.173 78.3691 195.989 77.3357C200.805 76.355 205.503 74.9526 209.899 73.065C205.556 75.0264 200.884 76.5132 196.068 77.5888C191.252 78.6643 186.278 79.2232 181.292 79.5185C176.305 79.8137 171.305 79.8032 166.319 79.5185C161.332 79.2549 156.371 78.8014 151.45 78.116C141.608 76.7346 131.937 74.6784 122.462 72.1793C112.987 69.6802 103.67 66.7487 94.7073 63.2267L94.6942 63.2162Z" fill="#FFD6D6"/>
<path d="M133.774 79.7927C135.519 78.5378 137.409 77.4306 139.338 76.3656C141.307 75.3427 143.314 74.3726 145.388 73.4974C149.535 71.7575 153.891 70.2918 158.379 69.1951C162.88 68.1406 167.46 67.2654 172.132 66.8963C174.455 66.6222 176.804 66.5905 179.14 66.4956C181.475 66.4324 183.824 66.58 186.147 66.6222C181.476 66.6433 176.804 66.7487 172.198 67.297C167.578 67.7505 163.025 68.6046 158.576 69.6907C154.101 70.7347 149.797 72.1898 145.624 73.8454C141.464 75.522 137.435 77.4412 133.774 79.7716V79.7927Z" fill="#FFD6D6"/>
</g>
<defs>
<linearGradient id="paint0_linear_110_1105" x1="256.512" y1="34.3129" x2="256.512" y2="14.4359" gradientUnits="userSpaceOnUse">
<stop stop-color="#E02E29"/>
<stop offset="0.4" stop-color="#F55531"/>
<stop offset="1" stop-color="#FF6430"/>
</linearGradient>
<linearGradient id="paint1_linear_110_1105" x1="282.823" y1="92.0562" x2="230.187" y2="92.0562" gradientUnits="userSpaceOnUse">
<stop stop-color="#FF6C39"/>
<stop offset="0.54" stop-color="#D23B28"/>
<stop offset="1" stop-color="#EE503B"/>
</linearGradient>
<linearGradient id="paint2_linear_110_1105" x1="291.169" y1="83.0089" x2="291.169" y2="6.5165e-05" gradientUnits="userSpaceOnUse">
<stop stop-color="#E02E29"/>
<stop offset="0.4" stop-color="#F55531"/>
<stop offset="1" stop-color="#FF6430"/>
</linearGradient>
<linearGradient id="paint3_linear_110_1105" x1="63.4883" y1="-8.15548e-05" x2="63.4883" y2="14.4358" gradientUnits="userSpaceOnUse">
<stop stop-color="#E02E29"/>
<stop offset="0.4" stop-color="#F55531"/>
<stop offset="1" stop-color="#FF6430"/>
</linearGradient>
<linearGradient id="paint4_linear_110_1105" x1="37.177" y1="92.0562" x2="89.8126" y2="92.0562" gradientUnits="userSpaceOnUse">
<stop stop-color="#FF6C39"/>
<stop offset="0.54" stop-color="#D23B28"/>
<stop offset="1" stop-color="#EE503B"/>
</linearGradient>
<linearGradient id="paint5_linear_110_1105" x1="28.8309" y1="83.0088" x2="28.8309" y2="-2.58784e-05" gradientUnits="userSpaceOnUse">
<stop stop-color="#E02E29"/>
<stop offset="0.4" stop-color="#F55531"/>
<stop offset="1" stop-color="#FF6430"/>
</linearGradient>
<linearGradient id="paint6_linear_110_1105" x1="159.993" y1="94.0176" x2="159.993" y2="22.5238" gradientUnits="userSpaceOnUse">
<stop stop-color="#FD6356"/>
<stop offset="0.28" stop-color="#EB352B"/>
<stop offset="1" stop-color="#FF704D"/>
</linearGradient>
<linearGradient id="paint7_linear_110_1105" x1="159.993" y1="86.8576" x2="159.993" y2="29.6942" gradientUnits="userSpaceOnUse">
<stop stop-color="#F04B2F"/>
<stop offset="0.46" stop-color="#DE2A28"/>
<stop offset="1" stop-color="#FF6C46"/>
</linearGradient>
<linearGradient id="paint8_linear_110_1105" x1="47.6489" y1="82.7557" x2="47.6489" y2="31.9192" gradientUnits="userSpaceOnUse">
<stop stop-color="#FD6356"/>
<stop offset="0.28" stop-color="#EB3F36"/>
<stop offset="1" stop-color="#FF7857"/>
</linearGradient>
<linearGradient id="paint9_linear_110_1105" x1="272.338" y1="82.7557" x2="272.338" y2="31.9192" gradientUnits="userSpaceOnUse">
<stop stop-color="#FD6356"/>
<stop offset="0.28" stop-color="#EB3F36"/>
<stop offset="1" stop-color="#FF7857"/>
</linearGradient>
<linearGradient id="paint10_linear_110_1105" x1="159.915" y1="87.5114" x2="159.915" y2="58.2706" gradientUnits="userSpaceOnUse">
<stop stop-color="#FF643D"/>
<stop offset="0.46" stop-color="#FF8A75"/>
<stop offset="1" stop-color="#CF1717"/>
</linearGradient>
<linearGradient id="paint11_linear_110_1105" x1="160.19" y1="58.9244" x2="160.19" y2="29.6836" gradientUnits="userSpaceOnUse">
<stop stop-color="#FF643D"/>
<stop offset="0.46" stop-color="#FF8A75"/>
<stop offset="1" stop-color="#CF1717"/>
</linearGradient>
<radialGradient id="paint12_radial_110_1105" cx="0" cy="0" r="1" gradientUnits="userSpaceOnUse" gradientTransform="translate(162.262 46.0208) scale(88.709 13.519)">
<stop stop-color="#FFBBAD"/>
<stop offset="1"/>
</radialGradient>
</defs>
</svg>
