<svg width="130" height="802" viewBox="0 0 130 802" fill="none" xmlns="http://www.w3.org/2000/svg">
<g opacity="0.1" clip-path="url(#clip0_112_72)">
<path d="M234.553 501.197L234.553 300.803L0.447418 1.29734L0.447383 800.703L234.553 501.197Z" stroke="#F50057" stroke-miterlimit="10"/>
<path d="M67.2017 715.291L67.2017 86.7091" stroke="#F50057" stroke-miterlimit="10"/>
<path d="M110.458 659.96L110.458 142.04" stroke="#F50057" stroke-miterlimit="10"/>
<path d="M234.553 319.02L0.447424 73.9771" stroke="#F50057" stroke-miterlimit="10"/>
<path d="M234.553 337.236L0.447422 146.648" stroke="#F50057" stroke-miterlimit="10"/>
<path d="M234.553 355.462L0.447419 219.319" stroke="#F50057" stroke-miterlimit="10"/>
<path d="M234.553 373.679L0.447417 291.989" stroke="#F50057" stroke-miterlimit="10"/>
<path d="M234.553 391.896L0.447415 364.66" stroke="#F50057" stroke-miterlimit="10"/>
<path d="M234.553 410.113L0.447413 437.34" stroke="#F50057" stroke-miterlimit="10"/>
<path d="M234.553 428.33L0.447413 510.01" stroke="#F50057" stroke-miterlimit="10"/>
<path d="M234.553 446.547L0.447383 582.681" stroke="#F50057" stroke-miterlimit="10"/>
<path d="M234.553 464.764L0.447383 655.352" stroke="#F50057" stroke-miterlimit="10"/>
<path d="M234.553 482.98L0.447383 728.032" stroke="#F50057" stroke-miterlimit="10"/>
</g>
<defs>
<clipPath id="clip0_112_72">
<rect width="802" height="235" fill="white" transform="matrix(4.37114e-08 -1 -1 -4.37114e-08 235 802)"/>
</clipPath>
</defs>
</svg>
