<svg width="897" height="263" viewBox="0 0 897 263" fill="none" xmlns="http://www.w3.org/2000/svg">
<g opacity="0.1" clip-path="url(#clip0_112_17)">
<path d="M336.19 0.500073L560.16 0.500093L894.9 262.12L1.44995 262.12L336.19 0.500073Z" stroke="#F50057" stroke-miterlimit="10"/>
<path d="M96.91 187.51L799.44 187.51" stroke="#F50057" stroke-miterlimit="10"/>
<path d="M158.75 139.18L737.6 139.18" stroke="#F50057" stroke-miterlimit="10"/>
<path d="M202.08 105.31L694.27 105.31" stroke="#F50057" stroke-miterlimit="10"/>
<path d="M234.13 80.2701L662.23 80.2701" stroke="#F50057" stroke-miterlimit="10"/>
<path d="M258.79 61.0001L637.57 61.0001" stroke="#F50057" stroke-miterlimit="10"/>
<path d="M278.35 45.7L618 45.7001" stroke="#F50057" stroke-miterlimit="10"/>
<path d="M294.25 33.2801L602.1 33.2802" stroke="#F50057" stroke-miterlimit="10"/>
<path d="M307.43 22.9801L588.92 22.9801" stroke="#F50057" stroke-miterlimit="10"/>
<path d="M318.53 14.3L577.82 14.3" stroke="#F50057" stroke-miterlimit="10"/>
<path d="M328.01 6.89012L568.34 6.89014" stroke="#F50057" stroke-miterlimit="10"/>
<path d="M539.8 0.500098L813.68 262.12" stroke="#F50057" stroke-miterlimit="10"/>
<path d="M519.44 0.500103L732.45 262.12" stroke="#F50057" stroke-miterlimit="10"/>
<path d="M499.08 0.500109L651.23 262.12" stroke="#F50057" stroke-miterlimit="10"/>
<path d="M478.72 0.500114L570.01 262.12" stroke="#F50057" stroke-miterlimit="10"/>
<path d="M458.36 0.500119L488.79 262.12" stroke="#F50057" stroke-miterlimit="10"/>
<path d="M438 0.500122L407.56 262.12" stroke="#F50057" stroke-miterlimit="10"/>
<path d="M417.64 0.500122L326.34 262.12" stroke="#F50057" stroke-miterlimit="10"/>
<path d="M397.28 0.500122L245.12 262.12" stroke="#F50057" stroke-miterlimit="10"/>
<path d="M376.91 0.500122L163.9 262.12" stroke="#F50057" stroke-miterlimit="10"/>
<path d="M356.55 0.500122L82.6801 262.12" stroke="#F50057" stroke-miterlimit="10"/>
</g>
<defs>
<clipPath id="clip0_112_17">
<rect width="896.35" height="262.62" fill="white" transform="translate(896.35 262.62) rotate(-180)"/>
</clipPath>
</defs>
</svg>
