<svg width="196" height="59" viewBox="0 0 196 59" fill="none" xmlns="http://www.w3.org/2000/svg">
<path d="M195.873 26.1812C195.682 25.3708 195.274 24.6082 194.93 23.8455C194.918 23.8097 194.892 23.7621 194.88 23.7263C194.434 22.7611 193.937 21.8196 193.403 20.8901C193.135 20.4254 192.855 19.9725 192.575 19.5078C192.524 19.4124 192.46 19.3409 192.397 19.2694C192.32 19.186 192.282 19.0907 192.231 18.9954C192.104 18.7689 191.951 18.5664 191.798 18.3638C191.276 17.6726 190.742 16.9933 190.067 16.4332C189.736 16.1592 189.379 15.9208 188.997 15.7302C188.781 15.6229 188.564 15.5395 188.335 15.468C188.119 15.4084 187.902 15.3846 187.686 15.3369C187.686 15.2416 187.711 15.1224 187.724 15.0271C187.724 14.9198 187.724 14.8126 187.724 14.6934C187.724 14.467 187.673 14.2406 187.622 14.0261C187.508 13.5851 187.329 13.168 187.113 12.7629C186.871 12.31 186.604 11.881 186.311 11.4639C186.158 11.2494 186.005 11.0469 185.84 10.8443C185.725 10.6894 185.674 10.5106 185.572 10.3438C185.483 10.2008 185.381 10.0578 185.292 9.91477C185.229 9.81943 185.178 9.73601 185.127 9.64068C185.063 9.50959 184.936 9.41426 184.847 9.30701C184.643 9.08059 184.426 8.85417 184.223 8.61584C182.682 6.85215 181.103 5.08847 179.219 3.61079C178.404 2.96728 177.525 2.38336 176.596 1.90669C176.329 1.76368 176.061 1.64452 175.794 1.53727C173.795 0.70309 171.707 0.572006 169.504 0.536255C167.187 0.500505 164.857 0.464755 162.54 0.429004C160.21 0.393254 157.892 0.357504 155.562 0.33367C153.232 0.29792 150.915 0.274086 148.585 0.250252C146.255 0.226419 143.925 0.202585 141.595 0.178752C139.265 0.154918 136.935 0.131085 134.605 0.119168C132.275 0.0953343 129.945 0.0834175 127.602 0.0715007C125.272 0.0595839 122.93 0.0476671 120.6 0.0357504C118.257 0.0357504 115.927 0.0119168 113.584 0.0119168C111.241 0.0119168 108.911 0 106.569 0C104.226 0 101.883 0 99.5406 0C97.1978 0 94.8551 0 92.5124 0C90.1696 0 87.8269 0 85.4714 0.0238336C83.1287 0.0238336 80.7732 0.0476671 78.4305 0.0476671C76.0751 0.0476671 73.7323 0.0715007 71.3769 0.0834175C69.0214 0.0953343 66.6787 0.119168 64.3232 0.131085C61.9677 0.154918 59.6123 0.166835 57.2568 0.190669C54.9014 0.214502 52.5459 0.238336 50.1904 0.262169C44.7028 0.321753 39.2662 0.36942 33.7022 0.452838C29.3605 0.512422 24.3695 0.488588 20.7408 3.15795C18.6145 4.71905 17.2012 6.2444 15.4442 8.13916C13.6235 10.1174 11.8664 12.1432 10.1985 14.2286C8.63242 16.183 7.11728 18.185 5.75493 20.2705C4.53264 22.1533 3.19575 23.9527 1.97346 25.8237C0.929417 27.4444 -0.127358 29.2319 -3.61046e-05 31.1505C0.0890895 32.4732 0.954881 33.8556 1.54056 35.0473C1.84614 35.6669 2.24084 36.227 2.59734 36.8109C2.94111 37.371 3.32308 37.9073 3.75597 38.4078C4.01062 38.7057 4.29073 38.9917 4.64723 39.1586C5.33477 39.4803 6.22603 39.3254 6.84991 39.7425C6.40428 39.8021 6.08597 40.2191 6.03504 40.6362C5.98411 41.0533 6.12417 41.4704 6.27695 41.8637C6.81171 43.2341 7.51198 44.5449 8.33958 45.7843C9.16717 47.0236 10.2112 48.0485 11.2043 49.1687C12.3757 50.4914 13.5853 51.7665 14.8457 53.0059C16.068 54.1975 17.3158 55.4965 18.8055 56.4736C21.301 58.1182 24.1785 57.9632 27.0942 58.0228C36.3632 58.2254 45.6578 58.6425 54.9395 58.6425C66.7041 58.8451 78.4814 58.9643 90.246 59C101.985 59.0358 113.724 58.9881 125.476 58.8451C137.19 58.7021 148.903 58.4876 160.617 58.1658C163.927 58.0824 167.352 58.0228 170.676 57.5938C172.318 57.3793 173.617 57.141 174.992 56.2591C177.067 54.9364 178.684 52.8033 180.301 51.0396C181.358 49.8956 182.389 48.7397 183.395 47.5599C184.312 46.4993 185.318 45.5579 185.674 44.2232C185.725 44.0325 185.763 43.8299 185.891 43.6631C186.031 43.4843 186.247 43.3652 186.451 43.246C187.915 42.388 188.832 40.7673 189.723 39.4326C191.302 37.0612 192.753 34.6063 194.179 32.1515C195.249 30.3521 196.356 28.3024 195.86 26.1693L195.873 26.1812Z" fill="url(#paint0_linear_115_4209)"/>
<path d="M194.192 32.1632C193.912 32.628 193.645 33.1046 193.364 33.5694C193.25 33.7601 193.135 33.9507 193.021 34.1414C192.18 35.5476 191.276 36.9299 190.283 38.2527C189.748 38.9677 189.188 39.6589 188.603 40.3381C188.055 40.9578 187.597 41.5894 186.782 41.935C186.642 41.9946 186.502 42.0422 186.362 42.078C185.891 42.2091 185.394 42.2567 184.898 42.2925C183.484 42.4116 182.084 42.5427 180.696 42.6619C180.658 42.6619 180.619 42.6619 180.581 42.6619C179.817 42.7334 179.066 42.793 178.302 42.8645C179.321 42.8168 180.339 42.8287 181.358 42.9002C182.822 42.9956 184.261 43.2101 185.687 43.5199C185.343 44.366 184.834 45.1644 184.21 45.8556C182.224 48.0244 180.327 50.5627 177.767 52.2072C176.392 53.0891 175.081 53.3274 173.451 53.5419C170.128 53.9709 166.69 54.0305 163.393 54.1139C151.679 54.4238 139.965 54.6502 128.252 54.7932C122.548 54.8528 116.869 54.9004 111.165 54.9362C109.752 54.9362 108.351 54.9362 106.938 54.9481C102.304 54.9481 97.669 54.96 93.0217 54.9481C81.2444 54.9123 69.4798 54.7932 57.7025 54.5906C54.825 54.5906 51.9348 54.5548 49.0573 54.4833C42.653 54.3523 36.2614 54.1139 29.8698 53.9709C26.9669 53.9113 24.0767 54.0543 21.5812 52.4098C20.1042 51.4446 18.8437 50.1456 17.6342 48.942C17.5068 48.8229 17.3795 48.6918 17.2649 48.5726C16.17 47.4763 15.1004 46.3561 14.0691 45.2002C13.2161 44.2468 12.3885 43.2935 11.4972 42.364C11.128 41.9588 10.8097 41.506 10.5168 41.0412C10.1221 40.4215 9.66378 39.8138 9.51099 39.0988C9.48553 38.9796 9.4728 38.8366 9.56192 38.7413C9.63832 38.6579 9.7529 38.634 9.8675 38.6221C11.9556 38.2765 14.1201 38.4672 16.17 38.0858C16.5901 38.0143 16.9975 37.919 17.3922 37.776C15.4951 37.776 13.6108 37.7641 11.7137 37.7403C11.2426 37.7403 10.7588 37.7403 10.2877 37.6807C10.1094 37.6568 9.93116 37.633 9.74017 37.5973C8.89985 37.4185 8.13591 37.0014 7.52476 36.4294C7.21919 36.1434 6.96455 35.8097 6.7481 35.4522C5.90777 33.9746 5.05471 32.5088 4.30351 30.9834C3.71783 29.7918 2.85203 28.4094 2.76291 27.0867C2.76291 27.0152 2.76291 26.9556 2.76291 26.8841C2.73744 25.9784 2.96662 25.0966 3.34859 24.2505C3.95974 22.8443 4.95285 21.5096 5.74225 20.2941C7.1046 18.2087 8.61974 16.2066 10.1858 14.2523C11.8537 12.1668 13.598 10.141 15.4315 8.1628C15.7625 7.79338 16.0936 7.44779 16.4119 7.11412C17.7487 5.68411 18.9965 4.44476 20.7154 3.18158C24.3695 0.524141 29.3605 0.547974 33.6895 0.48839C39.2535 0.404973 44.6902 0.357306 50.1777 0.297722C52.5332 0.261971 54.8887 0.238138 57.2441 0.214304C59.5996 0.190471 61.9551 0.178554 64.3105 0.15472C66.666 0.142803 69.0087 0.11897 71.3642 0.0951362C73.7196 0.0832195 76.0624 0.0713027 78.4178 0.0593859C80.7733 0.0593859 83.1033 0.0355523 85.4588 0.0236355C87.8142 0.0236355 90.1442 0.0236355 92.4997 0.0117188C94.8424 0.0117188 97.1852 0.0117188 99.5279 0.0117188C101.871 0.0117188 104.213 0.0117188 106.556 0.0117188C108.886 0.0117188 111.229 0.0117188 113.572 0.0236355C115.902 0.0236355 118.244 0.0355523 120.574 0.0474691C122.917 0.0593859 125.247 0.0713027 127.577 0.0832195C129.907 0.0951362 132.237 0.11897 134.58 0.142803C136.91 0.15472 139.24 0.178554 141.57 0.202387C143.9 0.226221 146.23 0.250054 148.56 0.285805C150.89 0.309638 153.207 0.345389 155.537 0.369222C157.867 0.404973 160.184 0.428806 162.514 0.464557C164.844 0.500307 167.161 0.536057 169.479 0.571808C171.694 0.607558 173.782 0.738643 175.781 1.57282C176.049 1.68007 176.316 1.81115 176.583 1.94224C178.773 3.07433 180.594 4.73077 182.249 6.47062C182.631 6.87579 183.026 7.28096 183.395 7.69804C184.057 8.40114 184.694 9.12806 185.241 9.90265C185.903 10.8322 186.527 11.7736 187.1 12.7508C187.253 13.0129 187.406 13.3585 187.189 13.5849C187.1 13.6922 186.96 13.7399 186.82 13.7756C186.807 13.7756 186.782 13.7756 186.769 13.7875C184.757 14.288 182.682 14.5621 180.594 14.5979C181.523 14.7409 182.453 14.872 183.395 14.9554C184.63 15.0865 185.865 15.158 187.1 15.1699C187.991 15.1818 188.946 15.1818 189.71 15.6108C189.723 15.6108 189.736 15.6227 189.748 15.6346C190.678 16.1709 191.187 17.3149 191.709 18.1729C192.295 19.1382 192.881 20.1153 193.53 21.0568C194.001 21.7599 194.358 22.5583 194.689 23.3209C194.778 23.4997 194.841 23.6665 194.918 23.8453C195.262 24.6199 195.669 25.3706 195.86 26.181C196.369 28.3022 195.249 30.3638 194.179 32.1513L194.192 32.1632Z" fill="url(#paint1_linear_115_4209)"/>
<path d="M189.748 15.6231C185.661 16.4931 180.212 15.933 177.258 16.1713C173.948 16.4454 170.65 16.8625 167.352 17.2557C165.621 17.4703 163.876 17.6728 162.132 17.8635C160.744 18.0065 159.433 18.0899 158.134 18.5547C156.823 19.0194 155.397 18.9122 154.022 18.9598C152.29 19.0075 150.559 19.079 148.827 19.1624C141.901 19.4961 134.974 20.08 128.099 20.9261C124.661 21.3432 121.224 21.8318 117.811 22.38C116.105 22.6541 114.399 22.9401 112.693 23.2499C111.84 23.4048 110.987 23.5597 110.134 23.7146C109.688 23.7981 109.255 23.8815 108.81 23.9649C108.504 24.0245 107.982 24.2271 107.689 24.1794C109.421 24.4535 111.089 25.0851 112.54 26.0146C97.3633 28.1477 82.0592 29.5777 66.7296 30.2808C63.7375 30.4238 60.7327 30.531 57.7534 30.2808C56.2891 30.1616 54.8249 29.959 53.3989 29.6373C51.4127 29.1845 49.2864 29.4109 47.2365 29.387C43.5569 29.3394 39.8646 29.2321 36.1849 29.0534C29.6406 28.7197 23.1089 28.3026 16.5646 27.9094C12.2356 27.6472 7.18092 27.8498 2.7883 26.8607C2.76284 25.955 2.99202 25.0732 3.37398 24.2271C8.18677 23.7266 13.6107 24.5012 18.207 24.5727C24.7514 24.6799 31.283 24.5607 37.8274 24.4058C50.636 24.0841 63.4447 24.2866 76.266 23.7981C85.2677 23.4525 94.1548 22.4991 103.029 21.3194C97.1341 21.2836 91.2264 21.0691 85.3186 20.6401C72.4845 19.7106 59.4977 18.2091 46.6254 18.7692C40.0937 19.0552 33.7149 18.5785 27.2087 18.0542C24.0384 17.792 20.7662 17.5656 17.6595 16.8506C15.0622 16.2547 12.694 15.1346 10.2239 14.2289C11.8918 12.1434 13.6362 10.1176 15.4696 8.13941C15.8006 7.76999 16.1317 7.4244 16.45 7.09073C17.8505 6.90006 19.2765 6.78089 20.7407 6.79281C24.535 6.82856 28.291 7.41248 32.0597 7.82957C39.0497 8.628 45.6068 10.2248 52.444 11.6787C59.4977 13.1802 66.8696 13.7045 74.0506 14.5268C81.0024 15.3252 87.9542 15.8972 94.9569 16.1117C107.804 16.5169 121.033 15.6231 133.701 13.49C146.026 11.4046 158.44 9.37875 170.956 8.628C174.864 8.38966 179.219 7.75807 183.408 7.66274C184.07 8.36583 184.706 9.09275 185.254 9.86734C185.916 10.7969 186.54 11.7383 187.113 12.7155C187.266 12.9776 187.418 13.3232 187.202 13.5496C187.1 13.6688 186.935 13.7165 186.782 13.7522C184.77 14.2527 182.695 14.5268 180.607 14.5626C182.758 14.9081 184.936 15.1107 187.113 15.1346C188.004 15.1465 188.959 15.1465 189.723 15.5755C189.736 15.5755 189.748 15.5874 189.761 15.5993L189.748 15.6231ZM195.86 26.1814C195.669 25.3711 195.274 24.6084 194.918 23.8457C194.841 23.6789 194.765 23.5001 194.689 23.3214C193.084 23.2856 191.493 23.2856 189.901 23.2737C183.459 23.2141 177.016 23.2499 170.574 23.3929C157.154 23.6908 144.231 25.5975 131.078 28.0524C128.201 28.5886 125.285 28.9223 122.369 29.3513C119.326 29.8041 116.283 30.245 113.24 30.686C106.25 31.6989 99.2477 32.7118 92.2577 33.7009C88.7563 34.2014 85.255 34.69 81.7536 35.1786C80.0093 35.4288 78.2522 35.6672 76.5079 35.9055C74.8145 36.1439 73.0702 36.5252 71.3641 36.6205C78.0995 36.2988 84.8221 37.3594 91.4301 38.6106C86.0698 39.0396 80.735 39.6593 75.413 40.4458C71.988 40.9582 68.5757 41.5422 65.1762 42.1976C63.4829 42.5312 61.8022 42.9364 60.1088 43.2343C59.5741 43.3297 59.0775 43.2939 58.53 43.2939C57.1804 43.2701 55.8308 43.8421 54.5703 44.1758C47.3511 46.1182 40.0428 46.5949 32.6454 47.5482C27.5143 48.2156 22.3832 48.3466 17.2521 48.5731C17.3794 48.6922 17.5068 48.8233 17.6214 48.9425C18.8436 50.1342 20.0914 51.4331 21.5683 52.4103C24.0639 54.0548 26.9541 53.9118 29.857 53.9714C36.2486 54.1144 42.6402 54.3527 49.0445 54.4838C61.382 52.7797 72.3445 47.5244 84.1473 43.7229C96.8922 39.6116 110.312 37.1091 123.655 35.548C131.689 34.6066 139.787 34.6781 147.898 34.8449C132.683 38.9562 119.759 46.571 106.925 54.9366C108.339 54.9366 109.739 54.9247 111.152 54.9247C123.095 47.155 137.343 41.6017 151.539 39.5521C160.159 38.3008 168.969 38.7298 177.666 38.5272C181.867 38.42 186.069 38.3365 190.258 38.2412C191.251 36.9184 192.155 35.5361 192.995 34.1299C193.11 33.9392 193.224 33.7605 193.339 33.5579C193.619 33.0932 193.899 32.6165 194.166 32.1517C195.236 30.3523 196.344 28.3026 195.847 26.1814H195.86Z" fill="url(#paint2_linear_115_4209)"/>
<path d="M186.502 24.6679C186.846 25.6927 187.444 26.6461 188.246 27.4326C188.386 27.5756 188.539 27.7305 188.539 27.9212C188.539 28.0284 188.488 28.1357 188.437 28.231C187.902 29.2201 187.38 30.1973 186.846 31.1864C186.578 31.6869 186.311 32.1874 186.043 32.6879C185.929 32.9024 185.801 33.1169 185.725 33.3552C185.56 33.8319 185.178 34.2132 184.847 34.6184C184.223 35.3691 183.573 36.1795 182.86 36.8587C182.567 37.1328 182.236 37.2997 181.995 37.6095C181.269 38.539 180.543 39.5043 179.906 40.4934C179.665 40.8747 179.639 41.2441 179.524 41.6493C179.461 41.8638 179.346 42.0545 179.193 42.2332C178.442 43.1389 177.385 43.7943 176.52 44.5927C175.756 45.2958 175.081 46.1062 174.215 46.702C172.025 48.2274 169.135 47.7507 166.423 48.0248C161.012 48.5849 155.537 48.0724 150.088 47.9056C142.308 47.6554 135.153 48.7279 127.373 48.6206C123.605 48.5729 119.836 48.5134 116.067 48.4657C116.424 49.0973 116.78 49.7289 117.137 50.3605C113.533 48.5372 109.268 48.4061 105.181 48.3465C100.305 48.2869 95.4281 48.2869 90.5517 48.2869C89.7113 48.2869 88.8328 48.2869 88.1071 48.6683C87.3686 49.0496 86.8593 49.9195 87.2158 50.6346C86.8848 49.145 84.7967 48.7994 83.167 48.7874C68.283 48.6206 53.399 48.4657 38.515 48.2989C36.7707 48.275 35.0264 48.2631 33.2821 48.1678C31.6269 48.0844 29.9717 47.9414 28.342 47.6792C27.5271 47.5481 26.725 47.3932 25.9228 47.1906C25.5281 47.0953 25.1334 46.988 24.7387 46.8688C24.2549 46.7258 23.9111 46.5113 23.491 46.2373C23.2363 46.0704 22.9435 45.9036 22.778 45.6533C22.0777 44.557 21.2246 43.5202 20.3716 42.5192C19.7477 41.7923 19.0856 41.0892 18.4108 40.398C18.067 40.0524 17.7233 39.6949 17.3795 39.3494C16.5901 38.5628 16.0553 37.6333 15.4824 36.6919C13.5089 33.4148 11.9046 29.9589 10.3131 26.5031C14.502 31.4604 19.3275 36.1795 23.5164 41.125C24.6369 42.4477 25.8082 43.8181 27.4125 44.5808C29.055 45.3673 30.9648 45.4388 32.811 45.4984C77.3993 46.8808 122.064 46.559 166.627 44.557C169.097 44.4497 171.656 44.3067 173.808 43.1746C175.565 42.2571 176.889 40.7555 178.098 39.254C181.523 34.9878 184.312 29.5776 186.489 24.644L186.502 24.6679Z" fill="#EB924D"/>
<path d="M136.744 6.11332C136.375 6.58999 135.968 7.06666 135.42 7.35267C134.656 7.74592 133.727 7.72209 132.861 7.62675C132.275 7.56717 131.702 7.47183 131.129 7.36458C132.122 7.03091 133.141 6.80449 134.185 6.68533C134.452 6.64958 134.72 6.62574 134.949 6.51849C135.178 6.41124 135.344 6.22057 135.509 6.04182C135.968 5.55323 136.426 5.06464 136.91 4.59989C137.394 4.13513 137.89 3.67038 138.399 3.22946C138.539 3.11029 138.679 2.97921 138.832 2.86004C138.909 2.80045 138.985 2.74087 139.049 2.66937C139.1 2.6217 139.163 2.5502 139.24 2.52637C138.96 3.01496 138.616 3.47971 138.298 3.95638C137.979 4.43305 137.648 4.89781 137.317 5.36256C137.126 5.62473 136.935 5.87498 136.744 6.12524V6.11332Z" fill="#EB924D"/>
<path d="M15.6987 17.5655C15.7879 17.5893 15.8897 17.6132 15.9661 17.6727C16.1444 17.8038 16.1444 18.0422 16.1444 18.2567C16.1316 18.6499 16.1189 19.0313 16.1062 19.4245C16.6409 18.5665 17.163 17.7085 17.6595 16.8386C16.8319 16.4215 15.8388 16.4215 14.8966 16.4453C14.4765 16.4453 14.069 16.4572 13.6489 16.4692H13.0122C12.9104 16.4811 12.8213 16.4811 12.7194 16.4811C12.6685 16.4811 12.4902 16.4572 12.4393 16.4811C12.2483 16.6479 13.0759 16.8386 13.1523 16.8624C13.547 16.9697 13.9544 17.0769 14.3491 17.1842C14.7948 17.3033 15.2531 17.4344 15.6987 17.5536V17.5655Z" fill="#EB924D"/>
<path d="M21.0208 36.2865C20.6516 35.5953 20.2696 34.8684 20.346 34.1057C20.346 33.9746 20.3842 33.8436 20.4606 33.7482C20.5879 33.5933 20.8171 33.5456 21.0336 33.5099C24.0511 33.0094 27.0941 32.6042 30.1371 32.2944C29.526 32.0799 28.8893 32.0799 28.24 32.1156C26.1774 32.211 24.1148 32.199 22.0521 32.0918C20.868 32.0322 19.6585 31.9369 18.5126 32.2467C18.9964 33.0451 19.2765 33.9389 19.6712 34.785C20.0659 35.6311 20.5879 36.4653 21.4155 36.9658C21.3519 36.7036 21.1609 36.5368 21.0208 36.2865Z" fill="#EB924D"/>
<path d="M179.677 24.9655C180.378 25.037 181.078 25.1681 181.702 25.4541C182.326 25.752 182.873 26.2406 183.102 26.8603C183.319 27.4561 183.204 28.1115 183.102 28.7431C183.612 28.2188 183.981 27.5872 184.197 26.9079C184.235 26.7888 184.274 26.6577 184.248 26.5385C184.223 26.4432 184.172 26.3478 184.121 26.2644C183.79 25.752 183.459 25.2396 183.115 24.7271C183.026 24.5961 182.924 24.4531 182.797 24.3577C182.593 24.2028 182.326 24.1551 182.071 24.1194C181.995 24.1194 181.918 24.0956 181.842 24.0956C180.976 23.9883 180.097 23.9764 179.219 24.0121C179.053 24.0121 178.913 24.0121 178.761 23.9764C178.595 23.9526 178.429 23.9764 178.264 24.0121C177.831 24.0836 177.398 24.1313 176.965 24.179C176.532 24.2147 176.1 24.2505 175.667 24.2624C175.45 24.2624 175.234 24.2743 175.017 24.2743C174.903 24.2743 174.801 24.2743 174.686 24.2743C174.584 24.2743 174.47 24.2862 174.368 24.2743C174.724 24.3339 175.068 24.3935 175.425 24.4531C175.858 24.5365 176.29 24.608 176.723 24.6914C176.94 24.7271 177.156 24.7748 177.373 24.8225C177.449 24.8344 177.513 24.8463 177.589 24.8344C177.716 24.8106 177.831 24.8344 177.958 24.8344C178.48 24.8582 179.002 24.894 179.524 24.9416C179.588 24.9416 179.652 24.9536 179.715 24.9655H179.677Z" fill="#EB924D"/>
<path d="M188.004 26.5627C187.368 25.1208 186.807 24.084 186.158 23.083C185.241 21.653 184.21 20.1872 183.09 18.7215C180.314 15.0987 177.182 10.2844 172.929 8.07976C172.866 8.04401 172.789 8.00826 172.725 7.98443C172 7.67459 170.854 7.60309 169.339 7.57926C167.009 7.54351 164.704 7.49584 162.387 7.47201C160.07 7.44817 157.752 7.40051 155.435 7.37667C153.105 7.34092 150.801 7.31709 148.471 7.29325C147.796 7.29325 147.134 7.28134 146.459 7.26942C144.88 7.24559 143.314 7.26942 141.735 7.17409C141.035 7.13834 140.347 7.22175 139.66 7.17409C138.807 7.1145 137.941 7.043 137.101 6.87617C137.89 5.31507 138.667 3.75397 139.456 2.19287C138.603 3.0628 137.801 3.96847 137.062 4.93373C136.706 5.39849 136.362 5.89899 135.904 6.28033C135.56 6.56633 135.204 6.92383 134.771 7.07875C134.376 7.20984 133.943 7.22175 133.523 7.23367C131.779 7.2575 130.009 7.34092 128.277 7.20984C125.094 6.9715 121.873 7.09067 118.677 7.07875C109.956 7.043 101.234 7.01917 92.5124 7.043C90.1569 7.043 87.8269 7.043 85.4842 7.05492C80.7987 7.06684 76.1133 7.10259 71.4151 7.12642C69.0596 7.13834 66.7169 7.16217 64.3742 7.186C62.0187 7.20984 59.676 7.22175 57.3205 7.24559C50.7507 7.24559 44.1808 7.38859 37.611 7.48392C34.237 7.53159 28.2273 6.62592 25.3371 8.73519C23.7838 9.8792 22.727 11.0232 21.0973 12.7869C20.7663 13.1444 20.4352 13.5257 20.1042 13.8832C19.9132 14.0858 19.6713 14.2407 19.5058 14.4672C19.2766 14.777 19.1111 15.1107 18.8182 15.3728C18.5381 15.635 18.1943 15.8376 17.8251 15.9687C17.2649 16.1593 16.6537 16.1951 16.0553 16.2189C15.2405 16.2547 14.4256 16.2904 13.6107 16.3262C12.9614 16.35 12.2866 16.3858 11.7264 16.6718C13.4452 16.5645 15.2023 16.8028 16.8065 17.3868C16.8702 17.4106 16.9339 17.4344 16.9593 17.494C16.9848 17.5536 16.9593 17.6251 16.9084 17.6847C16.6665 18.0541 16.3864 18.3878 16.0426 18.6738C15.7243 18.9479 15.4824 19.3769 15.2277 19.6986C14.8967 20.1276 14.5529 20.5686 14.2346 20.9976C13.5089 21.9747 12.7959 22.9638 12.1465 23.9768C11.9428 24.2985 11.7264 24.6203 11.4972 24.9539C11.1534 25.4664 10.6696 26.1814 10.4022 26.6819C10.4913 26.8725 10.5932 27.0632 10.6823 27.23C10.8351 27.516 10.9879 27.802 11.128 28.0761C12.1465 30.1496 13.3561 32.2113 14.7057 34.1894C15.928 35.977 17.2522 37.7049 18.6145 39.3494C20.0023 41.0058 21.492 42.6146 23.0326 44.1161L23.491 44.557C24.6496 45.7011 25.5281 46.8451 27.3106 46.8927C37.4328 47.1549 47.5676 47.5839 57.6897 47.5839H57.8298C65.8638 47.7269 73.9106 47.8222 81.9446 47.8818C82.734 47.8818 83.5362 47.8342 84.3383 47.8342C85.1659 47.8342 85.9935 47.8342 86.8084 47.8342C87.0121 47.8342 87.2413 47.8461 87.3559 48.001C87.445 48.1202 87.4195 48.287 87.4068 48.43C87.1139 50.2294 86.8084 52.0408 86.5155 53.8402C87.3431 51.9931 88.158 50.1579 88.9856 48.3108C89.0365 48.1797 89.1002 48.0487 89.2148 47.9652C89.3421 47.8699 89.5203 47.8461 89.6986 47.8222C90.5262 47.7507 91.3665 47.7627 92.1941 47.858C92.5506 47.9057 92.9071 48.001 93.2636 47.9652C93.6583 47.9295 94.0657 47.9414 94.4604 47.9414C96.2175 47.9414 97.9745 47.9414 99.7443 47.9414H100.012C104.239 47.9414 108.479 47.9057 112.706 47.8937C113.661 47.8937 114.603 48.2274 115.392 48.7279C116.347 49.3238 117.111 50.146 117.824 50.9802C117.48 50.0149 117.2 49.0378 116.984 48.0367C117.951 47.9533 118.932 47.858 119.899 47.7746C120.676 47.7031 121.427 47.8461 122.217 47.8342C124.19 47.8103 126.164 47.7746 128.15 47.7746C139.787 47.6316 151.577 47.4052 163.176 47.1072L164.08 47.0834C166.716 47.0119 171.032 47.5243 173.464 46.4161C173.833 46.2492 174.113 45.9632 174.393 45.6772C176.481 43.556 178.531 41.3395 180.454 39.0753C181.638 37.6811 182.758 36.263 183.764 34.8687C185.101 33.0335 186.26 31.103 187.635 28.7673C187.788 28.5051 188.182 27.8497 188.399 27.385C188.361 27.3135 188.106 26.7653 188.017 26.5627H188.004ZM180.301 32.676C179.346 33.9988 178.289 35.3335 177.169 36.6562C175.45 38.694 173.489 40.8271 171.35 42.9959C170.943 43.1032 170.09 43.2343 168.384 43.2343C167.722 43.2343 167.072 43.2224 166.448 43.1985C165.799 43.1866 165.188 43.1628 164.628 43.1628C164.399 43.1628 164.169 43.1628 163.953 43.1628L163.049 43.1866C151.475 43.4965 139.711 43.7109 128.086 43.854C118.792 43.9612 109.344 44.0208 99.999 44.0208C97.6817 44.0208 95.3644 44.0208 93.0472 44.0208C81.4226 43.985 69.5944 43.8659 57.9189 43.6633H57.7407C50.3942 43.6633 42.9331 43.4369 35.7266 43.2224C33.0401 43.1389 30.3536 43.0555 27.6671 42.984C27.4889 42.8291 27.2088 42.5431 27.0051 42.3405C26.8523 42.1737 26.6867 42.0188 26.5212 41.8519L26.0629 41.3991C24.5987 39.9691 23.2108 38.4676 21.8994 36.9065C21.5047 36.4417 21.0336 36.0127 20.7026 35.5241C20.2952 34.9164 19.8877 34.3086 19.4676 33.7128C19.3784 33.5698 19.2766 33.4029 19.3275 33.248C19.4039 33.0216 19.7095 32.962 19.9514 32.9501C23.6437 32.6879 27.3361 32.4258 31.0157 32.1755C27.4634 31.8538 23.9111 31.532 20.3716 31.2102C19.6204 31.1387 18.8564 31.0672 18.1689 30.8051C17.6723 30.6144 17.214 30.3165 16.9084 29.9113C16.7683 29.7326 16.6665 29.5419 16.5392 29.3631C16.3354 29.1129 16.1954 28.8269 16.0426 28.5409C15.8516 28.1953 15.6606 27.8497 15.4697 27.4922C15.4315 27.4326 15.1004 26.9202 15.1386 26.8606C15.3423 26.5508 15.546 26.2648 15.7243 25.9669C16.9466 24.0959 18.3981 22.2131 19.544 20.795C21.0209 18.9479 22.6124 17.1008 24.2676 15.3133C25.7828 13.6687 26.6867 12.6796 27.9218 11.7859C28.0491 11.6905 28.864 11.2139 31.9324 11.2139C32.8873 11.2139 33.8677 11.2615 34.8226 11.2973C35.7266 11.333 36.5797 11.3688 37.3691 11.3688H37.6747C39.6482 11.345 41.6217 11.3092 43.6079 11.2854C48.1024 11.2139 52.7496 11.1424 57.3205 11.1424C59.7142 11.1185 62.0569 11.1066 64.3996 11.0828C66.7551 11.0709 69.0851 11.047 71.4406 11.0232C76.126 10.9994 80.7987 10.9636 85.4842 10.9517C87.8269 10.9517 90.1697 10.9517 92.4997 10.9398C94.8933 10.9398 97.3124 10.9398 99.7061 10.9398C113.126 10.9398 126.775 10.9994 141.442 11.1305C143.772 11.1543 146.077 11.1781 148.407 11.2139C150.724 11.2377 153.041 11.2735 155.359 11.2973C157.676 11.3211 159.993 11.3569 162.311 11.3926C164.628 11.4284 166.945 11.4641 169.262 11.4999C170.383 11.5118 170.867 11.5595 171.083 11.6071C173.795 13.0848 176.252 16.3738 178.417 19.2935C178.862 19.8893 179.295 20.4732 179.703 21.0214C180.11 21.5576 180.81 22.1297 180.734 22.8685C178.366 23.8933 175.743 24.4058 173.133 24.3581C175.959 24.3938 178.786 24.5726 181.587 24.9063C181.778 24.9301 181.982 24.9539 182.16 25.0373C182.593 25.2519 182.72 25.7285 182.975 26.0741C183.102 26.229 183.268 26.3244 183.382 26.4793C183.446 26.5746 183.815 27.1824 183.764 27.2658C182.529 29.3512 181.46 31.103 180.301 32.7118V32.676Z" fill="url(#paint3_linear_115_4209)"/>
<path d="M185.687 43.52C185.343 44.3661 184.834 45.1645 184.21 45.8557C182.224 48.0245 180.327 50.5628 177.767 52.2073C176.392 53.0892 175.081 53.3275 173.451 53.542C170.128 53.971 166.69 54.0306 163.393 54.114C151.679 54.4239 139.965 54.6503 128.252 54.7933C122.548 54.8529 116.869 54.9005 111.165 54.9363C109.752 54.9363 108.351 54.9363 106.938 54.9482C102.303 54.9482 97.6689 54.9601 93.0217 54.9482C81.2443 54.9125 69.4798 54.7933 57.7024 54.5907C54.825 54.5907 51.9347 54.555 49.0573 54.4834C42.6529 54.3524 36.2614 54.114 29.8698 53.971C26.9668 53.9114 24.0766 54.0544 21.5811 52.4099C20.1042 51.4447 18.8437 50.1457 17.6341 48.9421C17.5068 48.823 17.3795 48.6919 17.2649 48.5727C16.1699 47.4764 15.1004 46.3562 14.0691 45.2003C13.216 44.2469 12.3884 43.2936 11.4972 42.3641C11.1279 41.9589 10.8096 41.5061 10.5168 41.0413C10.1221 40.4216 9.66373 39.8139 9.51095 39.0989C9.48548 38.9797 9.47275 38.8367 9.56187 38.7414C9.63827 38.658 9.75286 38.6341 9.86745 38.6222C11.9555 38.2766 14.12 38.4673 16.1699 38.086C16.5264 38.074 16.8956 38.0502 17.2649 38.0264C15.6479 38.5388 13.98 38.8844 12.2866 39.075C11.9046 39.1108 11.4844 39.1704 11.2171 39.4206C10.7205 39.9092 10.9879 40.6004 11.2807 41.0771C11.5354 41.4942 11.8027 41.8993 12.0956 42.2926C12.6813 43.091 13.3179 43.8418 14.0054 44.5449C15.0877 45.6769 16.259 46.7256 17.4304 47.7862C18.258 48.5251 19.0856 49.2639 19.9132 50.0027C20.4861 50.5271 21.0591 51.0395 21.7339 51.4447C22.8671 52.1358 24.2039 52.4695 25.5026 52.7793C26.1392 52.9343 26.7886 53.0773 27.4379 53.1964C27.6671 53.2322 27.8963 53.2918 28.1382 53.2799C28.3801 53.2679 28.622 53.3037 28.8767 53.3275C29.4369 53.3871 30.0226 53.4348 30.5955 53.4467C31.7414 53.5063 32.9001 53.5063 34.0587 53.4467C34.9881 53.399 35.8794 53.3633 36.7452 53.1011C37.1781 52.97 37.6237 53.0654 38.0566 53.1249C39.228 53.2679 40.3866 53.4229 41.558 53.5659C42.2455 53.5659 42.9203 53.828 43.6206 53.7804C43.8243 53.7684 44.0153 53.7089 44.219 53.7089C44.3463 53.7089 44.4864 53.7089 44.6137 53.7327C45.4031 53.8399 46.1798 54.0187 46.9692 54.1259C47.975 54.257 49.1082 54.3881 50.114 54.1617C50.1904 54.1498 50.2541 54.114 50.3432 54.0902C50.5724 54.0187 50.8525 54.0664 51.0944 54.0664C52.5586 54.1021 54.0228 54.1259 55.4998 54.1498C58.4282 54.2094 61.3693 54.2689 64.3105 54.3166C67.2516 54.3762 70.2055 54.4358 73.1466 54.4834C74.6108 54.5192 76.0751 54.5669 77.5393 54.5669C77.743 54.5669 77.9085 54.5311 78.0995 54.4834C78.5706 54.3285 79.1181 54.3404 79.6146 54.3047C80.2003 54.2689 80.786 54.2213 81.3717 54.1974C83.7144 54.0544 86.0571 53.9829 88.3999 53.9472C90.7553 53.9114 93.0981 53.9114 95.4535 53.9472C97.7962 53.971 100.139 54.0306 102.494 54.0664C103.016 54.0783 103.526 54.0902 104.048 54.1021C105.487 54.1379 106.9 54.1617 108.339 54.2094C108.733 54.2094 109.153 54.1974 109.548 54.2928C109.93 54.3881 110.248 54.4596 110.656 54.4358C111.827 54.4 113.011 54.3643 114.195 54.3285C116.551 54.2689 118.919 54.2094 121.274 54.1498C123.63 54.0902 125.998 54.0425 128.354 54.0068C129.003 53.9949 129.652 53.9829 130.302 53.971C144.002 53.7446 157.294 53.1726 171.007 53.1011C172.356 53.1011 173.744 53.0773 174.979 52.5887C176.189 52.112 177.233 51.0752 177.284 49.8716C177.309 50.1815 177.678 50.4198 178.035 50.396C178.429 50.3722 178.761 50.1338 179.066 49.9074C181.243 48.2986 183.497 46.5826 184.643 44.2112C183.599 43.6868 182.504 43.2578 181.383 42.9003C182.848 42.9957 184.286 43.2102 185.712 43.52H185.687Z" fill="#EB924D"/>
<path d="M194.192 32.1636C193.912 32.6284 193.645 33.105 193.364 33.5698C193.25 33.7605 193.135 33.9511 193.021 34.1418C192.18 35.548 191.276 36.9303 190.283 38.2531C189.748 38.9681 189.188 39.6593 188.603 40.3385C188.055 40.9582 187.597 41.5898 186.782 41.9354C186.642 41.9949 186.502 42.0426 186.362 42.0784C189.074 38.8489 191.76 35.548 193.39 31.7346C193.976 30.3642 194.408 28.9461 195.172 27.6591C195.3 27.4446 195.427 27.2181 195.427 26.9798C195.427 26.7891 195.312 26.6104 195.223 26.4316C194.459 25.0731 193.543 23.5954 192.002 23.1068C191.722 23.0115 191.365 22.8447 191.455 22.5825C191.506 22.4514 191.658 22.3918 191.773 22.2965C192.295 21.9032 192.053 21.1287 191.747 20.5567C191.175 19.4603 190.602 18.3759 190.029 17.2915C189.825 16.9101 189.621 16.5169 189.265 16.2547C188.921 15.9925 188.475 15.8853 188.042 15.7899C186.515 15.4444 184.961 15.1703 183.408 14.9438C184.643 15.0749 185.878 15.1464 187.113 15.1584C188.004 15.1703 188.959 15.1703 189.723 15.5993C189.736 15.5993 189.748 15.6112 189.761 15.6231C190.691 16.1594 191.2 17.3034 191.722 18.1614C192.308 19.1266 192.893 20.1038 193.543 21.0452C194.014 21.7483 194.37 22.5468 194.701 23.3094C194.79 23.4882 194.854 23.655 194.931 23.8338C195.274 24.6084 195.682 25.3591 195.873 26.1695C196.382 28.2906 195.262 30.3523 194.192 32.1398V32.1636Z" fill="#EB924D"/>
<path d="M187.189 13.573C187.1 13.6803 186.96 13.7279 186.82 13.7637C185.458 11.8451 184.095 9.9384 182.733 8.0198C182.045 7.05454 181.536 6.18461 180.467 5.63644C179.614 5.19552 178.862 4.63543 177.92 4.37326C177.513 4.25409 177.054 4.15876 176.8 3.83701C176.66 3.65826 176.609 3.41992 176.507 3.21733C176.023 2.26399 174.864 2.29974 173.96 1.96607C173.668 1.8469 173.438 1.79924 173.107 1.7754C172.229 1.72774 171.338 1.69199 170.459 1.64432C168.689 1.54898 166.932 1.45365 165.162 1.35832C162.069 1.19148 158.975 1.03656 155.893 0.869727C154.2 0.78631 152.481 0.690975 150.775 0.702892C149.094 0.714809 147.414 0.833977 145.733 0.774393C145.211 0.750559 144.664 0.762476 144.167 0.607558C143.67 0.45264 143.148 0.524141 142.639 0.536057L138.87 0.619475C135.344 0.690975 131.817 0.857811 128.29 0.857811C127.628 0.869727 126.94 0.893561 126.355 1.17956C125.743 1.47748 125.502 1.95415 125.451 2.56191C125.451 2.64533 125.451 2.75258 125.4 2.82408C125.298 2.94325 125.145 2.9075 125.005 2.84791C124.521 2.66916 124.088 2.21632 123.732 1.87074C123.477 1.62048 123.222 1.3464 122.968 1.08423C122.802 0.917394 122.739 0.78631 122.497 0.774393C122.28 0.774393 122.038 0.845894 121.835 0.869727C120.982 0.976978 120.116 1.04848 119.263 1.08423C118.41 1.10806 117.544 1.09615 116.691 1.04848C116.296 1.02465 115.876 1.02465 115.494 0.929311C115.252 0.869727 115.036 0.762476 114.781 0.738643C113.915 0.679059 113.024 0.750559 112.158 0.762476C111.28 0.762476 110.388 0.78631 109.51 0.798227L98.9039 0.929311C97.3633 0.953145 95.8227 0.965062 94.2948 0.988895C93.4927 0.988895 92.6906 1.08423 91.9648 1.4179C90.9081 1.89457 91.6211 3.14583 91.4556 3.96809C91.3537 2.91941 91.1118 1.69199 90.0805 1.2749C89.6985 1.11998 89.2656 1.10806 88.8582 1.10806C88.8073 1.10806 88.7563 1.10806 88.7054 1.10806C86.9356 1.09615 85.1786 1.07231 83.4088 1.0604C80.4931 1.03656 77.6156 0.917394 74.6999 0.881644C66.5386 0.774393 58.3899 0.965062 50.2286 1.02465C46.689 1.04848 43.1367 1.08423 39.5972 1.10806C38.7187 1.10806 37.8274 1.11998 36.9361 1.11998C32.5817 1.15573 28.1127 1.21531 24.0511 2.68108C22.8288 3.122 21.7593 3.75359 20.7789 4.5401C20.3333 4.88568 19.9641 5.31469 19.684 5.77944C21.0718 6.37528 22.5487 6.75662 24.0639 6.92345C23.2999 7.16179 22.4851 7.17371 21.6829 7.18562C20.6516 7.19754 19.6203 7.22137 18.5763 7.23329C18.207 7.23329 17.8378 7.24521 17.4686 7.32862C16.8319 7.47163 16.2972 7.85296 15.8388 8.28197C15.6096 8.50839 15.355 8.74672 15.1768 9.02081C15.0494 9.21148 15.0112 9.4379 14.8966 9.62856C14.5147 10.2721 13.9035 10.856 13.407 11.428C12.8722 12.0596 12.3502 12.6912 11.8282 13.3228C9.00162 16.6952 6.13687 20.1273 4.44348 24.1075C4.07424 24.9774 3.76867 25.8592 3.56495 26.7649C3.36124 27.6348 4.73632 27.8374 5.61484 28.1949C6.48064 28.5524 7.44829 28.7431 8.21222 29.2674C7.20637 29.1006 6.20053 29.0053 5.16922 29.0053C4.99096 29.0053 4.78725 29.0053 4.67266 29.1483C4.51987 29.3151 4.59627 29.5653 4.68539 29.7798C4.91457 30.2923 5.10555 30.757 5.41113 31.2099C5.56392 31.4482 5.61484 31.6985 5.66577 31.9606C5.79309 32.5565 5.98408 33.1404 6.25146 33.6886C6.77348 34.8087 7.56288 35.7978 8.54326 36.6082C9.07801 37.0372 9.65096 37.4066 10.2748 37.7045C10.0966 37.6807 9.91834 37.6568 9.72736 37.6211C8.88703 37.4423 8.12309 37.0253 7.51195 36.4532C7.20637 36.1672 6.95173 35.8336 6.73528 35.4761C5.89495 33.9984 5.04189 32.5326 4.29069 31.0073C3.70501 29.8156 2.83922 28.4333 2.75009 27.1105C2.75009 27.039 2.75009 26.9794 2.75009 26.9079C2.72463 26.0022 2.95381 25.1204 3.33577 24.2743C3.94692 22.8681 4.94004 21.5334 5.72943 20.3179C7.09178 18.2325 8.60692 16.2305 10.173 14.2761C11.8409 12.1907 13.5852 10.1648 15.4187 8.18663C15.7497 7.81721 16.0807 7.47163 16.399 7.13796C17.7359 5.70794 18.9837 4.4686 20.7025 3.20542C24.3694 0.524141 29.3605 0.547974 33.6894 0.48839C39.2534 0.404973 44.6901 0.357306 50.1777 0.297722C52.5331 0.261971 54.8886 0.238138 57.244 0.214304C59.5995 0.190471 61.955 0.178554 64.3104 0.15472C66.6659 0.142803 69.0086 0.11897 71.3641 0.0951362C73.7196 0.0832195 76.0623 0.0713027 78.4178 0.0593859C80.7732 0.0593859 83.1032 0.0355523 85.4587 0.0236355C87.8141 0.0236355 90.1441 0.0236355 92.4996 0.0117188C94.8423 0.0117188 97.1851 0.0117188 99.5278 0.0117188C101.871 0.0117188 104.213 0.0117188 106.556 0.0117188C108.886 0.0117188 111.229 0.0117188 113.571 0.0236355C115.901 0.0236355 118.244 0.0355523 120.574 0.0474691C122.917 0.0593859 125.247 0.0713027 127.577 0.0832195C129.907 0.0951362 132.237 0.11897 134.58 0.142803C136.91 0.15472 139.24 0.178554 141.57 0.202387C143.9 0.226221 146.23 0.250054 148.56 0.285805C150.89 0.309638 153.207 0.345389 155.537 0.369222C157.867 0.404973 160.184 0.428806 162.514 0.464557C164.844 0.500307 167.161 0.536057 169.479 0.571808C171.694 0.607558 173.782 0.738643 175.781 1.57282C176.049 1.68007 176.316 1.81115 176.583 1.94224C178.773 3.07433 180.594 4.73077 182.249 6.47062C182.631 6.87579 183.026 7.28096 183.395 7.69804C184.057 8.40114 184.694 9.12806 185.241 9.90265C185.903 10.8322 186.527 11.7736 187.1 12.7508C187.253 13.0129 187.406 13.3585 187.189 13.5849V13.573Z" fill="#EB924D"/>
<path d="M57.8934 28.2428C54.1628 26.2884 47.9495 26.8962 44.9956 29.5179C43.1367 31.1743 43.0349 34.2727 44.9956 35.9172C49.3118 39.5518 56.8748 38.0026 59.6122 33.4981C59.6632 33.4504 59.7141 33.4147 59.765 33.367C61.8531 31.6033 60.3634 28.6718 57.8934 28.2309V28.2428Z" fill="#EB924D"/>
<path d="M58.7846 26.5148C55.0541 24.5604 48.8407 25.1682 45.8869 27.7899C44.0279 29.4463 43.9261 32.5447 45.8869 34.1892C50.2031 37.8238 57.766 36.2746 60.5035 31.7701C60.5544 31.7224 60.6053 31.6867 60.6562 31.639C62.7443 29.8753 61.2547 26.9438 58.7846 26.5029V26.5148Z" fill="url(#paint4_linear_115_4209)"/>
<path d="M57.8934 27.6232C54.1628 25.6688 47.9495 26.2766 44.9956 28.8983C43.1367 30.5547 43.0349 33.6531 44.9956 35.2976C49.3118 38.9322 56.8748 37.383 59.6122 32.8785C59.6632 32.8308 59.7141 32.7951 59.765 32.7474C61.8531 30.9837 60.3634 28.0522 57.8934 27.6113V27.6232Z" fill="url(#paint5_linear_115_4209)"/>
<path d="M153.754 16.9818C151.424 15.7663 147.554 16.1357 145.708 17.7803C144.549 18.817 144.485 20.7475 145.708 21.7724C148.394 24.0366 153.118 23.0713 154.824 20.2709C154.862 20.247 154.888 20.2113 154.926 20.1875C156.225 19.0911 155.295 17.2559 153.754 16.9818Z" fill="#EB924D"/>
<path d="M154.302 15.9091C151.972 14.6936 148.101 15.063 146.255 16.7075C145.097 17.7443 145.033 19.6748 146.255 20.6996C148.942 22.9638 153.665 21.9986 155.371 19.1981C155.41 19.1743 155.435 19.1385 155.473 19.1147C156.772 18.0184 155.843 16.1832 154.302 15.9091Z" fill="url(#paint6_linear_115_4209)"/>
<path d="M153.754 16.6005C151.424 15.385 147.554 15.7544 145.708 17.3989C144.549 18.4357 144.485 20.3662 145.708 21.391C148.394 23.6552 153.118 22.69 154.824 19.8895C154.862 19.8657 154.888 19.8299 154.926 19.8061C156.225 18.7098 155.295 16.8746 153.754 16.6005Z" fill="url(#paint7_linear_115_4209)"/>
<path d="M184.999 28.0999C183.37 30.96 181.638 33.6889 179.779 36.2629C177.755 39.0872 175.577 41.7327 173.235 44.1399C172.764 44.6166 172.102 44.9026 171.401 44.9145C124.419 46.2015 76.7626 46.0824 28.4692 44.6285C27.7944 44.6047 27.1451 44.3306 26.6867 43.8778C21.3392 38.5748 16.7046 33.1765 13.789 27.516C13.407 26.7772 13.4834 25.9072 13.9545 25.2161C14.4383 24.513 14.9349 23.8218 15.4441 23.1426C18.8946 18.5308 22.9816 14.2526 27.5907 10.2128C28.0618 9.81959 28.6729 9.58125 29.2968 9.56933C76.8644 8.68749 124.101 8.79474 171.032 9.86725C171.758 9.89109 172.445 10.189 172.916 10.7133C177.844 16.0878 182.147 21.2359 184.974 25.8C185.407 26.5031 185.419 27.373 184.999 28.0999Z" fill="url(#paint8_linear_115_4209)"/>
<path d="M184.999 28.0999C184.745 28.5528 184.477 28.9937 184.223 29.4465C184.044 29.7564 183.752 30.0066 183.599 30.3284C182.644 32.2231 180.925 33.534 179.168 34.7495C177.296 36.0484 175.31 37.4069 174.342 39.397C174.546 39.0515 174.75 38.7178 174.954 38.3722C177.105 34.7376 179.244 31.1149 181.218 27.3968C180.925 26.9202 180.607 26.4435 180.288 25.9787C179.015 24.1078 177.538 22.356 175.896 20.7473C175.145 20.0204 174.292 19.3649 173.591 18.5903C173.107 18.0779 172.445 17.9587 171.758 17.7681C168.906 16.9816 165.939 16.7552 162.985 16.5526C125.807 13.919 88.4381 13.0371 51.2218 15.0868C40.2721 15.6826 29.7043 18.924 19.6968 23.1306C19.1238 23.369 18.6655 23.8099 18.1434 24.1555C17.6342 24.5011 16.9721 24.7632 16.3609 24.5607C15.7625 24.3581 15.4569 23.7503 15.4442 23.1426C18.8946 18.5308 22.9817 14.2526 27.5908 10.2128C28.0619 9.81959 28.673 9.58125 29.2969 9.56933C76.8645 8.68749 124.101 8.79474 171.032 9.86725C171.758 9.89109 172.445 10.189 172.916 10.7133C177.844 16.0878 182.147 21.2359 184.974 25.8C185.407 26.5031 185.42 27.373 184.999 28.0999Z" fill="#FFDF80"/>
<path d="M182.771 26.9916C179.206 33.2002 175.476 38.3006 171.35 42.531C157.714 42.9124 143.874 43.1626 129.971 43.2937C121.924 43.3891 113.864 43.4248 105.805 43.4248C104.901 43.4248 104.01 43.4248 103.106 43.4129C78.647 43.401 53.5772 42.9958 28.5584 42.245C22.4979 36.2509 18.5381 31.2458 16.0808 26.4911C19.5567 21.5098 24.013 16.612 29.3351 11.9645C29.5897 11.9645 29.8316 11.9645 30.0863 11.9645C51.0945 11.5712 72.3191 11.3687 93.2127 11.3687C100.012 11.3687 106.823 11.3925 113.661 11.4402C124.216 11.4997 134.796 11.607 145.338 11.7738C147.401 11.7977 149.464 11.8334 151.514 11.8692C151.539 11.8692 151.565 11.8692 151.59 11.8692C152.418 11.893 153.258 11.9049 154.085 11.9168C159.688 12.0122 165.277 12.1313 170.854 12.2624H170.968C171.058 12.3577 171.147 12.4531 171.236 12.5484C173.197 14.7054 174.928 16.6597 176.443 18.483C179.181 21.7482 181.231 24.5248 182.771 27.0035V26.9916Z" fill="url(#paint9_linear_115_4209)"/>
<path d="M176.163 29.1249C152.341 29.971 128.481 30.4119 104.633 30.4953H103.666C76.9536 30.5668 50.2414 30.1259 23.5546 29.1725C22.0777 29.1129 19.7859 29.0653 18.8692 27.7544C18.3344 26.9679 18.6527 26.0384 19.0601 25.2757C20.3843 22.7017 22.065 20.3184 23.8984 18.0303C24.7769 16.934 25.6936 15.8615 26.6231 14.789C26.8395 14.5506 27.0051 14.3242 27.1706 14.0501C27.6671 13.2636 28.7494 12.7631 29.5515 12.2626C29.7298 12.1554 29.908 12.0481 30.0863 11.9528C51.0944 11.5595 72.3191 11.3569 93.2127 11.3569C119.034 11.3569 145.16 11.6549 170.854 12.2507C170.981 12.3341 171.108 12.4414 171.236 12.5367L171.274 12.5724C173.248 14.1931 174.941 16.0998 176.291 18.221C176.341 18.3044 176.392 18.3878 176.443 18.4713C177.5 20.1515 178.328 21.9629 178.913 23.8338C179.206 24.7633 179.359 25.7286 179.754 26.6343C180.594 28.5529 177.729 29.0653 176.163 29.1249Z" fill="url(#paint10_linear_115_4209)"/>
<path style="mix-blend-mode:screen" d="M155.906 11.7023C155.295 11.7261 154.684 11.7976 154.085 11.9049C150.635 12.5126 147.465 14.3836 144.956 16.7312C142.015 19.4959 139.851 22.8803 137.725 26.2289C135.458 29.8158 133.179 33.4028 130.9 36.9897C130.022 38.3721 129.118 39.8498 129.207 41.4466C129.245 42.102 129.525 42.7694 129.971 43.2937C121.924 43.389 113.864 43.4248 105.805 43.4248C104.901 43.4248 104.01 43.4248 103.106 43.4129C105.932 43.0673 108.708 42.2808 111.267 41.1248C112.069 40.7673 112.858 40.3503 113.533 39.8021C114.195 39.2658 114.565 38.6223 115.074 37.9788C115.71 37.1446 116.411 36.382 117.047 35.524C119.925 31.5557 122.599 27.4563 125.03 23.2378C126.036 21.4979 127.042 19.6031 126.813 17.6249C126.533 15.0867 124.216 13.0727 121.644 12.2147C119.072 11.3567 116.271 11.4282 113.546 11.5116C113.584 11.4878 113.622 11.4521 113.661 11.4282C124.216 11.4878 134.796 11.5951 145.338 11.7619C147.388 11.8572 149.451 11.893 151.514 11.8572C151.539 11.8572 151.564 11.8572 151.59 11.8572C153.029 11.8453 154.467 11.7976 155.906 11.7023Z" fill="url(#paint11_linear_115_4209)"/>
<defs>
<linearGradient id="paint0_linear_115_4209" x1="111.432" y1="-48.1915" x2="106.196" y2="-13.8445" gradientUnits="userSpaceOnUse">
<stop stop-color="#CF5C2B"/>
<stop offset="1" stop-color="#59173E"/>
</linearGradient>
<linearGradient id="paint1_linear_115_4209" x1="107.396" y1="-41.2084" x2="84.2519" y2="183.708" gradientUnits="userSpaceOnUse">
<stop stop-color="#CF5C2B"/>
<stop offset="1" stop-color="#59173E"/>
</linearGradient>
<linearGradient id="paint2_linear_115_4209" x1="100.877" y1="-4.27788" x2="93.6035" y2="169.571" gradientUnits="userSpaceOnUse">
<stop stop-color="#CF5C2B"/>
<stop offset="1" stop-color="#59173E"/>
</linearGradient>
<linearGradient id="paint3_linear_115_4209" x1="99.4005" y1="83.1198" x2="99.4005" y2="39.5639" gradientUnits="userSpaceOnUse">
<stop stop-color="#CF5C2B"/>
<stop offset="1" stop-color="#59173E"/>
</linearGradient>
<linearGradient id="paint4_linear_115_4209" x1="59.5995" y1="13.7519" x2="51.2412" y2="37.6506" gradientUnits="userSpaceOnUse">
<stop stop-color="#CF5C2B"/>
<stop offset="1" stop-color="#59173E"/>
</linearGradient>
<linearGradient id="paint5_linear_115_4209" x1="91.15" y1="-53.4348" x2="18.6376" y2="126.33" gradientUnits="userSpaceOnUse">
<stop stop-color="#CF5C2B"/>
<stop offset="1" stop-color="#59173E"/>
</linearGradient>
<linearGradient id="paint6_linear_115_4209" x1="154.824" y1="7.94867" x2="149.603" y2="22.8454" gradientUnits="userSpaceOnUse">
<stop stop-color="#CF5C2B"/>
<stop offset="1" stop-color="#59173E"/>
</linearGradient>
<linearGradient id="paint7_linear_115_4209" x1="174.495" y1="-33.9505" x2="129.282" y2="78.1468" gradientUnits="userSpaceOnUse">
<stop stop-color="#CF5C2B"/>
<stop offset="1" stop-color="#59173E"/>
</linearGradient>
<linearGradient id="paint8_linear_115_4209" x1="99.426" y1="7.16214" x2="99.426" y2="27.5518" gradientUnits="userSpaceOnUse">
<stop stop-color="#FFCA2B"/>
<stop offset="1" stop-color="#D15B24"/>
</linearGradient>
<linearGradient id="paint9_linear_115_4209" x1="99.426" y1="61.1689" x2="99.426" y2="25.2636" gradientUnits="userSpaceOnUse">
<stop stop-color="#FFCE3B"/>
<stop offset="1" stop-color="#CC6923"/>
</linearGradient>
<linearGradient id="paint10_linear_115_4209" x1="99.2478" y1="49.3" x2="99.2478" y2="17.0293" gradientUnits="userSpaceOnUse">
<stop stop-color="#FFCE3B"/>
<stop offset="1" stop-color="#CC6923"/>
</linearGradient>
<linearGradient id="paint11_linear_115_4209" x1="144.205" y1="-8.12722" x2="118.906" y2="52.0069" gradientUnits="userSpaceOnUse">
<stop stop-color="#F2DE6D"/>
<stop offset="1"/>
</linearGradient>
</defs>
</svg>
