<svg width="255" height="102" viewBox="0 0 255 102" fill="none" xmlns="http://www.w3.org/2000/svg">
<path d="M225.375 33.1524C225.375 33.1524 221.936 34.7342 219.88 33.6484V33.6374C219.83 33.6153 219.77 33.5878 219.72 33.5547V33.5437C219.671 33.5106 219.61 33.4831 219.56 33.4335C219.549 33.4335 219.549 33.4224 219.549 33.4224C219.428 33.3398 219.329 33.2626 219.224 33.1469C217.356 31.1792 214.561 26.7865 210.207 24.9952C205.847 23.1984 201.113 23.97 192.531 22.8843C192.245 22.8457 191.964 22.8016 191.699 22.752H191.666C183.917 21.3851 183.432 15.7633 183.432 15.7633C186.97 15.8955 214.39 11.6571 216.672 17.0585C216.705 17.1412 216.733 17.2183 216.755 17.301C217.152 18.7395 217.356 20.3434 217.576 21.9583C217.587 22.041 217.598 22.1292 217.615 22.2118C217.675 22.6362 217.736 23.0716 217.808 23.4905V23.5512C217.835 23.722 217.857 23.8984 217.901 24.0582C217.901 24.0913 217.901 24.1189 217.912 24.1519C218.083 25.155 218.309 26.1416 218.612 27.062C219.544 29.9336 221.341 32.2926 225.375 33.1469V33.1524Z" fill="url(#paint0_linear_110_626)"/>
<path d="M225.375 82.316C224.989 82.3986 224.614 82.4868 224.267 82.6081C217.097 84.8293 218.232 92.6447 216.755 98.1563C215.195 103.916 187.02 99.5673 183.432 99.6885C183.432 99.6885 183.95 93.6644 192.526 92.5786C201.107 91.4928 205.842 92.2644 210.202 90.4676C214.55 88.6708 217.35 84.2836 219.219 82.316C219.797 81.7097 220.608 81.4837 221.44 81.4561H221.451C221.451 81.4561 221.484 81.4451 221.5 81.4451C222.101 81.4231 222.707 81.5168 223.253 81.638C224.438 81.8916 225.375 82.316 225.375 82.316Z" fill="url(#paint1_linear_110_626)"/>
<path d="M254.78 21.6606C253.473 25.7558 248.116 26.814 245.774 26.7093H245.763C245.101 26.6872 244.688 26.577 244.655 26.4061C244.522 25.6345 251.054 21.1536 244.269 19.3568C237.848 17.6647 224.918 26.4833 230.65 33.7255C230.881 34.0287 231.157 34.3318 231.471 34.6405C231.57 34.7397 231.686 34.8444 231.796 34.9436C231.818 34.9546 231.829 34.9657 231.835 34.9767L231.846 34.9877C240.295 42.4229 240.874 54.7799 240.874 54.7799C241.838 52.4705 242.996 51.1312 242.996 51.1312C242.996 54.0193 246.688 57.4585 246.981 63.0473V63.0859C247.102 65.6433 246.512 68.6526 244.528 72.2627C238.212 83.7544 226.753 79.786 221.517 81.4175C221.478 81.4285 221.456 81.4395 221.456 81.4395L221.445 81.4505H221.434L219.213 82.3103C219.213 82.3103 227.486 72.0092 226.72 57.7782C226.18 47.7416 222.316 39.882 219.874 33.6429V33.6318C219.439 32.535 219.053 31.5044 218.739 30.5068C218.304 29.1399 218.001 27.8502 217.885 26.6541C217.764 25.3479 217.753 24.3448 217.802 23.5511V23.4905C218.023 20.0953 219.362 20.6189 218.006 16.7884C216.342 12.0539 209.044 0.391343 209.044 0.391343C209.044 0.391343 210.973 -0.501538 217.499 0.391343C224.03 1.29525 237.225 6.41553 232.469 10.1248C232.165 10.3674 231.868 10.6209 231.598 10.8965C231.598 10.8965 231.576 10.9295 231.526 10.9902C230.98 11.5083 230.512 12.0649 230.087 12.6822L230.076 12.6932C227.844 15.8459 227.012 19.6985 226.792 20.9662C226.758 21.1095 226.753 21.2197 226.742 21.2914C227.029 20.1835 229.509 11.3429 238.636 12.1862C245.856 12.8476 252.173 14.8538 254.261 17.9844V17.9954C254.989 19.0812 255.204 20.2993 254.78 21.6551V21.6606Z" fill="url(#paint2_linear_110_626)"/>
<g style="mix-blend-mode:multiply" opacity="0.5">
<path d="M224.267 82.608C217.097 84.8291 218.232 92.6446 216.755 98.1562C215.195 103.916 187.02 99.5672 183.432 99.6884C183.432 99.6884 210.428 98.7074 213.867 97.0539C217.306 95.4004 217.488 87.6842 217.576 86.1409C217.659 84.741 215.609 86.7306 215.201 87.1165C215.647 86.5708 218.772 82.7678 219.582 82.3214C220.453 81.8363 224.267 82.608 224.267 82.608Z" fill="#BE2F55"/>
</g>
<g style="mix-blend-mode:multiply" opacity="0.5">
<path d="M244.528 72.2628C238.212 83.7545 226.753 79.7861 221.517 81.4175C222.123 81.175 227.062 79.2184 230.187 77.9011C233.521 76.4902 238.956 76.1044 242.489 73.6737C245.867 71.3423 246.898 63.7143 246.981 63.0859C247.102 65.6433 246.512 68.6527 244.528 72.2628Z" fill="#BE2F55"/>
</g>
<g style="mix-blend-mode:multiply" opacity="0.5">
<path d="M241.849 64.7063C238.581 70.0856 233.224 71.8879 232.744 72.0092C233.108 71.7226 237.308 69.0715 239.154 64.4473C241.083 59.6522 240.879 54.7854 240.879 54.7854C241.844 52.476 243.001 51.1367 243.001 51.1367C242.412 54.7854 244.958 59.597 241.855 64.7118L241.849 64.7063Z" fill="#BE2F55"/>
</g>
<g style="mix-blend-mode:multiply" opacity="0.5">
<path d="M248.204 19.7591C248.204 22.9338 244.66 26.4061 244.66 26.4061C244.528 25.6345 251.059 21.1535 244.274 19.3567C237.479 17.56 223.408 27.5415 231.84 34.9711C231.526 34.7396 226.356 30.8429 226.83 27.5911C227.304 24.2235 227.69 21.1535 232.744 18.078C237.793 14.9971 248.204 16.5899 248.204 19.7536V19.7591Z" fill="#BE2F55"/>
</g>
<g style="mix-blend-mode:multiply" opacity="0.5">
<path d="M254.78 21.6607C253.473 25.7558 248.116 26.8141 245.774 26.7094C246.281 26.4062 252.669 26.7149 254.261 18.001V17.99C254.989 19.0758 255.204 20.2994 254.78 21.6607Z" fill="#BE2F55"/>
</g>
<g style="mix-blend-mode:multiply" opacity="0.5">
<path d="M216.755 17.312C217.152 18.7505 217.356 20.3544 217.576 21.9693C217.312 20.3158 217.008 18.6237 216.672 17.0695C216.705 17.1521 216.733 17.2293 216.755 17.312Z" fill="#BE2F55"/>
</g>
<g style="mix-blend-mode:multiply" opacity="0.3">
<path d="M218.607 27.0675C218.546 27.8777 218.557 28.8092 218.667 29.906C218.546 28.8808 218.282 26.6927 217.907 24.1574C217.896 24.1243 217.896 24.0968 217.896 24.0637C217.863 23.8818 217.835 23.6999 217.802 23.518V23.496C218.023 20.1008 219.362 20.6244 218.006 16.7939C216.342 12.0594 209.044 0.396851 209.044 0.396851C209.044 0.396851 218.193 4.34316 221.456 7.99184C224.714 11.6405 223.474 18.2765 221.456 20.9607C219.968 22.9503 218.827 24.3668 218.607 27.0675Z" fill="#BE2F55"/>
</g>
<g style="mix-blend-mode:multiply" opacity="0.5">
<path d="M231.603 10.902C231.603 10.902 230.451 12.6326 227.436 15.1294C224.427 17.6261 224.168 25.3148 224.168 25.3148L226.797 20.9496C226.797 20.9496 228.076 15.0688 231.598 10.9075L231.603 10.902Z" fill="#BE2F55"/>
</g>
<g style="mix-blend-mode:multiply" opacity="0.5">
<path d="M219.753 33.709C219.753 33.709 219.682 33.6098 219.549 33.4334C219.538 33.4334 219.538 33.4224 219.538 33.4224C218.475 32.0445 213.685 26.0093 210.014 24.477C207.176 23.3031 197.553 22.8952 191.688 22.7519H191.655C183.906 21.385 183.421 15.7632 183.421 15.7632C183.421 15.7632 198.864 18.0725 207.506 18.9048C215.598 19.6874 219.257 31.9563 219.704 33.5381V33.5491C219.737 33.6483 219.742 33.7035 219.742 33.7035L219.753 33.709Z" fill="#BE2F55"/>
</g>
<g style="mix-blend-mode:multiply" opacity="0.5">
<path d="M223.463 38.3168C223.463 38.3168 231.603 46.011 234.26 51.1313C236.916 56.2515 229.603 67.0653 229.603 67.0653C229.603 67.0653 233.075 60.7325 232.502 55.0665C231.923 49.4006 223.468 38.3168 223.468 38.3168H223.463Z" fill="#BE2F55"/>
</g>
<g style="mix-blend-mode:multiply" opacity="0.3">
<path d="M209.044 0.396851C209.044 0.396851 215.267 10.3012 217.571 15.1514C219.874 20.0016 223.303 14.9365 223.033 10.902C222.763 6.86748 209.044 0.396851 209.044 0.396851Z" fill="#BE2F55"/>
</g>
<g style="mix-blend-mode:multiply" opacity="0.3">
<path d="M183.432 15.7688C183.432 15.7688 203.147 18.3703 207.032 18.8663C210.918 19.3569 212.263 25.7007 212.263 25.7007C212.263 25.7007 208.091 23.4189 201.3 23.1819C194.516 22.9449 185.664 22.6197 183.426 15.7688H183.432Z" fill="#BE2F55"/>
</g>
<g style="mix-blend-mode:multiply" opacity="0.3">
<path d="M232.744 23.3472C227.056 26.1085 229.999 18.6954 236.145 17.1356C242.29 15.5758 245.553 18.6072 245.774 19.0371C245.994 19.467 242.004 18.7009 238.498 19.9024C234.993 21.104 232.744 23.3417 232.744 23.3417V23.3472Z" fill="#BE2F55"/>
</g>
<g style="mix-blend-mode:multiply" opacity="0.5">
<path d="M234.839 71.1273C234.839 71.1273 238.515 69.1211 241.078 65.8582C243.641 62.5953 242.103 53.4351 242.103 53.4351C242.103 53.4351 240.609 54.2122 240.874 54.7854C241.138 55.3586 240.317 66.7291 234.839 71.1328V71.1273Z" fill="#BE2F55"/>
</g>
<g style="mix-blend-mode:multiply" opacity="0.5">
<path d="M224.174 39.3087C224.174 39.3087 230.369 44.6274 232.75 48.436C235.125 52.2445 234.965 55.0003 233.973 57.0506C232.981 59.1009 232.435 59.6741 232.435 59.6741C232.435 59.6741 233.494 53.909 230.352 48.3367C227.216 42.7645 224.174 39.3032 224.174 39.3032V39.3087Z" fill="#BE2F55"/>
</g>
<g style="mix-blend-mode:soft-light" opacity="0.5">
<path d="M198.864 92.3856C198.864 92.3856 191.468 97.6161 191.093 98.4924C190.713 99.3633 207.573 98.3161 211.585 97.6381C215.592 96.9547 215.928 90.8093 215.956 90.1368C215.978 89.4644 210.406 91.0022 207.815 91.4817C205.219 91.9612 198.875 92.3911 198.875 92.3911L198.864 92.3856Z" fill="white"/>
</g>
<g style="mix-blend-mode:soft-light" opacity="0.5">
<path d="M239.799 68.2502C236.823 71.6619 239.81 73.4366 240.758 73.7949C241.706 74.1587 245.735 71.0391 246.308 66.5086C246.881 61.978 243.641 62.689 243.062 63.0803C242.483 63.4717 239.794 68.2447 239.794 68.2447L239.799 68.2502Z" fill="white"/>
</g>
<g style="mix-blend-mode:soft-light" opacity="0.5">
<path d="M222.84 32.987C221.952 34.4145 228.792 42.4118 232.022 46.1267C235.252 49.8415 238.454 50.2108 239.22 49.7864C239.992 49.362 238.035 42.748 235.268 38.7687C232.496 34.7893 223.363 32.1382 222.84 32.987Z" fill="white"/>
</g>
<g style="mix-blend-mode:soft-light" opacity="0.5">
<path d="M210.4 0.788165C210.4 0.788165 220.541 5.99112 223.253 8.76897C225.965 11.5468 233.13 10.1689 233.339 7.7383C233.554 5.30217 222.024 -0.170854 210.4 0.788165Z" fill="white"/>
</g>
<g style="mix-blend-mode:soft-light" opacity="0.5">
<path d="M188.591 15.3829C188.591 15.3829 194.929 17.5986 203.483 18.5576C212.032 19.5166 215.394 16.4246 215.394 16.4246C215.394 16.4246 212.032 14.1979 201.989 14.3137C191.953 14.4294 188.585 15.3829 188.585 15.3829H188.591Z" fill="white"/>
</g>
<g style="mix-blend-mode:soft-light" opacity="0.5">
<path d="M235.798 12.2524C230.17 13.0791 232.121 16.9262 232.436 17.5049C232.75 18.0837 235.809 16.0664 241.904 16.5294C248 16.9924 249.599 16.6176 249.924 15.7743C250.249 14.931 243.2 11.1666 235.803 12.2524H235.798Z" fill="white"/>
</g>
<path d="M202.519 98.6248C202.519 98.6248 212.01 97.4012 213.718 96.5194C215.427 95.6375 216.171 94.2375 216.171 94.2375C216.171 94.2375 215.405 96.3099 213.867 97.0485C212.329 97.787 202.519 98.6248 202.519 98.6248Z" fill="#FFD134"/>
<path d="M234.26 76.6775C234.26 76.6775 239.468 74.6216 242.153 72.5548C244.837 70.4824 246.071 67.418 246.071 67.418C246.071 67.418 245.008 71.5627 242.957 73.3099C240.907 75.0571 234.26 76.683 234.26 76.683V76.6775Z" fill="#FFD134"/>
<path d="M230.716 19.5167C230.716 19.5167 232.452 17.6041 235.577 16.4247C238.697 15.2452 243.431 16.7443 243.431 16.7443C243.431 16.7443 239.391 15.9672 236.057 16.9262C232.722 17.8852 230.716 19.5167 230.716 19.5167Z" fill="#FFD134"/>
<path d="M197.316 17.5985C197.316 17.5985 206.961 18.2379 209.832 18.5189C212.704 18.8 213.856 22.355 213.856 22.355C213.856 22.355 211.332 19.0205 197.316 17.5985Z" fill="#FFD134"/>
<path d="M218.144 5.26367C218.144 5.26367 221.986 7.04392 223.253 8.76354C224.526 10.4887 223.457 14.3082 223.457 14.3082C223.457 14.3082 223.622 8.92889 218.144 5.26367Z" fill="#FFD134"/>
<path d="M197.845 17.5986C197.112 17.4498 200.474 16.6395 202.265 17.1356C204.056 17.6316 203.009 18.6237 197.845 17.5986Z" fill="#FFF9C7"/>
<path d="M236.051 16.9262C233.169 17.0419 236.084 14.3357 239.86 14.8318C243.641 15.3278 239.22 16.7994 236.051 16.9262Z" fill="#FFF9C7"/>
<path d="M223 8.025C221.864 7.62266 222.812 10.9076 223.876 10.9076C224.94 10.9076 224.262 8.47695 223 8.025Z" fill="#FFF9C7"/>
<path d="M241.656 74.1257C239.413 74.5666 243.817 70.3171 244.208 70.4935C244.6 70.6644 243.58 73.7509 241.656 74.1257Z" fill="#FFF9C7"/>
<g style="mix-blend-mode:multiply" opacity="0.5">
<path d="M191.087 92.7603C191.087 92.7603 208.416 93.9729 211.558 93.6532C214.694 93.3335 218.254 83.9087 218.254 83.9087C218.254 83.9087 214.633 87.0558 210.279 88.2739C205.925 89.4919 191.093 92.7603 191.093 92.7603H191.087Z" fill="#BE2F55"/>
</g>
<g style="mix-blend-mode:multiply" opacity="0.2">
<path d="M222.763 78.2208C222.763 78.2208 232.375 72.7367 236.233 68.9943C240.091 65.252 241.1 57.8003 240.885 55.3145C240.67 52.8343 236.817 55.9429 235.671 56.1854C234.524 56.4279 231.41 69.7494 222.763 78.2208Z" fill="#BE2F55"/>
</g>
<g style="mix-blend-mode:multiply" opacity="0.5">
<path d="M224.174 25.3148C221.837 22.3991 219.108 26.3069 219.759 31.0083C220.134 33.742 224.047 38.8733 224.047 38.8733C224.047 38.8733 221.511 35.0979 221.853 32.9869C222.2 30.876 228.252 33.4003 229.415 33.709C230.578 34.0176 225.265 27.8666 225.375 24.4605C225.485 21.0543 224.174 25.3148 224.174 25.3148Z" fill="#BE2F55"/>
</g>
<path d="M225.006 36.5365C223.959 36.5586 226.125 38.0246 226.444 38.3112C226.764 38.6034 228.654 36.4538 225.006 36.5365Z" fill="#FFF9C7"/>
<g style="mix-blend-mode:multiply" opacity="0.5">
<path d="M221.886 81.2742C221.886 81.2742 228.01 78.4081 229.581 78.2152C231.151 78.0223 237.688 78.4688 237.688 78.4688C237.688 78.4688 235.213 80.6293 230.143 80.7892C225.072 80.949 224.725 80.6128 221.886 81.2687V81.2742Z" fill="#BE2F55"/>
</g>
<path d="M29.6249 33.1524C29.6249 33.1524 33.0641 34.7342 35.12 33.6484V33.6374C35.1696 33.6153 35.2302 33.5878 35.2798 33.5547V33.5437C35.3294 33.5106 35.39 33.4831 35.4396 33.4335C35.4506 33.4335 35.4506 33.4224 35.4506 33.4224C35.5719 33.3398 35.6711 33.2626 35.7758 33.1469C37.6443 31.1792 40.4386 26.7865 44.7928 24.9952C49.1525 23.1984 53.887 23.97 62.4685 22.8843C62.7551 22.8457 63.0362 22.8016 63.3008 22.752H63.3339C71.0832 21.3851 71.5682 15.7633 71.5682 15.7633C68.0298 15.8955 40.6095 11.6571 38.3277 17.0585C38.2946 17.1412 38.2671 17.2183 38.245 17.301C37.8482 18.7395 37.6443 20.3434 37.4238 21.9583C37.4128 22.041 37.4018 22.1292 37.3852 22.2118C37.3246 22.6362 37.264 23.0716 37.1923 23.4905V23.5512C37.1648 23.722 37.1427 23.8984 37.0986 24.0582C37.0986 24.0913 37.0986 24.1189 37.0876 24.1519C36.9167 25.155 36.6908 26.1416 36.3876 27.062C35.4562 29.9336 33.6594 32.2926 29.6249 33.1469V33.1524Z" fill="url(#paint3_linear_110_626)"/>
<path d="M29.6249 82.316C30.0107 82.3986 30.3855 82.4868 30.7327 82.6081C37.9033 84.8293 36.7679 92.6447 38.245 98.1563C39.8048 103.916 67.9801 99.5673 71.5682 99.6885C71.5682 99.6885 71.0501 93.6644 62.4741 92.5786C53.8925 91.4928 49.158 92.2644 44.7983 90.4676C40.4497 88.6708 37.6498 84.2836 35.7813 82.316C35.2026 81.7097 34.3924 81.4837 33.5602 81.4561H33.5491C33.5491 81.4561 33.5161 81.4451 33.4995 81.4451C32.8988 81.4231 32.2925 81.5168 31.7468 81.638C30.5619 81.8916 29.6249 82.316 29.6249 82.316Z" fill="url(#paint4_linear_110_626)"/>
<path d="M0.214941 21.6606C1.52119 25.7557 6.87847 26.814 9.22091 26.7092H9.23193C9.89332 26.6872 10.3067 26.577 10.3398 26.4061C10.472 25.6345 3.94079 21.1535 10.7256 19.3568C17.1466 17.6647 30.0768 26.4833 24.3448 33.7255C24.1133 34.0287 23.8377 34.3318 23.5235 34.6404C23.4243 34.7397 23.3086 34.8444 23.1983 34.9436C23.1763 34.9546 23.1653 34.9656 23.1598 34.9767L23.1487 34.9877C14.6994 42.4228 14.1207 54.7799 14.1207 54.7799C13.1562 52.4705 11.9988 51.1312 11.9988 51.1312C11.9988 54.0193 8.30598 57.4585 8.01386 63.0473V63.0859C7.89261 65.6432 8.48235 68.6526 10.4665 72.2627C16.7828 83.7544 28.2415 79.786 33.4775 81.4175C33.5161 81.4285 33.5381 81.4395 33.5381 81.4395L33.5491 81.4505H33.5602L35.7813 82.3103C35.7813 82.3103 27.5084 72.0091 28.2745 57.7782C28.8147 47.7415 32.6783 39.882 35.1199 33.6428V33.6318C35.5554 32.535 35.9412 31.5043 36.2553 30.5067C36.6908 29.1399 36.9939 27.8502 37.1096 26.6541C37.2309 25.3479 37.2419 24.3448 37.1923 23.5511V23.4905C36.9718 20.0953 35.6325 20.6189 36.9884 16.7884C38.6529 12.0594 45.9503 0.396836 45.9503 0.396836C45.9503 0.396836 44.0212 -0.496045 37.4954 0.396836C30.9642 1.30074 17.7694 6.42102 22.5259 10.1303C22.8291 10.3728 23.1267 10.6264 23.3968 10.902C23.3968 10.902 23.4188 10.935 23.4684 10.9957C24.0141 11.5137 24.4825 12.0704 24.9069 12.6877L24.918 12.6987C27.1502 15.8514 27.9824 19.704 28.2029 20.9717C28.2359 21.115 28.2415 21.2252 28.2525 21.2968C27.9659 20.189 25.4857 11.3484 16.3584 12.1917C9.13823 12.8531 2.82193 14.8593 0.733032 17.9899V18.0009C0.0055001 19.0867 -0.209452 20.3048 0.214941 21.6606Z" fill="url(#paint5_linear_110_626)"/>
<g style="mix-blend-mode:multiply" opacity="0.5">
<path d="M30.7327 82.608C37.9033 84.8291 36.7679 92.6446 38.245 98.1562C39.8048 103.916 67.9801 99.5672 71.5682 99.6884C71.5682 99.6884 44.5723 98.7074 41.1331 97.0539C37.6938 95.4004 37.5119 87.6842 37.4238 86.1409C37.3411 84.741 39.3914 86.7306 39.7993 87.1165C39.3528 86.5708 36.2277 82.7678 35.4175 82.3214C34.5467 81.8363 30.7327 82.608 30.7327 82.608Z" fill="#BE2F55"/>
</g>
<g style="mix-blend-mode:multiply" opacity="0.5">
<path d="M10.472 72.2628C16.7883 83.7545 28.247 79.7861 33.483 81.4175C32.8767 81.175 27.9383 79.2184 24.8132 77.9011C21.4787 76.4902 16.0443 76.1044 12.5113 73.6737C9.13273 71.3423 8.10206 63.7143 8.01938 63.0859C7.89813 65.6433 8.48787 68.6527 10.472 72.2628Z" fill="#BE2F55"/>
</g>
<g style="mix-blend-mode:multiply" opacity="0.5">
<path d="M13.1507 64.7063C16.4191 70.0856 21.7763 71.8879 22.2559 72.0092C21.8921 71.7226 17.6922 69.0715 15.8459 64.4473C13.9168 59.6522 14.1207 54.7854 14.1207 54.7854C13.1562 52.476 11.9988 51.1367 11.9988 51.1367C12.5885 54.7854 10.0421 59.597 13.1452 64.7118L13.1507 64.7063Z" fill="#BE2F55"/>
</g>
<g style="mix-blend-mode:multiply" opacity="0.5">
<path d="M6.79578 19.7591C6.79578 22.9338 10.3397 26.4061 10.3397 26.4061C10.472 25.6345 3.94076 21.1535 10.7256 19.3567C17.5214 17.56 31.5925 27.5415 23.1597 34.9711C23.4739 34.7396 28.6438 30.8429 28.1698 27.5911C27.6958 24.2235 27.31 21.1535 22.2558 18.078C17.2072 14.9971 6.79578 16.5899 6.79578 19.7536V19.7591Z" fill="#BE2F55"/>
</g>
<g style="mix-blend-mode:multiply" opacity="0.5">
<path d="M0.214941 21.6607C1.52119 25.7558 6.87847 26.8141 9.22091 26.7094C8.71384 26.4062 2.32589 26.7149 0.733032 18.001V17.99C0.00550011 19.0758 -0.209453 20.2994 0.214941 21.6607Z" fill="#BE2F55"/>
</g>
<g style="mix-blend-mode:multiply" opacity="0.5">
<path d="M38.2451 17.312C37.8482 18.7505 37.6443 20.3544 37.4238 21.9693C37.6884 20.3158 37.9915 18.6237 38.3277 17.0695C38.2947 17.1521 38.2671 17.2293 38.2451 17.312Z" fill="#BE2F55"/>
</g>
<g style="mix-blend-mode:multiply" opacity="0.3">
<path d="M36.3875 27.0675C36.4482 27.8777 36.4372 28.8092 36.3269 29.906C36.4482 28.8808 36.7127 26.6927 37.0875 24.1574C37.0985 24.1243 37.0985 24.0968 37.0985 24.0637C37.1316 23.8818 37.1592 23.6999 37.1922 23.518V23.496C36.9718 20.1008 35.6325 20.6244 36.9883 16.7939C38.6528 12.0594 45.9502 0.396851 45.9502 0.396851C45.9502 0.396851 36.8009 4.34316 33.538 7.99184C30.2807 11.6405 31.5208 18.2765 33.538 20.9607C35.0262 22.9503 36.1671 24.3668 36.3875 27.0675Z" fill="#BE2F55"/>
</g>
<g style="mix-blend-mode:multiply" opacity="0.5">
<path d="M23.3967 10.902C23.3967 10.902 24.5487 12.6326 27.5635 15.1294C30.5728 17.6261 30.8319 25.3148 30.8319 25.3148L28.2028 20.9496C28.2028 20.9496 26.9242 15.0688 23.4022 10.9075L23.3967 10.902Z" fill="#BE2F55"/>
</g>
<g style="mix-blend-mode:multiply" opacity="0.5">
<path d="M35.2412 33.709C35.2412 33.709 35.3129 33.6098 35.4451 33.4334C35.4562 33.4334 35.4562 33.4224 35.4562 33.4224C36.5199 32.0445 41.3095 26.0093 44.9802 24.477C47.8187 23.3031 57.442 22.8952 63.3063 22.7519H63.3394C71.0887 21.385 71.5737 15.7632 71.5737 15.7632C71.5737 15.7632 56.1302 18.0725 47.488 18.9048C39.397 19.6874 35.7373 31.9563 35.2908 33.5381V33.5491C35.2577 33.6483 35.2522 33.7035 35.2522 33.7035L35.2412 33.709Z" fill="#BE2F55"/>
</g>
<g style="mix-blend-mode:multiply" opacity="0.5">
<path d="M31.5374 38.3168C31.5374 38.3168 23.3967 46.011 20.7402 51.1313C18.0836 56.2515 25.3975 67.0653 25.3975 67.0653C25.3975 67.0653 21.9251 60.7325 22.4984 55.0665C23.0771 49.4006 31.5319 38.3168 31.5319 38.3168H31.5374Z" fill="#BE2F55"/>
</g>
<g style="mix-blend-mode:multiply" opacity="0.3">
<path d="M45.9503 0.396851C45.9503 0.396851 39.7277 10.3012 37.4238 15.1514C35.12 20.0016 31.6917 14.9365 31.9618 10.902C32.2319 6.86748 45.9503 0.396851 45.9503 0.396851Z" fill="#BE2F55"/>
</g>
<g style="mix-blend-mode:multiply" opacity="0.3">
<path d="M71.5683 15.7688C71.5683 15.7688 51.8533 18.3703 47.9676 18.8663C44.0819 19.3569 42.7371 25.7007 42.7371 25.7007C42.7371 25.7007 46.9093 23.4189 53.6996 23.1819C60.4844 22.9449 69.3361 22.6197 71.5738 15.7688H71.5683Z" fill="#BE2F55"/>
</g>
<g style="mix-blend-mode:multiply" opacity="0.3">
<path d="M22.2558 23.3473C27.9438 26.1086 25.0006 18.6955 18.8552 17.1357C12.7042 15.5814 9.44686 18.6073 9.22639 19.0372C9.00593 19.4671 12.9963 18.701 16.5017 19.9025C20.0071 21.104 22.2558 23.3418 22.2558 23.3418V23.3473Z" fill="#BE2F55"/>
</g>
<g style="mix-blend-mode:multiply" opacity="0.5">
<path d="M20.156 71.1273C20.156 71.1273 16.4798 69.1211 13.9169 65.8582C11.354 62.5953 12.8917 53.4351 12.8917 53.4351C12.8917 53.4351 14.3854 54.2122 14.1208 54.7854C13.8562 55.3586 14.6775 66.7291 20.156 71.1328V71.1273Z" fill="#BE2F55"/>
</g>
<g style="mix-blend-mode:multiply" opacity="0.5">
<path d="M30.8264 39.3089C30.8264 39.3089 24.6313 44.6276 22.2503 48.4361C19.8748 52.2446 20.0346 55.0004 21.0267 57.0507C22.0188 59.101 22.5645 59.6742 22.5645 59.6742C22.5645 59.6742 21.5062 53.9091 24.6478 48.3369C27.7839 42.7646 30.8264 39.3033 30.8264 39.3033V39.3089Z" fill="#BE2F55"/>
</g>
<g style="mix-blend-mode:soft-light" opacity="0.5">
<path d="M56.1357 92.3856C56.1357 92.3856 63.5323 97.6161 63.9071 98.4924C64.2874 99.3633 47.4219 98.3161 43.415 97.6381C39.408 96.9547 39.0718 90.8093 39.0443 90.1368C39.0222 89.4644 44.5944 91.0022 47.1849 91.4817C49.7809 91.9612 56.1247 92.3911 56.1247 92.3911L56.1357 92.3856Z" fill="white"/>
</g>
<g style="mix-blend-mode:soft-light" opacity="0.5">
<path d="M15.201 68.2502C18.1773 71.6619 15.19 73.4366 14.242 73.7949C13.294 74.1587 9.26501 71.0391 8.69181 66.5086C8.1186 61.978 11.3594 62.689 11.9381 63.0803C12.5169 63.4717 15.2065 68.2447 15.2065 68.2447L15.201 68.2502Z" fill="white"/>
</g>
<g style="mix-blend-mode:soft-light" opacity="0.5">
<path d="M32.1603 32.987C33.0476 34.4145 26.2077 42.4118 22.9779 46.1267C19.7481 49.8415 16.5459 50.2108 15.7798 49.7864C15.0082 49.362 16.9648 42.748 19.7316 38.7687C22.5039 34.7893 31.6367 32.1382 32.1603 32.987Z" fill="white"/>
</g>
<g style="mix-blend-mode:soft-light" opacity="0.5">
<path d="M44.6 0.788165C44.6 0.788165 34.4586 5.99112 31.7469 8.76897C29.0352 11.5468 21.8701 10.1689 21.6607 7.7383C21.4457 5.30217 32.976 -0.170854 44.6 0.788165Z" fill="white"/>
</g>
<g style="mix-blend-mode:soft-light" opacity="0.5">
<path d="M66.4038 15.3829C66.4038 15.3829 60.0599 17.5986 51.5114 18.5576C42.9629 19.5166 39.6008 16.4246 39.6008 16.4246C39.6008 16.4246 42.9629 14.1979 53.0051 14.3137C63.0417 14.4294 66.4093 15.3829 66.4093 15.3829H66.4038Z" fill="white"/>
</g>
<g style="mix-blend-mode:soft-light" opacity="0.5">
<path d="M19.2024 12.2524C24.8297 13.0791 22.8786 16.9262 22.5645 17.5049C22.2503 18.0837 19.1914 16.0664 13.0955 16.5294C6.99969 16.9924 5.40132 16.6176 5.07614 15.7743C4.75095 14.931 11.8003 11.1666 19.1969 12.2524H19.2024Z" fill="white"/>
</g>
<path d="M52.4815 98.6248C52.4815 98.6248 42.9905 97.4012 41.2819 96.5194C39.5733 95.6375 38.8292 94.2375 38.8292 94.2375C38.8292 94.2375 39.5953 96.3099 41.1331 97.0485C42.6708 97.787 52.4815 98.6248 52.4815 98.6248Z" fill="#FFD134"/>
<path d="M20.7402 76.6775C20.7402 76.6775 15.5317 74.6216 12.8476 72.5548C10.1634 70.4824 8.92883 67.418 8.92883 67.418C8.92883 67.418 9.99257 71.5627 12.0429 73.3099C14.0932 75.0571 20.7402 76.683 20.7402 76.683V76.6775Z" fill="#FFD134"/>
<path d="M24.2841 19.5167C24.2841 19.5167 22.548 17.6041 19.4229 16.4247C16.3033 15.2452 11.5688 16.7443 11.5688 16.7443C11.5688 16.7443 15.6089 15.9672 18.9434 16.9262C22.2779 17.8852 24.2841 19.5167 24.2841 19.5167Z" fill="#FFD134"/>
<path d="M57.679 17.5986C57.679 17.5986 48.0392 18.238 45.1621 18.5191C42.2906 18.8002 41.1387 22.3552 41.1387 22.3552C41.1387 22.3552 43.663 19.0206 57.679 17.5986Z" fill="#FFD134"/>
<path d="M36.8561 5.26367C36.8561 5.26367 33.0145 7.04392 31.7468 8.76354C30.4737 10.4887 31.5429 14.3082 31.5429 14.3082C31.5429 14.3082 31.3776 8.92889 36.8561 5.26367Z" fill="#FFD134"/>
<path d="M57.1499 17.5986C57.883 17.4498 54.5209 16.6395 52.7296 17.1356C50.9383 17.6316 51.9855 18.6237 57.1499 17.5986Z" fill="#FFF9C7"/>
<path d="M18.9489 16.9262C21.8315 17.0419 18.9159 14.3357 15.1404 14.8318C11.3595 15.3278 15.7798 16.7994 18.9489 16.9262Z" fill="#FFF9C7"/>
<path d="M32.0004 8.025C33.1357 7.62266 32.1877 10.9076 31.124 10.9076C30.0603 10.9076 30.7382 8.47695 32.0004 8.025Z" fill="#FFF9C7"/>
<path d="M13.338 74.1257C15.5813 74.5666 11.1775 70.3171 10.7862 70.4935C10.3948 70.6644 11.4145 73.7509 13.338 74.1257Z" fill="#FFF9C7"/>
<g style="mix-blend-mode:multiply" opacity="0.5">
<path d="M63.9126 92.7603C63.9126 92.7603 46.5841 93.9729 43.4425 93.6532C40.3063 93.3335 36.7458 83.9087 36.7458 83.9087C36.7458 83.9087 40.367 87.0558 44.7211 88.2739C49.0753 89.4919 63.907 92.7603 63.907 92.7603H63.9126Z" fill="#BE2F55"/>
</g>
<g style="mix-blend-mode:multiply" opacity="0.2">
<path d="M32.2374 78.2208C32.2374 78.2208 22.6251 72.7367 18.767 68.9943C14.9089 65.252 13.9002 57.8003 14.1152 55.3145C14.3301 52.8343 18.1828 55.9429 19.3292 56.1854C20.4756 56.4279 23.5896 69.7494 32.2374 78.2208Z" fill="#BE2F55"/>
</g>
<g style="mix-blend-mode:multiply" opacity="0.5">
<path d="M30.8264 25.3148C33.1633 22.3991 35.8916 26.3069 35.2412 31.0083C34.8664 33.742 30.9532 38.8733 30.9532 38.8733C30.9532 38.8733 33.4885 35.0979 33.1468 32.9869C32.7996 30.876 26.7478 33.4003 25.5849 33.709C24.4219 34.0176 29.7351 27.8666 29.6249 24.4605C29.5146 21.0543 30.8264 25.3148 30.8264 25.3148Z" fill="#BE2F55"/>
</g>
<path d="M29.9942 36.5365C31.0414 36.5586 28.8753 38.0246 28.5556 38.3112C28.236 38.6034 26.3455 36.4538 29.9942 36.5365Z" fill="#FFF9C7"/>
<g style="mix-blend-mode:multiply" opacity="0.5">
<path d="M33.1138 81.2742C33.1138 81.2742 26.9904 78.4081 25.4196 78.2152C23.8488 78.0223 17.312 78.4688 17.312 78.4688C17.312 78.4688 19.7867 80.6293 24.8574 80.7892C29.9281 80.949 30.2753 80.6128 33.1138 81.2687V81.2742Z" fill="#BE2F55"/>
</g>
<path d="M232.744 57.7837C232.744 59.8726 231.95 62.4686 230.677 65.2795C230.677 65.2795 230.677 65.2906 230.666 65.3016C229.47 67.9471 227.828 70.7966 226.003 73.5745C221.247 80.8333 215.267 87.6897 212.588 89.6463C210.174 91.41 207.677 93.2344 154.766 93.2344C140.59 93.2344 128.674 93.0801 127.5 93.0635C126.326 93.0856 114.421 93.2344 100.234 93.2344C47.3116 93.2344 44.8259 91.41 42.4118 89.6463C38.1128 86.5047 25.2928 70.7636 22.7189 60.9088C22.7078 60.8978 22.7078 60.8868 22.7078 60.8868C22.4157 59.7734 22.2504 58.7262 22.2504 57.7837C22.2504 48.5738 37.6222 29.4431 42.4118 25.9322C44.8259 24.1685 47.3116 22.3441 100.234 22.3441C114.41 22.3441 126.326 22.4984 127.5 22.504C128.674 22.4929 140.579 22.3441 154.766 22.3441C207.688 22.3441 210.174 24.1685 212.588 25.9322C217.372 29.4431 232.75 48.5738 232.75 57.7837H232.744Z" fill="url(#paint6_linear_110_626)"/>
<path d="M208.388 31.6588C204.188 28.5833 127.494 29.6085 127.494 29.6085C127.494 29.6085 50.8004 28.5833 46.6006 31.6588C42.4007 34.7343 29.3438 52.1565 29.3438 57.7893C29.3438 63.4222 42.4007 80.8444 46.6006 83.9199C50.8004 86.9953 127.494 85.9702 127.494 85.9702C127.494 85.9702 204.188 86.9953 208.388 83.9199C212.588 80.8444 225.645 63.4222 225.645 57.7893C225.645 52.1565 212.588 34.7343 208.388 31.6588Z" fill="url(#paint7_linear_110_626)"/>
<path d="M46.6006 31.6587C46.6006 31.6587 33.1027 49.0423 42.0701 57.7892C42.0701 57.7892 33.6373 67.0928 44.5889 82.0734C44.5889 82.0734 29.4815 64.6457 29.3493 57.7892C29.217 50.9383 46.6061 31.6587 46.6061 31.6587H46.6006Z" fill="url(#paint8_linear_110_626)"/>
<path d="M208.388 31.6587C208.388 31.6587 221.886 49.0423 212.919 57.7892C212.919 57.7892 221.352 67.0928 210.4 82.0734C210.4 82.0734 225.507 64.6457 225.64 57.7892C225.772 50.9383 208.383 31.6587 208.383 31.6587H208.388Z" fill="url(#paint9_linear_110_626)"/>
<path d="M42.0701 57.7893H44.137C44.137 57.7893 40.2843 66.0512 42.0701 72.3896C45.6747 85.1985 51.495 82.101 54.8681 82.9277C60.9253 84.4159 169.482 85.3308 205.792 82.3104C214.556 81.5829 214.148 71.6841 213.861 67.0764C213.575 62.4631 208.388 57.894 208.388 57.894L212.919 57.7893C212.919 57.7893 216.182 63.3009 215.934 68.9834C215.686 74.6658 212.412 82.2112 208.388 83.9198C203.869 85.8434 168.319 86.615 129.605 86.7693C89.7565 86.9292 49.2793 85.4465 46.6007 83.9198C41.315 80.9105 39.9426 74.1202 39.0442 68.9172C38.1458 63.7143 42.0646 57.7893 42.0646 57.7893H42.0701Z" fill="url(#paint10_linear_110_626)"/>
<path d="M212.919 58.4341L208.388 57.894C208.388 57.894 213.569 53.7548 213.867 49.1526C214.082 45.7629 213.889 39.7498 210.317 36.3877C209.028 35.1696 207.286 34.2988 204.966 34.0232C165.965 29.4817 60.9253 31.8131 54.8735 33.2957C52.4815 33.8854 48.8494 32.4965 45.6581 36.2168C44.3519 37.727 43.1228 40.1135 42.0811 43.8339C40.2953 50.1833 44.148 57.7893 44.148 57.7893H42.0811C42.0811 57.7893 38.1568 52.5147 39.0607 47.3117C39.6615 43.8835 40.4497 39.7773 42.4394 36.5034C43.4645 34.8114 44.8149 33.3398 46.6172 32.3146C49.2958 30.7824 89.7785 29.3053 129.616 29.4541C165.85 29.6084 199.316 30.2974 207.154 31.9564C207.688 32.0666 208.107 32.1879 208.399 32.3091C212.423 34.0122 215.967 41.5851 216.369 48.0447C216.722 53.7217 212.93 58.4286 212.93 58.4286L212.919 58.4341Z" fill="url(#paint11_linear_110_626)"/>
<g style="mix-blend-mode:multiply" opacity="0.5">
<path d="M230.451 65.6598L225.998 73.569C221.241 80.8278 215.261 87.6842 212.583 89.6408C210.169 91.4045 207.672 93.2289 154.76 93.2289C140.584 93.2289 128.668 93.0746 127.494 93.058C126.32 93.0801 114.415 93.2289 100.228 93.2289C47.3061 93.2289 44.8203 91.4045 42.4062 89.6408C38.1072 86.4992 25.2872 70.7581 22.7133 60.9033C23.0605 61.5812 34.4034 83.4844 46.6061 88.5881C58.9962 93.78 157.632 94.6784 209.05 88.5881C217.251 87.6181 228.704 68.581 230.457 65.6598H230.451Z" fill="#BE2F55"/>
</g>
<g style="mix-blend-mode:multiply" opacity="0.5">
<path d="M221.5 81.4395C222.101 81.4175 222.708 81.5112 223.253 81.6324L221.5 81.4395Z" fill="#BE2F55"/>
</g>
<g style="mix-blend-mode:multiply" opacity="0.5">
<path d="M218.728 30.4021C218.706 30.2312 218.69 30.0658 218.667 29.906C218.701 30.1265 218.717 30.3028 218.728 30.4021Z" fill="#BE2F55"/>
</g>
<g style="mix-blend-mode:multiply" opacity="0.5">
<path d="M208.388 57.894C208.388 57.894 213.073 63.1631 213.916 68.0354C214.76 72.9077 215.862 70.7747 215.95 67.0709C216.038 63.3671 212.924 58.4397 212.924 58.4397L208.394 57.894H208.388Z" fill="#BE2F55"/>
</g>
<g style="mix-blend-mode:multiply" opacity="0.5">
<path d="M44.137 57.7893H42.0701C42.0701 57.7893 39.3033 62.3695 39.1104 64.9599C38.9175 67.5504 40.5765 69.4629 41.1276 69.8597C41.6788 70.2566 41.4804 61.1789 44.137 57.7893Z" fill="#BE2F55"/>
</g>
<g style="mix-blend-mode:multiply" opacity="0.5">
<path d="M211.579 36.5366C211.579 36.5366 211.166 36.4869 210.312 36.3822C204.453 35.7153 178.074 33.0642 128.933 33.0642C83.363 33.0642 54.8239 35.346 45.6471 36.2059C43.4975 36.4098 42.4117 36.531 42.4117 36.531L42.4228 36.4925C43.4479 34.8004 44.7983 33.3288 46.6006 32.3036C49.2792 30.7714 89.762 29.2943 129.6 29.4431C165.833 29.5974 199.3 30.2864 207.137 31.9454C210.411 33.202 211.579 36.531 211.579 36.531V36.5366Z" fill="#BE2F55"/>
</g>
<g style="mix-blend-mode:multiply" opacity="0.5">
<path d="M228.842 50.5746C228.197 44.567 222.454 43.4977 219.395 45.3551C218.728 45.7575 217.19 53.0934 216.849 54.4162C216.507 55.739 219.461 56.8854 220.42 56.6704C221.385 56.4555 221.054 54.7745 221.285 54.1186C221.522 53.4572 220.332 54.9784 218.634 55.017C216.931 55.0555 218.838 47.5157 219.803 46.6173C220.767 45.7189 226.951 49.2408 228.048 51.021C229.151 52.8013 224.234 57.635 224.234 57.635C224.234 57.635 229.151 62.4742 228.048 64.2489C226.946 66.0292 220.762 69.5511 219.803 68.6527C218.838 67.7543 216.931 60.2089 218.634 60.253C220.337 60.2916 221.522 61.8128 221.285 61.1514C221.054 60.49 221.385 58.8089 220.42 58.594C219.456 58.379 216.501 59.531 216.849 60.8482C217.19 62.171 218.618 69.8983 219.395 69.9093C220.172 69.9203 228.197 70.6975 228.842 64.6898C229.151 61.8073 225.987 57.6295 225.987 57.6295C225.987 57.6295 229.151 53.4517 228.842 50.5691V50.5746Z" fill="#BE2F55"/>
</g>
<path d="M217.934 65.7866C217.934 65.7866 218.745 69.5565 219.263 69.7935C220.249 70.24 225.502 69.5345 226.836 68.3495C228.169 67.159 228.699 65.5 228.699 65.5C228.699 65.5 228.362 67.2637 227.503 68.2779C225.772 70.3227 221.065 70.6093 219.378 70.2675C218.127 70.014 217.934 65.7866 217.934 65.7866Z" fill="#FFD134"/>
<path d="M218.017 60.9971C218.436 59.4924 221.17 61.6254 221.335 61.6254C221.5 61.6254 221.164 60.1262 221.164 60.1262C221.164 60.1262 221.319 61.2065 221.164 61.2726C221.01 61.3333 219.952 60.1262 218.634 60.253C217.929 60.3191 218.017 60.9971 218.017 60.9971Z" fill="#FFD134"/>
<path d="M217.075 55.2871C217.075 55.2871 217.411 55.9429 218.304 56.428C219.197 56.913 220.354 57.1555 220.657 56.8634C221.269 56.2792 221.164 54.9729 221.164 54.9729C221.164 54.9729 221.054 56.3839 220.139 56.5933C219.224 56.8028 217.543 56.1303 217.075 55.2816V55.2871Z" fill="#FFD134"/>
<path d="M218.938 48.4195C218.938 48.4195 219.648 46.992 220.409 46.8156C221.859 46.4794 225.805 48.9541 226.444 49.4667C226.444 49.4667 222.537 46.8211 221.379 46.4078C220.222 45.9944 219.786 46.5841 219.654 46.7991C219.522 47.014 218.938 48.4195 218.938 48.4195Z" fill="#FFD134"/>
<path d="M224.234 57.635C224.234 57.635 226.692 60.22 227.31 61.3498L224.234 57.635Z" fill="#FFD134"/>
<g style="mix-blend-mode:multiply" opacity="0.5">
<path d="M217.4 51.8753C217.4 51.8753 218.932 46.97 220.007 46.2645C221.082 45.559 226.047 48.4691 227.31 49.6651C228.572 50.8612 228.533 51.8698 228.533 51.8698C228.533 51.8698 229.2 48.899 227.31 47.3227C225.419 45.7464 222.156 44.4787 219.698 45.3385C218.805 45.6527 217.405 51.8698 217.405 51.8698L217.4 51.8753Z" fill="#BE2F55"/>
</g>
<g style="mix-blend-mode:multiply" opacity="0.5">
<path d="M220.139 68.8125C217.62 68.6857 224.03 69.5566 226.086 68.2228C228.142 66.889 228.048 64.2489 228.048 64.2489C228.048 64.2489 226.742 65.8418 224.234 67.1811C221.721 68.5149 220.944 68.8511 220.139 68.8125Z" fill="#BE2F55"/>
</g>
<g style="mix-blend-mode:multiply" opacity="0.5">
<path d="M221.622 53.2422C221.622 53.2422 222.454 51.5722 221.897 49.7975C221.341 48.0227 223.292 48.6952 224.234 50.1337C225.177 51.5722 221.622 53.2422 221.622 53.2422Z" fill="#BE2F55"/>
</g>
<g style="mix-blend-mode:multiply" opacity="0.5">
<path d="M221.622 61.9946C221.622 61.9946 222.454 63.6646 221.897 65.4394C221.341 67.2141 223.292 66.5417 224.234 65.1032C225.177 63.6646 221.622 61.9946 221.622 61.9946Z" fill="#BE2F55"/>
</g>
<path d="M221.622 53.2422C221.622 53.2422 223.766 52.1454 224.234 51.2029C224.234 51.2029 224.063 52.9335 221.622 53.2422Z" fill="#FFD134"/>
<path d="M221.804 65.9355C221.804 65.9355 221.721 66.3819 222.189 66.5032C222.658 66.6299 223.672 65.7756 223.672 65.7756C223.672 65.7756 222.945 66.7898 222.245 66.7898C221.605 66.7898 221.804 65.93 221.804 65.93V65.9355Z" fill="#FFD134"/>
<g style="mix-blend-mode:multiply" opacity="0.5">
<path d="M25.9597 50.5746C26.6045 44.567 32.3476 43.4977 35.4066 45.3551C36.0735 45.7575 37.6112 53.0934 37.9529 54.4162C38.2947 55.739 35.3404 56.8854 34.3814 56.6704C33.4169 56.4555 33.7476 54.7745 33.5161 54.1186C33.2846 53.4572 34.4696 54.9784 36.1672 55.017C37.8703 55.0555 35.9632 47.5157 34.9987 46.6173C34.0342 45.7189 27.8502 49.2408 26.7533 51.021C25.651 52.8013 30.5674 57.635 30.5674 57.635C30.5674 57.635 25.651 62.4742 26.7533 64.2489C27.8557 66.0292 34.0397 69.5511 34.9987 68.6527C35.9632 67.7543 37.8703 60.2089 36.1672 60.253C34.4641 60.2916 33.2791 61.8128 33.5161 61.1514C33.7476 60.49 33.4169 58.8089 34.3814 58.594C35.3459 58.379 38.3002 59.531 37.9529 60.8482C37.6112 62.171 36.1837 69.8983 35.4066 69.9093C34.6294 69.9203 26.6045 70.6975 25.9597 64.6898C25.651 61.8073 28.8147 57.6295 28.8147 57.6295C28.8147 57.6295 25.651 53.4517 25.9597 50.5691V50.5746Z" fill="#BE2F55"/>
</g>
<path d="M36.8671 65.7866C36.8671 65.7866 36.0569 69.5565 35.5388 69.7935C34.5522 70.24 29.2996 69.5345 27.9658 68.3495C26.632 67.159 26.1029 65.5 26.1029 65.5C26.1029 65.5 26.4391 67.2637 27.2989 68.2779C29.0296 70.3227 33.742 70.6093 35.4285 70.2675C36.6797 70.014 36.8726 65.7866 36.8726 65.7866H36.8671Z" fill="#FFD134"/>
<path d="M36.7844 60.9971C36.3655 59.4924 33.6317 61.6254 33.4664 61.6254C33.301 61.6254 33.6372 60.1262 33.6372 60.1262C33.6372 60.1262 33.4829 61.2065 33.6372 61.2726C33.7916 61.3333 34.8498 60.1262 36.1671 60.253C36.8726 60.3191 36.7844 60.9971 36.7844 60.9971Z" fill="#FFD134"/>
<path d="M37.7269 55.2871C37.7269 55.2871 37.3907 55.9429 36.4978 56.428C35.6105 56.913 34.4475 57.1555 34.1444 56.8634C33.5326 56.2792 33.6373 54.9729 33.6373 54.9729C33.6373 54.9729 33.7475 56.3839 34.6625 56.5933C35.5774 56.8028 37.2584 56.1303 37.7269 55.2816V55.2871Z" fill="#FFD134"/>
<path d="M35.864 48.4195C35.864 48.4195 35.153 46.992 34.3924 46.8156C32.9428 46.4794 28.9965 48.9541 28.3572 49.4667C28.3572 49.4667 32.2649 46.8211 33.4223 46.4078C34.5798 45.9944 35.0152 46.5841 35.1475 46.7991C35.2798 47.014 35.8585 48.4195 35.8585 48.4195H35.864Z" fill="#FFD134"/>
<path d="M30.5674 57.635C30.5674 57.635 28.1092 60.22 27.4919 61.3498L30.5674 57.635Z" fill="#FFD134"/>
<g style="mix-blend-mode:multiply" opacity="0.5">
<path d="M37.3963 51.8753C37.3963 51.8753 35.864 46.97 34.7893 46.2645C33.7145 45.559 28.7485 48.4691 27.4864 49.6651C26.2242 50.8612 26.2628 51.8698 26.2628 51.8698C26.2628 51.8698 25.5959 48.899 27.4864 47.3227C29.3769 45.7464 32.6397 44.4787 35.0979 45.3385C35.9908 45.6527 37.3907 51.8698 37.3907 51.8698L37.3963 51.8753Z" fill="#BE2F55"/>
</g>
<g style="mix-blend-mode:multiply" opacity="0.5">
<path d="M34.6625 68.8125C37.1813 68.6857 30.7713 69.5566 28.7155 68.2228C26.6596 66.889 26.7533 64.2489 26.7533 64.2489C26.7533 64.2489 28.0596 65.8418 30.5674 67.1811C33.0807 68.5149 33.8578 68.8511 34.6625 68.8125Z" fill="#BE2F55"/>
</g>
<g style="mix-blend-mode:multiply" opacity="0.5">
<path d="M33.1798 53.2422C33.1798 53.2422 32.3476 51.5722 32.9043 49.7975C33.4609 48.0227 31.5098 48.6952 30.5673 50.1337C29.6249 51.5722 33.1798 53.2422 33.1798 53.2422Z" fill="#BE2F55"/>
</g>
<g style="mix-blend-mode:multiply" opacity="0.5">
<path d="M33.1798 61.9946C33.1798 61.9946 32.3476 63.6646 32.9043 65.4394C33.4609 67.2141 31.5098 66.5417 30.5673 65.1032C29.6249 63.6646 33.1798 61.9946 33.1798 61.9946Z" fill="#BE2F55"/>
</g>
<path d="M33.1799 53.2422C33.1799 53.2422 31.0359 52.1454 30.5674 51.2029C30.5674 51.2029 30.7382 52.9335 33.1799 53.2422Z" fill="#FFD134"/>
<path d="M32.998 65.9355C32.998 65.9355 33.0806 66.3819 32.6121 66.5032C32.1437 66.6299 31.1295 65.7756 31.1295 65.7756C31.1295 65.7756 31.857 66.7898 32.557 66.7898C33.1964 66.7898 32.998 65.93 32.998 65.93V65.9355Z" fill="#FFD134"/>
<g style="mix-blend-mode:soft-light" opacity="0.5">
<path d="M79.549 22.4598C79.549 22.4598 77.0412 28.5226 131.43 29.4375C185.818 30.358 201.593 25.7007 201.593 25.7007C201.593 25.7007 177.154 22.5039 79.549 22.4598Z" fill="white"/>
</g>
<path d="M124.921 29.2998C124.921 29.2998 145.589 28.3298 158.271 28.1975C170.953 28.0707 187.02 30.4021 187.02 30.4021L124.926 29.2943L124.921 29.2998Z" fill="#FFD134"/>
<g style="mix-blend-mode:soft-light" opacity="0.5">
<path d="M46.6007 39.3089C43.2937 40.0033 72.7367 55.8382 140.563 56.8633C208.388 57.894 211.866 47.7747 211.58 41.3812C211.299 34.9878 107.702 26.5219 46.6007 39.3089Z" fill="white"/>
</g>
<g style="mix-blend-mode:multiply" opacity="0.2">
<path d="M51.6989 82.7237C46.9259 82.5639 41.1387 51.1312 152.374 58.4341C209.888 62.2095 211.624 77.9011 208.388 81.423C205.153 84.9449 91.9282 84.0906 51.6989 82.7237Z" fill="#BE2F55"/>
</g>
<g style="mix-blend-mode:multiply" opacity="0.2">
<path d="M155.968 58.5499C116.35 58.0208 164.852 77.2673 191.087 77.0689C217.323 76.8705 194.146 59.057 155.968 58.5499Z" fill="#CF6481"/>
</g>
<path d="M157.5 22.4599C152.953 22.4047 158.911 25.381 166.081 25.3149C173.252 25.2487 172.359 23.0717 172.359 23.0717C172.359 23.0717 166.726 22.5646 157.5 22.4599Z" fill="#FFF9C7"/>
<g style="mix-blend-mode:soft-light" opacity="0.5">
<path d="M181.387 45.3992C175.214 50.2659 187.714 49.2077 191.082 46.1322C194.45 43.0568 184.27 43.1284 181.387 45.3992Z" fill="white"/>
</g>
<path d="M208.388 57.8939C208.388 57.8939 212.131 54.1295 213.861 52.691C215.592 51.258 215.879 54.6311 213.172 58.0979C213.172 58.0979 211.883 58.379 208.388 57.8939Z" fill="#FFD134"/>
<path d="M42.0702 57.7893C42.0702 57.7893 39.4466 55.1602 39.6395 52.9997C39.8324 50.8391 44.137 57.7893 44.137 57.7893H42.0702Z" fill="#FFD134"/>
<g style="mix-blend-mode:multiply" opacity="0.2">
<path d="M80.8498 92.1761C80.8498 92.1761 94.7335 87.4637 120.478 86.7803C146.223 86.0968 174.084 91.2888 174.084 91.2888C174.084 91.2888 119.293 94.706 80.8442 92.1761H80.8498Z" fill="#BE2F55"/>
</g>
<g style="mix-blend-mode:soft-light">
<path d="M192.146 90.2251C192.146 90.2251 208.691 87.9323 213.283 84.945C219.467 80.916 225.37 73.5139 225.37 73.5139C225.37 73.5139 215.967 86.8575 210.268 88.274C204.574 89.6905 192.14 90.2251 192.14 90.2251H192.146Z" fill="white"/>
</g>
<g style="mix-blend-mode:multiply" opacity="0.5">
<path d="M45.2557 91.2943C45.2557 91.2943 53.4184 90.2581 58.2245 90.7046C63.0307 91.151 74.6491 93.047 74.6491 93.047C74.6491 93.047 51.9799 92.4573 45.2557 91.2998V91.2943Z" fill="#BE2F55"/>
</g>
<g style="mix-blend-mode:multiply" opacity="0.5">
<path d="M212.583 89.6463C212.583 89.6463 208.052 88.8086 203.075 89.244C198.098 89.6794 187.009 93.0415 187.009 93.0415C187.009 93.0415 201.852 92.077 206.575 91.647C211.293 91.2171 212.583 89.6408 212.583 89.6408V89.6463Z" fill="#BE2F55"/>
</g>
<g style="mix-blend-mode:soft-light" opacity="0.5">
<path d="M51.6989 82.7237C53.2311 77.642 71.4855 74.7595 92.0438 78.2208C112.602 81.6821 119.133 84.3111 119.133 84.3111C119.133 84.3111 66.2385 83.8647 51.6989 82.7293V82.7237Z" fill="white"/>
</g>
<g style="mix-blend-mode:soft-light" opacity="0.5">
<path d="M68.0243 83.4403C68.0243 83.4403 80.2986 86.3008 113.936 87.0504C147.573 87.8 176.394 83.9088 176.394 83.9088C176.394 83.9088 116.444 85.9701 68.0243 83.4403Z" fill="white"/>
</g>
<path d="M129.435 84.6364C129.435 84.6364 133.034 86.7363 140.105 86.389C147.176 86.0473 148.819 84.6364 148.819 84.6364H129.435Z" fill="#FFF9C7"/>
<g style="mix-blend-mode:soft-light" opacity="0.8">
<path d="M58.616 37.1373C58.616 37.1373 97.809 35.9247 106.837 34.9767C115.865 34.0287 119.133 33.7091 119.133 33.7091C119.133 33.7091 95.5107 31.7965 58.616 37.1373Z" fill="white"/>
</g>
<g style="mix-blend-mode:soft-light" opacity="0.5">
<path d="M36.8562 32.987C36.4263 35.7704 43.0071 31.6257 48.8329 31.0084C54.6587 30.3911 61.5978 24.6259 60.9254 23.9535C60.253 23.2811 51.3462 23.5016 45.9503 24.7362C40.5545 25.9708 36.8562 32.987 36.8562 32.987Z" fill="white"/>
</g>
<path d="M44.9802 25.3148C42.1086 26.5825 42.4834 30.7823 47.7635 28.7596C53.0492 26.7368 48.8493 23.6062 44.9802 25.3148Z" fill="#FFF9C7"/>
<g style="mix-blend-mode:soft-light">
<path d="M35.864 80.1995C35.864 80.1995 44.5283 87.0229 49.6541 88.8086C54.7798 90.5944 76.694 91.9943 76.694 91.9943C76.694 91.9943 55.0389 90.9802 49.0202 89.3763C43.0015 87.7724 35.8695 80.194 35.8695 80.194L35.864 80.1995Z" fill="white"/>
</g>
<g style="mix-blend-mode:multiply" opacity="0.5">
<path d="M204.508 43.9827C203.009 43.5252 200.926 46.4629 202 48.8935C203.059 51.2911 207.925 45.0244 204.508 43.9827Z" fill="#BE2F55"/>
</g>
<g style="mix-blend-mode:multiply" opacity="0.5">
<path d="M202.166 46.0551C202.028 47.8298 204.271 47.9401 205.131 47.0141C205.996 46.0882 205.974 43.9882 204.31 43.9441C202.645 43.9001 202.16 46.0551 202.16 46.0551H202.166Z" fill="#BE2F55"/>
</g>
<path d="M201.703 47.5873C202.193 46.5236 203.505 47.8299 204.31 47.8905C205.12 47.9511 203.726 49.6928 202.794 49.4392C201.863 49.1802 201.697 47.5929 201.697 47.5929L201.703 47.5873Z" fill="#FFD134"/>
<g style="mix-blend-mode:multiply" opacity="0.5">
<path d="M223.578 15.3995C222.366 15.0302 220.685 17.4057 221.55 19.3734C222.404 21.3134 226.34 16.2428 223.578 15.3995Z" fill="#BE2F55"/>
</g>
<g style="mix-blend-mode:multiply" opacity="0.5">
<path d="M221.682 17.0805C221.567 18.5135 223.385 18.6017 224.08 17.8576C224.78 17.1081 224.763 15.4105 223.418 15.3774C222.074 15.3443 221.682 17.086 221.682 17.086V17.0805Z" fill="#BE2F55"/>
</g>
<path d="M221.313 18.3206C221.71 17.4608 222.768 18.5191 223.424 18.5631C224.08 18.6128 222.95 20.0182 222.2 19.8143C221.445 19.6048 221.313 18.3206 221.313 18.3206Z" fill="#FFD134"/>
<g style="mix-blend-mode:multiply" opacity="0.5">
<path d="M23.0552 38.664C21.556 38.2065 19.4726 41.1442 20.5474 43.5748C21.6056 45.9723 26.4724 39.7056 23.0552 38.664Z" fill="#BE2F55"/>
</g>
<g style="mix-blend-mode:multiply" opacity="0.5">
<path d="M20.7181 40.7364C20.5803 42.5111 22.8235 42.6213 23.6834 41.6954C24.5487 40.7694 24.5266 38.6695 22.8621 38.6254C21.1976 38.5813 20.7126 40.7364 20.7126 40.7364H20.7181Z" fill="#BE2F55"/>
</g>
<path d="M20.2551 42.2686C20.7457 41.2049 22.0574 42.5111 22.8621 42.5718C23.6723 42.6324 22.2779 44.3741 21.3464 44.1205C20.415 43.8615 20.2496 42.2741 20.2496 42.2741L20.2551 42.2686Z" fill="#FFD134"/>
<g style="mix-blend-mode:multiply" opacity="0.5">
<path d="M203.869 64.9543C202.91 64.6677 201.945 66.0181 202.353 66.9275C202.755 67.8259 205.544 65.4504 203.869 64.9543Z" fill="#BE2F55"/>
</g>
<g style="mix-blend-mode:multiply" opacity="0.5">
<path d="M203.45 64.9157C202.783 65.0921 202.563 66.0346 202.822 66.3101C203.081 66.5857 204.348 66.2495 204.398 65.6102C204.447 64.9708 203.714 64.8441 203.45 64.9102V64.9157Z" fill="#BE2F55"/>
</g>
<path d="M202.254 66.6078C202.43 65.7756 202.789 66.6078 203.307 66.7015C203.825 66.7952 202.287 67.7157 202.254 66.6078Z" fill="#FF9500"/>
<g style="mix-blend-mode:multiply" opacity="0.5">
<path d="M46.2589 65.4228C44.6109 66.4259 45.2944 69.5455 47.1132 70.1352C48.9155 70.725 49.1305 63.6701 46.2589 65.4228Z" fill="#BE2F55"/>
</g>
<g style="mix-blend-mode:multiply" opacity="0.5">
<path d="M45.6526 65.974C45.0463 67.1535 46.1045 68.6857 46.8376 68.6692C47.5706 68.6526 48.7226 66.4094 47.8793 65.5165C47.025 64.6181 45.8951 65.5 45.6581 65.9685L45.6526 65.974Z" fill="#BE2F55"/>
</g>
<path d="M46.5235 69.8652C45.5645 68.5424 47.2125 69.1045 48.0172 68.4872C48.8163 67.8755 48.1439 71.2541 46.5235 69.8652Z" fill="#FF9500"/>
<path style="mix-blend-mode:screen" opacity="0.8" d="M128.972 59.2608C167.974 59.2608 199.592 53.2201 199.592 45.7684C199.592 38.3168 167.974 32.276 128.972 32.276C89.9691 32.276 58.3513 38.3168 58.3513 45.7684C58.3513 53.2201 89.9691 59.2608 128.972 59.2608Z" fill="url(#paint12_radial_110_626)"/>
<path d="M68.0242 42.2686C66.4369 45.2007 72.6484 46.9479 73.9437 43.7512C75.2334 40.56 69.0769 40.3285 68.0242 42.2686Z" fill="#FFF9C7"/>
<g style="mix-blend-mode:soft-light" opacity="0.8">
<path d="M66.8668 59.4262C71.6785 56.4169 76.7932 53.9146 81.9907 51.6273C87.1991 49.3675 92.5123 47.3392 97.9413 45.6747C100.636 44.7708 103.392 44.0874 106.132 43.3323C108.876 42.6048 111.665 42.0536 114.432 41.4087C117.232 40.9292 120.015 40.3726 122.826 39.9537L127.054 39.408C128.465 39.2372 129.864 39.0057 131.286 38.934C142.591 37.9144 154.033 37.8262 165.304 39.4246C166.715 39.5954 168.11 39.9041 169.509 40.1356C170.898 40.4552 172.298 40.7143 173.665 41.1166C176.416 41.8552 179.133 42.7646 181.69 44.0598C184.231 45.344 186.662 47.0471 188.326 49.4447C189.109 50.6682 189.627 52.0958 189.66 53.5729C189.693 55.039 189.296 56.5106 188.563 57.7672C187.097 60.297 184.815 62.1875 182.412 63.7087C179.976 65.2134 177.364 66.3984 174.674 67.3409C169.295 69.2369 163.623 70.2785 157.924 70.3998C152.231 70.5155 146.51 69.7825 141.064 68.096C138.341 67.2527 135.696 66.1504 133.221 64.7284C130.757 63.3064 128.415 61.5537 126.712 59.2278C125.874 58.0703 125.207 56.7365 124.992 55.298C124.766 53.8595 125.047 52.3493 125.775 51.0926C126.491 49.8195 127.555 48.8108 128.696 47.951C129.826 47.0692 131.066 46.3527 132.334 45.7023C137.443 43.1559 142.977 41.6513 148.521 40.4663C154.088 39.3198 159.726 38.5703 165.392 38.1789C171.053 37.8207 176.768 37.7215 182.385 38.6089C176.763 37.7601 171.053 37.9034 165.403 38.3057C159.748 38.7411 154.121 39.5348 148.576 40.7143C143.048 41.9158 137.531 43.426 132.471 45.9668C131.215 46.6117 129.991 47.3282 128.889 48.1935C127.776 49.0423 126.739 50.0344 126.061 51.247C125.373 52.4485 125.113 53.876 125.328 55.2429C125.538 56.6153 126.177 57.8995 126.998 59.0238C128.663 61.2836 130.972 63.0142 133.408 64.4087C135.856 65.8086 138.485 66.8999 141.185 67.7267C146.592 69.3857 152.269 70.0967 157.919 69.9699C163.573 69.8376 169.195 68.7849 174.514 66.8944C177.176 65.9519 179.756 64.7725 182.148 63.2898C184.507 61.7907 186.722 59.9278 188.111 57.5192C188.817 56.3287 189.18 54.9508 189.153 53.5894C189.125 52.2225 188.651 50.8887 187.913 49.7258C186.331 47.4384 183.972 45.7574 181.475 44.4897C178.967 43.211 176.272 42.3016 173.549 41.5631C172.194 41.1607 170.799 40.8962 169.427 40.5765C168.032 40.3395 166.649 40.0308 165.243 39.8545C154.027 38.2341 142.607 38.2892 131.325 39.2813C129.909 39.3529 128.509 39.5789 127.098 39.7442L122.881 40.2789C120.076 40.6867 117.293 41.2379 114.498 41.7064C111.737 42.3457 108.953 42.8859 106.209 43.6079C103.475 44.3519 100.719 45.0354 98.0239 45.9172C92.5895 47.5377 87.2653 49.5273 82.0458 51.743C76.8428 53.9862 71.7115 56.4499 66.8723 59.4262H66.8668Z" fill="#FFF9C7"/>
<path d="M85.3693 54.9176C93.4328 53.8484 101.568 53.3248 109.703 53.1704C117.838 53.0327 125.99 53.2256 134.103 53.9641C142.205 54.7468 150.279 56.031 158.156 58.1199C162.08 59.1891 165.988 60.3741 169.752 61.9339C173.511 63.4937 177.171 65.307 180.632 67.44C173.605 63.3283 165.916 60.4843 158.062 58.4561C150.197 56.4333 142.139 55.2097 134.053 54.4822C125.968 53.6885 117.833 53.435 109.709 53.5122C105.646 53.5618 101.584 53.7051 97.5224 53.9476C93.4658 54.168 89.4038 54.4546 85.3638 54.9121L85.3693 54.9176Z" fill="#FFF9C7"/>
<path d="M103.337 65.3402C105.999 66.189 108.711 66.8559 111.434 67.4346C114.156 68.0243 116.907 68.5149 119.668 68.8786C125.191 69.5951 130.774 69.9479 136.324 69.5345C141.874 69.1983 147.386 68.0849 152.545 66.0126C155.113 64.9488 157.566 63.6261 159.87 62.0663C162.157 60.4789 164.24 58.6105 166.136 56.5602C164.301 58.6656 162.273 60.6057 160.018 62.2757C157.731 63.8906 155.273 65.263 152.699 66.3874C147.518 68.5534 141.94 69.6778 136.357 70.0581C130.763 70.4329 125.141 70.0802 119.607 69.2755C114.079 68.4432 108.606 67.17 103.332 65.3347L103.337 65.3402Z" fill="#FFF9C7"/>
<path d="M96.8058 57.5577C98.3986 56.2514 100.096 55.0664 101.81 53.9145C103.552 52.8067 105.321 51.7374 107.135 50.7453C110.756 48.7612 114.526 47.0305 118.395 45.581C122.275 44.1535 126.227 42.9078 130.272 42.0646C132.284 41.5851 134.329 41.2764 136.368 40.9567C138.407 40.6371 140.474 40.5378 142.525 40.3174C138.435 40.8465 134.356 41.4473 130.366 42.4559C126.359 43.3763 122.424 44.6164 118.582 46.0715C114.719 47.477 110.971 49.2021 107.327 51.1036C103.69 53.0161 100.129 55.1105 96.8113 57.5632L96.8058 57.5577Z" fill="#FFF9C7"/>
<path d="M114.526 38.6033C119.188 38.3112 123.873 38.3498 128.536 38.7191C133.199 39.0938 137.84 39.7828 142.403 40.8576C146.945 41.9985 151.404 43.5031 155.648 45.4873C159.853 47.5652 163.772 50.1832 167.244 53.3138C163.64 50.332 159.677 47.8518 155.471 45.8511C151.216 43.9551 146.802 42.4614 142.277 41.3646C137.752 40.2568 133.133 39.5734 128.498 39.1214C123.857 38.6805 119.188 38.5096 114.52 38.6033H114.526Z" fill="#FFF9C7"/>
<path d="M124.827 66.8723C125.918 67.3573 127.032 67.7872 128.161 68.162C129.28 68.5644 130.416 68.9171 131.562 69.2423C133.849 69.8816 136.17 70.3997 138.523 70.7139C140.866 71.0942 143.247 71.1548 145.617 71.0942L147.391 70.9895C147.981 70.9399 148.565 70.8296 149.155 70.7525C150.346 70.6533 151.487 70.2895 152.661 70.058C150.395 70.7966 148.042 71.3588 145.639 71.4966C143.247 71.6399 140.827 71.5792 138.452 71.232C136.082 70.8737 133.728 70.3556 131.446 69.6281C129.165 68.9006 126.932 68.0022 124.827 66.8723Z" fill="#FFF9C7"/>
<path d="M130.526 73.0894C131.683 72.0036 132.934 71.0225 134.213 70.0911C135.497 69.1596 136.837 68.3053 138.215 67.5116C139.615 66.7621 141.031 66.0235 142.53 65.4779C144.024 64.9377 145.578 64.5078 147.165 64.3976C145.611 64.7228 144.129 65.2409 142.684 65.8527C141.24 66.4644 139.84 67.192 138.479 67.9691C137.096 68.7132 135.773 69.573 134.445 70.4273C133.122 71.2871 131.821 72.18 130.531 73.0949L130.526 73.0894Z" fill="#FFF9C7"/>
<path d="M75.4539 62.689C79.0529 64.3645 82.7347 65.8582 86.4495 67.2691C90.1533 68.6967 93.8957 70.025 97.6767 71.232C105.233 73.6516 112.938 75.6303 120.759 76.9365C124.661 77.6365 128.602 78.116 132.554 78.4081C136.506 78.7112 140.48 78.7553 144.432 78.4908C148.383 78.2317 152.33 77.7081 156.16 76.683C159.996 75.7074 163.739 74.3185 167.25 72.4445C163.783 74.3901 160.063 75.8673 156.226 76.931C152.385 77.9947 148.422 78.5514 144.459 78.838C140.491 79.1356 136.5 79.1191 132.527 78.838C128.558 78.5734 124.595 78.127 120.677 77.4436C112.834 76.0767 105.128 74.0319 97.5719 71.5517C90.021 69.0714 82.6024 66.1613 75.4594 62.678L75.4539 62.689Z" fill="#FFF9C7"/>
<path d="M106.6 79.1302C107.989 77.8901 109.499 76.7933 111.037 75.735C112.602 74.7209 114.206 73.7564 115.859 72.8965C119.166 71.1659 122.633 69.7163 126.21 68.6306C129.793 67.5889 133.447 66.7235 137.167 66.3543C139.019 66.0842 140.888 66.0566 142.751 65.9574C144.614 65.9023 146.482 66.0456 148.339 66.0787C144.614 66.0952 140.893 66.1999 137.217 66.7511C133.53 67.1975 129.909 68.0518 126.365 69.1266C122.799 70.1628 119.37 71.6068 116.047 73.2493C112.734 74.9138 109.516 76.8153 106.6 79.1302Z" fill="#FFF9C7"/>
</g>
<defs>
<linearGradient id="paint0_linear_110_626" x1="204.403" y1="34.0287" x2="204.403" y2="14.3137" gradientUnits="userSpaceOnUse">
<stop stop-color="#CF6800"/>
<stop offset="0.4" stop-color="#E67E00"/>
<stop offset="1" stop-color="#FFA900"/>
</linearGradient>
<linearGradient id="paint1_linear_110_626" x1="183.432" y1="91.2944" x2="225.375" y2="91.2944" gradientUnits="userSpaceOnUse">
<stop stop-color="#CF6800"/>
<stop offset="0.46" stop-color="#C74A00"/>
<stop offset="1" stop-color="#FFA900"/>
</linearGradient>
<linearGradient id="paint2_linear_110_626" x1="232.022" y1="82.3159" x2="232.022" y2="2.16368e-05" gradientUnits="userSpaceOnUse">
<stop stop-color="#CF6800"/>
<stop offset="0.4" stop-color="#E67E00"/>
<stop offset="1" stop-color="#FFA900"/>
</linearGradient>
<linearGradient id="paint3_linear_110_626" x1="50.5965" y1="6.35974e-05" x2="50.5965" y2="14.3137" gradientUnits="userSpaceOnUse">
<stop stop-color="#CF6800"/>
<stop offset="0.4" stop-color="#E67E00"/>
<stop offset="1" stop-color="#FFA900"/>
</linearGradient>
<linearGradient id="paint4_linear_110_626" x1="29.6249" y1="91.2944" x2="71.5682" y2="91.2944" gradientUnits="userSpaceOnUse">
<stop stop-color="#FFA900"/>
<stop offset="0.54" stop-color="#C74A00"/>
<stop offset="1" stop-color="#CF6800"/>
</linearGradient>
<linearGradient id="paint5_linear_110_626" x1="22.9779" y1="82.3158" x2="22.9779" y2="0" gradientUnits="userSpaceOnUse">
<stop stop-color="#CF6800"/>
<stop offset="0.4" stop-color="#E67E00"/>
<stop offset="1" stop-color="#FFA900"/>
</linearGradient>
<linearGradient id="paint6_linear_110_626" x1="127.495" y1="93.2344" x2="127.495" y2="22.3386" gradientUnits="userSpaceOnUse">
<stop stop-color="#CF6800"/>
<stop offset="0.28" stop-color="#E67E00"/>
<stop offset="1" stop-color="#FFA900"/>
</linearGradient>
<linearGradient id="paint7_linear_110_626" x1="127.494" y1="86.13" x2="127.494" y2="29.4431" gradientUnits="userSpaceOnUse">
<stop stop-color="#D95C00"/>
<stop offset="0.39" stop-color="#C74E00"/>
<stop offset="1" stop-color="#FF9800"/>
</linearGradient>
<linearGradient id="paint8_linear_110_626" x1="37.9694" y1="82.0678" x2="37.9694" y2="31.6587" gradientUnits="userSpaceOnUse">
<stop stop-color="#CF6800"/>
<stop offset="0.28" stop-color="#E67E00"/>
<stop offset="1" stop-color="#FFA900"/>
</linearGradient>
<linearGradient id="paint9_linear_110_626" x1="217.014" y1="82.0678" x2="217.014" y2="31.6587" gradientUnits="userSpaceOnUse">
<stop stop-color="#CF6800"/>
<stop offset="0.28" stop-color="#E67E00"/>
<stop offset="1" stop-color="#FFA900"/>
</linearGradient>
<linearGradient id="paint10_linear_110_626" x1="127.428" y1="86.7804" x2="127.428" y2="57.7893" gradientUnits="userSpaceOnUse">
<stop stop-color="#FF9600"/>
<stop offset="0.47" stop-color="#FFA200"/>
<stop offset="1" stop-color="#B03900"/>
</linearGradient>
<linearGradient id="paint11_linear_110_626" x1="127.649" y1="58.4341" x2="127.649" y2="29.4376" gradientUnits="userSpaceOnUse">
<stop stop-color="#FF9600"/>
<stop offset="0.47" stop-color="#FFA200"/>
<stop offset="1" stop-color="#B03900"/>
</linearGradient>
<radialGradient id="paint12_radial_110_626" cx="0" cy="0" r="1" gradientUnits="userSpaceOnUse" gradientTransform="translate(129.387 46.2973) scale(70.6797 13.4048)">
<stop offset="0.02" stop-color="#FF9A00"/>
<stop offset="1"/>
</radialGradient>
</defs>
</svg>
